<?xml version="1.0" encoding="utf-8"?>
<!-- Generator: Adobe Illustrator 16.0.0, SVG Export Plug-In . SVG Version: 6.00 Build 0)  -->
<!DOCTYPE svg PUBLIC "-//W3C//DTD SVG 1.1//EN" "http://www.w3.org/Graphics/SVG/1.1/DTD/svg11.dtd">
<svg version="1.1" id="图层_1" xmlns="http://www.w3.org/2000/svg" xmlns:xlink="http://www.w3.org/1999/xlink" x="0px" y="0px"
	 width="493.763px" height="94.502px" viewBox="0 1.539 493.763 94.502" enable-background="new 0 1.539 493.763 94.502"
	 xml:space="preserve">
<title>collins-logo</title>
<g>
	<path fill="#FFFBC4" d="M32.368,94.336V54.96L0,1.539h21.325l21.453,36.115l21.58-36.115H85.43L52.933,54.96v39.376H32.368
		L32.368,94.336z"/>
	<path fill="#FFFBC4" d="M94.31,58.849V1.539h20.691v56.807c0,13.419,5.205,20.941,17.517,20.941
		c12.186,0,17.265-7.396,17.265-20.941V1.539h20.31V58.72c0,22.824-11.678,37.12-37.829,37.12
		C106.115,95.841,94.31,81.544,94.31,58.849z"/>
	<path fill="#FFFBC4" d="M187.856,94.336V1.539h63.977v17.054h-43.286v19.939h31.354v16.177h-31.354v23.075h45.571v16.552H187.856
		L187.856,94.336z"/>
	<path fill="#FFFBC4" d="M316.563,94.336L291.557,1.539h20.817l9.902,42.259c1.778,6.773,3.3,12.416,4.568,20.317h0.255
		c1.144-7.65,2.666-13.544,4.316-20.191l9.52-42.385h19.042l10.155,42.635c1.777,7.399,3.174,11.664,4.442,19.941h0.254
		c1.27-8.403,2.411-12.165,4.189-19.688l9.52-42.888h19.042l-24.5,92.797h-17.646l-14.852-64.582h-0.254l-15.867,64.582H316.563z"/>
	<path fill="#FFFBC4" d="M417.978,58.849V1.539h20.692v56.807c0,13.419,5.206,20.941,17.518,20.941
		c12.186,0,17.265-7.396,17.265-20.941V1.539h20.311V58.72c0,22.824-11.679,37.12-37.83,37.12
		C429.784,95.841,417.978,81.544,417.978,58.849z"/>
</g>
</svg>
