<?xml version="1.0" encoding="utf-8"?>
<!-- Generator: Adobe Illustrator 16.0.0, SVG Export Plug-In . SVG Version: 6.00 Build 0)  -->
<!DOCTYPE svg PUBLIC "-//W3C//DTD SVG 1.1//EN" "http://www.w3.org/Graphics/SVG/1.1/DTD/svg11.dtd">
<svg version="1.1" id="图层_2" xmlns="http://www.w3.org/2000/svg" xmlns:xlink="http://www.w3.org/1999/xlink" x="0px" y="0px"
	 width="32.005px" height="32px" viewBox="-5.69 0 32.005 32" enable-background="new -5.69 0 32.005 32" xml:space="preserve">
<path fill-rule="evenodd" clip-rule="evenodd" fill="#F9BF45" d="M-5.69,16.018C-5.706,7.172,1.421,0.025,10.283,0
	C19.1-0.024,26.327,7.094,26.315,15.973C26.303,24.846,19.313,31.976,10.327,32C1.146,32.024-5.69,24.576-5.69,16.018z
	 M0.586,15.772c2.567,2.567,5.197,5.197,7.848,7.848c3.894-4.313,7.827-8.669,11.777-13.044c-0.884-0.791-1.707-1.528-2.547-2.28
	c-3.155,3.481-6.28,6.932-9.491,10.473c-1.787-1.821-3.536-3.602-5.25-5.349C2.081,14.268,1.303,15.051,0.586,15.772z"/>
</svg>
