<?xml version="1.0" encoding="utf-8"?>
<!-- Generator: Adobe Illustrator 16.0.0, SVG Export Plug-In . SVG Version: 6.00 Build 0)  -->
<!DOCTYPE svg PUBLIC "-//W3C//DTD SVG 1.1//EN" "http://www.w3.org/Graphics/SVG/1.1/DTD/svg11.dtd">
<svg version="1.1" id="图层_1" xmlns="http://www.w3.org/2000/svg" xmlns:xlink="http://www.w3.org/1999/xlink" x="0px" y="0px"
	 width="1133.859px" height="1133.859px" viewBox="0 0 1133.859 1133.859" enable-background="new 0 0 1133.859 1133.859"
	 xml:space="preserve">
<title>Asset 2</title>
<g>
	<path fill-rule="evenodd" clip-rule="evenodd" d="M411.692,726.672c-13.068-16.83-27.236-31.775-37.554-49.021
		c-24.974-41.744-31.879-86.956-18.819-134.249c2.93-10.601,1.46-16.608-9.479-19.663c-3.838-1.07-7.387-3.358-10.896-5.388
		c-17.548-10.15-31.645-14.249-48.629,5.47c-18.635,21.638-52.474,20.602-76.622,3.813c-24.583-17.09-34.119-49.172-22.978-77.318
		c10.806-27.298,38.612-42.492,70.878-38.728c26.191,3.055,50.947,26.865,52.639,54.951c0.93,15.422,6.237,22.647,20.21,27.172
		c11.97,3.876,23.103,10.334,30.689,13.843c23.741-23.544,46.032-45.138,67.465-67.556c2.641-2.759,2.763-11.109,0.577-14.829
		c-37.068-63.124-74.436-126.077-112.65-188.511c-3.13-5.115-13.201-9.374-19.433-8.657c-46.031,5.267-88.41-28-92.85-74.205
		c-4.534-47.197,30.19-89.119,75.589-91.265c50.377-2.376,88.193,32.86,88.948,81.713c0.397,25.683-8.16,46.993-27.896,62.875
		c-9.331,7.508-9.878,13.608-4.051,23.244c36.963,61.152,73.346,122.66,110.725,183.556c2.756,4.494,12.943,8.579,17.774,7.007
		c51.988-16.885,101.845-14.038,149.639,13.349c8.576,4.913,13.584,1.974,18.646-5.5c32.257-47.63,64.444-95.314,97.518-142.371
		c8.091-11.515,4.109-17.83-3.639-26.729c-24.741-28.409-25.697-69.847-3.425-99.938c23.15-31.28,63.085-42.294,97.89-26.998
		c34.646,15.221,55.122,51.981,48.817,87.642c-8.361,47.296-50.21,76.582-97.034,67.018c-11.77-2.4-18.837-0.33-25.894,10.188
		c-33.009,49.215-66.984,97.786-100.54,146.636c-1.601,2.333-2.511,5.135-1.571,3.162c17.055,28.443,34.313,53.201,47.101,80.087
		c7.465,15.694,9.454,34.665,10.741,52.393c0.9,12.388,5.473,16.189,16.512,16.926c14.489,0.962,29.078,1.861,43.333,4.419
		c12.136,2.179,17.435-0.855,20.838-13.394c13.818-50.903,57.082-83.922,105.679-82.19c50.705,1.811,93.18,37.02,104.865,86.93
		c12.968,55.39-24.917,113.222-83.7,127.774c-53.521,13.246-113.758-22.871-126.437-77.539c-3.611-15.572-9.972-21.25-25.458-21.378
		c-15.024-0.127-30.01-4.027-45.043-4.276c-4.817-0.079-13.125,5.438-14.088,9.697c-10.289,45.443-35.912,80.154-72.88,107.088
		c-7.809,5.689-7.313,10.393-2.283,17.178c38.767,52.309,77.475,104.656,115.999,157.143c6.249,8.512,12.786,6.758,21.334,3.904
		c50.337-16.797,99.371,12.816,108.583,65.031c7.923,44.92-26.816,88.604-74.633,93.852c-43.235,4.746-85.141-32.254-87.301-76.199
		c-0.983-20.016,2.742-38.512,15.01-54.199c6.406-8.199,5.354-13.873-0.226-21.342c-39.292-52.623-78.124-105.592-117.87-157.861
		c-3.373-4.438-13.485-7.959-18.546-6.244c-50.232,17.033-98.211,12.654-145.253-11.203c-4.371-2.217-14.447-0.445-17.527,3.172
		c-34.664,40.717-68.806,81.893-102.014,123.797c-3.378,4.262-2.167,15.391,0.976,21.092
		c35.316,64.104,0.631,138.063-71.467,151.117c-51.6,9.342-105.394-30.176-114.256-83.938
		c-8.652-52.494,29.937-106.295,81.77-113.734c24.255-3.482,47.653-1.041,68.935,12.213c7.116,4.43,12.633,6.621,19.262-1.602
		c33.21-41.197,66.927-81.982,100.385-122.982C409.851,730.944,410.875,728.159,411.692,726.672z"/>
</g>
</svg>
