<?xml version="1.0" encoding="utf-8"?>
<!-- Generator: Adobe Illustrator 16.0.0, SVG Export Plug-In . SVG Version: 6.00 Build 0)  -->
<!DOCTYPE svg PUBLIC "-//W3C//DTD SVG 1.1//EN" "http://www.w3.org/Graphics/SVG/1.1/DTD/svg11.dtd">
<svg version="1.1" id="图层_1" xmlns="http://www.w3.org/2000/svg" xmlns:xlink="http://www.w3.org/1999/xlink" x="0px" y="0px"
	 width="33.834px" height="33.834px" viewBox="0 0 33.834 33.834" enable-background="new 0 0 33.834 33.834" xml:space="preserve">
<title>first</title>
<desc>Created with Sketch.</desc>
<g>
	<path fill="#262C30" d="M18.862,15.667c1.668-1.753,4.031-1.055,4.479,1.288c0.738-0.774,1.604-1.137,2.639-0.841
		c1.056,0.299,1.576,1.07,1.711,2.07c0.496-0.274,0.953-0.651,1.477-0.792c1.516-0.403,2.928,0.67,2.951,2.314
		c0.037,2.583,0.129,5.188-0.137,7.747c-0.31,2.984-2.187,4.97-4.926,6.084c-0.76,0.309-1.613,0.493-2.43,0.518
		c-1.85,0.055-3.713,0.094-5.548-0.087c-2.29-0.224-4.127-1.452-5.595-3.186c-2.026-2.39-4.02-4.81-5.99-7.248
		c-1.125-1.39-0.52-3.284,1.183-3.828c0.951-0.304,1.768,0.006,2.461,0.663c0.694,0.658,1.35,1.359,2.046,2.015
		c0.189,0.179,0.467,0.259,0.705,0.386c0.061-0.242,0.174-0.482,0.176-0.724c0.011-4.603,0.006-9.205,0.009-13.806
		c0.001-0.284-0.006-0.575,0.047-0.852c0.25-1.29,1.283-2.068,2.599-1.98c1.204,0.081,2.109,1.027,2.126,2.332
		c0.033,2.361,0.014,4.723,0.018,7.086C18.862,15.069,18.862,15.312,18.862,15.667z"/>
	<path fill="#D0CEF5" d="M6.457-0.267c0.123,0,0.245,0,0.367,0C7.753-0.264,7.94-0.126,7.888,0.78
		C7.85,1.428,8.033,1.704,8.687,1.923c1.32,0.443,2.047,1.483,2.294,2.845c0.1,0.552-0.147,0.847-0.726,0.873
		C9.87,5.659,9.482,5.635,9.096,5.647C8.642,5.663,8.314,5.523,8.143,5.061c-0.064-0.174-0.23-0.408-0.385-0.439
		c-0.86-0.167-1.747-0.289-2.562,0.127c-0.523,0.267-0.7,0.788-0.546,1.364C4.802,6.68,5.19,7.017,5.784,7.058
		C6.333,7.094,6.883,7.071,7.43,7.115c1.958,0.155,3.473,1.626,3.77,3.638c0.268,1.831-0.778,3.639-2.579,4.307
		c-0.528,0.196-0.716,0.418-0.692,0.985c0.049,1.184-0.092,1.293-1.266,1.293c-0.061,0-0.122,0-0.183,0
		c-1.452,0-1.469,0-1.463-1.429c0.002-0.404-0.136-0.542-0.513-0.655c-1.429-0.432-2.298-1.405-2.583-2.877
		c-0.13-0.669,0.099-0.938,0.798-0.948c0.305-0.005,0.612,0.018,0.916-0.005c0.557-0.042,1.006,0.053,1.196,0.679
		c0.046,0.149,0.25,0.354,0.385,0.356c0.785,0.009,1.586,0.05,2.349-0.093c0.529-0.098,0.797-0.628,0.75-1.191
		c-0.047-0.577-0.368-1.006-0.95-1.128c-0.392-0.083-0.806-0.078-1.21-0.079c-2.213-0.011-4.032-1.407-4.41-3.394
		C1.354,4.52,2.513,2.626,4.638,1.792c0.163-0.064,0.25-0.325,0.365-0.498c0.019-0.029,0.003-0.081,0.003-0.121
		C5.022-0.267,5.022-0.267,6.457-0.267z"/>
</g>
</svg>
