<?xml version="1.0" encoding="utf-8"?>
<!-- Generator: Adobe Illustrator 16.0.0, SVG Export Plug-In . SVG Version: 6.00 Build 0)  -->
<!DOCTYPE svg PUBLIC "-//W3C//DTD SVG 1.1//EN" "http://www.w3.org/Graphics/SVG/1.1/DTD/svg11.dtd">
<svg version="1.1" id="图层_1" xmlns="http://www.w3.org/2000/svg" xmlns:xlink="http://www.w3.org/1999/xlink" x="0px" y="0px"
	 width="792px" height="1224px" viewBox="0 0 792 1224" enable-background="new 0 0 792 1224" xml:space="preserve">
<title>Asset 4</title>
<g>
	<path fill-rule="evenodd" clip-rule="evenodd" d="M704.613,613.256c0,125.91,0.016,251.823-0.012,377.734
		c-0.008,31.816-15.592,47.53-47.312,47.537c-174.455,0.043-348.912,0.049-523.367-0.007c-30.83-0.012-46.453-15.546-46.466-46.744
		c-0.095-253.339-0.108-506.678,0.003-760.018c0.012-32.144,14.469-46.273,46.405-46.282c174.962-0.045,349.923-0.051,524.885-0.006
		c30.324,0.009,45.843,15.478,45.851,45.5C704.63,358.4,704.615,485.827,704.613,613.256z M398.406,380.182
		c65.71,0,131.423-0.247,197.131,0.219c12.231,0.089,17.277-3.272,16.715-16.183c-0.878-20.178-0.726-40.443-0.046-60.64
		c0.389-11.5-4.104-14.538-15.123-14.511c-133.444,0.308-266.888,0.29-400.333,0.032c-10.253-0.021-14.469,2.561-14.023,13.604
		c0.815,20.185,1.05,40.474-0.053,60.631c-0.736,13.513,3.813,17.244,17.085,17.126C265.97,379.859,332.189,380.185,398.406,380.182
		z M538.67,890.71c0,41.261,0,41.261,39.497,41.261c41.112,0,41.112,0,41.112-41.59c0-39.705,0-39.705-39.9-39.705
		C538.67,850.676,538.67,850.676,538.67,890.71z M255.765,891.817c0-0.506,0-1.01,0-1.514c0-39.628,0-39.628-39.822-39.628
		c-40.726,0-40.726,0-40.729,41.772c0,39.522,0,39.522,39.812,39.522C255.765,931.971,255.765,931.971,255.765,891.817z
		 M578.319,819.247c0.504,0,1.006,0,1.51,0c39.45,0,39.45,0,39.45-39.489c0-40.153,0-40.153-40.144-40.153
		c-40.466,0-40.466,0-40.466,40.942C538.67,819.247,538.67,819.247,578.319,819.247z M493.446,891.04c0-1.004,0-2.011,0-3.021
		c0-37.343,0-37.343-37.055-37.343c-41.861,0-41.861,0-41.861,41.867c0,39.428,0,39.428,38.037,39.428
		C493.444,931.971,493.444,931.971,493.446,891.04z M378.761,891.567c0-1.009,0-2.017,0-3.024c0-37.867,0-37.867-38.152-37.867
		c-40.752,0-40.752,0-40.752,41.966c0,39.329,0,39.329,38.917,39.329C378.761,931.971,378.761,931.971,378.761,891.567z
		 M578.492,587.554c1.01,0,2.018,0,3.022,0c37.765,0,37.765,0,37.765-38.126c0-40.782,0-40.782-41.801-40.782
		c-38.809,0-38.809,0-38.809,38.858C538.67,587.554,538.67,587.554,578.492,587.554z M578.747,626.244
		c-9.604,0-19.223,0.284-28.812-0.082c-8.62-0.332-11.545,3.512-11.387,11.838c0.359,18.697-0.475,37.44,0.587,56.084
		c0.22,3.841,6.209,9.912,10.185,10.483c10.401,1.503,21.16,0.549,31.775,0.552c38.184,0.006,38.184,0,38.184-38.397
		C619.279,626.242,619.279,626.242,578.747,626.244z M215.126,819.247c1.008,0,2.016,0,3.023,0c37.615,0,37.615,0,37.615-38.101
		c0-41.542,0-41.542-41.676-41.542c-38.872,0-38.872,0-38.875,39.555C175.214,819.247,175.214,819.247,215.126,819.247z
		 M215.753,705.09c9.062,0,18.143-0.359,27.182,0.098c9.902,0.501,13.404-3.808,12.954-13.466
		c-0.563-12.058-0.006-24.158-0.147-36.239c-0.39-33.271,4.395-28.864-28.467-29.231c-4.529-0.055-9.063-0.009-13.591-0.009
		c-38.47,0-38.47,0-38.47,38.905C175.217,705.119,175.214,705.119,215.753,705.09z M214.947,587.554c1.51,0,3.021,0,4.533,0
		c36.285,0,36.285,0,36.285-36.318c0-42.589,0-42.589-42.787-42.589c-37.764,0-37.764,0-37.764,38.452
		C175.217,587.554,175.217,587.554,214.947,587.554z M377.968,739.728c-23.723,0-46.797-0.347-69.832,0.445
		c-2.841,0.1-7.696,6.211-7.83,9.68c-0.754,19.628-0.834,39.32,0.087,58.933c0.171,3.637,5.837,9.906,9.164,10.039
		c22.485,0.893,45.022,0.463,68.411,0.463C377.968,792.668,377.968,767.675,377.968,739.728z M415.676,740.597
		c0,26.746,0,52.13,0,77.854c26.093,0,51.015,0,76.388,0c0-26.598,0-52.35,0-78.827c-23.518,0-45.657-0.028-67.796,0.037
		C421.806,739.667,419.346,740.183,415.676,740.597z M493.337,587.609c0-24.497,0.349-47.536-0.44-70.533
		c-0.099-2.887-6.102-7.825-9.53-7.967c-19.098-0.792-38.243-0.237-57.37-0.478c-8.436-0.107-11.645,3.726-11.551,11.885
		c0.224,19.126-0.382,38.28,0.506,57.367c0.158,3.376,5.814,9.167,9.104,9.292C446.117,588.011,468.229,587.609,493.337,587.609z
		 M378.761,549.721c0-41.075,0-41.075-41.025-41.075c-37.879,0-37.879,0-37.879,38.718c0,40.189,0,40.189,40.402,40.189
		C378.761,587.554,378.761,587.554,378.761,549.721z M493.415,626.27c-25.061,0-47.23-0.363-69.364,0.39
		c-3.277,0.11-9.007,5.36-9.134,8.415c-0.828,20.188-0.833,40.441-0.039,60.632c0.127,3.219,5.531,8.794,8.665,8.916
		c20.694,0.787,41.443,0.64,62.151,0.05c2.636-0.074,7.322-4.431,7.383-6.892C493.647,674.633,493.415,651.463,493.415,626.27z
		 M340.105,705.119c38.656,0,38.656,0,38.656-38.374c0-40.503,0-40.503-40.939-40.503c-37.965,0-37.965,0-37.965,38.241
		C299.857,705.119,299.857,705.119,340.105,705.119z"/>
	<path fill-rule="evenodd" clip-rule="evenodd" fill="#EEE415" d="M538.67,890.71c0-40.034,0-40.034,40.709-40.034
		c39.9,0,39.9,0,39.9,39.705c0,41.59,0,41.59-41.112,41.59C538.67,931.971,538.67,931.971,538.67,890.71z"/>
	<path fill-rule="evenodd" clip-rule="evenodd" fill="#EEE415" d="M255.765,891.817c0,40.153,0,40.153-40.739,40.153
		c-39.812,0-39.812,0-39.812-39.522c0.003-41.772,0.003-41.772,40.729-41.772c39.822,0,39.822,0,39.822,39.628
		C255.765,890.808,255.765,891.312,255.765,891.817z"/>
	<path fill-rule="evenodd" clip-rule="evenodd" fill="#EEE415" d="M578.319,819.247c-39.649,0-39.649,0-39.649-38.7
		c0-40.942,0-40.942,40.466-40.942c40.144,0,40.144,0,40.144,40.153c0,39.489,0,39.489-39.45,39.489
		C579.325,819.247,578.823,819.247,578.319,819.247z"/>
	<path fill-rule="evenodd" clip-rule="evenodd" fill="#EEE415" d="M493.446,891.04c-0.002,40.931-0.002,40.931-40.879,40.931
		c-38.037,0-38.037,0-38.037-39.428c0-41.867,0-41.867,41.861-41.867c37.055,0,37.055,0,37.055,37.343
		C493.446,889.029,493.446,890.036,493.446,891.04z"/>
	<path fill-rule="evenodd" clip-rule="evenodd" fill="#EEE415" d="M378.761,891.567c0,40.403,0,40.403-39.987,40.403
		c-38.917,0-38.917,0-38.917-39.329c0-41.966,0-41.966,40.752-41.966c38.152,0,38.152,0,38.152,37.867
		C378.761,889.551,378.761,890.559,378.761,891.567z"/>
	<path fill-rule="evenodd" clip-rule="evenodd" fill="#EEE415" d="M578.492,587.554c-39.822,0-39.822,0-39.822-40.05
		c0-38.858,0-38.858,38.809-38.858c41.801,0,41.801,0,41.801,40.782c0,38.126,0,38.126-37.765,38.126
		C580.51,587.554,579.502,587.554,578.492,587.554z"/>
	<path fill-rule="evenodd" clip-rule="evenodd" fill="#EEE415" d="M578.747,626.244c40.532-0.002,40.532-0.002,40.532,40.478
		c0,38.397,0,38.403-38.184,38.397c-10.615-0.003-21.374,0.951-31.775-0.552c-3.976-0.571-9.965-6.643-10.185-10.483
		c-1.062-18.644-0.228-37.387-0.587-56.084c-0.158-8.326,2.767-12.17,11.387-11.838
		C559.524,626.528,569.143,626.244,578.747,626.244z"/>
	<path fill-rule="evenodd" clip-rule="evenodd" fill="#EEE415" d="M215.126,819.247c-39.912,0-39.912,0-39.912-40.088
		c0.003-39.555,0.003-39.555,38.875-39.555c41.676,0,41.676,0,41.676,41.542c0,38.101,0,38.101-37.615,38.101
		C217.142,819.247,216.134,819.247,215.126,819.247z"/>
	<path fill-rule="evenodd" clip-rule="evenodd" fill="#EEE415" d="M215.753,705.104c-40.539,0.015-40.536,0.015-40.539-39.957
		c0-38.905,0-38.905,38.47-38.905c4.528,0,9.062-0.046,13.591,0.009c32.861,0.367,28.077-4.039,28.467,29.231
		c0.142,12.081-0.415,24.182,0.147,36.239c0.45,9.658-3.052,13.967-12.954,13.466C233.896,704.73,224.815,705.09,215.753,705.104z"
		/>
	<path fill-rule="evenodd" clip-rule="evenodd" fill="#EEE415" d="M214.947,587.554c-39.729,0-39.729,0-39.732-40.456
		c0-38.452,0-38.452,37.764-38.452c42.787,0,42.787,0,42.787,42.589c0,36.318,0,36.318-36.285,36.318
		C217.968,587.554,216.457,587.554,214.947,587.554z"/>
	<path fill-rule="evenodd" clip-rule="evenodd" fill="#EEE415" d="M377.968,739.728c0,27.947,0,52.94,0,79.56
		c-23.389,0-45.926,0.43-68.411-0.463c-3.327-0.133-8.993-6.402-9.164-10.039c-0.921-19.612-0.841-39.305-0.087-58.933
		c0.134-3.469,4.989-9.58,7.83-9.68C331.171,739.381,354.246,739.728,377.968,739.728z"/>
	<path fill-rule="evenodd" clip-rule="evenodd" fill="#EEE415" d="M415.676,740.597c3.67-0.414,6.13-0.93,8.592-0.936
		c22.139-0.065,44.278-0.037,67.796-0.037c0,26.478,0,52.229,0,78.827c-25.373,0-50.295,0-76.388,0
		C415.676,792.727,415.676,767.343,415.676,740.597z"/>
	<path fill-rule="evenodd" clip-rule="evenodd" fill="#EEE415" d="M493.337,587.609c-25.108,0-47.22,0.401-69.281-0.433
		c-3.29-0.125-8.946-5.916-9.104-9.292c-0.888-19.087-0.282-38.241-0.506-57.367c-0.094-8.159,3.115-11.992,11.551-11.885
		c19.127,0.24,38.272-0.314,57.37,0.478c3.429,0.142,9.432,5.08,9.53,7.967C493.686,540.074,493.337,563.113,493.337,587.609z"/>
	<path fill-rule="evenodd" clip-rule="evenodd" fill="#EEE415" d="M378.761,549.721c0,37.833,0,37.833-38.502,37.833
		c-40.402,0-40.402,0-40.402-40.189c0-38.718,0-38.718,37.879-38.718C378.761,508.646,378.761,508.646,378.761,549.721z"/>
	<path fill-rule="evenodd" clip-rule="evenodd" fill="#EEE415" d="M493.415,626.27c0,25.193,0.232,48.363-0.338,71.511
		c-0.061,2.461-4.747,6.817-7.383,6.892c-20.708,0.59-41.457,0.737-62.151-0.05c-3.134-0.122-8.538-5.697-8.665-8.916
		c-0.794-20.19-0.789-40.443,0.039-60.632c0.127-3.055,5.856-8.305,9.134-8.415C446.185,625.906,468.354,626.27,493.415,626.27z"/>
	<path fill-rule="evenodd" clip-rule="evenodd" fill="#EEE415" d="M340.105,705.119c-40.248,0-40.248,0-40.248-40.636
		c0-38.241,0-38.241,37.965-38.241c40.939,0,40.939,0,40.939,40.503C378.761,705.119,378.761,705.119,340.105,705.119z"/>
</g>
</svg>
