<?xml version="1.0" encoding="utf-8"?>
<!-- Generator: Adobe Illustrator 16.0.0, SVG Export Plug-In . SVG Version: 6.00 Build 0)  -->
<!DOCTYPE svg PUBLIC "-//W3C//DTD SVG 1.1//EN" "http://www.w3.org/Graphics/SVG/1.1/DTD/svg11.dtd">
<svg version="1.1" id="图层_1" xmlns="http://www.w3.org/2000/svg" xmlns:xlink="http://www.w3.org/1999/xlink" x="0px" y="0px"
	 width="792px" height="1224px" viewBox="0 0 792 1224" enable-background="new 0 0 792 1224" xml:space="preserve">
<title>Asset 2</title>
<g>
	<path fill-rule="evenodd" clip-rule="evenodd" d="M146.051,287.917c0-13.226-0.384-24.006,0.081-34.752
		c0.885-20.364,11.855-31.089,32.101-31.6c11.771-0.298,23.563-0.309,35.333,0c21.181,0.561,31.698,11.214,32.361,32.773
		c0.33,10.697,0.058,21.417,0.058,32.834c77.501,0,153.235,0,231.335,0c0-10.642-0.164-21.215,0.035-31.782
		c0.439-23.435,10.563-33.561,33.83-33.862c11.777-0.151,23.573-0.386,35.332,0.097c18.726,0.765,29.446,11.57,30.169,30.318
		c0.433,11.216,0.08,22.459,0.08,35.973c19.839,0,38.467-0.126,57.091,0.028c38.124,0.317,68.018,15.565,83.917,51.091
		c5.733,12.813,7.98,28.16,8.069,42.372c0.654,103.646,0.492,207.3,0.125,310.951c-0.034,9.906,3.243,15.729,10.614,22.356
		c48.057,43.229,67.443,97.198,52.629,160.44c-15.622,66.688-58.947,108.545-125.557,123.392
		c-68.744,15.322-133.347-12.849-171.955-72.323c-5.321-8.194-11.196-10.688-20.602-10.665
		c-125.794,0.28-251.588,0.095-377.382,0.24c-38.341,0.044-69.835-12.876-86.703-48.946c-6.125-13.099-8.557-29.032-8.617-43.688
		c-0.607-147.466-0.558-294.932-0.277-442.4c0.109-57.801,34.569-91.958,92.464-92.805
		C108.427,287.696,126.278,287.917,146.051,287.917z M666.941,678.004c0-65.22,0-130.308,0-195.377c-204.549,0-407.899,0-611.529,0
		c-0.277,4.186-0.68,7.455-0.68,10.727c-0.034,109.798-0.118,219.597,0.035,329.399c0.038,26.198,9.585,35.349,36.232,35.365
		c120.639,0.08,241.276,0.045,361.914,0.009c4.113-0.002,8.229-0.434,12.347-0.665C455.89,729.684,571.117,654.733,666.941,678.004z
		 M614.142,848.028c-8.986-9.079-17.153-18.116-26.172-26.21c-8.524-7.647-18.398-9.787-27.99-1.592
		c-9.742,8.321-11.007,20.052-2.504,29.994c12.529,14.652,25.516,28.96,38.998,42.737c10.102,10.323,22.906,11.42,32.701,1.444
		c23.71-24.16,46.585-49.159,69.235-74.323c7.692-8.547,6.496-18.578-1.298-26.807c-8.206-8.666-18.074-9.471-28.052-2.92
		c-3.472,2.28-6.38,5.522-9.257,8.595C644.719,815.058,629.728,831.258,614.142,848.028z"/>
	<path fill-rule="evenodd" clip-rule="evenodd" fill="#EEE415" d="M614.142,848.028c15.586-16.771,30.577-32.971,45.662-49.081
		c2.877-3.072,5.785-6.314,9.257-8.595c9.978-6.551,19.846-5.746,28.052,2.92c7.794,8.229,8.99,18.26,1.298,26.807
		c-22.65,25.164-45.525,50.163-69.235,74.323c-9.795,9.976-22.6,8.879-32.701-1.444c-13.482-13.777-26.469-28.085-38.998-42.737
		c-8.503-9.942-7.238-21.673,2.504-29.994c9.592-8.195,19.466-6.056,27.99,1.592C596.988,829.912,605.155,838.949,614.142,848.028z"
		/>
	<path fill-rule="evenodd" clip-rule="evenodd" d="M541.221,634.694c-10.825-0.008-21.662,0.312-32.475-0.082
		c-16.264-0.594-25.827-8.786-27.083-24.813c-1.1-14.031-1.1-28.27-0.088-42.312c1.188-16.468,10.857-25.229,27.955-25.718
		c21.163-0.602,42.372-0.655,63.531,0.017c17.679,0.56,27.571,11.004,28.268,28.714c0.461,11.745,0.428,23.539,0.017,35.292
		c-0.668,19.065-10.222,28.435-29.063,28.867C561.935,634.896,551.575,634.703,541.221,634.694z"/>
	<path fill-rule="evenodd" clip-rule="evenodd" d="M182.444,634.636c-11.292,0-22.608,0.47-33.87-0.111
		c-15.433-0.797-24.463-9.399-25.403-24.836c-0.826-13.594-0.782-27.297-0.166-40.912c0.766-16.895,9.632-26.294,26.589-26.923
		c22.083-0.815,44.245-0.827,66.324,0.063c16.277,0.655,25.88,11.128,26.562,27.3c0.535,12.682,0.516,25.421,0.001,38.103
		c-0.708,17.458-10.226,26.744-27.576,27.304c-10.81,0.35-21.641,0.065-32.462,0.065
		C182.444,634.674,182.444,634.656,182.444,634.636z"/>
	<path fill-rule="evenodd" clip-rule="evenodd" d="M361.044,634.703c-10.352-0.007-20.71,0.25-31.053-0.063
		c-17.531-0.532-27.215-9.76-27.866-26.954c-0.48-12.688-0.452-25.417-0.014-38.107c0.588-17.059,10.101-27.163,27.394-27.748
		c21.62-0.731,43.304-0.773,64.921,0c17.363,0.618,26.465,10.548,27.135,27.995c0.451,11.745,0.34,23.528,0.06,35.286
		c-0.485,20.266-9.446,29.181-29.522,29.565C381.75,634.871,371.396,634.709,361.044,634.703z"/>
	<path fill-rule="evenodd" clip-rule="evenodd" d="M183.33,698.791c10.349,0.004,20.708-0.295,31.045,0.069
		c18.035,0.636,27.564,10.197,28.154,28.346c0.381,11.749,0.321,23.525,0.019,35.276c-0.473,18.256-9.501,28.411-27.537,29.076
		c-21.609,0.8-43.292,0.811-64.901,0.029c-17.679-0.64-26.455-10.094-27.168-27.804c-0.511-12.68-0.548-25.419,0.037-38.093
		c0.813-17.59,10.025-26.273,27.896-26.84C161.683,698.511,172.512,698.789,183.33,698.791z"/>
	<path fill-rule="evenodd" clip-rule="evenodd" d="M362.771,698.813c10.35-0.022,20.708-0.319,31.044,0.045
		c17.556,0.621,26.996,9.728,27.714,27.143c0.522,12.68,0.502,25.413,0.014,38.091c-0.655,17.065-9.094,26.673-26.006,27.372
		c-22.534,0.935-45.175,0.956-67.703-0.091c-16.573-0.771-25.226-11.01-25.734-27.787c-0.383-12.69-0.482-25.414,0.035-38.092
		c0.678-16.666,9.986-25.847,26.776-26.566C340.178,698.443,351.484,698.835,362.771,698.813z"/>
</g>
</svg>
