<?xml version="1.0" encoding="utf-8"?>
<!-- Generator: Adobe Illustrator 16.0.0, SVG Export Plug-In . SVG Version: 6.00 Build 0)  -->
<!DOCTYPE svg PUBLIC "-//W3C//DTD SVG 1.1//EN" "http://www.w3.org/Graphics/SVG/1.1/DTD/svg11.dtd">
<svg version="1.1" id="图层_1" xmlns="http://www.w3.org/2000/svg" xmlns:xlink="http://www.w3.org/1999/xlink" x="0px" y="0px"
	 width="33.834px" height="33.834px" viewBox="0 0 33.834 33.834" enable-background="new 0 0 33.834 33.834" xml:space="preserve">
<title>first</title>
<desc>Created with Sketch.</desc>
<g>
	<path d="M22.594,26.733c0.449,1.523,0.87,2.951,1.29,4.377c0.091,0.305,0.167,0.613,0.272,0.912
		c0.151,0.428,0.102,0.801-0.368,0.932c-0.478,0.131-0.698-0.189-0.798-0.615c-0.03-0.133-0.081-0.26-0.119-0.391
		c-0.464-1.563-0.936-3.123-1.384-4.691c-0.109-0.389-0.292-0.537-0.71-0.533c-2.496,0.02-4.993,0.02-7.488,0
		c-0.428-0.002-0.584,0.16-0.696,0.551c-0.457,1.611-0.95,3.215-1.43,4.822c-0.033,0.107-0.067,0.215-0.096,0.324
		c-0.108,0.414-0.362,0.652-0.793,0.529c-0.439-0.129-0.49-0.467-0.368-0.873c0.451-1.496,0.893-2.996,1.336-4.494
		c0.07-0.236,0.132-0.475,0.224-0.803c-0.269-0.02-0.481-0.045-0.693-0.045c-1.067-0.004-2.133,0-3.2-0.004
		c-0.951-0.004-1.068-0.121-1.069-1.049c-0.002-2.156,0-4.313,0-6.469c0-0.215,0-0.432,0-0.646
		c-0.053-0.025-0.107-0.053-0.161-0.076c-0.597,0.605-1.188,1.217-1.792,1.818c-0.64,0.637-0.8,0.633-1.442-0.006
		c-0.579-0.576-1.156-1.154-1.732-1.734C0.745,17.937,0.745,17.718,1.4,17.06c1.554-1.559,3.126-3.1,4.655-4.685
		c0.247-0.257,0.426-0.696,0.43-1.054c0.033-3.132,0.018-6.264,0.02-9.396c0-0.988,0.087-1.075,1.102-1.075
		c6.287-0.001,12.572-0.001,18.859,0c1.029,0,1.15,0.125,1.15,1.195c0.001,6.059,0.007,12.119-0.011,18.179
		c-0.001,0.52,0.154,0.883,0.523,1.242c1.463,1.426,2.899,2.877,4.341,4.326c0.611,0.615,0.607,0.791,0.011,1.395
		c-0.608,0.609-1.217,1.221-1.83,1.828c-0.564,0.561-0.758,0.557-1.342-0.021c-0.579-0.576-1.181-1.133-1.725-1.742
		c-0.368-0.41-0.772-0.547-1.313-0.531C25.074,26.757,23.876,26.733,22.594,26.733z M25.727,25.458
		c-0.225-0.246-0.354-0.396-0.492-0.535c-1.604-1.607-3.214-3.203-4.808-4.82c-0.266-0.27-0.502-0.586-0.687-0.916
		c-0.757-1.367-1.487-2.75-2.233-4.124c-0.363-0.672-1.39-1.15-1.874-0.886c-0.459,0.251-0.497,1.059-0.032,1.861
		c0.342,0.586,0.78,1.115,1.123,1.702c0.341,0.584,0.708,1.178,0.897,1.814c0.398,1.344-0.285,2.508-1.514,2.592
		c-1.854,0.129-3.438-0.676-4.929-1.658c-0.151-0.102-0.22-0.578-0.114-0.742c0.108-0.168,0.491-0.244,0.733-0.211
		c0.249,0.033,0.459,0.291,0.711,0.379c1.041,0.363,2.073,0.771,3.143,1.02c0.656,0.152,0.951-0.199,0.815-0.873
		c-0.101-0.494-0.344-0.977-0.603-1.418c-0.456-0.781-1.026-1.498-1.45-2.294c-0.586-1.104-0.412-2.371,0.311-3.024
		c0.687-0.619,1.78-0.568,2.911,0.114c0.775,0.468,1.534,0.975,2.353,1.353c2.256,1.043,4.216,2.46,5.835,4.348
		c0.132,0.156,0.308,0.273,0.514,0.455c0-5.912,0-11.706,0-17.5c-6.229,0-12.407,0-18.567,0c0,2.863,0,5.669,0,8.667
		c0.877-0.903,1.61-1.676,2.367-2.427c0.254-0.251,0.546-0.481,0.857-0.654c1.605-0.89,3.216-1.769,4.834-2.634
		c1.889-1.01,3.974-0.611,5.189,1.151c0.629,0.913,0.979,2.021,1.43,3.053c0.18,0.409,0.184,0.845-0.336,1.004
		c-0.542,0.167-0.674-0.266-0.831-0.664c-0.323-0.817-0.613-1.658-1.034-2.424c-0.416-0.755-1.082-1.335-1.984-1.397
		c-1.186-0.083-1.753,0.09-2.193,1.029c-0.527,1.127-1.138,2.218-1.773,3.289c-0.376,0.635-0.813,1.256-1.321,1.785
		c-1.575,1.633-3.188,3.23-4.812,4.815c-0.359,0.352-0.486,0.707-0.481,1.196c0.021,2.268,0.008,4.537,0.01,6.807
		c0.001,0.242,0.021,0.486,0.035,0.77C13.711,25.458,19.645,25.458,25.727,25.458z M11.041,9.349
		c-2.88,2.88-5.715,5.716-8.547,8.546c0.409,0.422,0.861,0.887,1.221,1.258c2.869-2.868,5.713-5.712,8.55-8.549
		C11.887,10.216,11.444,9.763,11.041,9.349z M21.482,19.312c2.862,2.861,5.697,5.697,8.508,8.508
		c0.429-0.436,0.895-0.908,1.271-1.291c-2.82-2.822-5.654-5.656-8.458-8.461C22.38,18.466,21.905,18.911,21.482,19.312z
		 M12.006,8.503c0.423,0.421,0.771,0.769,1.156,1.152c0.424-0.784,0.834-1.547,1.246-2.31c-0.03-0.03-0.06-0.06-0.09-0.089
		C13.573,7.659,12.827,8.062,12.006,8.503z M19.504,15.928c-0.034,0.03-0.068,0.061-0.103,0.092c0.409,0.75,0.819,1.502,1.18,2.165
		c0.397-0.375,0.76-0.715,1.131-1.066C20.993,16.731,20.248,16.33,19.504,15.928z"/>
	<path fill="#EEE415" d="M11.041,9.349c0.403,0.414,0.846,0.867,1.224,1.255c-2.836,2.836-5.681,5.681-8.55,8.549
		c-0.36-0.371-0.813-0.836-1.221-1.258C5.325,15.065,8.16,12.23,11.041,9.349z"/>
	<path fill="#EEE415" d="M21.482,19.312c0.423-0.4,0.897-0.846,1.32-1.244c2.804,2.805,5.638,5.639,8.458,8.461
		c-0.376,0.383-0.842,0.855-1.271,1.291C27.18,25.009,24.345,22.173,21.482,19.312z"/>
	<path fill="#EEE415" d="M12.006,8.503c0.82-0.442,1.566-0.844,2.313-1.247c0.03,0.03,0.06,0.06,0.09,0.089
		c-0.412,0.763-0.822,1.525-1.246,2.31C12.777,9.272,12.429,8.925,12.006,8.503z"/>
	<path fill="#EEE415" d="M19.504,15.928c0.744,0.401,1.489,0.803,2.208,1.19c-0.371,0.351-0.733,0.691-1.131,1.066
		c-0.36-0.662-0.771-1.415-1.18-2.165C19.436,15.989,19.47,15.958,19.504,15.928z"/>
</g>
</svg>
