<?xml version="1.0" encoding="utf-8"?>
<!-- Generator: Adobe Illustrator 16.0.0, SVG Export Plug-In . SVG Version: 6.00 Build 0)  -->
<!DOCTYPE svg PUBLIC "-//W3C//DTD SVG 1.1//EN" "http://www.w3.org/Graphics/SVG/1.1/DTD/svg11.dtd">
<svg version="1.1" id="Layer_1" xmlns="http://www.w3.org/2000/svg" xmlns:xlink="http://www.w3.org/1999/xlink" x="0px" y="0px"
	 width="774.992px" height="459px" viewBox="0 0 774.992 459" enable-background="new 0 0 774.992 459" xml:space="preserve">
<title>Artboard 1</title>
<g>
	<g>
		<path fill-rule="evenodd" clip-rule="evenodd" fill="#262C30" d="M130.13,434.164c-26.638,0-53.275-0.115-79.909,0.114
			c-4.373,0.04-5.828-1.416-6.629-5.484c-7.925-40.238,7.492-78.147,40.521-99.154c40.352-25.667,95.567-12.359,120.269,28.877
			c13.244,22.112,17.16,45.608,11.652,70.83c-0.854,3.911-2.273,4.904-5.994,4.884C183.405,434.102,156.768,434.164,130.13,434.164z
			"/>
		<path fill-rule="evenodd" clip-rule="evenodd" fill="#262C30" d="M130.049,294.471c-26.182,0.047-47.396-21.092-47.288-47.123
			c0.107-25.79,21.2-46.877,47.026-47.015c26.033-0.137,47.174,21.063,47.133,47.266
			C176.879,273.615,156.073,294.421,130.049,294.471z"/>
	</g>
	<circle opacity="0.6" fill-rule="evenodd" clip-rule="evenodd" fill="#FCF113" cx="401.148" cy="360.148" r="54.061"/>
	<circle opacity="0.85" fill-rule="evenodd" clip-rule="evenodd" fill="#FCF113" cx="545.648" cy="90.113" r="65.393"/>
	<circle opacity="0.75" fill-rule="evenodd" clip-rule="evenodd" fill="#FCF113" cx="682.482" cy="278.052" r="50.965"/>
	<g>
		<circle fill-rule="evenodd" clip-rule="evenodd" fill="#FCF113" cx="372.207" cy="185.889" r="70.055"/>
		<g>
			<path fill-rule="evenodd" clip-rule="evenodd" d="M354.761,145.127c0.679,2.221,1.254,4.037,1.788,5.865
				c0.424,1.449-0.244,2.533-1.146,3.621c-2.106,2.541-4.175,5.118-6.145,7.766c-0.44,0.594-0.409,1.537-0.596,2.32
				c0.951,0.143,1.979,0.582,2.838,0.362c1.531-0.392,2.957-1.194,4.436-1.802c3.081-1.266,5.262-0.547,6.424,2.604
				c1.007,2.727,1.494,5.645,2.197,8.48c0.205,0.826,0.279,1.693,0.571,2.484c0.2,0.542,0.673,0.984,1.023,1.471
				c0.37-0.418,0.859-0.78,1.089-1.266c0.662-1.395,1.197-2.848,1.822-4.262c1.143-2.581,2.317-5.148,3.472-7.725
				c0.719-1.604,1.943-2.684,3.564-3.248c2.716-0.945,5.462-1.8,8.195-2.691c1.064-0.348,2.178-0.59,3.178-1.069
				c0.844-0.405,1.559-1.082,2.333-1.639c-0.773-0.588-1.465-1.407-2.336-1.722c-3.105-1.124-6.273-2.074-9.417-3.094
				c-3.53-1.145-4.019-1.928-3.449-6.078c3.443,0.355,6.97,0.414,10.36,1.122c16.198,3.382,26.372,13.431,31.145,29.042
				c3.391,11.086,3.104,22.225-0.738,33.162c-2.146,6.113-6.264,10.844-11.506,14.59c-8.875,6.342-18.986,9.025-29.688,9.73
				c-6.079,0.4-12.155,0.115-18.114-1.379c-11.541-2.896-19.649-10.014-24.647-20.613c-6.438-13.656-7.286-27.834-2.019-41.965
				c3.67-9.846,10.125-17.746,19.848-22.451C350.879,145.951,352.774,145.691,354.761,145.127z M386.913,220.406
				c-0.89,0.068-1.732-0.057-2.417,0.215c-4.576,1.818-9.367,1.963-14.173,1.863c-8.432-0.176-15.597-2.809-19.934-10.674
				c-0.104-0.186-0.204-0.406-0.369-0.52c-0.763-0.521-1.549-1.012-2.326-1.514c0.049,0.895-0.148,1.896,0.188,2.666
				c1.708,3.902,4.705,6.672,8.303,8.809c6.92,4.109,14.494,4.275,22.174,3.445c2.203-0.238,4.387-0.834,6.521-1.465
				C385.959,222.912,387.051,222.264,386.913,220.406z"/>
			<path fill-rule="evenodd" clip-rule="evenodd" d="M374.406,138.877c-0.688,2.359-1.297,4.437-1.896,6.518
				c-0.117,0.407-0.221,0.822-0.29,1.24c-0.702,4.209,0.159,5.536,4.265,6.795c2.838,0.87,5.65,1.824,8.922,2.885
				c-3.269,1.732-6.128,3.072-9.353,3.232c-1.808,0.09-2.93,0.84-3.745,2.441c-1.789,3.51-3.703,6.957-5.638,10.564
				c-1.396-2.016-1.913-4.17-1.957-6.465c-0.08-4.163-0.485-4.588-4.614-4.631c-2.337-0.024-4.674-0.004-7.127-0.004
				c0.891-1.147,1.847-2.451,2.877-3.693c3.896-4.697,3.902-4.69,1.861-10.421c-1.014-2.845-2.021-5.691-3.152-8.879
				c1.158,0.454,2.033,0.771,2.885,1.141c0.535,0.233,1.068,0.501,1.547,0.833c4.495,3.116,8.905,2.598,13.278-0.264
				C372.879,139.77,373.518,139.412,374.406,138.877z"/>
		</g>
	</g>
	<g>
		<path fill-rule="evenodd" clip-rule="evenodd" d="M401.613,326.675c-0.971,5.485-4.752,9.05-9.789,9.891
			c-5.785,0.967-11.267-0.297-16.708-1.986c-1.49-0.463-1.924-1.979-0.891-3.124c3.665-4.05,7.547-7.864,12.717-9.99
			c4.755-1.957,9.216-1.718,13.228,1.887c0.412,0.372,1.285,0.401,1.918,0.337c3.783-0.386,5.887,0.237,8.551,2.676
			c1.322-0.835,2.582-1.849,4.008-2.487c2.6-1.158,5.279-2.138,7.959-3.104c0.857-0.309,1.9-0.298,2.256,0.774
			c0.168,0.506-0.039,1.275-0.348,1.749c-0.227,0.352-0.875,0.479-1.361,0.607c-8.008,2.12-14.035,6.718-17.748,14.191
			c-1.143,2.299-1.975,4.71-2.355,7.246c0.129,0.134,0.26,0.267,0.389,0.399c1.244-0.818,2.475-1.661,3.738-2.448
			c2.293-1.428,4.459-3.208,6.939-4.151c6.156-2.343,12.158-0.201,16.01,5.313c2.809,4.019,4.219,8.552,4.697,13.381
			c1.248,12.542-1.852,23.871-9.697,33.794c-2.682,3.393-6.002,6.01-10.141,7.52c-3.9,1.423-7.66,1.098-11.27-0.813
			c-1.699-0.9-3.199-0.921-4.914-0.037c-6.869,3.537-12.809,1.349-18.209-3.259c-4.366-3.724-7.284-8.514-9.509-13.744
			c-2.43-5.712-3.746-11.714-3.866-17.884c-0.126-6.487,0.903-12.814,4.543-18.417c5.082-7.82,14.038-9.221,21.694-3.418
			c1.344,1.017,2.547,2.235,3.955,3.144c2.01,1.294,2.051,0.856,2.465-1.044c1.15-5.262,3.611-9.917,7.221-13.942
			c0.865-0.964,0.84-1.692-0.395-2.085C405.094,327.139,403.373,326.993,401.613,326.675z M391.307,366.971
			c0.279,2.243,0.854,4.357,2.553,5.938c0.424,0.393,1.281,0.764,1.709,0.587c0.508-0.209,1.006-0.985,1.092-1.576
			c0.389-2.709-0.422-5.092-2.4-7c-1.23-1.186-2.318-0.836-2.77,0.815C391.381,366.138,391.365,366.564,391.307,366.971z
			 M411.039,367.16c0.115-0.071,0.229-0.145,0.342-0.216c-0.48-0.819-0.775-2.016-1.488-2.367c-1.059-0.526-1.885,0.549-2.492,1.372
			c-1.258,1.713-1.947,3.665-1.684,5.797c0.082,0.68,0.596,1.668,1.125,1.835c0.553,0.173,1.547-0.299,2.027-0.798
			C410.348,371.24,411.021,369.305,411.039,367.16z"/>
	</g>
	<g>
		<path fill-rule="evenodd" clip-rule="evenodd" d="M682.41,295.081c-5.521-0.282-10.736-1.41-15.604-4.023
			c-1.014-0.543-1.639-1.131-1.557-2.402c0.131-2-0.078-4.036,0.211-6.006c0.164-1.116,0.846-2.299,1.619-3.16
			c2.984-3.327,4.002-7.163,3.41-11.515c-0.061-0.43-0.141-0.857-0.174-1.291c-0.217-2.824,0.43-3.793,3.148-4.477
			c8.346-2.098,16.428-1.471,24.207,2.365c1.303,0.643,1.951,1.402,2.123,3.004c0.418,3.861-0.285,7.148-2.951,10.16
			c-2.385,2.694-2.855,6.14-2.457,9.675c0.027,0.238,0.09,0.475,0.119,0.713c0.498,3.975-0.092,4.953-3.971,5.756
			C687.857,294.433,685.121,294.69,682.41,295.081z M681.598,284.304c3.301-0.004,5.32-0.586,7.008-1.77
			c3.49-2.449,3.512-6.677,0.049-9.167c-3.564-2.563-9.457-2.393-12.857,0.369c-2.635,2.137-2.846,5.571-0.453,7.962
			C677.307,283.657,679.787,284.271,681.598,284.304z"/>
		<path fill-rule="evenodd" clip-rule="evenodd" d="M721.094,266.174c0.225,0.158,0.877,0.416,1.219,0.896
			c0.943,1.332,0.742,2.738-0.092,4.063c-0.461,0.732-1.072,1.377-1.486,2.131c-0.52,0.947-0.65,1.822,0.451,2.639
			c1.951,1.447,1.93,2.578-0.035,4.109c-0.92,0.716-1.006,1.483-0.51,2.384c0.369,0.67,0.979,1.222,1.275,1.914
			c0.424,0.988,0.92,2.059,0.916,3.093c-0.01,1.702-1.1,2.423-2.795,2.251c-3.998-0.402-7.738-1.482-10.988-3.973
			c-0.764-0.584-0.996-1.063-0.564-2.025c1.707-3.801,1.717-7.659-0.004-11.462c-0.398-0.881-0.221-1.359,0.484-1.934
			C711.734,268.004,716.539,266.299,721.094,266.174z"/>
		<path fill-rule="evenodd" clip-rule="evenodd" d="M656.908,271.09c-2.289,4.59-2.313,9.089-0.02,13.641
			c-2.463,2.44-5.494,3.692-8.777,4.43c-0.984,0.222-1.996,0.331-3,0.456c-2.158,0.27-3.416-0.973-3.008-3.144
			c0.168-0.903,0.742-1.742,1.188-2.58c0.27-0.505,0.711-0.921,0.965-1.432c0.475-0.95,0.453-1.767-0.539-2.513
			c-1.842-1.389-1.84-2.507-0.15-3.954c1.209-1.033,1.313-1.73,0.418-3.08c-0.426-0.641-1.051-1.197-1.305-1.895
			c-0.33-0.914-0.6-1.947-0.508-2.893c0.146-1.49,0.988-1.992,2.504-1.887C649.219,266.553,653.34,267.928,656.908,271.09z"/>
		<path fill-rule="evenodd" clip-rule="evenodd" d="M696.865,291.751c0-2.896-0.193-5.454,0.074-7.963
			c0.15-1.408,0.754-3.005,1.682-4.048c2.99-3.365,4.186-7.176,3.586-12.035c3.383,3.188,5.398,6.625,5.051,10.958
			C706.74,285.102,702.408,288.706,696.865,291.751z"/>
		<path fill-rule="evenodd" clip-rule="evenodd" d="M662.68,287.898c-4.473-2.97-6.322-9.689-4.094-14.645
			c1.889-4.193,5.225-6.871,9.23-8.902c0.141,2.033,0.342,3.898,0.385,5.766c0.057,2.326-0.5,4.525-2.096,6.289
			C663.162,279.659,662.125,283.455,662.68,287.898z"/>
	</g>
	<g>
		<path fill-rule="evenodd" clip-rule="evenodd" d="M527.266,100.57c-0.002-3.715,0.293-7.457-0.059-11.141
			c-0.908-9.566,1.148-18.227,6.949-25.971c1.342-1.791,2.242-3.279,0.207-5.845c-2.434-3.069-0.523-5.796,3.551-5.864
			c5.166-0.085,10.338-0.088,15.506,0.001c4.178,0.071,5.311,2.491,3.482,6.42c-0.59,1.267-0.879,3.5-0.17,4.413
			c6.762,8.728,7.992,18.625,7.449,29.273c-0.506,9.989-0.08,20.023-0.121,30.039c-0.023,5.389-1.188,6.571-6.521,6.604
			c-8.076,0.051-16.154-0.059-24.23,0.04c-4.311,0.053-6.152-1.867-6.076-6.161C527.359,115.111,527.268,107.839,527.266,100.57z
			 M539.287,59.031c-2.42,4.284-4.709,7.947-6.596,11.807c-1.32,2.697-2.268,5.621-2.996,8.541c-0.201,0.813,0.928,2.813,1.514,2.84
			c6.184,0.288,12.381,0.289,18.576,0.357c0.139,0.002,0.281-0.221,0.42-0.217c2.242,0.039,4.504-0.064,6.719,0.214
			c1.438,0.181,2.803,0.929,4.441,1.507c2.115-10.674-6.506-16.631-8.756-25.049C547.986,59.031,543.504,59.031,539.287,59.031z"/>
	</g>
	<g>
		<circle fill-rule="evenodd" clip-rule="evenodd" fill="#FCF113" cx="530.65" cy="284.664" r="70.441"/>
		<g>
			<path fill-rule="evenodd" clip-rule="evenodd" d="M544.246,296.586c-0.129,6.136-0.488,10.964-1.697,15.71
				c-1.834,7.198-5.885,9.976-13.313,10.193c-2.879,0.085-5.697-0.571-8.373-1.779c-1.965-0.886-3.506-2.195-4.109-4.229
				c-1.057-3.557-2.156-7.137-2.754-10.786c-0.963-5.869-1.383-11.816-0.73-17.764c0.604-5.513,2.846-10.048,8.17-12.504
				c5.336-2.462,14.346-1.071,18.438,3.11c1.246,1.271,1.949,3.175,2.594,4.903c0.584,1.573,0.883,3.286,1.074,4.965
				C543.902,291.541,544.092,294.696,544.246,296.586z"/>
			<path fill-rule="evenodd" clip-rule="evenodd" d="M541.324,322.181c3.26-3.085,4.059-6.898,5.049-10.545
				c2.393-8.809,2.555-17.72,0.604-26.642c-0.342-1.557-0.906-3.076-1.49-4.564c-0.842-2.146-2.287-3.776-4.449-4.708
				c-0.453-0.195-0.873-0.465-1.639-0.879c2.615-0.511,4.848-0.285,7.033,0.212c7.209,1.641,11.854,5.782,13.197,13.342
				c1.299,7.316,1.041,14.478-1.58,21.458c-1.25,3.328-2.82,6.51-5.74,8.776C549.18,321.058,545.574,321.986,541.324,322.181z"/>
			<path fill-rule="evenodd" clip-rule="evenodd" d="M517.984,274.418c-4.012,1.4-6.438,4.347-7.664,8.17
				c-0.77,2.396-1.402,4.979-1.361,7.467c0.131,7.839,0.861,15.646,2.98,23.239c0.807,2.885,1.57,5.847,4.186,7.887
				c-4.279,0.814-10.615-2.014-13.436-5.968c-3.004-4.211-4.5-9.004-5.189-14.069c-0.703-5.156-0.371-10.274,0.889-15.314
				c1.682-6.717,6.486-10.043,12.875-11.424c2.123-0.459,4.348-0.454,6.525-0.661C517.854,273.969,517.92,274.192,517.984,274.418z"
				/>
			<path fill-rule="evenodd" clip-rule="evenodd" d="M542.811,271.243c1.309-1.647,2.98-2.327,4.762-2.515
				c5.271-0.555,10.391,0.149,15.121,2.637c5.461,2.871,8.736,7.441,9.508,13.573c0.824,6.555,0.637,13.139-1.121,19.521
				c-2.113,7.667-7.34,12.433-14.908,14.695c-0.17,0.051-0.354,0.059-0.619,0.1c0.066-0.207,0.068-0.363,0.145-0.431
				c4.979-4.354,7.078-10.142,8.006-16.434c0.762-5.16,0.795-10.365-0.23-15.5c-1.453-7.291-7.936-13.476-15.297-14.776
				C546.471,271.813,544.758,271.558,542.811,271.243z"/>
			<path fill-rule="evenodd" clip-rule="evenodd" d="M501.887,318.704c-1.637-1.198-3.396-2.263-4.889-3.621
				c-3.871-3.52-6.059-8.06-7.096-13.101c-1.135-5.516-1.617-11.112-1.014-16.747c0.959-8.953,9.811-19.279,22.631-15.774
				c1.543,0.421,3.055,0.95,4.559,1.677c-1.777,0.127-3.574,0.128-5.328,0.401c-8.258,1.286-15.424,6.824-16.479,16.112
				c-0.848,7.471-0.67,14.78,2.012,21.89c1.199,3.176,2.924,6.016,5.488,8.295c0.158,0.141,0.271,0.33,0.406,0.497
				C502.082,318.457,501.984,318.58,501.887,318.704z"/>
			<path fill-rule="evenodd" clip-rule="evenodd" d="M538.92,271.969c-1.762,0.459-3.211,0.836-4.938,0.293
				c-3.721-1.172-7.578-1.412-11.68-0.654c0.355-0.511,0.576-0.851,0.818-1.174c1.361-1.818,2.004-3.884,2.395-6.11
				c0.686-3.918,1.699-7.786,4.201-10.979c1.104-1.41,2.516-2.757,4.08-3.586c2.266-1.202,4.746-2.068,7.223-2.782
				c2.521-0.728,4.773,1.406,4.563,4.089c-0.029,0.347-0.188,0.843-0.445,0.984c-1.73,0.962-3.049,2.701-5.275,2.746
				c-2.754,0.056-4.52,1.613-5.369,4.077c-0.607,1.761-1.002,3.635-1.186,5.489c-0.244,2.455,1.307,4.137,3.025,5.62
				C537.104,270.649,537.951,271.229,538.92,271.969z"/>
			<path fill-rule="evenodd" clip-rule="evenodd" d="M508.197,265.967c4.955-1.68,9.686-1.51,14.842-0.22
				c-0.9,1.571-1.689,2.949-2.426,4.234c-2.199-0.999-4.057-2.043-6.045-2.688C512.621,266.661,510.543,266.436,508.197,265.967z"/>
			<path fill-rule="evenodd" clip-rule="evenodd" d="M539.758,270.005c-1.328-1.462-2.584-2.843-3.84-4.224
				c0.096-0.125,0.189-0.251,0.285-0.377c4.355,0.786,8.891-1.752,13.197,0.888C545.734,266.121,542.574,267.247,539.758,270.005z"
				/>
		</g>
	</g>
	<g>
		<path fill-rule="evenodd" clip-rule="evenodd" fill="#DBDBDA" d="M580.955,134.236c0.105-9.107,7.629-16.445,16.672-16.262
			c8.945,0.182,16.328,7.941,16.092,16.914c-0.232,8.76-7.789,16.133-16.492,16.09C588.236,150.932,580.852,143.334,580.955,134.236
			z"/>
		<path fill-rule="evenodd" clip-rule="evenodd" fill="#262C30" d="M607.947,126.072c-0.098,1.055,0.211,2.461-0.354,3.107
			c-4.789,5.494-9.736,10.848-15.25,16.918c-2.77-3.242-5.166-6.047-7.564-8.854c0.453-0.488,0.906-0.977,1.359-1.463
			c2.035,1.572,4.068,3.145,6.57,5.08c3.508-3.838,6.965-7.809,10.652-11.555c1.291-1.314,3.143-2.08,4.73-3.1
			C608.084,126.201,607.947,126.072,607.947,126.072z"/>
	</g>
	<circle opacity="0.75" fill-rule="evenodd" clip-rule="evenodd" fill="#FCF113" cx="215.071" cy="128.496" r="57.393"/>
	<g>
		<path fill-rule="evenodd" clip-rule="evenodd" fill="#DBDBDA" d="M723.143,325.435c0.008,9.093-7.527,16.662-16.469,16.545
			c-8.768-0.114-16.172-7.513-16.297-16.286c-0.131-8.979,7.338-16.642,16.291-16.719
			C715.719,308.897,723.137,316.308,723.143,325.435z"/>
		<path fill-rule="evenodd" clip-rule="evenodd" fill="#262C30" d="M704.506,325.595c-2.402-2.922-4.553-5.538-6.703-8.154
			c0.453-0.506,0.906-1.012,1.359-1.519c2.49,2.119,4.98,4.238,7.738,6.585c2.412-2.205,4.902-4.483,7.393-6.761
			c0.492,0.489,0.984,0.979,1.477,1.469c-2.102,2.714-4.201,5.428-6.43,8.307c2.227,2.728,4.367,5.351,6.51,7.974
			c-0.453,0.498-0.904,0.995-1.357,1.492c-2.488-2.135-4.979-4.271-7.732-6.633c-2.455,2.229-4.943,4.488-7.434,6.748
			c-0.484-0.494-0.971-0.988-1.457-1.482c0.992-1.324,1.936-2.688,2.986-3.963C701.908,328.378,703.068,327.186,704.506,325.595z"/>
	</g>
	<g>
		<g>
			<path fill-rule="evenodd" clip-rule="evenodd" fill="#262C30" d="M546.992,347.993c0.164-14.278,11.955-25.78,26.133-25.492
				c14.02,0.286,25.592,12.449,25.221,26.515c-0.363,13.73-12.209,25.288-25.85,25.219
				C558.402,374.163,546.828,362.252,546.992,347.993z"/>
		</g>
		<text transform="matrix(1 0 0 1 561.5537 363.833)" fill="#DBDBDA" font-family="'BentonSans-Medium'" font-size="38.8786">?</text>
	</g>
	<g>
		<g>
			<path fill-rule="evenodd" clip-rule="evenodd" fill="#262C30" d="M383.997,255.571c0.164-14.278,11.955-25.78,26.132-25.492
				c14.02,0.286,25.592,12.449,25.223,26.515c-0.365,13.73-12.211,25.288-25.852,25.219
				C395.406,281.741,383.833,269.83,383.997,255.571z"/>
		</g>
		<text transform="matrix(1 0 0 1 398.5586 271.4111)" fill="#DBDBDA" font-family="'BentonSans-Medium'" font-size="38.8786">?</text>
	</g>
	<g>
		<g>
			<path fill-rule="evenodd" clip-rule="evenodd" fill="#262C30" d="M228.001,179.197c0.13-11.332,9.489-20.463,20.743-20.233
				c11.127,0.228,20.313,9.882,20.019,21.046c-0.289,10.898-9.691,20.072-20.519,20.017
				C237.058,199.97,227.872,190.516,228.001,179.197z"/>
		</g>
		<text transform="matrix(1 0 0 1 239.5591 191.77)" fill="#DBDBDA" font-family="'BentonSans-Medium'" font-size="30.8593">?</text>
	</g>
	<g>
		<g>
			<path fill-rule="evenodd" clip-rule="evenodd" fill="#262C30" d="M425.58,409.454c0.107-9.274,7.766-16.746,16.975-16.559
				c9.107,0.186,16.623,8.087,16.383,17.223c-0.236,8.919-7.93,16.427-16.791,16.382
				C432.992,426.453,425.473,418.717,425.58,409.454z"/>
		</g>
		<text transform="matrix(1 0 0 1 435.0391 419.7441)" fill="#DBDBDA" font-family="'BentonSans-Medium'" font-size="25.2542">?</text>
	</g>
	<path fill-rule="evenodd" clip-rule="evenodd" fill="#FFFFFF" d="M201.543,151.519c-7.429-5.514-7.429-5.514-15.893,2.337
		c8.83,9.46,19.529,14.323,32.406,13.268c10.555-0.865,19.6-5.2,26.441-13.838c-8.883-5.951-8.883-5.951-16.221-1.98
		c-6.066-4.881-6.066-4.881-13.244,0.078C207.968,146.411,207.968,146.411,201.543,151.519z"/>
	<path fill-rule="evenodd" clip-rule="evenodd" fill="#FFFFFF" d="M228.59,105.426c7.293,5.314,7.293,5.314,15.904-2.171
		c-9.128-10.024-20.249-14.727-33.713-13.269c-10.176,1.102-18.674,5.474-25.117,13.564c5.358,4.439,9.973,9.987,15.344,1.705
		c7.211,4.846,7.211,4.846,14.135,0.295C221.999,110.482,221.999,110.482,228.59,105.426z"/>
	<path fill-rule="evenodd" clip-rule="evenodd" d="M183.25,150.257c-9.362-13.487-9.297-30.952,0.11-43.584
		c5.693,2.811,10.723,10.575,18.019,2.947c4.564,3.896,8.917,4.354,13.44,0.099c4.521,3.804,9.2,4.244,13.986-0.117
		c7.373,7.753,12.15-0.159,17.846-2.798c9.551,11.154,9.67,30.594,0.134,43.391c-5.753-2.485-10.663-10.882-17.88-2.994
		c-6.424-4.164-7.885-4.164-13.979-0.011c-4.161-3.903-8.626-4.439-13.408,0.198C194.2,139.478,189.262,147.299,183.25,150.257z
		 M215.343,114.111c-8.149-0.137-14.388,5.75-14.648,13.82c-0.268,8.302,5.839,14.797,14.071,14.967
		c8.21,0.17,14.627-6.131,14.653-14.39C229.446,120.388,223.442,114.246,215.343,114.111z"/>
	<path fill-rule="evenodd" clip-rule="evenodd" d="M201.543,151.519c6.425-5.107,6.425-5.107,13.49-0.136
		c7.178-4.959,7.178-4.959,13.244-0.078c7.338-3.971,7.338-3.971,16.221,1.98c-6.842,8.638-15.887,12.973-26.441,13.838
		c-12.877,1.056-23.576-3.808-32.406-13.268C194.115,146.005,194.115,146.005,201.543,151.519z"/>
	<path fill-rule="evenodd" clip-rule="evenodd" d="M228.59,105.426c-6.592,5.057-6.592,5.057-13.447,0.125
		c-6.924,4.551-6.924,4.551-14.135-0.295c-5.371,8.282-9.985,2.734-15.344-1.705c6.443-8.091,14.941-12.463,25.117-13.564
		c13.464-1.458,24.585,3.244,33.713,13.269C235.883,110.74,235.883,110.74,228.59,105.426z"/>
	<text transform="matrix(1 0 0 1 59.4053 384.9492)"><tspan x="0" y="0" fill="#DBDBDA" font-family="'BentonSans-Medium'" font-size="19.6996">Diabetes type I</tspan><tspan x="31.233" y="23.64" fill="#DBDBDA" font-family="'BentonSans-Medium'" font-size="19.6996">Patients</tspan></text>
</g>
</svg>
