<?xml version="1.0" encoding="utf-8"?>
<!-- Generator: Adobe Illustrator 16.0.0, SVG Export Plug-In . SVG Version: 6.00 Build 0)  -->
<!DOCTYPE svg PUBLIC "-//W3C//DTD SVG 1.1//EN" "http://www.w3.org/Graphics/SVG/1.1/DTD/svg11.dtd">
<svg version="1.1" id="图层_1" xmlns="http://www.w3.org/2000/svg" xmlns:xlink="http://www.w3.org/1999/xlink" x="0px" y="0px"
	 width="1133.859px" height="1133.859px" viewBox="0 0 1133.859 1133.859" enable-background="new 0 0 1133.859 1133.859"
	 xml:space="preserve">
<title>Asset 2</title>
<g opacity="0.8">
	<path d="M708.108,566.367c0,71.003-0.01,142.009,0.008,213.011c0.004,18.496-11.592,32.557-29.814,35.707
		c-4.238,0.732-8.607,0.992-12.918,0.996c-65.674,0.061-131.349-0.383-197.016,0.258c-24.842,0.242-43.472-14.734-42.329-40.549
		c0.47-10.637-0.335-21.324-0.338-31.984c-0.031-126.012-0.034-252.024,0.024-378.038c0.002-5.979,0.193-12.029,1.098-17.926
		c2.751-17.945,15.295-29.4,33.508-29.563c46.667-0.41,93.338-0.313,140.008-0.389c21.334-0.035,42.729,1,63.99-0.26
		c26.635-1.584,44.324,13.543,43.842,43.721c-0.994,61.988-0.297,124.008-0.295,186.012c0,6.334,0,12.67,0,19.002
		C707.954,566.367,708.03,566.367,708.108,566.367z M566.933,712.866c-16.387,0.125-30.295,14.223-30.34,30.754
		c-0.045,16.938,14.301,31.064,31.21,30.736c16.51-0.318,30.006-14.445,29.76-31.145
		C597.317,726.604,583.323,712.737,566.933,712.866z M505.876,341.15c-2.189,20.801,0.604,24.063,19.977,24.066
		c27.621,0.01,55.246,0.012,82.869-0.002c18.924-0.006,22.641-4.553,19.199-24.064C587.54,341.15,547.06,341.15,505.876,341.15z"/>
	<path fill="#EEE415" d="M566.933,712.866c16.392-0.129,30.386,13.738,30.63,30.348c0.246,16.697-13.25,30.824-29.76,31.143
		c-16.91,0.33-31.255-13.799-31.21-30.736C536.638,727.088,550.546,712.991,566.933,712.866z"/>
</g>
<title>Asset 2</title>
<g>
	<path d="M1133.787,566.367c0,71.001-0.01,142.007,0.008,213.009c0.004,18.496-11.592,32.557-29.814,35.707
		c-4.238,0.732-8.607,0.992-12.918,0.996c-65.674,0.061-131.35-0.383-197.017,0.258c-24.842,0.242-43.471-14.734-42.328-40.549
		c0.469-10.637-0.336-21.324-0.338-31.984c-0.031-126.012-0.035-252.023,0.023-378.037c0.002-5.979,0.193-12.029,1.098-17.926
		c2.752-17.945,15.295-29.4,33.508-29.563c46.667-0.41,93.339-0.313,140.009-0.389c21.334-0.035,42.729,1,63.99-0.26
		c26.635-1.584,44.324,13.543,43.842,43.721c-0.994,61.988-0.297,124.008-0.295,186.012c0,6.334,0,12.67,0,19.002
		C1133.632,566.367,1133.708,566.367,1133.787,566.367z M992.611,712.865c-16.387,0.125-30.295,14.223-30.34,30.754
		c-0.045,16.938,14.301,31.064,31.211,30.736c16.51-0.318,30.006-14.445,29.76-31.145
		C1022.996,726.603,1009.001,712.736,992.611,712.865z M931.554,341.15c-2.189,20.801,0.604,24.063,19.977,24.066
		c27.621,0.01,55.246,0.012,82.869-0.002c18.924-0.006,22.641-4.553,19.199-24.064C1013.218,341.15,972.738,341.15,931.554,341.15z"
		/>
	<path fill="#EEE415" d="M992.611,712.865c16.393-0.129,30.387,13.738,30.631,30.348c0.246,16.697-13.25,30.824-29.76,31.143
		c-16.91,0.33-31.256-13.799-31.211-30.736C962.316,727.087,976.224,712.99,992.611,712.865z"/>
</g>
<title>Asset 2</title>
<g opacity="0.6">
	<path d="M282.43,566.367c0,71.001-0.01,142.007,0.008,213.009c0.004,18.496-11.592,32.557-29.814,35.707
		c-4.238,0.732-8.607,0.992-12.918,0.996c-65.674,0.061-131.35-0.383-197.017,0.258C17.847,816.58-0.782,801.603,0.36,775.789
		c0.469-10.637-0.336-21.324-0.338-31.984c-0.031-126.012-0.035-252.023,0.023-378.037c0.002-5.979,0.193-12.029,1.098-17.926
		c2.752-17.945,15.295-29.4,33.508-29.563c46.667-0.41,93.339-0.313,140.009-0.389c21.334-0.035,42.729,1,63.99-0.26
		c26.635-1.584,44.324,13.543,43.842,43.721c-0.994,61.988-0.297,124.008-0.295,186.012c0,6.334,0,12.67,0,19.002
		C282.275,566.367,282.352,566.367,282.43,566.367z M141.254,712.865c-16.387,0.125-30.295,14.223-30.34,30.754
		c-0.045,16.938,14.301,31.064,31.211,30.736c16.51-0.318,30.006-14.445,29.76-31.145
		C171.639,726.603,157.645,712.736,141.254,712.865z M80.197,341.15c-2.189,20.801,0.604,24.063,19.977,24.066
		c27.621,0.01,55.246,0.012,82.869-0.002c18.924-0.006,22.641-4.553,19.199-24.064C161.861,341.15,121.381,341.15,80.197,341.15z"/>
	<path fill="#EEE415" d="M141.254,712.865c16.393-0.129,30.387,13.738,30.631,30.348c0.246,16.697-13.25,30.824-29.76,31.143
		c-16.91,0.33-31.256-13.799-31.211-30.736C110.959,727.087,124.867,712.99,141.254,712.865z"/>
</g>
</svg>
