<?xml version="1.0" encoding="utf-8"?>
<!-- Generator: Adobe Illustrator 16.0.0, SVG Export Plug-In . SVG Version: 6.00 Build 0)  -->
<!DOCTYPE svg PUBLIC "-//W3C//DTD SVG 1.1//EN" "http://www.w3.org/Graphics/SVG/1.1/DTD/svg11.dtd">
<svg version="1.1" id="图层_1" xmlns="http://www.w3.org/2000/svg" xmlns:xlink="http://www.w3.org/1999/xlink" x="0px" y="0px"
	 width="1133.858px" height="1133.858px" viewBox="-347.679 45.071 1133.858 1133.858"
	 enable-background="new -347.679 45.071 1133.858 1133.858" xml:space="preserve">
<title>Asset 2</title>
<g>
	<g>
		<path fill-rule="evenodd" clip-rule="evenodd" d="M786.107,867.834c0,71.002-0.01,142.007,0.007,213.01
			c0.004,18.495-11.592,32.555-29.813,35.706c-4.239,0.732-8.609,0.992-12.919,0.997c-65.673,0.059-131.35-0.384-197.016,0.257
			c-24.842,0.242-43.471-14.735-42.329-40.549c0.47-10.636-0.335-21.323-0.338-31.985c-0.031-126.011-0.034-252.022,0.025-378.036
			c0.002-5.978,0.193-12.029,1.097-17.926c2.751-17.946,15.295-29.401,33.508-29.562c46.666-0.411,93.338-0.313,140.008-0.389
			c21.334-0.036,42.729,1,63.991-0.26c26.634-1.583,44.323,13.543,43.841,43.721c-0.994,61.989-0.296,124.007-0.295,186.012
			c0.001,6.334,0,12.669,0,19.001C785.952,867.834,786.029,867.834,786.107,867.834z M644.932,1014.331
			c-16.388,0.125-30.296,14.224-30.34,30.754c-0.046,16.938,14.3,31.065,31.211,30.736c16.509-0.317,30.006-14.444,29.759-31.143
			C675.316,1028.07,661.322,1014.203,644.932,1014.331z M583.874,642.617c-2.188,20.8,0.605,24.063,19.977,24.067
			c27.622,0.009,55.246,0.011,82.869-0.002c18.924-0.007,22.641-4.554,19.2-24.065C665.538,642.617,625.058,642.617,583.874,642.617
			z"/>
		<path fill-rule="evenodd" clip-rule="evenodd" fill="#EEE415" d="M644.932,1014.331c16.391-0.128,30.385,13.739,30.63,30.348
			c0.247,16.698-13.25,30.825-29.759,31.143c-16.911,0.329-31.257-13.799-31.211-30.736
			C614.636,1028.555,628.544,1014.456,644.932,1014.331z"/>
	</g>
	<g>
		<path fill-rule="evenodd" clip-rule="evenodd" d="M49.912,711.443c-113.417,0-226.832,0.03-340.247-0.015
			c-40.733-0.018-57.289-16.425-57.303-56.968c-0.058-163.514-0.05-327.032-0.007-490.55c0.012-40.863,17.167-57.708,58.536-57.708
			c227.379-0.013,454.763-0.013,682.144,0c41.979,0,58.922,16.933,58.928,58.948c0.021,162.417,0.021,324.833,0,487.247
			c-0.006,42.722-16.154,59.025-58.501,59.038C278.944,711.467,164.429,711.443,49.912,711.443z M413.251,598.204
			c-241.595,0-481.034,0-721.746,0c0,17.114-0.001,32.983,0.001,48.855c0.006,25.68,0.009,25.709,25.217,25.709
			c223.396,0.009,446.792,0.007,670.189,0.003c3.85,0,7.709-0.189,11.552-0.011c10.524,0.491,14.936-4.686,14.841-14.932
			C413.123,638.606,413.251,619.381,413.251,598.204z"/>
		<path fill-rule="evenodd" clip-rule="evenodd" d="M209.972,791.86c0,13.604,0,26.624,0,40.734c-105.301,0-209.929,0-315.624,0
			c0-13.769,0-27.159,0-41.309c2.378-0.41,4.569-1.424,6.46-1.022c27.994,5.971,44.359-6.424,51.781-32.729
			c5.553-19.682,18.252-24.339,38.075-23.596c45,1.691,90.114,0.978,135.165,0.22c11.188-0.188,16.861,3.54,21.188,13.339
			c5.974,13.532,10.298,30.463,20.945,38.459C177.51,793.125,194.654,790.18,209.972,791.86z"/>
		<path fill-rule="evenodd" clip-rule="evenodd" fill="#EEE415" d="M51.08,606.478c13.725-0.105,25.444,11.507,25.649,25.413
			c0.206,13.983-11.096,25.814-24.921,26.08c-14.161,0.275-26.173-11.556-26.135-25.741C25.71,618.39,37.356,606.583,51.08,606.478z
			"/>
	</g>
</g>
</svg>
