<?xml version="1.0" encoding="utf-8"?>
<!-- Generator: Adobe Illustrator 16.0.0, SVG Export Plug-In . SVG Version: 6.00 Build 0)  -->
<!DOCTYPE svg PUBLIC "-//W3C//DTD SVG 1.1//EN" "http://www.w3.org/Graphics/SVG/1.1/DTD/svg11.dtd">
<svg version="1.1" id="图层_1" xmlns="http://www.w3.org/2000/svg" xmlns:xlink="http://www.w3.org/1999/xlink" x="0px" y="0px"
	 width="792px" height="1224px" viewBox="0 0 792 1224" enable-background="new 0 0 792 1224" xml:space="preserve">
<title>Asset 4</title>
<g>
	<path fill-rule="evenodd" clip-rule="evenodd" d="M96.051,612.128c0-153.127-0.015-306.253,0.009-459.384
		c0.005-39.728,10.674-50.451,50.291-50.459c166.639-0.03,333.279-0.03,499.917,0.003c38.077,0.009,49.643,11.421,49.647,49.483
		c0.055,307.543,0.058,615.088-0.004,922.626c-0.005,36.91-10.379,47.299-46.707,47.306c-169.213,0.043-338.426,0.051-507.637-0.007
		c-35.247-0.011-45.479-10.438-45.491-46.324C96.02,920.957,96.051,766.544,96.051,612.128z M135.769,1013.271
		c173.497,0,345.985,0,518.768,0c0-271.884,0-542.284,0-812.756c-173.936,0-346.482,0-518.768,0
		C135.769,472.131,135.769,742.137,135.769,1013.271z M397.457,1088.994c12.81,0.241,25.476-11.455,24.803-24.416
		c-0.773-14.863-9.578-24.004-24.447-24.615c-15.173-0.626-23.981,8.145-25.262,23.18
		C371.319,1077.603,382.495,1088.718,397.457,1088.994z"/>
	<path fill-rule="evenodd" clip-rule="evenodd" fill="#EEE415" d="M257.807,460.403c52.349,0,103.597,0,157.119,0
		c0-53.305,0-105.021,0-156.373c74.055-10.256,152.082,59.758,158.843,140.145c7.871,93.581-60.916,172.852-155.354,174.161
		C323.324,619.65,256.955,544.749,257.807,460.403z"/>
	<path fill-rule="evenodd" clip-rule="evenodd" d="M561.729,665.604c0,99.18,0,197.147,0,296.551c-22.608,0-44.681,0-68.396,0
		c0-98.274,0-196.667,0-296.551C515.418,665.604,537.561,665.604,561.729,665.604z"/>
	<path fill-rule="evenodd" clip-rule="evenodd" fill="#EEE415" d="M377.458,265.152c0,52.574,0,103.817,0,156.245
		c-52.646,0-104.408,0-156.145,0C214.381,338.57,296.168,259.751,377.458,265.152z"/>
	<path fill-rule="evenodd" clip-rule="evenodd" d="M317.207,962.333c0-70.271,0-139.346,0-209.942c20.701,0,41.412,0,63.522,0
		c0,69.695,0,139.194,0,209.942C360.067,962.333,339.835,962.333,317.207,962.333z"/>
	<path fill-rule="evenodd" clip-rule="evenodd" d="M472.197,784.459c0,59.404,0,117.633,0,177.493c-22.164,0-44.078,0-66.77,0
		c0-59.306,0-118.078,0-177.493C428.084,784.459,449.609,784.459,472.197,784.459z"/>
	<path fill-rule="evenodd" clip-rule="evenodd" d="M227.298,962.122c0-47.048,0-92.34,0-138.77c21.247,0,41.501,0,63.301,0
		c0,45.834,0,91.564,0,138.77C270.025,962.122,249.338,962.122,227.298,962.122z"/>
</g>
</svg>
