<?xml version="1.0" encoding="utf-8"?>
<!-- Generator: Adobe Illustrator 16.0.0, SVG Export Plug-In . SVG Version: 6.00 Build 0)  -->
<!DOCTYPE svg PUBLIC "-//W3C//DTD SVG 1.1//EN" "http://www.w3.org/Graphics/SVG/1.1/DTD/svg11.dtd">
<svg version="1.1" id="图层_1" xmlns="http://www.w3.org/2000/svg" xmlns:xlink="http://www.w3.org/1999/xlink" x="0px" y="0px"
	 width="792px" height="1224px" viewBox="0 0 792 1224" enable-background="new 0 0 792 1224" xml:space="preserve">
<title>Asset 3</title>
<title>Asset 3</title>
<g>
	<path fill-rule="evenodd" clip-rule="evenodd" d="M628.181,618.492c-7.881,28.309-15.837,56.598-23.629,84.932
		c-19.245,69.984-38.341,140.01-57.667,209.971c-4.924,17.824-12.428,23.818-27.193,22.953c-12.961-0.76-20.365-9.305-23.781-25.701
		c-11.488-55.119-23.346-110.162-34.946-165.26c-14.961-71.061-29.809-142.146-44.716-213.219
		c-6.233-29.717-12.448-59.438-18.834-89.122c-0.48-2.238-2.269-4.2-5.302-9.57c-3.178,12.771-5.668,22.286-7.904,31.855
		c-21.516,92.132-43.006,184.272-64.462,276.415c-5.687,24.422-10.814,48.982-17.077,73.252
		c-2.119,8.209-5.055,17.799-10.916,23.135c-13.946,12.703-34.473,3.578-38.793-16.5c-12.774-59.375-25.161-118.832-37.83-178.229
		c-2.977-13.951-6.462-27.797-12.674-41.613c-8.16,21.302-16.359,42.589-24.469,63.912c-7.906,20.779-14.207,25.254-36.279,25.27
		c-32.627,0.023-65.256,0.182-97.882-0.107c-17.429-0.152-26.869-8.998-26.909-24.082c-0.039-14.576,8.745-23.779,23.924-23.949
		c26.453-0.301,52.915-0.402,79.361,0.072c9.62,0.17,14.774-2.48,18.45-12.287c15.587-41.61,32.339-82.781,48.508-124.174
		c4.516-11.553,11.263-20.261,24.814-19.953c12.199,0.279,21.215,8.957,24.425,23.795c13.026,60.214,25.763,120.484,38.628,180.73
		c0.547,2.564,1.315,5.078,4.366,8.078c3.1-12.053,6.458-24.045,9.257-36.166c27.133-117.458,54.154-234.943,81.263-352.405
		c3.778-16.37,11.57-23.103,25.912-22.951c13.697,0.145,22.483,8.136,25.764,23.517c18.356,86.068,36.808,172.115,55.021,258.211
		c16.298,77.05,32.327,154.158,49.306,235.203c3.139-7.148,5.374-10.912,6.493-14.986c24.124-87.803,48.106-175.646,72.169-263.466
		c2.323-8.475,4.944-16.87,7.509-25.276c4.627-15.169,12.072-21.497,24.609-21.018c13.396,0.513,20.851,6.566,23.907,21.875
		c8.104,40.575,15.9,81.219,23.186,121.946c3.407,19.037,2.744,19.156,22.174,19.17c14.992,0.01,29.989-0.273,44.972,0.1
		c14.829,0.369,23.445,8.742,24.115,22.523c0.671,13.813-8.545,24.928-23.085,25.256c-29.082,0.652-58.204,0.717-87.281-0.078
		c-12.532-0.34-21.31-7.426-23.796-20.76c-3.188-17.084-6.672-34.109-10.025-51.162
		C629.969,618.582,629.074,618.537,628.181,618.492z"/>
</g>
</svg>
