<?xml version="1.0" encoding="utf-8"?>
<!-- Generator: Adobe Illustrator 16.0.0, SVG Export Plug-In . SVG Version: 6.00 Build 0)  -->
<!DOCTYPE svg PUBLIC "-//W3C//DTD SVG 1.1//EN" "http://www.w3.org/Graphics/SVG/1.1/DTD/svg11.dtd">
<svg version="1.1" id="图层_1" xmlns="http://www.w3.org/2000/svg" xmlns:xlink="http://www.w3.org/1999/xlink" x="0px" y="0px"
	 width="33.834px" height="33.834px" viewBox="0.666 -6.917 33.834 33.834" enable-background="new 0.666 -6.917 33.834 33.834"
	 xml:space="preserve">
<title>first</title>
<desc>Created with Sketch.</desc>
<g>
	<path fill-rule="evenodd" clip-rule="evenodd" fill="#262C30" d="M26.605,8.874c-1.68,0-3.36,0.006-5.038-0.002
		c-1.846-0.01-2.764-0.909-2.77-2.733c-0.01-3.386-0.009-6.772,0-10.159c0.005-1.823,0.94-2.757,2.756-2.761
		c3.386-0.007,6.771-0.006,10.158,0c1.833,0.003,2.751,0.905,2.759,2.747c0.016,3.386,0.015,6.771,0,10.157
		c-0.008,1.867-0.89,2.738-2.745,2.749C30.019,8.88,28.313,8.874,26.605,8.874z"/>
	<path fill-rule="evenodd" clip-rule="evenodd" fill="#262C30" d="M8.602,8.853c-1.814,0-3.629,0.013-5.443-0.003
		C1.134,8.831,0.13,7.199,1.031,5.383C2.763,1.895,4.519-1.581,6.246-5.071c0.479-0.968,1.209-1.517,2.292-1.519
		c1.042-0.001,1.671,0.6,2.115,1.5c1.785,3.611,3.6,7.208,5.387,10.819c0.81,1.637-0.099,3.108-1.913,3.12
		C12.285,8.863,10.443,8.853,8.602,8.853z"/>
	<path fill-rule="evenodd" clip-rule="evenodd" fill="#262C30" d="M8.781,26.953c-4.321,0.079-7.979-3.457-8.047-7.775
		c-0.068-4.423,3.398-8.035,7.782-8.112c4.418-0.075,8.047,3.388,8.134,7.765C16.739,23.25,13.229,26.872,8.781,26.953z
		 M8.81,13.475c-3.018-0.078-5.575,2.326-5.648,5.309c-0.078,3.165,2.321,5.707,5.447,5.77c2.977,0.062,5.552-2.399,5.616-5.366
		C14.291,16.063,11.911,13.553,8.81,13.475z"/>
	<path fill-rule="evenodd" clip-rule="evenodd" fill="#262C30" d="M26.515,20.676c-1.485,1.496-2.898,2.915-4.309,4.335
		c-0.114,0.114-0.221,0.239-0.342,0.347c-0.556,0.491-1.498,0.51-1.919,0.045c-0.436-0.478-0.368-1.128,0.23-1.736
		c1.31-1.33,2.637-2.647,3.963-3.963c0.21-0.209,0.457-0.379,0.771-0.632c-1.254-1.252-2.413-2.409-3.572-3.564
		c-0.287-0.286-0.578-0.569-0.862-0.861c-0.689-0.716-0.754-1.38-0.191-1.915c0.537-0.512,1.185-0.449,1.856,0.212
		c1.213,1.198,2.416,2.408,3.616,3.618c0.229,0.23,0.428,0.489,0.727,0.832c0.821-0.837,1.57-1.601,2.323-2.361
		c0.646-0.654,1.3-1.303,1.952-1.954c0.792-0.79,1.469-0.894,2.028-0.311c0.545,0.567,0.419,1.245-0.374,2.036
		c-1.228,1.225-2.448,2.452-3.68,3.672c-0.151,0.151-0.341,0.27-0.601,0.473c1.035,1.028,1.986,1.975,2.937,2.92
		c0.556,0.555,1.111,1.109,1.666,1.664c0.751,0.749,0.848,1.438,0.274,1.971c-0.479,0.449-1.394,0.291-2.019-0.339
		C29.522,23.687,28.051,22.215,26.515,20.676z"/>
	<path fill-rule="evenodd" clip-rule="evenodd" fill="#EEE415" d="M8.81,13.475c3.101,0.078,5.481,2.589,5.415,5.712
		c-0.064,2.967-2.639,5.428-5.616,5.366c-3.126-0.063-5.525-2.604-5.447-5.77C3.235,15.801,5.792,13.396,8.81,13.475z"/>
</g>
</svg>
