<?xml version="1.0" encoding="utf-8"?>
<!-- Generator: Adobe Illustrator 16.0.0, SVG Export Plug-In . SVG Version: 6.00 Build 0)  -->
<!DOCTYPE svg PUBLIC "-//W3C//DTD SVG 1.1//EN" "http://www.w3.org/Graphics/SVG/1.1/DTD/svg11.dtd">
<svg version="1.1" id="图层_1" xmlns="http://www.w3.org/2000/svg" xmlns:xlink="http://www.w3.org/1999/xlink" x="0px" y="0px"
	 width="792px" height="1224px" viewBox="0 0 792 1224" enable-background="new 0 0 792 1224" xml:space="preserve">
<title>Asset 4</title>
<g>
	<path fill-rule="evenodd" clip-rule="evenodd" d="M166.115,916.225c16.668,3.841,32.268,10.477,47.903,10.563
		c147.443,0.802,294.894,0.496,442.341,0.469c2.197-0.002,4.394-0.49,8.419-0.97c0-15.175-0.066-30.035,0.035-44.896
		c0.037-5.446-0.031-10.971,0.833-16.315c1.457-8.987,7.822-14.784,16.195-12.455c5.644,1.568,13.661,8.42,13.913,13.259
		c1.368,26.313,1.384,52.774,0.027,79.091c-0.264,5.11-8.13,10.575-13.546,14.364c-2.822,1.975-7.948,0.804-12.032,0.804
		c-149.269,0.026-298.537,0.046-447.806,0.003c-31.944-0.008-61.081-8.423-85.644-29.73c-27.854-24.161-41.127-55.386-41.217-91.63
		c-0.374-152.453-0.507-304.91,0.026-457.363c0.23-65.331,51.604-117.133,117.33-117.455c154.272-0.763,308.548-0.323,462.824-0.251
		c16.345,0.008,20.964,4.771,20.971,21.404c0.079,173.844,0.079,347.688,0.01,521.531c-0.007,18.334-4.896,22.845-24.005,22.85
		c-137.892,0.035-275.783-0.045-413.675,0.059c-43.188,0.034-75.473,22.89-87.916,62.014
		C169.06,897.992,168.365,904.848,166.115,916.225z M221.735,296.428c0,121.131,0,241.442,0,364.262
		c13.555-15.635,25.02-30.104,37.805-43.29c15.416-15.896,20.377-15.534,35.412,0.683c12.19,13.146,23.779,26.853,37.088,41.957
		c0-122.95,0-243.22,0-363.611C294.867,296.428,258.637,296.428,221.735,296.428z"/>
	<path fill-rule="evenodd" clip-rule="evenodd" fill="#EEE415" d="M221.735,296.428c36.901,0,73.132,0,110.305,0
		c0,120.392,0,240.661,0,363.611c-13.309-15.104-24.897-28.811-37.088-41.957c-15.035-16.216-19.996-16.579-35.412-0.683
		c-12.785,13.186-24.25,27.655-37.805,43.29C221.735,537.87,221.735,417.559,221.735,296.428z"/>
</g>
</svg>
