<?xml version="1.0" encoding="utf-8"?>
<!-- Generator: Adobe Illustrator 16.0.0, SVG Export Plug-In . SVG Version: 6.00 Build 0)  -->
<!DOCTYPE svg PUBLIC "-//W3C//DTD SVG 1.1//EN" "http://www.w3.org/Graphics/SVG/1.1/DTD/svg11.dtd">
<svg version="1.1" id="图层_1" xmlns="http://www.w3.org/2000/svg" xmlns:xlink="http://www.w3.org/1999/xlink" x="0px" y="0px"
	 width="33.834px" height="33.834px" viewBox="0.666 -6.917 33.834 33.834" enable-background="new 0.666 -6.917 33.834 33.834"
	 xml:space="preserve">
<title>first</title>
<desc>Created with Sketch.</desc>
<g>
	<path fill-rule="evenodd" clip-rule="evenodd" d="M31.209,20.48c0.016-5.969,0.016-11.938,0.005-17.907
		c0.006-0.18,0.019-0.365-0.001-0.537c-0.003-1.222-0.001-2.443-0.006-3.666c-0.01-3.393-1.906-5.263-5.311-5.274
		c-1.279-0.004-2.56-0.004-3.839-0.006c-0.036,0-0.072-0.001-0.108,0c-1.841-0.003-3.683-0.006-5.523-0.005
		c-2.408-0.002-4.815-0.002-7.223,0.01C5.761-6.887,3.966-5.086,3.957-1.609c0,0.008,0,0.016,0,0.023
		c0,0.013-0.001,0.025-0.001,0.039c0,0.331,0,0.661,0,0.992C3.94,5.414,3.94,11.383,3.952,17.353c-0.006,0.18-0.02,0.365,0,0.537
		c0.002,1.222,0.002,2.444,0.005,3.666c0.011,3.393,1.907,5.263,5.311,5.275c1.285,0.003,2.57,0.003,3.854,0.004
		c0.028,0,0.055,0.002,0.083,0c1.862,0.004,3.724,0.007,5.585,0.007c2.391,0.002,4.781,0.002,7.172-0.01
		c3.442-0.02,5.236-1.821,5.245-5.298c0-0.006,0-0.016,0-0.023c0-0.011,0.002-0.024,0.002-0.036
		C31.209,21.143,31.209,20.813,31.209,20.48z"/>
	<path fill-rule="evenodd" clip-rule="evenodd" fill="#EEE415" d="M14.996,10.728c0.018,1.67-1.345,3.09-3.006,3.136
		c-1.737,0.046-3.164-1.329-3.173-3.059c-0.009-1.698,1.316-3.091,2.989-3.137C13.523,7.619,14.976,9.012,14.996,10.728z"/>
	<path fill-rule="evenodd" clip-rule="evenodd" fill="#EEE415" d="M8.827,18.901c-0.013-1.752,1.363-3.155,3.083-3.145
		c1.666,0.009,3.067,1.397,3.086,3.06c0.018,1.718-1.399,3.146-3.113,3.136C10.179,21.941,8.839,20.604,8.827,18.901z"/>
	<path fill-rule="evenodd" clip-rule="evenodd" fill="#FFFFFF" d="M10.941,3.967c0.873-1.832,1.685-3.531,2.488-5.234
		c0.225-0.477,0.454-1.025,1.1-0.716c0.643,0.309,0.355,0.844,0.137,1.31c-0.862,1.838-1.7,3.687-2.613,5.5
		c-0.183,0.364-0.652,0.812-0.989,0.812c-0.398-0.001-0.882-0.372-1.177-0.713C9.491,4.466,9.158,3.91,8.956,3.339
		c-0.111-0.314,0.101-0.743,0.166-1.12c0.329,0.131,0.739,0.184,0.97,0.415C10.413,2.956,10.601,3.412,10.941,3.967z"/>
	<path fill-rule="evenodd" clip-rule="evenodd" fill="#FFFFFF" d="M21.614,2.569c-1.232,0-2.469,0.053-3.696-0.034
		c-0.347-0.024-0.665-0.46-0.997-0.708c0.318-0.222,0.632-0.629,0.953-0.636c2.5-0.054,5.003-0.054,7.503,0.001
		c0.324,0.007,0.64,0.422,0.959,0.648c-0.341,0.245-0.67,0.676-1.026,0.701c-1.226,0.089-2.462,0.035-3.695,0.035
		C21.614,2.574,21.614,2.571,21.614,2.569z"/>
	<path fill-rule="evenodd" clip-rule="evenodd" fill="#FFFFFF" d="M21.729,10.909c1.159,0,2.324-0.059,3.477,0.031
		c0.39,0.03,0.751,0.438,1.125,0.67c-0.354,0.219-0.704,0.619-1.063,0.627c-2.427,0.056-4.856,0.056-7.283,0.001
		c-0.357-0.008-0.705-0.398-1.056-0.612c0.368-0.239,0.724-0.657,1.107-0.685C19.261,10.853,20.497,10.909,21.729,10.909z"/>
	<path fill-rule="evenodd" clip-rule="evenodd" fill="#FFFFFF" d="M21.645,6.034c1.233,0,2.468-0.044,3.695,0.027
		c0.342,0.02,0.663,0.38,0.992,0.583c-0.326,0.255-0.648,0.725-0.981,0.732c-2.5,0.063-5.002,0.058-7.501,0.003
		c-0.313-0.006-0.614-0.436-0.921-0.669c0.304-0.226,0.597-0.627,0.911-0.646C19.105,5.991,20.376,6.035,21.645,6.034z"/>
	<path fill-rule="evenodd" clip-rule="evenodd" fill="#FFFFFF" d="M21.697,15.729c1.196,0,2.396-0.053,3.587,0.032
		c0.362,0.026,0.698,0.431,1.045,0.661c-0.343,0.234-0.68,0.66-1.029,0.668c-2.463,0.06-4.93,0.059-7.394-0.001
		c-0.33-0.008-0.65-0.453-0.975-0.695c0.357-0.222,0.703-0.611,1.073-0.635C19.23,15.678,20.466,15.728,21.697,15.729z"/>
	<path fill-rule="evenodd" clip-rule="evenodd" fill="#FFFFFF" d="M22.23,21.995c-0.981,0-1.968,0.056-2.941-0.03
		c-0.342-0.031-0.654-0.412-0.979-0.635c0.335-0.248,0.662-0.699,1.005-0.711c2.033-0.069,4.07-0.066,6.104-0.005
		c0.314,0.01,0.614,0.444,0.921,0.682c-0.315,0.233-0.617,0.64-0.949,0.668C24.343,22.05,23.284,21.995,22.23,21.995z"/>
</g>
</svg>
