<?xml version="1.0" encoding="utf-8"?>
<!-- Generator: Adobe Illustrator 16.0.0, SVG Export Plug-In . SVG Version: 6.00 Build 0)  -->
<!DOCTYPE svg PUBLIC "-//W3C//DTD SVG 1.1//EN" "http://www.w3.org/Graphics/SVG/1.1/DTD/svg11.dtd">
<svg version="1.1" id="图层_1" xmlns="http://www.w3.org/2000/svg" xmlns:xlink="http://www.w3.org/1999/xlink" x="0px" y="0px"
	 width="1048.447px" height="1224px" viewBox="-128.224 0 1048.447 1224" enable-background="new -128.224 0 1048.447 1224"
	 xml:space="preserve">
<title>Asset 6</title>
<g>
	<path fill-rule="evenodd" clip-rule="evenodd" d="M395.415,937.522c-109.749,0-219.5,0.04-329.25-0.021
		c-46.191-0.023-72.233-25.896-72.259-72.101C-6.185,696.773-6.19,528.148-6.091,359.522c0.027-47.334,25.804-73.383,73.235-73.416
		c218.927-0.161,437.856,0.15,656.784-0.258c45.146-0.084,74.459,29.139,74.1,74.669c-1.318,168.043-1.546,336.114,0.132,504.152
		c0.469,47.076-36.394,74.063-73.505,73.473C614.933,936.406,505.163,937.522,395.415,937.522z M35.118,408.197
		c0,6.916,0,12.51,0,18.098c0,145.229-0.013,290.454,0.007,435.681c0.006,28.85,6.092,34.853,35.508,34.854
		c217.268,0.024,434.536,0.024,651.804-0.001c28.167-0.004,34.867-6.834,34.878-35.832c0.052-144.652,0.033-289.311-0.018-433.963
		c-0.004-6.052-0.604-12.101-0.96-18.836C515.666,408.197,276.815,408.197,35.118,408.197z M305.894,347.498
		c0.286-15.286-11.307-27.193-26.577-27.291c-14.858-0.101-27.245,12.288-27.04,27.036c0.196,13.894,12.008,25.921,25.952,26.425
		C293.373,374.21,305.608,362.638,305.894,347.498z M122.928,347.243c0.128-13.893-11.698-26.376-25.593-27.016
		c-14.896-0.69-27.54,11.398-27.681,26.457c-0.139,15.287,11.915,27.295,27.111,27.006
		C110.869,373.419,122.802,361.359,122.928,347.243z M213.757,346.699c-0.09-14.479-11.495-26.331-25.633-26.629
		c-14.933-0.319-27.124,12.006-26.934,27.233c0.187,14.651,11.367,26.104,25.848,26.475
		C201.914,374.159,213.853,362.063,213.757,346.699z"/>
	<path fill-rule="evenodd" clip-rule="evenodd" fill="#D0CEF5" d="M35.118,408.197c241.698,0,480.548,0,721.219,0
		c0.355,6.735,0.956,12.784,0.96,18.836c0.051,144.652,0.069,289.311,0.018,433.963c-0.011,28.998-6.711,35.828-34.878,35.832
		c-217.268,0.025-434.536,0.025-651.804,0.001c-29.416-0.001-35.502-6.004-35.508-34.854c-0.02-145.227-0.007-290.452-0.007-435.681
		C35.118,420.707,35.118,415.113,35.118,408.197z M423.645,726.991c-0.918-32.508,16.317-53.816,37.78-73.142
		c9.308-8.381,17.815-17.771,25.928-27.346c40.652-47.977,29.224-123.578-23.963-148.784
		c-42.833-20.302-87.514-20.751-130.892-0.351c-34.82,16.375-55.433,55.404-48.739,89.465c23.168,0,46.444,0,69.989,0
		c0.892-3.284,1.716-5.983,2.361-8.726c5.958-25.411,22.95-37.098,49.1-33.732c21.358,2.745,33.077,17.614,31.253,43.286
		c-0.73,10.261-4.242,21.712-10.217,29.898c-10,13.703-22.481,25.76-34.837,37.55c-26.355,25.139-34.143,56.274-32.606,91.881
		C380.493,726.991,400.912,726.991,423.645,726.991z M392.358,766.688c-23.214-0.263-41.084,16.206-41.605,38.329
		c-0.561,23.856,15.953,40.1,40.918,40.25c23.79,0.145,41.435-15.827,41.88-37.907C434.017,784.367,416.386,766.958,392.358,766.688
		z"/>
	<path fill-rule="evenodd" clip-rule="evenodd" fill="#FFFFFF" d="M305.894,347.498c-0.286,15.14-12.521,26.712-27.665,26.17
		c-13.944-0.504-25.756-12.531-25.952-26.425c-0.205-14.748,12.182-27.137,27.04-27.036
		C294.587,320.305,306.18,332.212,305.894,347.498z"/>
	<path fill-rule="evenodd" clip-rule="evenodd" fill="#FFFFFF" d="M122.928,347.243c-0.126,14.116-12.059,26.176-26.163,26.447
		c-15.197,0.289-27.25-11.719-27.111-27.006c0.141-15.059,12.785-27.147,27.681-26.457
		C111.23,320.867,123.057,333.351,122.928,347.243z"/>
	<path fill-rule="evenodd" clip-rule="evenodd" fill="#FFFFFF" d="M213.757,346.699c0.095,15.364-11.843,27.46-26.719,27.079
		c-14.481-0.37-25.661-11.823-25.848-26.475c-0.19-15.228,12-27.553,26.934-27.233C202.262,320.368,213.667,332.221,213.757,346.699
		z"/>
	<path fill-rule="evenodd" clip-rule="evenodd" d="M423.645,726.991c-22.732,0-43.151,0-64.843,0
		c-1.537-35.606,6.251-66.742,32.606-91.881c12.356-11.79,24.837-23.847,34.837-37.55c5.975-8.187,9.486-19.638,10.217-29.898
		c1.824-25.672-9.895-40.541-31.253-43.286c-26.15-3.365-43.142,8.321-49.1,33.732c-0.645,2.742-1.469,5.441-2.361,8.726
		c-23.545,0-46.821,0-69.989,0c-6.694-34.061,13.918-73.09,48.739-89.465c43.378-20.4,88.059-19.951,130.892,0.351
		c53.187,25.206,64.615,100.808,23.963,148.784c-8.112,9.574-16.62,18.965-25.928,27.346
		C439.962,673.175,422.727,694.483,423.645,726.991z"/>
	<path fill-rule="evenodd" clip-rule="evenodd" d="M392.358,766.688c24.027,0.271,41.658,17.68,41.193,40.672
		c-0.445,22.08-18.091,38.052-41.88,37.907c-24.965-0.15-41.479-16.394-40.918-40.25
		C351.274,782.894,369.145,766.425,392.358,766.688z"/>
</g>
</svg>
