<?xml version="1.0" encoding="utf-8"?>
<!-- Generator: Adobe Illustrator 16.0.0, SVG Export Plug-In . SVG Version: 6.00 Build 0)  -->
<!DOCTYPE svg PUBLIC "-//W3C//DTD SVG 1.1//EN" "http://www.w3.org/Graphics/SVG/1.1/DTD/svg11.dtd">
<svg version="1.1" id="图层_1" xmlns="http://www.w3.org/2000/svg" xmlns:xlink="http://www.w3.org/1999/xlink" x="0px" y="0px"
	 width="1111.532px" height="1224px" viewBox="0 0 1111.532 1224" enable-background="new 0 0 1111.532 1224" xml:space="preserve">
<title>Asset 6</title>
<g>
	<path d="M0,780.559l51.432-67.672c30.104,27.827,72.755,48.064,116.036,48.064c61.47,0,88.436-34.784,88.436-82.846
		c0-53.127-27.595-84.745-80.285-84.745c-31.356,0-61.469,15.177-85.295,44.901l-65.867-20.869l18.817-251.705h281.625l-5.018,77.79
		H121.678l-8.78,103.717c15.68-15.18,46.412-29.093,93.455-29.093c99.099,0,151.159,65.139,151.159,156.209
		c0,99.922-69.617,168.227-183.774,168.227C97.221,842.537,42.023,818.504,0,780.559z"/>
	<path d="M396.991,599.686c0-146.092,71.507-242.85,193.191-242.85c122.308,0,192.554,96.758,192.554,242.85
		c0,146.088-70.246,242.852-192.554,242.852C468.498,842.537,396.991,745.773,396.991,599.686z M681.756,599.686
		c0-106.882-33.244-160.634-91.573-160.634c-60.218,0-91.581,53.752-91.581,160.634c0,106.878,33.243,162.531,91.581,162.531
		C649.763,762.217,681.756,706.563,681.756,599.686z"/>
	<path d="M947.995,715.386V612.912h-97.563v-65.067h97.563V445.373h65.044v102.472h97.563v65.067h-97.563v102.474H947.995z"/>
</g>
</svg>
