<?xml version="1.0" encoding="utf-8"?>
<!-- Generator: Adobe Illustrator 16.0.0, SVG Export Plug-In . SVG Version: 6.00 Build 0)  -->
<!DOCTYPE svg PUBLIC "-//W3C//DTD SVG 1.1//EN" "http://www.w3.org/Graphics/SVG/1.1/DTD/svg11.dtd">
<svg version="1.1" id="图层_1" xmlns="http://www.w3.org/2000/svg" xmlns:xlink="http://www.w3.org/1999/xlink" x="0px" y="0px"
	 width="33.834px" height="33.834px" viewBox="0 0 33.834 33.834" enable-background="new 0 0 33.834 33.834" xml:space="preserve">
<title>first</title>
<desc>Created with Sketch.</desc>
<g>
	<path fill="#262C30" d="M19.812,21.649c-0.463-0.459-0.879-0.875-1.297-1.289c-5.186,4.055-12.013,2.861-15.687-1.442
		C-1.118,14.297-0.895,7.62,3.248,3.416c4.19-4.254,10.794-4.593,15.541-0.697c4.25,3.491,5.765,10.279,1.577,15.837
		c0.421,0.396,0.849,0.801,1.431,1.352c0.156-0.229,0.287-0.493,0.483-0.69c0.828-0.821,1.41-0.815,2.259,0.011
		c0.579,0.563,1.146,1.141,1.72,1.711c2.276,2.265,4.555,4.528,6.829,6.797c1.004,1,0.996,1.636-0.026,2.646
		c-0.945,0.938-1.892,1.878-2.845,2.811c-0.87,0.853-1.473,0.858-2.317,0.018c-2.795-2.792-5.586-5.585-8.369-8.386
		c-1.235-1.244-1.227-1.608,0.003-2.868C19.612,21.868,19.69,21.78,19.812,21.649z M2.554,11.389
		c-0.033,4.912,3.934,8.908,8.855,8.92c4.846,0.014,8.843-3.954,8.902-8.833c0.059-4.892-3.911-8.896-8.849-8.927
		C6.505,2.52,2.586,6.408,2.554,11.389z"/>
	<path fill="#D0CEF5" d="M2.554,11.389c0.032-4.981,3.951-8.869,8.91-8.837c4.938,0.031,8.906,4.035,8.848,8.927
		c-0.06,4.879-4.057,8.845-8.901,8.833C6.488,20.297,2.521,16.301,2.554,11.389z"/>
</g>
</svg>
