<?xml version="1.0" encoding="utf-8"?>
<!-- Generator: Adobe Illustrator 16.0.0, SVG Export Plug-In . SVG Version: 6.00 Build 0)  -->
<!DOCTYPE svg PUBLIC "-//W3C//DTD SVG 1.1//EN" "http://www.w3.org/Graphics/SVG/1.1/DTD/svg11.dtd">
<svg version="1.1" id="图层_1" xmlns="http://www.w3.org/2000/svg" xmlns:xlink="http://www.w3.org/1999/xlink" x="0px" y="0px"
	 width="1133.859px" height="1133.859px" viewBox="0 0 1133.859 1133.859" enable-background="new 0 0 1133.859 1133.859"
	 xml:space="preserve">
<g>
	<path fill-rule="evenodd" clip-rule="evenodd" d="M254.73,932.775c0-243.764,0-487.42,0-731.691c142.717,0,284.464,0,427.917,0
		c0,61.828,0,123.382,0,186.463c66.283,0,130.893,0,196.481,0c0,182.369,0,363.205,0,545.228
		C671.463,932.775,463.569,932.775,254.73,932.775z M789.186,639.502c-151.471,0-302.343,0-453.598,0c0,14.975,0,29.123,0,43.023
		c151.747,0,302.257,0,453.598,0C789.186,667.895,789.186,654.107,789.186,639.502z M335.209,852.045c151.73,0,302.607,0,453.921,0
		c0-14.654,0-28.436,0-42.926c-151.753,0-302.618,0-453.921,0C335.209,823.82,335.209,837.615,335.209,852.045z M335.253,512.167
		c151.63,0,302.547,0,453.754,0c0-14.977,0-28.773,0-43.128c-151.625,0-302.241,0-453.754,0
		C335.253,483.704,335.253,497.521,335.253,512.167z"/>
	<path fill-rule="evenodd" clip-rule="evenodd" d="M728.812,213.51c47.616,43.723,92.732,85.148,140.108,128.646
		c-48.581,0-93.842,0-140.108,0C728.812,300.292,728.812,258.904,728.812,213.51z"/>
	<path fill-rule="evenodd" clip-rule="evenodd" fill="#D0CEF5" d="M789.186,639.502c0,14.605,0,28.393,0,43.023
		c-151.341,0-301.851,0-453.598,0c0-13.9,0-28.049,0-43.023C486.843,639.502,637.715,639.502,789.186,639.502z"/>
	<path fill-rule="evenodd" clip-rule="evenodd" fill="#D0CEF5" d="M335.209,852.045c0-14.43,0-28.225,0-42.926
		c151.303,0,302.168,0,453.921,0c0,14.49,0,28.271,0,42.926C637.816,852.045,486.939,852.045,335.209,852.045z"/>
	<path fill-rule="evenodd" clip-rule="evenodd" fill="#D0CEF5" d="M335.253,512.167c0-14.646,0-28.464,0-43.128
		c151.513,0,302.129,0,453.754,0c0,14.354,0,28.151,0,43.128C637.8,512.167,486.883,512.167,335.253,512.167z"/>
</g>
</svg>
