<?xml version="1.0" encoding="utf-8"?>
<!-- Generator: Adobe Illustrator 16.0.0, SVG Export Plug-In . SVG Version: 6.00 Build 0)  -->
<!DOCTYPE svg PUBLIC "-//W3C//DTD SVG 1.1//EN" "http://www.w3.org/Graphics/SVG/1.1/DTD/svg11.dtd">
<svg version="1.1" id="图层_1" xmlns="http://www.w3.org/2000/svg" xmlns:xlink="http://www.w3.org/1999/xlink" x="0px" y="0px"
	 width="33.834px" height="33.834px" viewBox="0 0 33.834 33.834" enable-background="new 0 0 33.834 33.834" xml:space="preserve">
<title>first</title>
<desc>Created with Sketch.</desc>
<g>
	<path fill-rule="evenodd" clip-rule="evenodd" fill="#262C30" d="M2.48,33.834c0-11.271,0-22.539,0-33.834c6.6,0,13.154,0,19.787,0
		c0,2.859,0,5.705,0,8.622c3.066,0,6.053,0,9.088,0c0,8.433,0,16.796,0,25.212C21.751,33.834,12.137,33.834,2.48,33.834z
		 M27.194,20.272c-7.004,0-13.981,0-20.974,0c0,0.692,0,1.347,0,1.99c7.016,0,13.976,0,20.974,0
		C27.194,21.585,27.194,20.948,27.194,20.272z M6.202,30.101c7.017,0,13.993,0,20.991,0c0-0.677,0-1.314,0-1.984
		c-7.018,0-13.994,0-20.991,0C6.202,28.796,6.202,29.434,6.202,30.101z M6.205,14.384c7.011,0,13.99,0,20.982,0
		c0-0.692,0-1.33,0-1.994c-7.012,0-13.976,0-20.982,0C6.205,13.069,6.205,13.708,6.205,14.384z"/>
	<path fill-rule="evenodd" clip-rule="evenodd" fill="#262C30" d="M24.401,0.574c2.203,2.022,4.289,3.938,6.479,5.949
		c-2.246,0-4.338,0-6.479,0C24.401,4.588,24.401,2.673,24.401,0.574z"/>
	<path fill-rule="evenodd" clip-rule="evenodd" fill="#D0CEF5" d="M27.194,20.272c0,0.676,0,1.313,0,1.99
		c-6.998,0-13.958,0-20.974,0c0-0.644,0-1.298,0-1.99C13.213,20.272,20.19,20.272,27.194,20.272z"/>
	<path fill-rule="evenodd" clip-rule="evenodd" fill="#D0CEF5" d="M6.202,30.101c0-0.667,0-1.305,0-1.984c6.997,0,13.973,0,20.991,0
		c0,0.67,0,1.308,0,1.984C20.194,30.101,13.218,30.101,6.202,30.101z"/>
	<path fill-rule="evenodd" clip-rule="evenodd" fill="#D0CEF5" d="M6.205,14.384c0-0.677,0-1.315,0-1.994c7.006,0,13.97,0,20.982,0
		c0,0.664,0,1.302,0,1.994C20.194,14.384,13.215,14.384,6.205,14.384z"/>
</g>
</svg>
