<?xml version="1.0" encoding="utf-8"?>
<!-- Generator: Adobe Illustrator 16.0.0, SVG Export Plug-In . SVG Version: 6.00 Build 0)  -->
<!DOCTYPE svg PUBLIC "-//W3C//DTD SVG 1.1//EN" "http://www.w3.org/Graphics/SVG/1.1/DTD/svg11.dtd">
<svg version="1.1" id="图层_1" xmlns="http://www.w3.org/2000/svg" xmlns:xlink="http://www.w3.org/1999/xlink" x="0px" y="0px"
	 width="792px" height="1224px" viewBox="0 0 792 1224" enable-background="new 0 0 792 1224" xml:space="preserve">
<title>Asset 4</title>
<g>
	<path fill-rule="evenodd" clip-rule="evenodd" fill="#FFFFFF" d="M159.041,884.377c4.819-4.434,7.289-6.557,9.591-8.851
		c38.439-38.248,76.982-76.395,115.153-114.912c6.022-6.079,12.076-8.583,20.616-8.538c60.021,0.32,120.045,0.362,180.067,0.096
		c37.31-0.168,58.031-19.702,58.313-55.96c0.51-65.816,0.502-131.641-0.005-197.453c-0.277-35.787-21.265-55.881-57.084-55.914
		c-114.251-0.114-228.501-0.111-342.751-0.002c-35.734,0.033-56.17,20.49-56.43,56.31c-0.225,31.044-0.053,62.092-0.049,93.139
		c0.005,35.601-0.368,71.205,0.144,106.798c0.442,30.744,19,50.078,49.683,52.71c7.242,0.62,14.584,0.092,22.752,0.092
		C159.041,796.343,159.041,838.844,159.041,884.377z M234.94,413.457c4.631,0,9.478,0,14.324,0
		c78.243,0,156.501,0.901,234.725-0.314c52.03-0.808,89.592,39.408,88.287,87.624c-1.747,64.535-0.391,129.151-0.488,193.733
		c-0.012,7.426,1.084,15.654-1.655,22.103c-4.992,11.754-0.987,18.604,7.434,26.465c17.646,16.467,34.3,33.996,53.992,53.728
		c0-46.708,0-89.473,0-132.79c3.814,0,6.278-0.177,8.71,0.026c42.381,3.56,66.321-23.31,65.369-66.089
		c-1.45-65.378-0.363-130.81-0.387-196.219c-0.015-42.018-19.706-62.02-61.468-62.047c-116.743-0.08-233.488-0.09-350.232,0.107
		c-8.161,0.012-16.714,0.704-24.405,3.189C240.919,352.084,229.275,376.177,234.94,413.457z"/>
	<path fill-rule="evenodd" clip-rule="evenodd" d="M159.041,884.377c0-45.533,0-88.034,0-132.486c-8.168,0-15.51,0.528-22.752-0.092
		c-30.682-2.632-49.241-21.966-49.683-52.71c-0.512-35.593-0.139-71.197-0.144-106.798c-0.004-31.047-0.176-62.095,0.049-93.139
		c0.26-35.819,20.696-56.276,56.43-56.31c114.25-0.109,228.5-0.112,342.751,0.002c35.819,0.033,56.807,20.127,57.084,55.914
		c0.507,65.813,0.515,131.637,0.005,197.453c-0.281,36.258-21.003,55.792-58.313,55.96c-60.021,0.267-120.045,0.225-180.067-0.096
		c-8.54-0.045-14.594,2.459-20.616,8.538c-38.17,38.518-76.714,76.664-115.153,114.912
		C166.33,877.82,163.859,879.943,159.041,884.377z M211.844,626.579c16.382-0.152,29.164-13.063,29.021-29.314
		c-0.137-15.765-13.646-28.734-29.765-28.574c-15.979,0.157-29.464,13.692-29.167,29.271
		C182.244,614.167,195.377,626.731,211.844,626.579z M417.203,626.576c16.439,0.28,29.512-12.14,29.918-28.425
		c0.393-15.718-12.876-29.248-28.894-29.464c-16.095-0.219-29.717,12.665-30.019,28.391
		C387.9,613.179,400.795,626.3,417.203,626.576z M343.776,598.194c0.339-16.137-12.373-29.256-28.634-29.554
		c-16.358-0.301-29.478,12.245-29.689,28.392c-0.218,16.465,12.137,29.266,28.553,29.586
		C330.431,626.941,343.434,614.526,343.776,598.194z"/>
	<path fill-rule="evenodd" clip-rule="evenodd" d="M234.94,413.457c-5.665-37.28,5.979-61.373,34.206-70.484
		c7.69-2.485,16.244-3.177,24.405-3.189c116.744-0.197,233.489-0.187,350.232-0.107c41.762,0.027,61.453,20.029,61.468,62.047
		c0.023,65.409-1.063,130.841,0.387,196.219c0.952,42.779-22.988,69.648-65.369,66.089c-2.432-0.203-4.896-0.026-8.71-0.026
		c0,43.317,0,86.082,0,132.79c-19.692-19.731-36.347-37.261-53.992-53.728c-8.421-7.86-12.426-14.711-7.434-26.465
		c2.739-6.448,1.644-14.677,1.655-22.103c0.098-64.582-1.259-129.198,0.488-193.733c1.305-48.216-36.257-88.432-88.287-87.624
		c-78.224,1.216-156.481,0.314-234.725,0.314C244.418,413.457,239.571,413.457,234.94,413.457z"/>
	<path fill-rule="evenodd" clip-rule="evenodd" fill="#EEE415" d="M211.844,626.579c-16.467,0.152-29.601-12.412-29.911-28.617
		c-0.296-15.579,13.188-29.114,29.167-29.271c16.119-0.16,29.628,12.81,29.765,28.574
		C241.008,613.517,228.226,626.427,211.844,626.579z"/>
	<path fill-rule="evenodd" clip-rule="evenodd" fill="#EEE415" d="M417.203,626.576c-16.408-0.276-29.303-13.397-28.994-29.498
		c0.302-15.726,13.924-28.609,30.019-28.391c16.018,0.216,29.286,13.746,28.894,29.464
		C446.715,614.437,433.643,626.856,417.203,626.576z"/>
	<path fill-rule="evenodd" clip-rule="evenodd" fill="#EEE415" d="M343.776,598.194c-0.342,16.332-13.346,28.747-29.771,28.424
		c-16.417-0.32-28.771-13.121-28.553-29.586c0.212-16.146,13.331-28.692,29.689-28.392
		C331.404,568.938,344.115,582.058,343.776,598.194z"/>
</g>
</svg>
