<?xml version="1.0" encoding="utf-8"?>
<!-- Generator: Adobe Illustrator 16.0.0, SVG Export Plug-In . SVG Version: 6.00 Build 0)  -->
<!DOCTYPE svg PUBLIC "-//W3C//DTD SVG 1.1//EN" "http://www.w3.org/Graphics/SVG/1.1/DTD/svg11.dtd">
<svg version="1.1" id="图层_1" xmlns="http://www.w3.org/2000/svg" xmlns:xlink="http://www.w3.org/1999/xlink" x="0px" y="0px"
	 width="33.834px" height="33.834px" viewBox="0 0 33.834 33.834" enable-background="new 0 0 33.834 33.834" xml:space="preserve">
<title>first</title>
<desc>Created with Sketch.</desc>
<g>
	<path fill-rule="evenodd" clip-rule="evenodd" fill="#262C30" d="M16.929,33.158c-3.289,0-6.581,0.018-9.87-0.006
		c-2.124-0.016-4.104-1.427-4.664-3.438c-0.317-1.133-0.449-2.333-0.533-3.512c-0.362-5.069,1.061-9.596,4.225-13.579
		c1.571-1.977,1.561-1.985,4.052-1.985c5.027,0,10.054,0.004,15.079-0.009c0.4-0.001,0.685,0.118,0.967,0.388
		c3.024,2.893,4.825,6.44,5.559,10.527c0.489,2.714,0.329,5.432-0.317,8.104c-0.475,1.955-2.546,3.488-4.68,3.504
		C23.473,33.175,20.201,33.158,16.929,33.158z M16.127,16.275c-0.462,0.114-0.879,0.186-1.274,0.32
		c-2.172,0.732-2.899,3.305-1.305,4.883c0.566,0.562,1.434,0.821,2.16,1.228c0.158,0.088,0.424,0.205,0.428,0.315
		c0.034,0.98,0.02,1.961,0.02,2.991c-0.823-0.312-1.196-0.909-1.428-1.659c-0.406,0.04-0.785,0.076-1.165,0.113
		c-0.393,0.037-0.785,0.075-1.18,0.111c0.234,1.819,1.193,2.667,3.795,3.38c0,0.427,0,0.872,0,1.32c0.464,0,0.856,0,1.295,0
		c0-0.324,0.026-0.617-0.006-0.902c-0.05-0.426,0.126-0.57,0.537-0.612c0.845-0.09,1.569-0.484,2.196-1.038
		c1.436-1.264,1.541-3.949-0.524-4.939c-0.588-0.282-1.23-0.45-1.839-0.694c-0.142-0.057-0.342-0.209-0.346-0.322
		c-0.029-0.887-0.016-1.775-0.016-2.663c0.064-0.036,0.128-0.071,0.192-0.106c0.34,0.387,0.681,0.773,1.08,1.231
		c0.62-0.071,1.351-0.156,2.116-0.244c-0.457-1.81-1.723-2.479-3.352-2.673c-0.031-0.265-0.059-0.492-0.093-0.769
		c-0.229,0-0.426,0-0.625,0c-0.194,0-0.388,0-0.592,0C16.173,15.836,16.15,16.05,16.127,16.275z"/>
	<path fill-rule="evenodd" clip-rule="evenodd" fill="#262C30" d="M28.843,4.089c-1.382,1.286-2.741,2.559-4.114,3.813
		c-0.114,0.105-0.333,0.136-0.502,0.137c-4.899,0.007-9.798,0.007-14.698-0.001c-0.169,0-0.382-0.043-0.498-0.15
		c-1.357-1.248-2.7-2.511-4.084-3.806C5.623,3.169,6.439,2.458,7.38,1.884c2.494-1.523,5.043-1.674,7.554-0.113
		c1.356,0.842,2.565,0.869,3.912,0.005C22.546-0.598,26.655,1.243,28.843,4.089z"/>
	<path fill-rule="evenodd" clip-rule="evenodd" fill="#262C30" d="M17.508,26.104c0-0.98,0-1.923,0-2.869
		c0.991,0.159,1.538,0.7,1.503,1.455C18.976,25.44,18.384,26.009,17.508,26.104z"/>
	<path fill-rule="evenodd" clip-rule="evenodd" fill="#262C30" d="M16.123,18.02c0,0.885,0,1.712,0,2.551
		c-0.701-0.204-1.107-0.642-1.133-1.193C14.964,18.771,15.325,18.322,16.123,18.02z"/>
</g>
</svg>
