<?xml version="1.0" encoding="utf-8"?>
<!-- Generator: Adobe Illustrator 16.0.0, SVG Export Plug-In . SVG Version: 6.00 Build 0)  -->
<!DOCTYPE svg PUBLIC "-//W3C//DTD SVG 1.1//EN" "http://www.w3.org/Graphics/SVG/1.1/DTD/svg11.dtd">
<svg version="1.1" id="图层_1" xmlns="http://www.w3.org/2000/svg" xmlns:xlink="http://www.w3.org/1999/xlink" x="0px" y="0px"
	 width="33.834px" height="33.834px" viewBox="0 0 33.834 33.834" enable-background="new 0 0 33.834 33.834" xml:space="preserve">
<title>first</title>
<desc>Created with Sketch.</desc>
<g>
	<path fill-rule="evenodd" clip-rule="evenodd" fill="#262C30" d="M28.641,18.588c0-1.858,0-3.646,0-5.528
		c-0.169,0.13-0.299,0.209-0.403,0.313c-0.763,0.758-1.514,1.529-2.284,2.278c-0.843,0.819-1.871,0.868-2.583,0.146
		c-0.712-0.721-0.648-1.753,0.179-2.584c1.809-1.817,3.633-3.621,5.437-5.443c0.581-0.586,1.234-0.822,2.021-0.533
		c0.705,0.259,1.046,0.866,1.046,1.79c0.001,3.702,0.002,7.405,0,11.107c-0.002,1.226-0.638,1.861-1.874,1.868
		c-1.345,0.008-2.69,0.002-4.033,0.004c-0.817,0-0.818,0-0.818,0.787c0,2.813,0.004,5.627-0.005,8.44
		c-0.002,0.346-0.036,0.703-0.12,1.042c-0.183,0.743-0.882,1.22-1.681,1.188c-0.766-0.028-1.405-0.539-1.557-1.271
		c-0.062-0.301-0.099-0.613-0.099-0.92c-0.008-3.475-0.006-6.949-0.004-10.424c0.001-1.648,0.606-2.258,2.233-2.26
		c1.303,0,2.606,0,3.909,0C28.206,18.588,28.406,18.588,28.641,18.588z"/>
	<path fill-rule="evenodd" clip-rule="evenodd" fill="#262C30" d="M8.521,22.005c-1.666,0-3.217,0-4.767-0.002
		c-1.382-0.002-2.017-0.624-2.018-1.992c-0.003-3.662-0.002-7.325,0-10.986c0.001-0.896,0.372-1.535,1.064-1.789
		c0.762-0.279,1.41-0.071,1.976,0.496c1.854,1.861,3.718,3.713,5.571,5.575c0.599,0.602,0.748,1.385,0.418,2.043
		c-0.342,0.682-1.022,1.078-1.795,0.904c-0.395-0.089-0.799-0.34-1.097-0.625c-0.873-0.837-1.694-1.728-2.536-2.597
		c-0.046,0.03-0.09,0.061-0.135,0.091c0,1.803,0,3.605,0,5.465c1.548,0,3.072,0,4.595,0.002c1.52,0,2.098,0.583,2.098,2.096
		c0,3.641,0.001,7.284,0,10.924c0,1.107-0.644,1.833-1.641,1.854c-1.035,0.022-1.729-0.698-1.731-1.827
		c-0.007-2.938-0.003-5.874-0.003-8.813C8.521,22.579,8.521,22.337,8.521,22.005z"/>
	<path fill-rule="evenodd" clip-rule="evenodd" fill="#EEE415" d="M3.468,0.37c1.503,0.01,2.725,1.239,2.718,2.735
		c-0.007,1.486-1.25,2.728-2.736,2.731C1.927,5.841,0.701,4.593,0.718,3.056C0.734,1.538,1.941,0.36,3.468,0.37z"/>
	<path fill-rule="evenodd" clip-rule="evenodd" fill="#EEE415" d="M27.647,3.076c0.01-1.521,1.207-2.707,2.73-2.706
		c1.508,0.001,2.729,1.211,2.738,2.714c0.008,1.507-1.27,2.773-2.776,2.752C28.841,5.815,27.638,4.582,27.647,3.076z"/>
	<path fill-rule="evenodd" clip-rule="evenodd" fill="#262C30" d="M9.769,17.893c-0.765,0-1.533,0.027-2.295-0.013
		c-0.36-0.016-0.998,0.253-0.979-0.385c0.019-0.594,0.645-0.355,1.013-0.361c1.511-0.024,3.021-0.024,4.531,0
		c0.41,0.007,0.628-0.126,0.825-0.48c0.777-1.39,1.585-2.76,2.382-4.138c0.052-0.09,0.08-0.218,0.156-0.263
		c0.172-0.102,0.368-0.162,0.555-0.24c0.039,0.199,0.179,0.454,0.104,0.588c-0.938,1.678-1.897,3.343-2.883,4.993
		c-0.097,0.164-0.402,0.278-0.614,0.286C11.633,17.911,10.701,17.893,9.769,17.893z"/>
	<path fill-rule="evenodd" clip-rule="evenodd" fill="#262C30" d="M23.947,17.893c-0.888,0-1.779,0.031-2.665-0.019
		c-0.253-0.016-0.594-0.201-0.722-0.412c-0.938-1.557-1.833-3.14-2.744-4.714c-0.151-0.263-0.318-0.573,0.067-0.715
		c0.14-0.052,0.482,0.164,0.589,0.343c0.829,1.381,1.644,2.772,2.417,4.187c0.245,0.449,0.534,0.581,1.023,0.572
		c1.51-0.03,3.021-0.012,4.529-0.011c0.146,0,0.314-0.043,0.429,0.016c0.175,0.088,0.312,0.25,0.463,0.38
		c-0.156,0.125-0.309,0.351-0.47,0.354C25.894,17.909,24.921,17.893,23.947,17.893z"/>
</g>
</svg>
