<?xml version="1.0" encoding="utf-8"?>
<!-- Generator: Adobe Illustrator 16.0.0, SVG Export Plug-In . SVG Version: 6.00 Build 0)  -->
<!DOCTYPE svg PUBLIC "-//W3C//DTD SVG 1.1//EN" "http://www.w3.org/Graphics/SVG/1.1/DTD/svg11.dtd">
<svg version="1.1" id="图层_1" xmlns="http://www.w3.org/2000/svg" xmlns:xlink="http://www.w3.org/1999/xlink" x="0px" y="0px"
	 width="792px" height="477px" viewBox="0 0 792 477" enable-background="new 0 0 792 477" xml:space="preserve">
<g>
	<g>
		<g>
			<g>
				<rect x="621.437" y="102.265" fill="#FF5959" width="25.183" height="295.522"/>
			</g>
		</g>
		<g opacity="0.9">
			<g>
				<rect x="571.071" y="130.639" fill="#FF5959" width="25.183" height="267.148"/>
			</g>
		</g>
		<g opacity="0.8">
			<g>
				<rect x="520.705" y="168.114" fill="#FF5959" width="25.183" height="229.673"/>
			</g>
		</g>
		<g opacity="0.7">
			<g>
				<rect x="470.34" y="199.166" fill="#FF5959" width="25.182" height="198.621"/>
			</g>
		</g>
		<g opacity="0.6">
			<g>
				<rect x="419.974" y="224.329" fill="#FF5959" width="25.182" height="173.458"/>
			</g>
		</g>
		<g opacity="0.5">
			<g>
				<rect x="369.606" y="239.318" fill="#FF5959" width="25.184" height="158.469"/>
			</g>
		</g>
		<g opacity="0.4">
			<g>
				<rect x="319.242" y="253.238" fill="#FF5959" width="25.183" height="144.549"/>
			</g>
		</g>
		<g opacity="0.3">
			<g>
				<rect x="268.876" y="266.623" fill="#FF5959" width="25.183" height="131.164"/>
			</g>
		</g>
		<g opacity="0.2">
			<g>
				<rect x="218.51" y="280.006" fill="#FF5959" width="25.182" height="117.781"/>
			</g>
		</g>
		<g opacity="0.1">
			<g>
				<rect x="168.145" y="290.713" fill="#FF5959" width="25.182" height="107.074"/>
			</g>
		</g>
	</g>
	<g>
		<g>
			<g>
				<line fill="none" stroke="#000000" stroke-miterlimit="10" x1="117.779" y1="397.787" x2="679.122" y2="397.787"/>
				<g>
					<polygon points="675.81,401.877 675.127,401.145 678.739,397.789 675.127,394.432 675.81,393.699 680.207,397.789 					"/>
				</g>
			</g>
		</g>
	</g>
	<g>
		<g>
			<text transform="matrix(1 0 0 1 104.8701 404.5215)" font-family="'BentonSans-Light'" font-size="10.7672">0</text>
			<text transform="matrix(1 0 0 1 93.3604 350.9844)" font-family="'BentonSans-Light'" font-size="10.7672">100</text>
			<text transform="matrix(1 0 0 1 91.6914 297.4482)" font-family="'BentonSans-Light'" font-size="10.7672">200</text>
			<text transform="matrix(1 0 0 1 91.6699 243.9111)" font-family="'BentonSans-Light'" font-size="10.7672">300</text>
			<text transform="matrix(1 0 0 1 91.5947 190.375)" font-family="'BentonSans-Light'" font-size="10.7672">400</text>
			<text transform="matrix(1 0 0 1 91.7451 136.8379)" font-family="'BentonSans-Light'" font-size="10.7672">500</text>
			<text transform="matrix(1 0 0 1 91.4761 83.3013)" font-family="'BentonSans-Light'" font-size="10.7672">600</text>
		</g>
		<g>
			<g>
				<line fill="none" stroke="#000000" stroke-miterlimit="10" x1="117.779" y1="397.787" x2="117.779" y2="54.322"/>
				<g>
					<polygon points="121.869,57.636 121.137,58.318 117.78,54.706 114.423,58.318 113.69,57.636 117.78,53.238 					"/>
				</g>
			</g>
		</g>
		<g>
			<g>
				<line fill="none" stroke="#000000" stroke-miterlimit="10" x1="117.779" y1="344.25" x2="127.357" y2="344.25"/>
				<line fill="none" stroke="#000000" stroke-miterlimit="10" x1="117.779" y1="290.713" x2="127.357" y2="290.713"/>
				<line fill="none" stroke="#000000" stroke-miterlimit="10" x1="117.779" y1="237.177" x2="127.357" y2="237.177"/>
				<line fill="none" stroke="#000000" stroke-miterlimit="10" x1="117.779" y1="183.641" x2="127.357" y2="183.641"/>
				<line fill="none" stroke="#000000" stroke-miterlimit="10" x1="117.779" y1="130.104" x2="127.357" y2="130.104"/>
				<line fill="none" stroke="#000000" stroke-miterlimit="10" x1="117.779" y1="76.566" x2="127.357" y2="76.566"/>
			</g>
			<g>
			</g>
		</g>
	</g>
</g>
<g>
	<g>
	</g>
	<g>
	</g>
	<g>
	</g>
	<g>
	</g>
	<g>
	</g>
	<g>
	</g>
	<g>
	</g>
	<g>
	</g>
	<g>
	</g>
	<g>
	</g>
</g>
<text transform="matrix(1 0 0 1 167.6445 420)" font-family="'BentonSans-Light'" font-size="12">2009</text>
<text transform="matrix(-4.371138e-008 -0.9769 1 -4.269963e-008 193.3267 280.0059)" fill="#FF5959" font-family="'BentonSans-Medium'" font-size="14.3317">200</text>
<text transform="matrix(-4.371138e-008 -0.9769 1 -4.269963e-008 243.6924 266.623)" fill="#FF5959" font-family="'BentonSans-Medium'" font-size="14.3317">220</text>
<text transform="matrix(-4.371138e-008 -0.9769 1 -4.269963e-008 294.0591 253.2383)" fill="#FF5959" font-family="'BentonSans-Medium'" font-size="14.3317">245</text>
<text transform="matrix(-4.371138e-008 -0.9769 1 -4.269963e-008 344.4248 237.1772)" fill="#FF5959" font-family="'BentonSans-Medium'" font-size="14.3317">270</text>
<text transform="matrix(-4.371138e-008 -0.9769 1 -4.269963e-008 394.79 225.5132)" fill="#FF5959" font-family="'BentonSans-Medium'" font-size="14.3317">296</text>
<text transform="matrix(-4.371138e-008 -0.9769 1 -4.269963e-008 445.1553 212.5132)" fill="#FF5959" font-family="'BentonSans-Medium'" font-size="14.3317">324</text>
<text transform="matrix(-4.371138e-008 -0.9769 1 -4.269963e-008 495.5215 183.6401)" fill="#FF5959" font-family="'BentonSans-Medium'" font-size="14.3317">371</text>
<text transform="matrix(-4.371138e-008 -0.9769 1 -4.269963e-008 545.8877 153.6401)" fill="#FF5959" font-family="'BentonSans-Medium'" font-size="14.3317">429</text>
<text transform="matrix(-4.371138e-008 -0.9769 1 -4.269963e-008 596.2539 121.6401)" fill="#FF5959" font-family="'BentonSans-Medium'" font-size="14.3317">499</text>
<text transform="matrix(-4.371138e-008 -0.9769 1 -4.269963e-008 646.6191 92.6401)" fill="#FF5959" font-family="'BentonSans-Medium'" font-size="14.3317">552</text>
<text transform="matrix(1 0 0 1 621.4365 420)" font-family="'BentonSans-Light'" font-size="12">2018</text>
<text transform="matrix(1 0 0 1 571.0713 420)" font-family="'BentonSans-Light'" font-size="12">2017</text>
<text transform="matrix(1 0 0 1 520.7051 420)" font-family="'BentonSans-Light'" font-size="12">2016</text>
<text transform="matrix(1 0 0 1 470.3398 420)" font-family="'BentonSans-Light'" font-size="12">2015</text>
<text transform="matrix(1 0 0 1 419.9736 420)" font-family="'BentonSans-Light'" font-size="12">2014</text>
<text transform="matrix(1 0 0 1 369.6064 420)" font-family="'BentonSans-Light'" font-size="12">2013</text>
<text transform="matrix(1 0 0 1 319.2422 420)" font-family="'BentonSans-Light'" font-size="12">2012</text>
<text transform="matrix(1 0 0 1 268.8765 420)" font-family="'BentonSans-Light'" font-size="12">2011</text>
<text transform="matrix(1 0 0 1 218.5103 420)" font-family="'BentonSans-Light'" font-size="12">2010</text>
<text transform="matrix(-4.371139e-008 -1 1 -4.371139e-008 62.5 323.7939)"><tspan x="0" y="0" font-family="'BentonSans-Book'" font-size="14">Craft learning market scale</tspan><tspan x="54.925" y="14.4" font-family="'BentonSans-Italic'" font-size="12">Billion RMB</tspan></text>
<text transform="matrix(1 0 0 1 686.3574 397.7881)" font-family="'BentonSans-Book'" font-size="14">Year</text>
</svg>
