<?xml version="1.0" encoding="utf-8"?>
<!-- Generator: Adobe Illustrator 16.0.0, SVG Export Plug-In . SVG Version: 6.00 Build 0)  -->
<!DOCTYPE svg PUBLIC "-//W3C//DTD SVG 1.1//EN" "http://www.w3.org/Graphics/SVG/1.1/DTD/svg11.dtd">
<svg version="1.1" id="图层_1" xmlns="http://www.w3.org/2000/svg" xmlns:xlink="http://www.w3.org/1999/xlink" x="0px" y="0px"
	 width="792px" height="477px" viewBox="0 0 792 477" enable-background="new 0 0 792 477" xml:space="preserve">
<g>
	<defs>
		<rect id="SVGID_1_" x="24.5" y="84.29" width="743" height="308.42"/>
	</defs>
	<clipPath id="SVGID_2_">
		<use xlink:href="#SVGID_1_"  overflow="visible"/>
	</clipPath>
	<g clip-path="url(#SVGID_2_)">
		<defs>
			<rect id="SVGID_3_" x="24.5" y="84.29" width="743" height="308.42"/>
		</defs>
		<clipPath id="SVGID_4_">
			<use xlink:href="#SVGID_3_"  overflow="visible"/>
		</clipPath>
		<g opacity="0.75" clip-path="url(#SVGID_4_)">
			<g>
				<defs>
					<rect id="SVGID_5_" x="311.067" y="50.743" width="494.049" height="344.204"/>
				</defs>
				<clipPath id="SVGID_6_">
					<use xlink:href="#SVGID_5_"  overflow="visible"/>
				</clipPath>
				<path clip-path="url(#SVGID_6_)" fill="#F096AB" d="M649.883,159.714c-0.139-0.16-0.277-0.319-0.417-0.48
					c-0.67,1.427-1.202,3.016-3.315,2.557c-1.32-0.286-4.438,1.151-4.263,2.295c0.479,3.114-1.43,4.086-3.582,5.107
					c-0.177,0.082-0.269,0.324-0.444,0.414c-1.655,0.854-3.418,2.431-5.233,1.204c-2.067-1.398-2.765-0.542-3.688,1.158
					c-2.97,5.473-9.015,6.65-13.837,2.799c-1.359-1.085-2.988-1.552-4.12,0.009c-1.192,1.651-2.27,3.559-2.687,5.511
					c-0.174,0.827,1.423,2.078,2.292,3.065c0.523,0.597,1.201,1.055,2.063,1.791c-1.229,1.427-2.067,3.345-3.333,3.687
					c-3.241,0.882-5.229,3.05-7.089,5.469c-2.857,3.719-6.897,4.419-11.147,4.425c-0.861,0-1.718-0.018-2.572-0.036
					c-3.709-0.082-7.396-0.165-11.007,1.403c-4.082,1.773-8.489,2.748-12.066,5.68c-2.025,1.664-4.394,0.861-5.447-1.58
					c-2.733,1.37-5.335,0.742-7.994-0.438c-1.893-0.839-3.956-1.277-5.914-1.979c-0.873-0.314-1.937-0.635-2.454-1.307
					c-1.327-1.727-3.171-2.365-5.098-2.627c-3.006-0.412-6.048-0.561-9.082-0.743c-3.773-0.226-7.552-0.361-11.33-0.552
					c-3.242-0.166-6.483-0.542-9.719-0.484c-3.118,0.05-6.562-2.569-7.429-5.668c-0.588-2.1-1.701-4.059-2.637-6.057
					c-0.344-0.742-0.847-1.412-1.043-1.731c-1.659-0.824-3.15-1.396-4.456-2.247c-1.41-0.927-2.657-2.104-3.961-3.189
					c-1.878-1.568-3.91-2.378-6.482-2.376c-3.981,0.004-7.979-0.363-11.947-0.771c-3.854-0.395-5.611-3.815-3.953-7.292
					c0.604-1.264,1.322-2.536,1.58-3.881c0.25-1.33,0.05-2.765-0.07-4.141c-0.067-0.784-0.222-1.623-0.584-2.301
					c-1.267-2.368-2.751-4.627-3.939-7.031c-0.746-1.523-1.132-3.206-3.364-2.967c-0.234,0.024-0.637-0.13-0.721-0.312
					c-0.956-2.161-3.096-1.734-4.8-2.337c-1.029-0.363-1.904-1.22-2.779-1.942c-0.619-0.51-1.025-1.34-1.7-1.725
					c-2.842-1.621-4.743-3.636-3.368-7.543c-1.68,0.452-3.075,1.08-4.494,1.146c-1.725,0.08-2.527,0.495-2.689,2.396
					c-0.23,2.679-2.437,4.499-5.116,4.481c-1.756-0.008-2.342,1.151-2.38,2.451c-0.063,2.465,0.11,4.945,0.324,7.409
					c0.109,1.226-0.906,3.875-2.031,4.307c-1.522,0.578-3.099,1.018-4.434,1.446c-0.737-0.448-1.439-1.232-2.12-1.216
					c-3.31,0.069-6.501-0.106-9.215-2.639c-0.582,2.123-0.967,3.967-1.597,5.725c-1.074,2.992-2.284,5.934-3.473,8.881
					c-0.428,1.057-0.408,1.763,0.637,2.597c1.338,1.068,1.509,2.572,0.765,3.624c-1.505,0.189-2.822-0.231-4.099-0.651
					c-1.486-0.491-2.916-0.981-4.523-0.502c-2.834,0.844-5.648,1.743-8.472,2.617c2.723,1.003,2.559,0.985,2.274,3.751
					c-0.188,1.84-0.089,3.806,0.349,5.602c0.489,2.014,1.564,3.881,2.258,5.859c0.245,0.702,0.462,1.836,0.096,2.258
					c-1.269,1.454-2.798,2.682-4.202,3.976c0.12,1.598,0.311,3.266,0.331,4.939c0.004,0.485-0.358,1.217-0.761,1.428
					c-2.336,1.221-4.761,2.271-7.101,3.486c-1.007,0.525-2.083,1.138-2.786,1.993c-2.997,3.631-7.297,4.083-11.45,4.813
					c-1.028,0.181-1.479,0.457-1.861,1.381c-1.765,4.283-5.348,4.933-8.356,1.428c-1.652,0.798-3.377,1.557-5.024,2.461
					c-0.62,0.339-1.03,1.043-1.597,1.501c-0.351,0.283-0.826,0.599-1.239,0.591c-1.492-0.028-1.903,0.979-2.358,2.097
					c-0.608,1.493-1.326,2.94-2.276,5.024c0.261,1.275,0.69,3.372,1.209,5.895c2.237-1.579,4.073-1.125,5.717,0.155
					c0.454,0.354,0.696,1.129,0.805,1.754c0.375,2.152,0.384,4.412,1.066,6.453c0.399,1.192,0.751,1.899-0.089,3.056
					c-0.877,1.207-0.396,2.266,1.149,2.729c1.203,0.359,2.485,0.649,3.535,1.293c1.599,0.98,2.934,2.167,2.881,4.457
					c-0.025,1.047-0.041,3.092,1.862,2.817c1.262-0.182,1.638,0.234,2.458,0.955c1.094,0.957,2.626,1.498,4.052,1.961
					c1.196,0.39,2.514,0.414,3.598,0.572c1.225,2.556,2.251,4.985,3.539,7.271c0.738,1.307,1.833,2.442,2.899,3.522
					c0.822,0.833,1.411,1.488,0.876,2.803c-0.277,0.675-0.105,1.689,0.193,2.418c0.995,2.438,2.269,4.767,3.142,7.244
					c0.235,0.668-0.352,2.126-0.969,2.453c-0.615,0.329-1.78-0.207-2.627-0.554c-0.437-0.177-0.707-0.761-1.083-1.197
					c-0.589,0.343-1.085,0.63-1.218,0.709c0.79,3.165,1.461,6.079,2.275,8.954c0.167,0.583,0.779,1.232,1.347,1.473
					c1.731,0.729,3.54,1.269,5.316,1.898c0.184,0.065,0.339,0.216,0.497,0.335c2.904,2.241,5.809,4.482,8.789,6.786
					c0.447-0.645,0.775-1.073,1.053-1.528c1.209-1.987,4.518-2.121,6.11-0.407c1.637,1.76,3.487,3.329,5.236,4.987
					c1.279,1.216,2.548,2.446,4.027,3.866c0.433-0.188,1.346-0.629,2.289-0.979c1.052-0.393,1.827-0.379,1.853,1.146
					c0.013,0.644,0.393,1.478,0.888,1.882c1.96,1.606,4.026,3.085,6.063,4.598c0.041,0.031,0.115,0.01,0.197-0.007
					c0.069-0.019,0.142-0.033,0.193-0.019c1.658,0.502,3.289,1.092,4.967,1.505c3.451,0.853,6.894,1.876,10.402,2.305
					c1.754,0.212,3.641-0.769,5.484-1.137c1.001-0.202,2.787-0.587,2.914-0.305c0.506,1.131,0.58,2.491,0.655,3.774
					c0.025,0.559-0.335,1.139-0.521,1.707c1.446-1.463,2.469-3.102,3.429-4.775c0.602-1.045,4.887-3.502,6.05-3.347
					c0.309,0.039,0.585,0.287,0.885,0.413c1.448,0.609,2.863,1.344,4.366,1.772c1.267,0.363,2.634,0.37,3.896,0.527
					c0.397,3.5,0.402,3.72,2.057,3.685c1.853-0.039,2.333,1.07,2.225,2.383c-0.192,2.372,1.127,2.731,2.957,2.657
					c0.672-0.028,1.41,0.037,2.003-0.212c3.645-1.522,7.257-3.116,10.873-4.71c0.363-0.162,0.685-0.451,0.973-0.732
					c1.365-1.331,2.471-2.878,4.707-3.095c1.284-0.125,2.647-0.879,3.69-1.702c1.59-1.258,2.757-1.726,3.615,1.13
					c2.144-3.788,4.094-2.346,5.942,0.136c0.449-1.057,0.651-1.885,1.123-2.505c0.34-0.448,1.067-0.906,1.577-0.86
					c2.523,0.24,3.876,1.655,4.318,4.149c0.163,0.927,0.466,1.828,0.704,2.74c2.088-0.194,2.77,0.601,3.105,2.654
					c0.712,4.361-0.864,8.271-2.097,12.262c-0.18,0.58-0.799,1.021-1.209,1.537c-1.276,1.599-2.539,3.203-3.814,4.799
					c-1.605,2.002,0.651,4.111-0.156,5.731c2.38-0.159,4.813-0.323,7.015-0.468c0.961,3.447-0.333,7.483,4.529,8.18
					c0.302,0.047,0.734,1.1,0.642,1.598c-0.311,1.704-0.834,3.368-1.301,5.144c0.359,0.082,0.68,0.222,0.994,0.215
					c1.797-0.039,3.107,0.357,3.396,2.528c0.259,1.927,1.771,2.194,3.396,1.806c0.643-0.153,1.32-0.434,1.819-0.852
					c1.426-1.175,2.545-1.245,3.167,0.721c0.5,1.579,1.442,2.378,3.232,2.121c-0.288-2.938-0.579-5.871-0.869-8.824
					c0.488-0.028,0.624-0.044,0.76-0.044c0.328-0.001,0.669,0.02,1.005,0.042c1.524,0.103,3.049,0.202,3.691-1.955
					c0.059-0.191,0.871-0.349,1.228-0.226c0.815,0.286,1.696,0.615,2.32,1.183c0.991,0.905,1.574,0.646,2.316-0.274
					c0.39-0.484,1.333-1.185,1.548-1.046c1.863,1.207,3.546-0.021,5.229-0.331c1.314-0.243,2.621-0.91,3.757-1.652
					c1.251-0.82,2.308-1.939,3.734-3.177c1.377,3.261,4.216,3.261,6.697,3.953c0.646,0.182,1.327,0.255,1.982,0.415
					c1.546,0.382,1.711,1.354,1.027,2.604c-0.249,0.46-0.614,0.858-1.012,1.396c1.888,1.641,3.709,3.224,5.531,4.81
					c1.104-0.232,2.217-0.277,3.046,0.188c1.314,0.735,2.35,0.51,3.319-0.399c0.473-0.442,0.743-1.099,1.027-1.542
					c2.223,1.21,3.943,2.146,5.747,3.13c0.441-0.731,0.904-1.495,1.446-2.392c1.202,1.114,2.205,2.045,3.21,2.977
					c-2.634,2.658-2.188,4.648,1.575,7.992c1.195-0.946,1.125-1.704-0.295-3.259c-0.868-0.95-0.72-3.371,0.606-4.56
					c0.437-0.394,1.644,0.071,2.842,0.172c1.577-1.979,5.467,0.045,6.978-3.083c1.647,0.544,3.167,0.741,4.247-1.086
					c0.476,0.343,0.885,0.636,1.472,1.059c0.83-1.014,1.742-1.914,2.385-2.973c0.642-1.059,1.013-2.281,1.677-3.839
					c0.738,1.074,1.259,1.833,1.896,2.759c0.385-1.955-1.801-4.188,1.168-5.569c0.536,0.972,0.977,1.872,1.518,2.714
					c0.784,1.223,1.813,1.785,3.217,0.924c0.696-0.424,1.331-0.995,2.082-1.263c0.438-0.159,0.935-0.154,1.43-0.153
					c0.218,0.003,0.439,0.004,0.654-0.009c0.019,0.147,0.04,0.289,0.062,0.434c0.772-0.505,1.543-1.01,2.42-1.584
					c0.378,0.666,0.643,1.136,0.987,1.748c0.555-0.708,0.962-1.227,1.379-1.754c1.88,1.318,3.781,0.65,5.056-0.472
					c0.729-0.645,0.408-2.488,0.602-4.147c0.27-0.189,0.997-0.697,1.726-1.205c0.07,0.204,0.146,0.413,0.216,0.617
					c0.708-0.162,1.479-0.19,2.104-0.511c1.389-0.712,2.78-1.472,4.027-2.405c0.927-0.693,1.604-1.712,2.442-2.534
					c0.538-0.523,1.144-0.982,1.755-1.421c1.197-0.856,3.64-0.231,3.356-2.881c-0.031-0.272,0.504-0.598,0.764-0.909
					c3.512-4.229,3.932-4.777,4.727-8.414c0.378-1.751,0.314-3.601,0.477-5.405c0.012-0.152,0.201-0.295,0.339-0.48
					c0.516,0.384,0.982,0.731,1.729,1.287c0.595-1.104,1.099-2.069,1.637-3.022c0.153-0.272,0.475-0.746,0.567-0.71
					c1.297,0.464,1.267-0.599,1.506-1.286c0.708-1.998,1.709-4.13,3.526-4.933c2.25-0.994,2.694-2.46,3.276-4.544
					c0.387-1.404,0.32-2.727,0.536-4.076c0.039-0.255,0.192-0.492,0.333-0.83c0.606,0.154,1.166,0.301,1.799,0.465
					c-0.11-0.576-0.209-1.1-0.304-1.588c-0.842,0.263-1.522,0.482-2.202,0.699c-0.075-0.143-0.154-0.284-0.229-0.43
					c0.833-1.076,1.66-2.152,2.532-3.278c-1.695-1.405-3.204-3.316-5.505-2.337c-2.148,0.916-3.429-0.668-5.274-1.218
					c3.396-0.501,5.554-3.108,8.444-4.361c0.243-0.104,0.543-0.084,0.794-0.176c0.551-0.195,1.086-0.426,1.683-0.666
					c-0.409-1.681-1.158-2.781-2.741-3.367c-1.911-0.71-2.745-2.229-2.71-4.047h4.277c-1.462-2.021-2.47-4.146-4.106-5.51
					c-2.636-2.19-2.813-5.286-3.814-8.085c-1.612-4.491-2.868-9.235-8.767-9.641c-0.837-1.818-0.288-3.12,0.563-4.762
					c1.188-2.288,3.228-3.465,4.928-5.082c1-0.953,2.269-1.614,3.333-2.511c0.444-0.375,0.697-0.999,0.986-1.541
					c0.431-0.809,0.607-2.113,1.249-2.393c3.168-1.377,6.463-2.454,9.681-3.719c0.626-0.249,1.104-0.871,2.073-1.666
					c-4.542-1.517-9.573,0.496-12.334-4.219c-1.114,0.942-2.02,1.748-2.967,2.502c-1.673,1.336-2.712,3.453-5.373,3.52
					c-3.188,0.084-4.956-1.642-4.149-4.631c0.253-0.939,0.807-1.8,1.306-2.877c-0.633-0.286-1.247-0.728-1.913-0.83
					c-1.337-0.208-2.774,0.009-4.032-0.389c-1.257-0.398-2.734-1.06-3.438-2.075c-2.235-3.235-1.424-5.77,2.425-8.519
					c0.609,0.545,1.238,1.109,1.634,1.465c1.529-0.44,2.877-0.671,4.068-1.227c0.784-0.369,1.972-1.286,1.908-1.828
					c-0.303-2.422,1.145-3.461,2.896-4.351c1.25-0.636,2.572-1.128,3.853-1.71c0.532-0.242,1.22-0.416,1.523-0.841
					c1.47-2.044,2.761-4.215,4.276-6.221c0.333-0.438,1.386-0.653,1.992-0.5c1.349,0.327,2.595,1.041,3.932,1.44
					c2.415,0.727,3.298,2.591,2.057,4.789c-0.694,1.236-1.58,2.362-2.363,3.548c-0.842,1.276-1.662,2.566-2.591,3.992
					c1.006,0.272,1.552,0.421,1.853,0.504v2.551c0.747-0.426,1.525-0.809,2.229-1.292c1.008-0.69,1.907-1.55,2.954-2.166
					c1.507-0.883,3.108-1.611,5.271-2.713c1.563-0.274,3.904-0.639,6.216-1.136c0.405-0.086,0.721-0.707,1.044-1.107
					c0.416-0.521,0.708-1.186,1.214-1.586c1.966-1.553,3.956-3.087,6.017-4.511c1.469-1.012,3.339-1.572,4.531-2.813
					c1.431-1.478,2.395-3.429,3.443-5.242c0.984-1.689,1.413-1.825,2.887-0.541c2.542,2.211,6.129,2.332,9.012,0.25
					c-0.563-1.459-1.138-2.94-1.932-4.99c2.746,2.063,5.163,2.061,7.225,0.147c1.788-1.659,4.372-2.631,4.593-5.789
					c0.122-1.707,1.978-1.781,3.308-1.821c0.365,1.284,0.652,2.303,0.837,2.956c1.063-0.672,1.972-1.444,3.023-1.875
					c1.713-0.707,2.186-1.952,2.321-3.664c0.408-5.106,0.19-10.142-1.453-15.208c2.508-0.601,5.754-0.29,5.115-4.383
					c0.668,0.089,1.085,0.074,1.451,0.202c1.846,0.656,3.665,1.385,5.518,2.016c1.36,0.464,2.178,0.129,2.249-1.536
					c0.031-0.726,0.497-1.467,0.88-2.136c0.555-0.962,1.293-1.823,1.802-2.804c0.527-1.015,0.645-2.312,1.337-3.163
					c2.703-3.329,2.348-7.563,3.482-11.34c0.393-1.301,0.577-2.314,1.934-3.011c0.696-0.357,1.371-1.495,1.385-2.293
					c0.032-1.826-0.346-3.659-0.598-5.842c-0.491,0-1.406-0.21-2.171,0.037c-4.075,1.3-8.099,2.72-11.209,5.887
					c-0.294,0.295-0.845,0.463-1.281,0.467c-3.004,0.039-6.01,0.022-8.43,0.022c-4.398-2.939-2.292-7.822-4.659-11.312
					c-2.167-0.017-3.477-1.618-4.609-3.474c-0.791-1.291-1.71-2.8-3.424-2.319c-1.728,0.485-2.804-0.313-4.095-1.046
					c-0.757-0.43-1.771-0.899-2.537-0.735c-2.923,0.627-6.422-2.131-5.832-5.054c0.72-3.567-1.424-6.056-2.708-8.902
					c-0.686-1.517-1.237-3.086-1.811-4.648c-0.221-0.601-0.303-1.251-0.5-1.859c-0.755-2.344-1.454-4.71-2.324-7.011
					c-0.759-2.001-1.632-3.972-2.611-5.873c-0.632-1.223-1.905-2.195-2.245-3.45c-0.303-1.12-0.759-1.597-1.713-1.904
					c-1.297-0.418-2.539-1.391-3.962-0.239c-0.175,0.141-0.669,0.018-0.947-0.124c-2.261-1.135-4.543-2.23-6.737-3.479
					c-1.723-0.985-3.335-1.236-5.367-0.799c-3.51,0.753-7.167,0.834-10.509,2.378c-0.288,0.132-0.708,0.181-1.003,0.083
					c-2.754-0.926-3.835,1.032-5.054,2.838c-0.641,0.951-1.404,1.82-2.068,2.754c-0.209,0.291-0.48,0.802-0.363,0.999
					c0.188,0.32,0.702,0.678,1.035,0.639c1.377-0.154,1.702,0.673,1.992,1.744c0.206,0.762,0.796,1.432,0.931,2.197
					c0.186,1.057,0.415,2.283,0.047,3.211c-0.389,0.989-1.341,1.862-2.241,2.524c-2.124,1.564-3.604,3.394-3.792,6.166
					c-0.062,0.882-0.621,1.748-1.03,2.582c-0.802,1.614-1.685,3.187-2.466,4.814c-0.152,0.314-0.11,0.854,0.063,1.175
					c0.85,1.595,0.13,4.425-1.553,4.658c-3.059,0.426-5.148,2.215-7.229,4.159c-0.908,0.845-1.776,0.929-2.918,0.324
					c-1.891-0.998-3.881-1.811-5.905-2.736c-3.149,3.908-4.247,8.512-5.149,13.039c-0.337,1.681-0.92,2.698-1.97,3.818
					c-0.46,0.487-0.778,1.948-0.591,2.066c1.185,0.75,1.756,2.787,3.694,2.051c2.889-1.094,5.752-2.23,8.506,0.073
					c0.236-0.11,0.375-0.148,0.473-0.231c0.153-0.129,0.3-0.277,0.421-0.438c1.393-1.86,2.96-2.883,5.393-1.67
					c1.843,0.919,3.967,1.193,5.165,3.293c0.798,1.393,1.901,2.9,3.262,3.61c2.036,1.065,2.319,2.498,1.903,4.347
					c-0.235,1.042-0.695,2.054-1.182,3.013c-0.911,1.797-1.855,1.875-3.196,0.349c-2.106-2.408-5.164-2.613-7.74-0.755
					C652.346,159.103,651.031,159.294,649.883,159.714 M430.833,144.683h-2.329c-0.002-0.047-0.006-0.098-0.006-0.146
					c0.723-0.041,1.444-0.076,2.361-0.128c0.13-0.652,0.193-1.311,0.396-1.928c0.48-1.47,1.119-2.764,3.019-2.764
					c2.574,0.002,4.331-1.427,4.477-3.954c0.126-2.134,1.165-2.768,3.087-2.881c1.123-0.067,2.207-0.602,3.331-0.795
					c0.889-0.155,1.81-0.104,2.941-0.155c-0.37,0.935-0.576,1.564-0.859,2.155c-0.464,0.966,0.049,1.529,0.444,2.423
					c1.084,2.461,3.809,3.016,5.137,5.104c0.447,0.705,1.482,1.21,2.347,1.439c1.709,0.454,3.733,0.103,4.614,2.271
					c0.082,0.205,0.622,0.384,0.901,0.334c2.09-0.401,2.508,1.107,3.216,2.534c1.345,2.704,2.979,5.263,4.303,7.979
					c0.466,0.958,0.419,2.184,0.53,3.293c0.096,0.983,0.207,1.99,0.092,2.961c-0.12,1.02-0.378,2.063-0.797,2.999
					c-0.894,1.977-2.273,3.679-0.514,6.076c1.039,1.412,2.26,1.629,3.601,1.734c4.456,0.344,8.926,0.489,13.379,0.847
					c1.021,0.083,2.098,0.564,2.979,1.132c1.415,0.917,2.694,2.049,4.02,3.104c2.013,1.604,3.903,3.48,6.526,2.851
					c0.884,2.142,1.59,4.125,2.505,6.006c1.189,2.434,1.93,5.174,4.165,6.968c0.616,0.494,1.473,1.139,2.137,1.055
					c5.145-0.644,10.129,0.422,15.161,1.131c2.057,0.294,4.206,0.138,6.294-0.041c4.32-0.372,8.544-0.048,12.652,1.36
					c0.802,0.273,1.503,0.837,2.264,1.241c1.509,0.802,2.991,1.657,4.544,2.361c1.154,0.521,2.486,0.676,3.587,1.277
					c3.242,1.772,6.489,2.297,10.007,0.145v2.532c1.781,0.702,3.177,0.129,4.831-0.832c3.014-1.756,6.333-2.98,9.486-4.503
					c5.098-2.454,10.472-2.09,15.907-1.992c3.588,0.065,7.223-0.619,9.762-3.809c2.058-2.593,4.074-5.218,7.695-5.974
					c0.869-0.183,1.477-1.627,2.291-2.59c-1.207-1.333-2.31-2.496-3.344-3.72c-0.327-0.384-0.751-0.993-0.65-1.382
					c0.689-2.68,1.282-5.48,3.99-7.001c1.58-0.889,3.034-0.329,4.307,0.711c4.278,3.494,9.769,2.466,12.542-2.386
					c1.722-3.016,1.64-2.751,4.791-1.745c1.247,0.398,2.964-0.67,4.456-1.096c0.166-0.051,0.246-0.365,0.417-0.43
					c2.191-0.852,3.201-2.246,3.354-4.779c0.1-1.656,3.358-2.863,5.106-2.789c0.659,0.028,1.654-0.583,1.962-1.182
					c0.584-1.143,0.884-2.141,2.461-1.177c0.351,0.213,1.198-0.058,1.641-0.361c4.004-2.761,6.179-2.588,9.722,0.843
					c0.185,0.177,0.447,0.271,0.881,0.522c0.508-1.108,1.05-2.109,1.439-3.163c0.671-1.834,0.498-3.206-1.539-4.353
					c-1.402-0.791-2.167-2.634-3.456-3.729c-1.333-1.128-2.955-1.926-4.458-2.855c-2.043-1.265-3.463-0.318-4.622,1.371
					c-0.642,0.938-1.438,1.345-2.368,0.581c-2.333-1.914-4.665-0.715-6.909,0.019c-1.72,0.564-3.717-0.056-5.188-2.053
					c-1.188-1.612-0.179-2.711,0.978-3.567c1.11-0.817,1.116-1.854,1.432-3.029c1.305-4.864,2.182-9.963,5.912-13.96
					c2.035,0.952,4.084,1.83,6.053,2.856c1.074,0.556,1.908,0.496,2.735-0.348c1.927-1.963,4.015-3.532,6.913-3.919
					c1.518-0.206,1.521-1.634,0.807-3.254c-0.328-0.748,0.202-2.07,0.68-2.944c1.441-2.636,2.931-5.169,3.559-8.225
					c0.322-1.565,1.81-2.923,2.887-4.277c0.666-0.836,1.561-1.489,2.34-2.239c1.039-0.999,1.066-2.098,0.334-3.299
					c-0.348-0.572-0.731-1.178-0.85-1.813c-0.211-1.1-0.741-1.43-1.831-1.378c-0.452,0.024-1.229-0.416-1.341-0.798
					c-0.186-0.631-0.2-1.557,0.147-2.054c1.304-1.873,2.819-3.596,4.181-5.433c0.715-0.964,1.369-1.618,2.684-0.96
					c0.498,0.249,1.24,0.303,1.773,0.135c3.646-1.161,7.373-1.839,11.162-2.396c1.99-0.292,3.632-0.267,5.384,0.751
					c2.188,1.267,4.504,2.313,6.775,3.432c0.278,0.138,0.738,0.312,0.926,0.19c2.129-1.417,3.674,0.467,5.458,0.937
					c0.279,0.074,0.553,0.391,0.714,0.664c0.936,1.557,1.97,3.071,2.709,4.713c0.947,2.099,1.649,4.305,2.448,6.469
					c0.761,2.069,1.525,4.137,2.253,6.221c0.243,0.688,0.354,1.419,0.543,2.126c0.294,1.105,0.451,2.277,0.934,3.296
					c1.117,2.356,2.443,4.611,3.566,6.965c0.319,0.669,0.455,1.583,0.291,2.297c-0.772,3.382,1.404,5.716,4.78,5.227
					c0.882-0.126,1.988,0.321,2.792,0.823c1.224,0.765,2.228,1.514,3.882,0.999c0.729-0.23,1.853,0.551,2.693,1.045
					c0.488,0.289,0.839,0.885,1.139,1.407c1.258,2.228,2.909,3.76,5.294,3.36c0.35,1.241,0.657,2.296,0.938,3.356
					c0.118,0.446,0.303,0.923,0.243,1.357c-0.347,2.591,0.311,4.792,2.926,6.662c2.065,0,4.724,0.014,7.381-0.017
					c0.375-0.004,0.851-0.134,1.114-0.384c3.123-3.008,7.061-4.524,11.039-5.88c1.423-0.485,3.08-0.652,3.842,0.127
					c0.236,2.511,0.398,4.396,0.604,6.278c0.167,1.541-0.445,2.497-1.811,3.292c-0.706,0.406-1.2,1.413-1.494,2.253
					c-1.347,3.843-0.937,8.224-3.697,11.667c-0.686,0.856-0.791,2.157-1.311,3.172c-0.507,0.994-1.249,1.861-1.797,2.837
					c-0.371,0.662-0.763,1.397-0.834,2.131c-0.177,1.811-1.137,2.387-2.764,1.955c-1.234-0.33-2.429-0.821-3.634-1.253
					c-0.868-0.313-1.728-0.647-2.94-1.104c0.231,3.515-1.949,4.161-4.607,4.064c0.403,2.27,0.952,4.179,1.039,6.11
					c0.146,3.234,0.188,6.501-0.13,9.716c-0.105,1.096-1.294,2.215-2.225,3.061c-1.03,0.936-2.899,1.112-2.251,3.347
					c-2.488-0.448-2.447-2.486-3.167-3.929c-2.838,0.449-1.599,3.003-2.134,4.019c-1.207,0.862-2.045,1.404-2.817,2.026
					c-2.127,1.71-4.186,3.553-7.593,2.597c0.518,1.214,0.921,2.156,1.397,3.263c-1.664,1.462-3.87,1.589-6.054,1.963
					c-2.558,0.436-4.006-1.178-5.64-2.747c-0.699,1.174-1.258,2.242-1.936,3.234c-1.576,2.32-3.101,4.445-6.063,5.601
					c-2.611,1.018-4.716,3.353-7.026,5.131c-0.305,0.236-0.646,0.599-0.71,0.955c-0.425,2.333-2.301,2.018-3.94,2.353
					c-1.853,0.377-3.642,1.039-5.449,1.619c-0.576,0.179-1.109,0.492-1.668,0.722c-1.957,0.82-4.119,1.289-5.199,3.487
					c-0.222,0.462-0.897,0.744-1.415,1.015c-1.034,0.55-2.081,1.111-3.18,1.514c-0.509,0.189-1.152,0.016-1.734,0.004
					c0.258-0.454,0.441-0.984,0.792-1.352c0.751-0.775,1.585-1.465,2.567-2.357c-2.021-0.999-2.083-3.322-0.818-4.777
					c1.329-1.526,2.609-3.116,3.714-4.806c1.021-1.559,0.206-3.156-1.625-3.696c-1.467-0.435-2.913-0.945-4.739-1.542
					c-1.295,1.958-2.745,4.227-4.289,6.426c-0.347,0.491-1.008,0.814-1.586,1.085c-1.394,0.655-2.832,1.21-4.232,1.845
					c-1.579,0.721-2.509,1.708-2.434,3.722c0.031,0.792-1.263,1.867-2.188,2.403c-1.188,0.688-2.592,1.122-3.955,1.345
					c-0.709,0.113-1.527-0.465-2.592-0.834c-1.569,0.864-2.839,3.107-2.42,4.777c0.6,2.408,1.912,3.423,4.717,3.628
					c1.152,0.082,2.308,0.099,3.453,0.205c2.104,0.201,2.697,1.658,1.636,3.455c-0.597,1.007-0.815,2.239-1.201,3.353
					c1.625,1.204,3.136,2.101,5.001,1.238c0.493-0.229,0.828-0.815,1.232-1.244c0.166-0.177,0.288-0.407,0.482-0.547
					c1.355-0.984,2.721-1.963,4.091-2.929c1.096-0.772,1.885-1.467,2.996,0.372c1.201,1.989,3.81,2.565,5.807,2.034
					c2.258-0.599,3.669,0.759,5.607,1.031c-0.361,1.978-1.345,2.809-3.255,3.375c-2.841,0.848-5.525,2.279-8.181,3.644
					c-0.621,0.318-0.852,1.377-1.282,2.081c-0.278,0.449-0.514,0.971-0.9,1.298c-1.671,1.414-3.208,3.186-5.141,4.047
					c-2.3,1.022-2.76,3.21-4.072,4.822c-0.789,0.966-0.424,2.167,0.938,2.443c5.159,1.048,6.394,5.437,7.901,9.42
					c1.129,2.982,1.391,6.195,3.996,8.634c1.986,1.855,3.354,4.372,5.137,6.782h-1.92c0.283,0.668,0.531,1.252,0.78,1.831
					c-0.11,0.12-0.222,0.238-0.331,0.36c-1.087-0.685-2.171-1.37-3.257-2.053c-0.138,0.188-0.271,0.375-0.408,0.563
					c0.678,0.545,1.338,1.117,2.043,1.619c0.6,0.429,1.466,0.635,1.848,1.188c0.618,0.9,1.228,2.002,1.256,3.033
					c0.013,0.446-1.376,1.156-2.224,1.354c-1.659,0.391-2.951,1.078-4.03,2.486c-0.509,0.661-1.718,0.784-3.011,1.313
					c0.679,0.228,1.375,0.723,1.738,0.542c2.748-1.383,4.64,0.162,6.548,1.743c0.57,0.472,1.109,0.979,1.733,1.53
					c-0.566,0.387-1.054,0.714-1.848,1.254c0.802,0.142,1.312,0.233,1.625,0.289c-0.13,1.453-0.255,2.807-0.393,4.34
					c-0.674-0.295-1.253-0.549-1.843-0.81c-0.157,1.045-0.461,2.08-0.444,3.111c0.071,4.609-4.838,5.567-6.505,8.971
					c-1.163,2.362-3.095,4.353-4.77,6.444c-0.276,0.346-0.987,0.335-1.923,0.621c-0.114,1.404-0.159,3.314-0.473,5.181
					c-0.196,1.19-0.576,2.462-1.246,3.439c-1.026,1.492-2.399,2.742-3.571,4.146c-0.319,0.38-0.563,0.909-0.634,1.404
					c-0.195,1.34-0.739,1.962-2.253,1.951c-1.166-0.01-2.441,0.354-2.878,1.854c-0.755,2.63-3.627,2.637-5.301,4.151
					c-0.882,0.8-1.965,1.372-2.961,2.045c-0.387-0.067-1.192-0.406-1.367-0.202c-0.376,0.433-0.682,1.215-0.55,1.738
					c0.379,1.539-0.311,2.416-1.591,2.845c-1.264,0.419-2.612,0.584-3.926,0.863c-0.468,0.099-1.099,0.045-1.374,0.332
					c-1.135,1.179-1.867,0.753-2.444-0.483c-1.307,0.346-2.195,2.568-3.484,1.005c-1.707,0.461-3.321,1.417-4.637,1.103
					c-1.287-0.306-2.269-1.899-3.503-3.037c0.104,1.665,0.211,3.375,0.315,5.087c-0.219,0.116-0.437,0.233-0.655,0.349
					c-0.651-0.61-1.302-1.215-1.895-1.77c-0.36,2.746-2.902,4.718-6.864,5.555c-2.882,0.607-5.723,1.423-8.554,2.252
					c-0.645,0.188-1.169,0.808-1.824,1.287c-0.534-0.363-1.142-0.776-1.863-1.265c-0.438,0.968-0.838,1.866-1.243,2.762
					c1.998,1.319,2.735,4.001,1.311,4.964c-0.477,0.319-1.686,0.409-1.897,0.12c-1.21-1.665-2.465-3.382-3.192-5.281
					c-0.335-0.882,0.475-2.205,0.836-3.59c-0.24-0.177-0.765-0.566-1.281-0.948c-1.855,2.218-1.95,2.136-4.106,0.317
					c-0.793-0.668-2.028-0.802-3.079-1.186c-1.671,1.666-3.425,2.592-5.547,0.852c-0.1-0.083-0.257-0.191-0.358-0.168
					c-3.93,0.986-5.158-2.691-7.477-4.432c-0.343-0.253-0.181-1.334-0.056-1.996c0.09-0.471,0.508-0.883,0.857-1.444
					c-3.043-1.961-7.422-0.458-9.508-4.509c-1.048,0.895-1.861,1.79-2.853,2.38c-1.398,0.826-2.911,1.466-4.407,2.113
					c-0.604,0.266-1.279,0.398-1.936,0.487c-0.765,0.101-1.547,0.043-2.31,0.141c-0.692,0.089-1.635,0.059-1.997,0.482
					c-1.203,1.405-2.241,1.519-3.575,0.214c-0.504-0.491-1.286-0.692-2.239-1.177c-0.643,2.719-2.703,2.688-5.172,2.387
					c0.311,3.202,0.595,6.163,0.884,9.106c-3.433,0.825-4.549-1.476-5.605-3.797c-1.227,0.568-2.333,1.254-3.529,1.597
					c-2.206,0.63-3.589-0.137-4.291-2.47c-0.392-1.313-0.954-1.838-2.349-1.863c-2.284-0.047-2.475-0.643-1.631-2.82
					c0.479-1.242,0.534-2.646,0.818-4.185c-0.464-0.152-1.081-0.333-1.682-0.559c-1.581-0.602-2.588-1.553-2.62-3.438
					c-0.022-1.316-0.436-2.622-0.664-3.881c-2.604-0.503-5.133-0.691-6.968,2.147c-0.097-0.185-0.191-0.37-0.288-0.555
					c0-0.846-0.022-1.688,0.009-2.532c0.017-0.469,0.306-1.007,0.157-1.396c-1.703-4.546,1.606-6.854,4.174-9.498
					c0.274-0.282,0.784-0.479,0.854-0.788c0.769-3.329,2.771-6.382,2.241-9.997c-0.069-0.467-0.079-0.948-0.091-1.422
					c-0.071-2.744-0.158-2.831-2.911-2.557c-1.004-2.753,0.036-6.965-5.019-7.049c-0.391,0.931-0.829,1.974-1.472,3.515
					c-1.292-0.929-2.479-1.781-3.783-2.717c-0.649,0.572-1.358,1.604-2.275,1.858c-0.601,0.162-1.511-0.804-2.337-1.297
					c-2.136,0.935-4.538,1.985-6.943,3.031c-0.116,0.05-0.329,0.001-0.371,0.074c-1.952,3.246-5.781,3.471-8.599,5.322
					c-3.512,2.31-7.286,3.551-11.709,2.119c0-0.672,0.009-1.337-0.002-2.004c-0.025-1.413-0.287-2.491-2.144-2.46
					c-1.359,0.021-2.071-0.976-2.026-2.316c0.042-1.269-0.587-1.579-1.723-1.674c-2.332-0.202-4.813-0.047-6.547-2.15
					c-0.128-0.151-0.568-0.226-0.743-0.127c-1.855,1.064-4.242,1.199-5.236,3.732c-0.764,1.94-2.179,3.627-3.375,5.537
					c-1.042-1.23-1.558-2.356-0.762-4.019c0.349-0.722-0.148-1.85-0.263-2.794c-0.74,0.146-1.485,0.268-2.224,0.431
					c-1.843,0.403-3.744,1.351-5.509,1.135c-3.646-0.444-7.229-1.471-10.821-2.323c-1.685-0.397-3.33-0.953-4.996-1.425
					c-0.086-0.027-0.209-0.02-0.316-0.019c-0.133,0.005-0.246,0.009-0.265-0.037c-1.091-2.675-4.532-2.224-5.931-4.479
					c-0.613-0.99-1.272-1.947-2.04-3.113c0,0.003-0.422,0.024-0.746,0.212c-1.869,1.084-3.178,1.42-4.21-1.275
					c-0.523-1.36-2.527-2.115-3.772-3.248c-1.338-1.21-2.632-2.481-3.836-3.823c-1.284-1.427-3.797-1.272-4.817,0.394
					c-1.251,2.032-1.46,2.05-3.355,0.59c-2.542-1.958-5.017-4.033-7.715-5.747c-1.555-0.988-3.461-1.523-5.281-1.965
					c-1.359-0.331-1.887-1.069-2.202-2.29c-0.667-2.57-1.359-5.138-2.167-7.663c-0.309-0.971-0.771-1.771,0.505-2.351
					c1.009-0.461,1.882-0.996,2.821,0.278c0.407,0.555,1.366,0.707,2.075,1.04c0.077-0.804,0.438-1.718,0.175-2.39
					c-0.854-2.203-2.008-4.283-2.889-6.477c-0.322-0.799-0.487-1.879-0.216-2.651c0.376-1.07-0.006-1.521-0.654-2.24
					c-1.237-1.377-2.404-2.849-3.371-4.424c-1.058-1.722-1.831-3.616-2.787-5.405c-0.183-0.346-0.592-0.673-0.965-0.786
					c-0.708-0.219-1.459-0.292-2.199-0.387c-2.218-0.286-4.247-0.904-5.37-3.042c-2.564,0.443-3.945-1.105-4.102-3.667
					c-0.076-1.223-1.093-2.623-2.087-3.482c-0.916-0.792-2.35-1.024-3.587-1.409c-2.484-0.771-2.892-1.843-1.359-4.302
					c-0.17-1.911-0.266-3.214-0.416-4.512c-0.036-0.31-0.284-0.584-0.364-0.892c-0.329-1.273-0.633-2.55-0.949-3.827
					c0.193-0.099,0.385-0.201,0.574-0.303c-1.03-0.46-2.036-1.215-3.098-1.301c-1.048-0.087-2.149,0.502-3.423,0.846
					c-0.577-2.553-1.149-4.784-1.541-7.047c-0.083-0.476,0.358-1.328,0.794-1.555c1.1-0.567,1.451-1.306,1.617-2.529
					c0.23-1.686,0.864-3.169,3.113-3.396c0.936-0.095,1.685-1.435,2.649-1.974c1.883-1.057,3.857-1.948,5.896-2.958
					c0.14,0.234,0.256,0.562,0.474,0.782c0.667,0.68,1.451,1.924,2.049,1.848c1.489-0.188,3.464-0.059,4.057-2.041
					c0.611-2.029,1.64-2.806,3.934-3.116c3.808-0.514,7.785-1.289,10.321-4.818c0.153-0.212,0.39-0.389,0.625-0.514
					c3.095-1.664,6.2-3.317,9.598-5.13c-0.136-1.221-0.172-2.708-0.503-4.125c-0.305-1.298-0.087-2.041,1.221-2.534
					c0.418-0.16,0.54-0.977,0.928-1.361c0.677-0.664,1.453-1.223,2.494-2.077c-1.635-4.598-4.858-9.24-2.632-14.922
					c-1.199-0.139-2.05-0.237-2.93-0.342c-0.136-1.315,0.286-2.012,1.624-2.372c2.862-0.768,5.646-1.838,8.523-2.544
					c0.869-0.217,1.93,0.351,2.906,0.549c0.67,0.136,1.34,0.304,2.018,0.362c0.75,0.06,1.508,0.014,2.614,0.014
					c-0.294-0.593-0.443-1.508-0.956-1.821c-1.469-0.894-1.38-1.99-0.848-3.313c1.115-2.759,2.288-5.5,3.283-8.302
					c0.608-1.713,0.934-3.522,1.379-5.292c0.35-1.378,0.925-2.167,2.371-1.016c1.96,1.554,4.227,1.966,6.686,1.948
					c0.624-0.004,1.251,0.155,1.879,0.315c0.666,0.169,1.331,0.338,1.992,0.308c1.336-0.054,2.866-0.318,3.916-1.055
					c0.99-0.691,1.722-1.903,1.263-3.546C430.989,148.488,431.034,146.675,430.833,144.683"/>
				<path clip-path="url(#SVGID_6_)" fill="#F096AB" d="M676.677,341.538c-1.116,0.829-2.474,1.552-3.427,2.627
					c-1.559,1.76-3.211,3.586-4.147,5.689c-0.925,2.073-1.719,4.664-1.282,6.76c0.508,2.429,2.42,4.563,3.761,6.89
					c0.505-1.361,0.865-2.513,1.35-3.606c2.21-4.993,5.452-9.563,5.342-15.452C678.245,342.9,678.203,342.092,676.677,341.538
					 M672.157,366.366c-0.405-0.25-0.735-0.332-0.829-0.525c-1.062-2.182-1.813-4.572-3.18-6.532
					c-1.822-2.609-1.63-5.167-0.606-7.799c0.536-1.38,1.415-2.675,2.34-3.847c1.805-2.281,2.94-5.095,5.814-6.547
					c1.362-0.69,2.09-0.106,2.833,0.564c0.457,0.414,0.7,1.252,0.736,1.916c0.065,1.303,0.196,2.705-0.187,3.912
					c-0.893,2.816-2.002,5.567-3.158,8.293c-0.706,1.669-1.832,3.174-2.444,4.868C672.847,362.419,672.612,364.312,672.157,366.366"
					/>
				<path clip-path="url(#SVGID_6_)" fill="#F096AB" d="M596.858,380.804c-3.259,0.244-5.213,2.684-7.507,4.558
					c-0.113,0.093-0.133,0.387-0.1,0.569c0.418,2.252,0.367,4.727,3.179,5.705c1.069,0.371,8.095-1.845,8.507-2.892
					c0.929-2.355,1.901-4.697,2.73-7.087c0.121-0.343-0.461-1.34-0.697-1.332C600.932,380.395,598.896,380.621,596.858,380.804
					 M593.211,380.36c1.226-0.185,3.134-0.515,5.052-0.747c0.563-0.07,1.157,0.184,1.741,0.192c0.753,0.011,1.511-0.117,2.267-0.103
					c0.653,0.013,1.541-0.089,1.895,0.278c0.383,0.396,0.527,1.362,0.331,1.927c-0.83,2.396-1.766,4.764-2.8,7.077
					c-0.282,0.629-0.965,1.242-1.608,1.518c-1.857,0.787-3.805,1.369-5.691,2.094c-1.627,0.627-5.236-1.483-5.533-3.301
					c-0.176-1.065-0.49-2.155-0.386-3.194c0.075-0.729,0.657-1.481,1.177-2.077C590.673,382.861,591.802,381.796,593.211,380.36"/>
				<path clip-path="url(#SVGID_6_)" fill="#FFDEE0" d="M649.881,159.714c1.15-0.42,2.465-0.612,3.417-1.302
					c2.579-1.856,5.633-1.653,7.747,0.757c1.338,1.528,2.28,1.451,3.193-0.349c0.484-0.961,0.944-1.974,1.178-3.013
					c0.418-1.849,0.132-3.282-1.901-4.345c-1.357-0.712-2.464-2.22-3.262-3.612c-1.198-2.103-3.32-2.376-5.165-3.295
					c-2.428-1.207-4.001-0.19-5.396,1.67c-0.119,0.162-0.262,0.313-0.418,0.441c-0.1,0.083-0.236,0.119-0.473,0.229
					c-2.756-2.301-5.617-1.167-8.506-0.073c-1.938,0.735-2.51-1.301-3.697-2.051c-0.185-0.118,0.134-1.577,0.594-2.066
					c1.051-1.121,1.633-2.136,1.97-3.818c0.9-4.527,2-9.131,5.149-13.039c2.021,0.925,4.015,1.735,5.905,2.736
					c1.141,0.605,2.01,0.524,2.918-0.324c2.078-1.944,4.171-3.733,7.229-4.159c1.683-0.235,2.402-3.061,1.55-4.658
					c-0.168-0.32-0.213-0.861-0.06-1.177c0.781-1.623,1.664-3.198,2.462-4.812c0.416-0.832,0.976-1.701,1.032-2.582
					c0.188-2.773,1.669-4.602,3.794-6.166c0.903-0.662,1.853-1.538,2.246-2.524c0.363-0.926,0.132-2.154-0.052-3.211
					c-0.13-0.763-0.724-1.435-0.929-2.195c-0.291-1.074-0.617-1.902-1.994-1.743c-0.333,0.036-0.843-0.322-1.037-0.642
					c-0.115-0.195,0.156-0.706,0.362-1.001c0.667-0.935,1.431-1.801,2.071-2.752c1.215-1.804,2.3-3.764,5.057-2.841
					c0.294,0.098,0.709,0.051,1-0.079c3.342-1.545,6.996-1.625,10.512-2.38c2.029-0.437,3.642-0.186,5.364,0.799
					c2.194,1.249,4.479,2.348,6.737,3.481c0.277,0.137,0.772,0.263,0.947,0.12c1.42-1.147,2.665-0.177,3.962,0.243
					c0.954,0.306,1.41,0.782,1.713,1.899c0.34,1.258,1.612,2.23,2.242,3.451c0.985,1.902,1.856,3.873,2.611,5.873
					c0.873,2.303,1.572,4.667,2.327,7.013c0.197,0.61,0.277,1.259,0.497,1.857c0.573,1.562,1.128,3.136,1.813,4.647
					c1.285,2.85,3.43,5.338,2.709,8.905c-0.59,2.921,2.907,5.681,5.832,5.054c0.767-0.164,1.782,0.304,2.537,0.735
					c1.29,0.733,2.367,1.53,4.098,1.046c1.711-0.479,2.628,1.026,3.421,2.321c1.134,1.854,2.442,3.454,4.609,3.47
					c2.367,3.494,0.261,8.375,4.659,11.314c2.423,0,5.426,0.017,8.43-0.02c0.435-0.006,0.987-0.172,1.278-0.469
					c3.113-3.165,7.141-4.587,11.212-5.889c0.763-0.242,1.677-0.033,2.171-0.033c0.252,2.18,0.629,4.014,0.598,5.84
					c-0.016,0.797-0.688,1.935-1.38,2.293c-1.359,0.697-1.546,1.709-1.936,3.014c-1.136,3.777-0.782,8.008-3.485,11.335
					c-0.695,0.851-0.813,2.148-1.337,3.163c-0.507,0.984-1.25,1.843-1.801,2.804c-0.384,0.671-0.853,1.411-0.881,2.138
					c-0.071,1.665-0.892,2-2.249,1.538c-1.853-0.633-3.675-1.363-5.518-2.019c-0.366-0.128-0.783-0.113-1.452-0.2
					c0.638,4.092-2.606,3.78-5.114,4.383c1.644,5.062,1.861,10.097,1.453,15.208c-0.134,1.71-0.608,2.957-2.321,3.66
					c-1.053,0.432-1.964,1.204-3.023,1.876c-0.184-0.652-0.472-1.671-0.833-2.956c-1.334,0.038-3.189,0.114-3.31,1.818
					c-0.226,3.161-2.807,4.132-4.594,5.792c-2.065,1.914-4.48,1.916-7.226-0.147c0.795,2.05,1.368,3.531,1.932,4.99
					c-2.88,2.082-6.47,1.961-9.012-0.25c-1.477-1.284-1.902-1.148-2.887,0.543c-1.049,1.811-2.014,3.762-3.437,5.242
					c-1.198,1.238-3.067,1.796-4.539,2.811c-2.063,1.421-4.05,2.958-6.017,4.51c-0.505,0.401-0.798,1.066-1.215,1.587
					c-0.321,0.403-0.633,1.018-1.042,1.107c-2.312,0.497-4.649,0.862-6.218,1.136c-2.16,1.099-3.759,1.827-5.267,2.713
					c-1.049,0.615-1.948,1.476-2.955,2.166c-0.705,0.483-1.483,0.864-2.228,1.292v-2.555c-0.304-0.08-0.85-0.229-1.853-0.5
					c0.922-1.425,1.746-2.714,2.588-3.992c0.783-1.188,1.672-2.312,2.363-3.548c1.241-2.198,0.358-4.066-2.057-4.789
					c-1.337-0.401-2.586-1.113-3.934-1.444c-0.604-0.145-1.657,0.067-1.99,0.508c-1.516,2.002-2.807,4.171-4.273,6.217
					c-0.307,0.427-0.996,0.6-1.526,0.839c-1.28,0.584-2.604,1.077-3.853,1.713c-1.751,0.887-3.198,1.927-2.898,4.348
					c0.067,0.542-1.121,1.462-1.908,1.831c-1.192,0.556-2.536,0.788-4.063,1.225c-0.396-0.354-1.027-0.918-1.637-1.463
					c-3.85,2.75-4.66,5.284-2.42,8.519c0.698,1.016,2.176,1.677,3.432,2.073c1.259,0.397,2.696,0.183,4.033,0.39
					c0.663,0.103,1.28,0.543,1.913,0.83c-0.496,1.078-1.053,1.938-1.306,2.878c-0.807,2.987,0.961,4.715,4.149,4.631
					c2.662-0.066,3.697-2.185,5.373-3.517c0.947-0.757,1.855-1.564,2.964-2.506c2.764,4.716,7.795,2.703,12.337,4.22
					c-0.969,0.795-1.447,1.42-2.073,1.665c-3.216,1.266-6.513,2.343-9.681,3.719c-0.638,0.279-0.815,1.582-1.249,2.394
					c-0.289,0.542-0.542,1.163-0.989,1.541c-1.062,0.896-2.333,1.558-3.33,2.509c-1.7,1.619-3.74,2.796-4.928,5.086
					c-0.852,1.64-1.402,2.943-0.563,4.76c5.898,0.405,7.158,5.148,8.767,9.645c1.001,2.795,1.179,5.892,3.814,8.081
					c1.64,1.364,2.645,3.491,4.104,5.507h-4.275c-0.031,1.82,0.799,3.338,2.712,4.05c1.581,0.587,2.33,1.687,2.736,3.367
					c-0.594,0.24-1.129,0.472-1.68,0.668c-0.253,0.09-0.548,0.069-0.791,0.174c-2.896,1.253-5.053,3.857-8.45,4.364
					c1.849,0.547,3.13,2.133,5.28,1.216c2.294-0.984,3.804,0.931,5.499,2.336c-0.865,1.126-1.699,2.205-2.529,3.278
					c0.074,0.146,0.15,0.287,0.229,0.43c0.678-0.217,1.357-0.434,2.205-0.702c0.092,0.493,0.19,1.015,0.301,1.591
					c-0.633-0.164-1.195-0.311-1.799-0.469c-0.141,0.342-0.294,0.578-0.335,0.834c-0.216,1.35-0.147,2.672-0.537,4.076
					c-0.579,2.083-1.023,3.55-3.276,4.545c-1.814,0.799-2.815,2.934-3.523,4.934c-0.239,0.686-0.209,1.745-1.503,1.283
					c-0.098-0.033-0.417,0.441-0.573,0.713c-0.533,0.951-1.039,1.916-1.637,3.023c-0.746-0.559-1.21-0.906-1.726-1.29
					c-0.139,0.187-0.327,0.325-0.342,0.48c-0.159,1.805-0.096,3.654-0.477,5.405c-0.792,3.637-1.212,4.188-4.724,8.414
					c-0.263,0.313-0.795,0.637-0.767,0.909c0.283,2.646-2.158,2.024-3.354,2.881c-0.611,0.438-1.22,0.895-1.755,1.421
					c-0.838,0.822-1.516,1.841-2.442,2.534c-1.25,0.931-2.639,1.69-4.029,2.405c-0.625,0.32-1.397,0.349-2.103,0.511
					c-0.07-0.207-0.142-0.413-0.216-0.617c-0.729,0.508-1.459,1.016-1.729,1.205c-0.191,1.661,0.133,3.501-0.599,4.145
					c-1.274,1.124-3.178,1.793-5.056,0.472c-0.417,0.53-0.824,1.051-1.379,1.755c-0.347-0.61-0.611-1.078-0.987-1.743
					c-0.877,0.571-1.65,1.076-2.42,1.584c-0.021-0.147-0.043-0.291-0.065-0.437c-0.214,0.013-0.433,0.012-0.65,0.009
					c-0.498-0.001-0.993-0.006-1.434,0.153c-0.747,0.268-1.385,0.839-2.076,1.266c-1.405,0.858-2.438,0.296-3.222-0.93
					c-0.535-0.839-0.979-1.739-1.518-2.711c-2.969,1.384-0.778,3.616-1.163,5.569c-0.637-0.926-1.159-1.685-1.897-2.761
					c-0.665,1.56-1.037,2.782-1.677,3.839c-0.643,1.061-1.555,1.959-2.382,2.973c-0.59-0.421-0.999-0.714-1.473-1.056
					c-1.082,1.829-2.602,1.632-4.249,1.085c-1.511,3.127-5.403,1.102-6.976,3.083c-1.197-0.101-2.407-0.565-2.845-0.172
					c-1.324,1.188-1.474,3.609-0.605,4.56c1.42,1.557,1.49,2.315,0.296,3.261c-3.76-3.345-4.21-5.336-1.573-7.994
					c-1.011-0.932-2.011-1.86-3.213-2.977c-0.542,0.896-1.005,1.663-1.446,2.392c-1.804-0.982-3.524-1.92-5.747-3.128
					c-0.287,0.441-0.558,1.099-1.029,1.543c-0.968,0.904-2.003,1.132-3.317,0.396c-0.831-0.465-1.945-0.417-3.046-0.185
					c-1.822-1.586-3.646-3.172-5.534-4.814c0.397-0.536,0.766-0.936,1.015-1.396c0.684-1.25,0.519-2.222-1.027-2.604
					c-0.657-0.16-1.333-0.233-1.982-0.415c-2.481-0.689-5.32-0.692-6.697-3.953c-1.426,1.237-2.484,2.356-3.736,3.177
					c-1.136,0.742-2.44,1.409-3.753,1.652c-1.688,0.313-3.368,1.54-5.23,0.331c-0.215-0.139-1.159,0.562-1.549,1.046
					c-0.741,0.921-1.324,1.18-2.315,0.274c-0.621-0.565-1.505-0.897-2.32-1.183c-0.358-0.123-1.172,0.034-1.227,0.228
					c-0.645,2.155-2.168,2.056-3.692,1.955c-0.338-0.024-0.677-0.045-1.005-0.045c-0.136,0.001-0.271,0.017-0.76,0.045
					c0.288,2.953,0.581,5.889,0.869,8.824c-1.79,0.255-2.734-0.542-3.234-2.121c-0.618-1.965-1.737-1.898-3.163-0.718
					c-0.503,0.415-1.177,0.695-1.818,0.849c-1.625,0.389-3.141,0.119-3.399-1.806c-0.288-2.17-1.596-2.571-3.396-2.528
					c-0.316,0.009-0.635-0.134-0.994-0.216c0.467-1.777,0.99-3.441,1.301-5.143c0.096-0.496-0.34-1.551-0.642-1.595
					c-4.862-0.699-3.568-4.738-4.529-8.186c-2.199,0.147-4.635,0.312-7.015,0.47c0.808-1.619-1.449-3.731,0.153-5.73
					c1.278-1.596,2.545-3.203,3.817-4.802c0.41-0.511,1.031-0.954,1.211-1.534c1.229-3.99,2.807-7.9,2.095-12.261
					c-0.336-2.053-1.018-2.85-3.105-2.655c-0.24-0.912-0.541-1.815-0.704-2.742c-0.439-2.492-1.795-3.907-4.318-4.147
					c-0.508-0.046-1.239,0.413-1.581,0.86c-0.47,0.62-0.67,1.448-1.122,2.505c-1.846-2.484-3.793-3.924-5.942-0.136
					c-0.851-2.855-2.022-2.385-3.612-1.131c-1.043,0.824-2.404,1.577-3.69,1.703c-2.236,0.217-3.342,1.762-4.71,3.095
					c-0.287,0.281-0.608,0.57-0.972,0.732c-3.614,1.594-7.227,3.188-10.869,4.71c-0.597,0.249-1.333,0.184-2.005,0.21
					c-1.83,0.076-3.151-0.284-2.957-2.655c0.108-1.313-0.37-2.421-2.225-2.386c-1.654,0.038-1.659-0.184-2.059-3.682
					c-1.261-0.157-2.628-0.164-3.895-0.527c-1.503-0.429-2.918-1.16-4.368-1.772c-0.301-0.126-0.577-0.374-0.883-0.413
					c-1.165-0.153-5.446,2.302-6.048,3.347c-0.962,1.674-1.984,3.313-3.431,4.777c0.184-0.569,0.551-1.15,0.518-1.709
					c-0.072-1.282-0.146-2.641-0.655-3.774c-0.124-0.282-1.91,0.103-2.911,0.305c-1.842,0.365-3.73,1.349-5.484,1.137
					c-3.509-0.429-6.954-1.452-10.404-2.305c-1.676-0.414-3.309-1.003-4.963-1.503c-0.054-0.02-0.128,0-0.195,0.017
					c-0.08,0.02-0.156,0.035-0.199,0.007c-2.035-1.513-4.102-2.988-6.06-4.598c-0.493-0.407-0.879-1.239-0.89-1.884
					c-0.025-1.522-0.801-1.536-1.854-1.144c-0.943,0.35-1.854,0.791-2.287,0.979c-1.479-1.423-2.749-2.65-4.029-3.864
					c-1.75-1.662-3.596-3.229-5.235-4.989c-1.59-1.714-4.902-1.579-6.11,0.407c-0.277,0.455-0.603,0.88-1.051,1.526
					c-2.983-2.302-5.887-4.543-8.789-6.781c-0.159-0.125-0.315-0.272-0.496-0.338c-1.776-0.63-3.588-1.171-5.319-1.898
					c-0.565-0.24-1.178-0.89-1.344-1.473c-0.813-2.874-1.486-5.789-2.274-8.954c0.132-0.076,0.629-0.366,1.215-0.709
					c0.375,0.438,0.647,1.021,1.082,1.197c0.848,0.347,2.015,0.883,2.63,0.555c0.618-0.332,1.204-1.786,0.966-2.451
					c-0.873-2.48-2.146-4.81-3.142-7.247c-0.298-0.728-0.467-1.74-0.192-2.418c0.533-1.314-0.055-1.97-0.875-2.803
					c-1.069-1.08-2.161-2.216-2.898-3.522c-1.291-2.285-2.314-4.717-3.541-7.271c-1.085-0.159-2.4-0.182-3.597-0.572
					c-1.426-0.463-2.96-1.004-4.054-1.961c-0.82-0.719-1.196-1.137-2.455-0.956c-1.905,0.275-1.889-1.767-1.863-2.819
					c0.051-2.285-1.284-3.472-2.881-4.456c-1.05-0.642-2.33-0.934-3.536-1.291c-1.543-0.46-2.025-1.525-1.15-2.729
					c0.841-1.155,0.488-1.863,0.09-3.059c-0.68-2.037-0.691-4.299-1.067-6.45c-0.109-0.621-0.35-1.4-0.804-1.755
					c-1.644-1.277-3.479-1.732-5.717-0.151c-0.517-2.525-0.946-4.622-1.21-5.895c0.953-2.086,1.668-3.533,2.276-5.025
					c0.455-1.119,0.869-2.126,2.358-2.098c0.414,0.01,0.888-0.308,1.238-0.591c0.571-0.458,0.977-1.164,1.597-1.501
					c1.648-0.9,3.372-1.663,5.026-2.462c3.007,3.505,6.59,2.856,8.357-1.424c0.381-0.927,0.83-1.203,1.859-1.384
					c4.152-0.73,8.455-1.184,11.451-4.817c0.704-0.854,1.777-1.464,2.786-1.989c2.34-1.215,4.764-2.265,7.099-3.486
					c0.407-0.213,0.77-0.941,0.763-1.43c-0.017-1.671-0.209-3.341-0.331-4.939c1.406-1.294,2.934-2.52,4.201-3.974
					c0.367-0.422,0.154-1.555-0.095-2.26c-0.692-1.977-1.769-3.844-2.258-5.859c-0.438-1.795-0.536-3.759-0.346-5.602
					c0.284-2.762,0.448-2.745-2.277-3.749c2.825-0.874,5.64-1.772,8.472-2.617c1.608-0.479,3.037,0.012,4.524,0.502
					c1.275,0.42,2.592,0.839,4.1,0.649c0.742-1.049,0.572-2.55-0.767-3.622c-1.042-0.834-1.065-1.54-0.638-2.595
					c1.189-2.949,2.399-5.893,3.474-8.886c0.63-1.755,1.016-3.6,1.597-5.72c2.713,2.531,5.906,2.706,9.218,2.637
					c0.677-0.016,1.379,0.766,2.12,1.214c1.331-0.426,2.907-0.866,4.434-1.443c1.123-0.428,2.139-3.081,2.029-4.307
					c-0.216-2.462-0.385-4.941-0.32-7.409c0.032-1.298,0.617-2.459,2.378-2.448c2.678,0.015,4.884-1.807,5.114-4.482
					c0.162-1.903,0.965-2.318,2.688-2.398c1.423-0.068,2.816-0.693,4.493-1.142c-1.37,3.903,0.527,5.916,3.373,7.539
					c0.673,0.384,1.079,1.214,1.698,1.725c0.875,0.722,1.75,1.581,2.779,1.944c1.704,0.599,3.842,0.175,4.804,2.337
					c0.08,0.179,0.48,0.336,0.715,0.308c2.236-0.237,2.618,1.445,3.368,2.969c1.187,2.404,2.671,4.66,3.938,7.031
					c0.362,0.678,0.519,1.518,0.586,2.299c0.116,1.377,0.32,2.813,0.065,4.143c-0.258,1.345-0.974,2.617-1.577,3.879
					c-1.655,3.481,0.096,6.897,3.951,7.297c3.969,0.406,7.965,0.772,11.952,0.769c2.569-0.002,4.602,0.808,6.479,2.374
					c1.301,1.087,2.551,2.265,3.961,3.191c1.304,0.853,2.794,1.425,4.456,2.247c0.196,0.319,0.699,0.987,1.043,1.729
					c0.936,2,2.049,3.958,2.639,6.057c0.865,3.102,4.309,5.72,7.429,5.668c3.233-0.054,6.475,0.32,9.717,0.484
					c3.776,0.191,7.557,0.328,11.33,0.552c3.031,0.181,6.076,0.333,9.082,0.743c1.927,0.264,3.772,0.902,5.098,2.629
					c0.518,0.674,1.581,0.992,2.454,1.309c1.958,0.701,4.019,1.139,5.913,1.976c2.658,1.178,5.262,1.808,7.995,0.435
					c1.054,2.443,3.422,3.243,5.447,1.582c3.577-2.93,7.984-3.907,12.066-5.682c3.61-1.566,7.295-1.482,11.007-1.401
					c0.854,0.019,1.711,0.038,2.572,0.036c4.247-0.006,8.29-0.708,11.149-4.427c1.86-2.421,3.846-4.583,7.087-5.464
					c1.267-0.345,2.106-2.263,3.33-3.69c-0.861-0.736-1.534-1.194-2.061-1.789c-0.873-0.991-2.466-2.24-2.292-3.067
					c0.415-1.949,1.494-3.86,2.688-5.508c1.128-1.562,2.759-1.097,4.115-0.012c4.821,3.851,10.87,2.672,13.842-2.799
					c0.921-1.701,1.616-2.558,3.685-1.16c1.821,1.228,3.579-0.35,5.238-1.204c0.17-0.09,0.265-0.33,0.438-0.412
					c2.156-1.021,4.065-1.997,3.586-5.107c-0.175-1.142,2.942-2.583,4.263-2.297c2.116,0.459,2.646-1.129,3.315-2.555
					C649.605,159.395,649.742,159.555,649.881,159.714"/>
				<path clip-path="url(#SVGID_6_)" fill="#FFDEE0" d="M676.677,341.536c1.526,0.555,1.57,1.364,1.596,2.909
					c0.11,5.889-3.134,10.459-5.342,15.449c-0.484,1.097-0.848,2.251-1.35,3.609c-1.341-2.327-3.253-4.461-3.761-6.887
					c-0.437-2.099,0.357-4.689,1.284-6.763c0.935-2.102,2.589-3.93,4.144-5.689C674.203,343.09,675.564,342.367,676.677,341.536"/>
				<path clip-path="url(#SVGID_6_)" fill="#FFDEE0" d="M596.858,380.804c2.038-0.183,4.073-0.409,6.112-0.479
					c0.236-0.008,0.818,0.986,0.697,1.332c-0.827,2.39-1.802,4.731-2.73,7.087c-0.412,1.047-7.438,3.263-8.507,2.892
					c-2.812-0.98-2.761-3.453-3.179-5.705c-0.033-0.183-0.014-0.477,0.1-0.569C591.646,383.484,593.6,381.049,596.858,380.804"/>
				<path clip-path="url(#SVGID_6_)" fill="#FF5959" d="M631.333,220.184c-1.817,0-3.288,1.473-3.288,3.289
					c0,1.82,1.471,3.293,3.288,3.293s3.29-1.473,3.29-3.293C634.623,221.657,633.15,220.184,631.333,220.184"/>
				<path clip-path="url(#SVGID_6_)" fill="#FF5959" d="M637.917,220.184c-1.82,0-3.292,1.473-3.292,3.289
					c0,1.82,1.472,3.293,3.292,3.293c1.816,0,3.287-1.473,3.287-3.293C641.204,221.657,639.733,220.184,637.917,220.184"/>
				<path clip-path="url(#SVGID_6_)" fill="#FF5959" d="M644.495,220.184c-1.816,0-3.291,1.473-3.291,3.289
					c0,1.82,1.475,3.293,3.291,3.293c1.818,0,3.291-1.473,3.291-3.293C647.786,221.657,646.313,220.184,644.495,220.184"/>
				<path clip-path="url(#SVGID_6_)" fill="#FF5959" d="M631.333,226.764c-1.817,0-3.288,1.476-3.288,3.292s1.471,3.291,3.288,3.291
					s3.29-1.474,3.29-3.291S633.15,226.764,631.333,226.764"/>
				<path clip-path="url(#SVGID_6_)" fill="#FF5959" d="M637.917,226.764c-1.82,0-3.292,1.476-3.292,3.292s1.472,3.291,3.292,3.291
					c1.816,0,3.287-1.474,3.287-3.291S639.733,226.764,637.917,226.764"/>
				<path clip-path="url(#SVGID_6_)" fill="#FF5959" d="M631.333,233.347c-1.817,0-3.288,1.473-3.288,3.29s1.471,3.29,3.288,3.29
					s3.29-1.473,3.29-3.29S633.15,233.347,631.333,233.347"/>
				<path clip-path="url(#SVGID_6_)" fill="#FF5959" d="M659.022,247.801c-1.816,0-3.287,1.475-3.287,3.289
					c0,1.819,1.471,3.294,3.287,3.294c1.82,0,3.291-1.475,3.291-3.294C662.313,249.275,660.843,247.801,659.022,247.801"/>
				<path clip-path="url(#SVGID_6_)" fill="#FF5959" d="M662.313,277.753c-1.818,0-3.288,1.474-3.288,3.29
					c0,1.817,1.47,3.293,3.288,3.293c1.819,0,3.293-1.476,3.293-3.293C665.606,279.227,664.133,277.753,662.313,277.753"/>
				<path clip-path="url(#SVGID_6_)" fill="#FF5959" d="M655.735,271.173c-1.817,0-3.291,1.474-3.291,3.288
					c0,1.819,1.474,3.292,3.291,3.292c1.816,0,3.287-1.473,3.287-3.292C659.022,272.646,657.552,271.173,655.735,271.173"/>
				<path clip-path="url(#SVGID_6_)" fill="#FF5959" d="M637.917,233.347c-1.82,0-3.292,1.473-3.292,3.29s1.472,3.29,3.292,3.29
					c1.816,0,3.287-1.473,3.287-3.29S639.733,233.347,637.917,233.347"/>
				<path clip-path="url(#SVGID_6_)" fill="#FF5959" d="M644.495,226.764c-1.816,0-3.291,1.476-3.291,3.292s1.475,3.291,3.291,3.291
					c1.818,0,3.291-1.474,3.291-3.291S646.313,226.764,644.495,226.764"/>
				<path clip-path="url(#SVGID_6_)" fill="#FF5959" d="M655.735,284.333c-1.821,0-3.291,1.475-3.291,3.292
					c0,1.816,1.47,3.29,3.291,3.29c1.816,0,3.287-1.474,3.287-3.29C659.022,285.808,657.552,284.333,655.735,284.333"/>
				<path clip-path="url(#SVGID_6_)" fill="#FF5959" d="M662.313,284.333c-1.818,0-3.288,1.475-3.288,3.292
					c0,1.816,1.47,3.29,3.288,3.29c1.819,0,3.293-1.474,3.293-3.29C665.606,285.808,664.133,284.333,662.313,284.333"/>
				<path clip-path="url(#SVGID_6_)" fill="#FF5959" d="M668.895,284.333c-1.817,0-3.288,1.475-3.288,3.292
					c0,1.816,1.471,3.29,3.288,3.29c1.819,0,3.291-1.474,3.291-3.29C672.186,285.808,670.714,284.333,668.895,284.333"/>
				<path clip-path="url(#SVGID_6_)" fill="#FF5959" d="M655.735,290.915c-1.431,0-2.644,0.91-3.104,2.183
					c0.123,0.347,0.194,0.72,0.194,1.108s-0.071,0.762-0.194,1.109c0.46,1.271,1.673,2.182,3.104,2.182
					c1.816,0,3.287-1.474,3.287-3.291C659.022,292.39,657.552,290.915,655.735,290.915"/>
				<path clip-path="url(#SVGID_6_)" fill="#FF5959" d="M662.313,290.915c-1.818,0-3.288,1.475-3.288,3.291
					c0,1.817,1.47,3.291,3.288,3.291c1.819,0,3.293-1.474,3.293-3.291C665.606,292.39,664.133,290.915,662.313,290.915"/>
				<path clip-path="url(#SVGID_6_)" fill="#FF5959" d="M655.735,297.497c-1.821,0-3.291,1.474-3.291,3.289
					c0,1.819,1.47,3.292,3.291,3.292c1.816,0,3.287-1.473,3.287-3.292C659.022,298.971,657.552,297.497,655.735,297.497"/>
				<path clip-path="url(#SVGID_6_)" fill="#FF5959" d="M649.535,290.915c-1.819,0-3.29,1.475-3.29,3.291
					c0,1.817,1.471,3.291,3.29,3.291c1.429,0,2.646-0.911,3.097-2.182c-0.121-0.348-0.191-0.721-0.191-1.109s0.07-0.762,0.191-1.108
					C652.181,291.825,650.964,290.915,649.535,290.915"/>
				<path clip-path="url(#SVGID_6_)" fill="#FF2424" d="M652.635,293.098c-0.124,0.347-0.19,0.72-0.19,1.109
					c0,0.388,0.066,0.761,0.19,1.108c0.123-0.348,0.191-0.721,0.191-1.108C652.826,293.817,652.758,293.444,652.635,293.098"/>
				<path clip-path="url(#SVGID_6_)" fill="#FF5959" d="M662.313,297.497c-1.818,0-3.288,1.474-3.288,3.289
					c0,1.819,1.47,3.292,3.288,3.292c1.819,0,3.293-1.473,3.293-3.292C665.606,298.971,664.133,297.497,662.313,297.497"/>
				<path clip-path="url(#SVGID_6_)" fill="#FF5959" d="M671.245,306.427c-1.817,0-3.29,1.474-3.29,3.29
					c0,1.817,1.473,3.291,3.29,3.291c1.819,0,3.29-1.474,3.29-3.291C674.535,307.9,673.064,306.427,671.245,306.427"/>
				<path clip-path="url(#SVGID_6_)" fill="#FF5959" d="M617.78,349.329c-1.817,0-3.29,1.474-3.29,3.289
					c0,1.818,1.473,3.292,3.29,3.292c1.816,0,3.288-1.474,3.288-3.292C621.068,350.803,619.597,349.329,617.78,349.329"/>
				<path clip-path="url(#SVGID_6_)" fill="#FF5959" d="M617.78,342.745c-1.251,0-2.333,0.695-2.891,1.718
					c0.256,0.469,0.401,1.007,0.401,1.573c0,0.571-0.146,1.108-0.401,1.576c0.558,1.023,1.64,1.717,2.891,1.717
					c1.816,0,3.288-1.475,3.288-3.293C621.068,344.22,619.597,342.745,617.78,342.745"/>
				<path clip-path="url(#SVGID_6_)" fill="#FF5959" d="M617.78,336.166c-1.251,0-2.333,0.693-2.891,1.717
					c0.256,0.469,0.401,1.002,0.401,1.571c0,0.573-0.146,1.108-0.401,1.575c0.558,1.023,1.64,1.719,2.891,1.719
					c1.803,0,3.266-1.452,3.288-3.249v-0.045v-0.038C621.046,337.617,619.583,336.166,617.78,336.166"/>
				<path clip-path="url(#SVGID_6_)" fill="#FF5959" d="M612,336.166c-1.818,0-3.291,1.474-3.291,3.288
					c0,1.819,1.473,3.294,3.291,3.294c1.246,0,2.333-0.695,2.888-1.719c-0.253-0.467-0.399-1.002-0.399-1.575
					c0-0.569,0.146-1.103,0.399-1.571C614.333,336.859,613.246,336.166,612,336.166"/>
				<path clip-path="url(#SVGID_6_)" fill="#FF2424" d="M614.888,337.883c-0.253,0.468-0.397,1.004-0.397,1.573
					c0,0.571,0.145,1.108,0.397,1.576c0.258-0.468,0.403-1.005,0.403-1.576C615.291,338.887,615.146,338.351,614.888,337.883"/>
				<path clip-path="url(#SVGID_6_)" fill="#FF5959" d="M612,342.745c-1.818,0-3.291,1.475-3.291,3.291
					c0,1.818,1.473,3.293,3.291,3.293c1.246,0,2.333-0.693,2.888-1.717c-0.253-0.468-0.399-1.005-0.399-1.576
					c0-0.566,0.146-1.104,0.399-1.573C614.333,343.44,613.246,342.745,612,342.745"/>
				<path clip-path="url(#SVGID_6_)" fill="#FF2424" d="M614.888,344.463c-0.253,0.467-0.397,1.004-0.397,1.573
					c0,0.571,0.145,1.108,0.397,1.576c0.258-0.468,0.403-1.005,0.403-1.576C615.291,345.467,615.146,344.93,614.888,344.463"/>
				<path clip-path="url(#SVGID_6_)" fill="#FF5959" d="M624.36,336.166c-1.805,0-3.269,1.451-3.289,3.25c0,0.013,0,0.024,0,0.038
					c0,0.019,0,0.031,0,0.045c0.021,1.797,1.484,3.249,3.289,3.249c1.819,0,3.291-1.475,3.291-3.294
					C627.651,337.64,626.18,336.166,624.36,336.166"/>
				<path clip-path="url(#SVGID_6_)" fill="#FF2424" d="M621.068,339.416v0.04v0.04c0-0.013,0-0.026,0-0.04
					C621.068,339.443,621.068,339.429,621.068,339.416"/>
				<path clip-path="url(#SVGID_6_)" fill="#FF5959" d="M637.914,308.777c-0.457,0-0.894,0.094-1.287,0.263
					c-0.22,0.167-0.457,0.308-0.715,0.416c-0.784,0.602-1.287,1.548-1.287,2.61c0,1.819,1.471,3.295,3.289,3.295
					c1.819,0,3.29-1.476,3.29-3.295C641.204,310.251,639.733,308.777,637.914,308.777"/>
				<path clip-path="url(#SVGID_6_)" fill="#FF5959" d="M659.022,320.646c-1.816,0-3.287,1.475-3.287,3.293
					c0,1.816,1.471,3.291,3.287,3.291c1.82,0,3.291-1.475,3.291-3.291C662.313,322.121,660.843,320.646,659.022,320.646"/>
				<path clip-path="url(#SVGID_6_)" fill="#FF5959" d="M659.022,329.585c-1.816,0-3.287,1.474-3.287,3.288
					c0,1.819,1.471,3.295,3.287,3.295c1.82,0,3.291-1.476,3.291-3.295C662.313,331.059,660.843,329.585,659.022,329.585"/>
				<path clip-path="url(#SVGID_6_)" fill="#FF5959" d="M637.914,329.585c-1.818,0-3.289,1.474-3.289,3.288
					c0,1.819,1.471,3.295,3.289,3.295c1.819,0,3.29-1.476,3.29-3.295C641.204,331.059,639.733,329.585,637.914,329.585"/>
				<path clip-path="url(#SVGID_6_)" fill="#FF5959" d="M637.914,320.646c-1.818,0-3.289,1.475-3.289,3.293
					c0,1.816,1.471,3.291,3.289,3.291c1.819,0,3.29-1.475,3.29-3.291C641.204,322.121,639.733,320.646,637.914,320.646"/>
				<path clip-path="url(#SVGID_6_)" fill="#FF5959" d="M634.623,303.137c-1.818,0-3.29,1.473-3.29,3.29
					c0,1.818,1.472,3.291,3.29,3.291c0.459,0,0.894-0.093,1.289-0.262c0.218-0.168,0.458-0.309,0.715-0.416
					c0.781-0.604,1.287-1.549,1.287-2.613C637.914,304.609,636.441,303.137,634.623,303.137"/>
				<path clip-path="url(#SVGID_6_)" fill="#FF2424" d="M636.627,309.04c-0.257,0.107-0.497,0.248-0.715,0.414
					C636.17,309.348,636.407,309.207,636.627,309.04"/>
				<path clip-path="url(#SVGID_6_)" fill="#FF5959" d="M597.944,255.41c-1.82,0-3.289,1.475-3.289,3.289
					c0,1.819,1.469,3.294,3.289,3.294c1.816,0,3.288-1.475,3.288-3.294C601.232,256.885,599.761,255.41,597.944,255.41"/>
				<path clip-path="url(#SVGID_6_)" fill="#FF5959" d="M611.998,277.753c-1.819,0-3.289,1.474-3.289,3.29
					c0,1.817,1.47,3.29,3.289,3.29s3.293-1.473,3.293-3.29C615.291,279.227,613.817,277.753,611.998,277.753"/>
				<path clip-path="url(#SVGID_6_)" fill="#FF5959" d="M570.498,248.829c-1.817,0-3.287,1.476-3.287,3.29
					c0,1.819,1.47,3.291,3.287,3.291s3.29-1.472,3.29-3.291C573.788,250.305,572.315,248.829,570.498,248.829"/>
				<path clip-path="url(#SVGID_6_)" fill="#FF5959" d="M551,339.456c-1.817,0-3.293,1.476-3.293,3.289
					c0,1.82,1.476,3.294,3.293,3.294c1.816,0,3.288-1.474,3.288-3.294C554.288,340.932,552.816,339.456,551,339.456"/>
				<path clip-path="url(#SVGID_6_)" fill="#FF5959" d="M530.964,336.166c-1.817,0-3.289,1.474-3.289,3.288
					c0,1.819,1.472,3.294,3.289,3.294c1.819,0,3.288-1.475,3.288-3.294C534.252,337.64,532.783,336.166,530.964,336.166"/>
				<path clip-path="url(#SVGID_6_)" fill="#FF5959" d="M542.411,317.358c-1.818,0-3.288,1.475-3.288,3.288
					c0,1.82,1.47,3.295,3.288,3.295c1.819,0,3.291-1.475,3.291-3.295C545.702,318.833,544.23,317.358,542.411,317.358"/>
				<path clip-path="url(#SVGID_6_)" fill="#FF5959" d="M458.497,303.137c-1.816,0-3.29,1.473-3.29,3.29
					c0,1.818,1.474,3.291,3.29,3.291c1.819,0,3.291-1.473,3.291-3.291C461.788,304.609,460.316,303.137,458.497,303.137"/>
				<path clip-path="url(#SVGID_6_)" fill="#FF5959" d="M570.498,320.649c-1.817,0-3.291,1.475-3.291,3.29
					c0,1.819,1.474,3.291,3.291,3.291s3.29-1.472,3.29-3.291C573.788,322.124,572.315,320.649,570.498,320.649"/>
				<path clip-path="url(#SVGID_6_)" fill="#FF5959" d="M577.08,320.646c-1.819,0-3.292,1.475-3.292,3.293
					c0,1.816,1.473,3.291,3.292,3.291c1.817,0,3.289-1.475,3.289-3.291C580.369,322.121,578.897,320.646,577.08,320.646"/>
				<path clip-path="url(#SVGID_6_)" fill="#FF5959" d="M561.248,290.915c-1.817,0-3.291,1.475-3.291,3.291
					c0,1.817,1.474,3.291,3.291,3.291c1.816,0,3.288-1.474,3.288-3.291C564.536,292.39,563.064,290.915,561.248,290.915"/>
				<path clip-path="url(#SVGID_6_)" fill="#FF5959" d="M545.702,281.043c-1.817,0-3.291,1.473-3.291,3.29
					c0,1.818,1.474,3.292,3.291,3.292s3.288-1.474,3.288-3.292C548.99,282.516,547.52,281.043,545.702,281.043"/>
				<path clip-path="url(#SVGID_6_)" fill="#FF5959" d="M538.979,281.043c-1.818,0-3.291,1.473-3.291,3.29
					c0,1.818,1.473,3.292,3.291,3.292c1.817,0,3.29-1.474,3.29-3.292C542.269,282.516,540.796,281.043,538.979,281.043"/>
				<path clip-path="url(#SVGID_6_)" fill="#FF5959" d="M538.979,274.461c-1.818,0-3.291,1.476-3.291,3.292
					c0,1.817,1.473,3.291,3.291,3.291c1.817,0,3.29-1.474,3.29-3.291C542.269,275.937,540.796,274.461,538.979,274.461"/>
				<path clip-path="url(#SVGID_6_)" fill="#FF6666" d="M679.143,342.833c0.07,0.258,0.109,0.521,0.123,0.761
					c0.065,1.306,0.196,2.705-0.187,3.912c-0.192,0.61-0.396,1.219-0.608,1.821c1.781-0.043,3.214-1.499,3.214-3.291
					C681.685,344.478,680.599,343.173,679.143,342.833"/>
				<path clip-path="url(#SVGID_6_)" fill="#FA3D45" d="M678.393,342.745c-0.103,0-0.201,0.006-0.301,0.016
					c0.155,0.442,0.167,0.987,0.181,1.685c0.002,0.091,0.005,0.187,0.005,0.274c0,1.592-0.243,3.086-0.638,4.521
					c0.24,0.058,0.493,0.088,0.753,0.088c0.03,0,0.051,0,0.079-0.002c0.211-0.603,0.412-1.211,0.609-1.818
					c0.381-1.207,0.251-2.609,0.185-3.912c-0.014-0.243-0.053-0.506-0.121-0.766C678.902,342.776,678.651,342.745,678.393,342.745"
					/>
				<path clip-path="url(#SVGID_6_)" fill="#FF5959" d="M678.092,342.761c-1.301,0.118-2.383,0.993-2.803,2.182
					c0.121,0.344,0.188,0.711,0.188,1.094c0,0.385-0.067,0.755-0.188,1.098c0.37,1.049,1.255,1.851,2.351,2.107
					c0.397-1.436,0.638-2.93,0.635-4.521c0-0.091,0-0.184-0.002-0.274C678.259,343.748,678.243,343.2,678.092,342.761"/>
				<path clip-path="url(#SVGID_6_)" fill="#FF6666" d="M672.187,342.745c-1.82,0-3.292,1.475-3.292,3.291
					c0,0.759,0.258,1.458,0.688,2.013c0.099-0.13,0.199-0.258,0.299-0.386c1.203-1.522,2.109-3.282,3.434-4.716
					C672.966,342.815,672.582,342.745,672.187,342.745"/>
				<path clip-path="url(#SVGID_6_)" fill="#FA3D45" d="M673.315,342.947c-1.324,1.434-2.228,3.193-3.434,4.716
					c-0.1,0.128-0.2,0.256-0.301,0.386c0.096,0.122,0.197,0.235,0.306,0.343c0.938-1.509,2.178-2.891,3.361-4.227
					c0.26-0.29,0.548-0.556,0.853-0.805C673.86,343.189,673.599,343.05,673.315,342.947"/>
				<path clip-path="url(#SVGID_6_)" fill="#FF5959" d="M674.101,343.36c-0.305,0.249-0.593,0.515-0.853,0.805
					c-1.184,1.336-2.423,2.718-3.361,4.225c0.592,0.58,1.404,0.938,2.303,0.938c1.429,0,2.648-0.916,3.1-2.193
					c-0.121-0.343-0.185-0.713-0.185-1.098c0-0.383,0.063-0.752,0.185-1.094C675.062,344.299,674.643,343.748,674.101,343.36"/>
				<path clip-path="url(#SVGID_6_)" fill="#FF2424" d="M675.289,344.942c-0.119,0.342-0.188,0.711-0.188,1.094
					c0,0.385,0.068,0.755,0.188,1.098c0.123-0.343,0.187-0.713,0.187-1.098C675.476,345.653,675.412,345.284,675.289,344.942"/>
				<path clip-path="url(#SVGID_6_)" fill="#FF6666" d="M678.471,349.329c-0.683,1.944-1.45,3.86-2.25,5.761
					c0.581,0.51,1.341,0.82,2.175,0.82c1.813,0,3.289-1.474,3.289-3.292C681.685,350.826,680.252,349.37,678.471,349.329"/>
				<path clip-path="url(#SVGID_6_)" fill="#FA3D45" d="M678.393,349.329c-0.276,0-0.548,0.034-0.806,0.097
					c-0.489,1.718-1.201,3.351-1.975,4.955c0.168,0.268,0.374,0.502,0.609,0.709c0.799-1.9,1.566-3.815,2.249-5.761
					C678.443,349.329,678.417,349.329,678.393,349.329"/>
				<path clip-path="url(#SVGID_6_)" fill="#FF5959" d="M677.587,349.426c-1.071,0.271-1.935,1.066-2.298,2.098
					c0.123,0.34,0.188,0.711,0.188,1.095c0,0.386-0.065,0.755-0.188,1.095c0.083,0.236,0.193,0.46,0.323,0.668
					C676.386,352.776,677.098,351.144,677.587,349.426"/>
				<path clip-path="url(#SVGID_6_)" fill="#FF5959" d="M672.187,349.329c-1.82,0-3.292,1.474-3.292,3.289
					c0,1.818,1.472,3.292,3.292,3.292c1.435,0,2.654-0.916,3.103-2.194c-0.121-0.346-0.188-0.715-0.188-1.098
					s0.066-0.751,0.188-1.097C674.841,350.246,673.621,349.329,672.187,349.329"/>
				<path clip-path="url(#SVGID_6_)" fill="#FF2424" d="M675.289,351.523c-0.119,0.34-0.188,0.711-0.188,1.095
					c0,0.383,0.068,0.752,0.188,1.095c0.123-0.343,0.187-0.712,0.187-1.095C675.476,352.234,675.412,351.863,675.289,351.523"/>
				<path clip-path="url(#SVGID_6_)" fill="#FF6666" d="M665.606,355.91c-1.819,0-3.291,1.473-3.291,3.288
					c0,1.82,1.472,3.293,3.291,3.293c1.458,0,2.694-0.949,3.127-2.264c-0.185-0.314-0.378-0.62-0.585-0.919
					c-0.737-1.058-1.146-2.106-1.304-3.157C666.464,355.995,666.047,355.91,665.606,355.91"/>
				<path clip-path="url(#SVGID_6_)" fill="#FA3D45" d="M666.845,356.151c0.157,1.05,0.566,2.097,1.304,3.157
					c0.204,0.296,0.4,0.604,0.58,0.921c0.103-0.304,0.158-0.622,0.166-0.957c-0.453-0.799-0.825-1.616-1.031-2.465
					C667.571,356.529,667.227,356.307,666.845,356.151"/>
				<path clip-path="url(#SVGID_6_)" fill="#FF5959" d="M667.863,356.808c0.205,0.849,0.578,1.666,1.031,2.467
					c0-0.025,0-0.049,0-0.073C668.895,358.258,668.5,357.408,667.863,356.808"/>
				<path clip-path="url(#SVGID_6_)" fill="#FF6666" d="M665.606,349.329c-1.819,0-3.291,1.474-3.291,3.289
					c0,1.818,1.472,3.292,3.291,3.292c0.418,0,0.82-0.079,1.188-0.223c-0.11-1.384,0.2-2.771,0.746-4.178
					c0.146-0.374,0.316-0.739,0.504-1.101C667.444,349.745,666.573,349.329,665.606,349.329"/>
				<path clip-path="url(#SVGID_6_)" fill="#FA3D45" d="M668.045,350.411c-0.188,0.359-0.358,0.724-0.504,1.099
					c-0.544,1.404-0.856,2.793-0.746,4.178c0.331-0.127,0.637-0.308,0.908-0.529c0.029-1.302,0.389-2.693,0.86-3.981
					C668.428,350.896,668.251,350.64,668.045,350.411"/>
				<path clip-path="url(#SVGID_6_)" fill="#FF5959" d="M668.563,351.177c-0.475,1.288-0.833,2.68-0.864,3.981
					c0.732-0.604,1.195-1.518,1.195-2.54C668.895,352.103,668.776,351.611,668.563,351.177"/>
				<path clip-path="url(#SVGID_6_)" fill="#FF5959" d="M668.895,290.915c-1.817,0-3.288,1.475-3.288,3.291
					c0,1.817,1.471,3.291,3.288,3.291c1.805,0,3.268-1.45,3.291-3.25c0-0.013,0-0.026,0-0.041c0-0.014,0-0.027,0-0.042
					C672.162,292.366,670.699,290.915,668.895,290.915"/>
				<path clip-path="url(#SVGID_6_)" fill="#FF6666" d="M672.136,301.368c-0.559,0.202-1.238,0.371-1.943,0.657
					c0.526,0.18,1.067,0.52,1.45,0.576C671.883,302.234,672.052,301.82,672.136,301.368 M667.817,301.981
					c0.013,0.002,0.023,0.006,0.034,0.009C667.841,301.987,667.83,301.983,667.817,301.981 M667.892,302.002
					c0.008,0.003,0.013,0.005,0.02,0.005C667.904,302.007,667.899,302.005,667.892,302.002 M667.938,302.018
					c0.01,0.003,0.014,0.004,0.022,0.004C667.951,302.021,667.947,302.021,667.938,302.018 M667.986,302.032
					c0.011,0.003,0.021,0.007,0.031,0.01C668.007,302.039,667.997,302.035,667.986,302.032 M668.069,302.064
					c0.203,0.069,0.4,0.152,0.594,0.243C668.47,302.217,668.272,302.134,668.069,302.064 M668.663,302.308
					c0.007,0.001,0.012,0.004,0.016,0.005C668.675,302.312,668.67,302.309,668.663,302.308"/>
				<path clip-path="url(#SVGID_6_)" fill="#FA3D45" d="M672.126,300.149c-1.294,0.844-2.654,1.587-4.306,1.829
					c0.01,0.005,0.021,0.008,0.031,0.009c0.012,0.006,0.027,0.011,0.044,0.015c0.004,0.003,0.009,0.005,0.013,0.007
					c0.012,0.003,0.021,0.007,0.031,0.009c0.008,0.003,0.012,0.004,0.019,0.007c0.008,0.001,0.021,0.007,0.028,0.008
					c0.008,0.004,0.022,0.007,0.031,0.01c0.017,0.006,0.034,0.015,0.052,0.02c0.204,0.072,0.401,0.155,0.594,0.246l0,0
					c0.005,0.001,0.012,0.005,0.019,0.008c0.779,0.364,1.493,0.826,2.27,1.039c0.271-0.213,0.504-0.467,0.691-0.753
					c-0.385-0.059-0.923-0.396-1.45-0.573c0.703-0.289,1.388-0.458,1.942-0.657c0.036-0.189,0.055-0.385,0.055-0.582
					C672.189,300.568,672.165,300.356,672.126,300.149"/>
				<path clip-path="url(#SVGID_6_)" fill="#FF5959" d="M668.895,297.497c-1.817,0-3.288,1.474-3.288,3.289
					c0,1.819,1.471,3.292,3.288,3.292c0.78,0,1.494-0.269,2.057-0.721c-0.778-0.219-1.487-0.681-2.272-1.042
					c-0.004-0.003-0.009-0.007-0.016-0.008l0,0c-0.193-0.089-0.394-0.172-0.594-0.246c-0.018-0.004-0.035-0.011-0.052-0.018
					c-0.011-0.005-0.021-0.008-0.031-0.012c-0.008-0.004-0.018-0.007-0.026-0.011c-0.009-0.001-0.014-0.004-0.022-0.006
					c-0.008-0.002-0.019-0.004-0.026-0.009c-0.007-0.002-0.012-0.005-0.021-0.005c-0.015-0.004-0.027-0.008-0.039-0.012
					c-0.011-0.003-0.021-0.007-0.034-0.009c1.654-0.247,3.013-0.991,4.309-1.833C671.828,298.637,670.495,297.497,668.895,297.497"
					/>
				<path clip-path="url(#SVGID_6_)" fill="#FF6666" d="M675.426,290.915c-0.364,0.006-0.707,0.071-1.034,0.186
					c0.649,0.521,1.282,1.069,1.96,1.552c0.602,0.429,1.468,0.632,1.85,1.188c0.184,0.267,0.364,0.551,0.53,0.843
					c0.024-0.155,0.034-0.314,0.034-0.478c0-0.704-0.219-1.357-0.597-1.891c-0.063,0.069-0.128,0.137-0.193,0.206
					C677.125,291.986,676.276,291.45,675.426,290.915"/>
				<path clip-path="url(#SVGID_6_)" fill="#FA3D45" d="M675.478,290.915c-0.017,0-0.034,0-0.052,0
					c0.851,0.535,1.7,1.071,2.55,1.608c0.065-0.071,0.128-0.141,0.193-0.211C677.575,291.467,676.59,290.915,675.478,290.915
					 M674.39,291.097c-0.24,0.086-0.467,0.197-0.681,0.333c0.424,0.869,1.172,1.564,2.291,1.979c1.22,0.452,1.947,1.211,2.402,2.308
					c0.163-0.314,0.276-0.664,0.329-1.029c-0.166-0.295-0.349-0.579-0.533-0.846c-0.379-0.554-1.245-0.76-1.845-1.188
					C675.674,292.17,675.041,291.622,674.39,291.097"/>
				<path clip-path="url(#SVGID_6_)" fill="#FF5959" d="M673.709,291.43c-0.905,0.575-1.51,1.585-1.522,2.734v0.043v0.04
					c0.023,1.797,1.485,3.25,3.291,3.25c1.273,0,2.376-0.726,2.925-1.781c-0.455-1.096-1.183-1.855-2.402-2.308
					C674.881,292.994,674.133,292.299,673.709,291.43"/>
				<path clip-path="url(#SVGID_6_)" fill="#FF2424" d="M672.187,294.167c0,0.012,0,0.025,0,0.039c0,0.012,0,0.024,0,0.041v-0.041
					V294.167"/>
			</g>
		</g>
	</g>
	
		<line clip-path="url(#SVGID_2_)" fill="none" stroke="#231815" stroke-width="0" stroke-miterlimit="10" x1="258.461" y1="324.11" x2="306.204" y2="324.11"/>
	<g clip-path="url(#SVGID_2_)">
		<text transform="matrix(1 0 0 1 258.4614 324.1094)"><tspan x="0" y="0" fill="#231815" font-family="'BentonSans-Regular'" font-size="40.2564">2</tspan><tspan x="23.711" y="0" fill="#231815" font-family="'BentonSans-Regular'" font-size="40.2564">3</tspan></text>
	</g>
	<g clip-path="url(#SVGID_2_)">
		<text transform="matrix(1 0 0 1 306.2046 331.5566)" fill="#231815" font-family="'BentonSans-Regular'" font-size="60.3846">+</text>
	</g>
	<g clip-path="url(#SVGID_2_)">
		<text transform="matrix(1 0 0 1 256.3462 368.9951)"><tspan x="0" y="0" fill="#231815" font-family="'BentonSans-Regular'" font-size="20.1282">P</tspan><tspan x="12.681" y="0" fill="#231815" font-family="'BentonSans-Regular'" font-size="20.1282">ro</tspan><tspan x="31.5" y="0" fill="#231815" font-family="'BentonSans-Regular'" font-size="20.1282">vin</tspan><tspan x="58.733" y="0" fill="#231815" font-family="'BentonSans-Regular'" font-size="20.1282">ce</tspan><tspan x="80.27" y="0" fill="#231815" font-family="'BentonSans-Regular'" font-size="20.1282">s</tspan></text>
	</g>
	
		<line clip-path="url(#SVGID_2_)" fill="none" stroke="#231815" stroke-width="0" stroke-miterlimit="10" x1="438.193" y1="324.11" x2="504.094" y2="324.11"/>
	<g clip-path="url(#SVGID_2_)">
		<text transform="matrix(1 0 0 1 438.1953 324.1094)"><tspan x="0" y="0" fill="#231815" font-family="'BentonSans-Regular'" font-size="40.2564" letter-spacing="-1">1</tspan><tspan x="16.063" y="0" fill="#231815" font-family="'BentonSans-Regular'" font-size="40.2564">44</tspan></text>
	</g>
	<g clip-path="url(#SVGID_2_)">
		<text transform="matrix(1 0 0 1 504.0928 331.5566)" fill="#231815" font-family="'BentonSans-Regular'" font-size="60.3846">+</text>
	</g>
	<g clip-path="url(#SVGID_2_)">
		<text transform="matrix(1 0 0 1 410.5684 368.9951)"><tspan x="0" y="0" fill="#231815" font-family="'BentonSans-Regular'" font-size="20.1282">in </tspan><tspan x="21.577" y="0" fill="#231815" font-family="'BentonSans-Regular'" font-size="20.1282">D</tspan><tspan x="35.788" y="0" fill="#231815" font-family="'BentonSans-Regular'" font-size="20.1282">an</tspan><tspan x="58.754" y="0" fill="#231815" font-family="'BentonSans-Regular'" font-size="20.1282">g</tspan><tspan x="69.925" y="0" fill="#231815" font-family="'BentonSans-Regular'" font-size="20.1282">er </tspan><tspan x="93.796" y="0" fill="#231815" font-family="'BentonSans-Regular'" font-size="20.1282">o</tspan><tspan x="105.35" y="0" fill="#231815" font-family="'BentonSans-Regular'" font-size="20.1282">f </tspan><tspan x="116.983" y="0" fill="#231815" font-family="'BentonSans-Regular'" font-size="20.1282">L</tspan><tspan x="127.792" y="0" fill="#231815" font-family="'BentonSans-Regular'" font-size="20.1282">o</tspan><tspan x="139.325" y="0" fill="#231815" font-family="'BentonSans-Regular'" font-size="20.1282">s</tspan><tspan x="149.449" y="0" fill="#231815" font-family="'BentonSans-Regular'" font-size="20.1282">s</tspan></text>
	</g>
	
		<line clip-path="url(#SVGID_2_)" fill="none" stroke="#231815" stroke-width="0" stroke-miterlimit="10" x1="614.905" y1="324.11" x2="705.001" y2="324.11"/>
	<g clip-path="url(#SVGID_2_)">
		<text transform="matrix(1 0 0 1 614.9072 324.1094)"><tspan x="0" y="0" fill="#231815" font-family="'BentonSans-Regular'" font-size="40.2564">2</tspan><tspan x="23.47" y="0" fill="#231815" font-family="'BentonSans-Regular'" font-size="40.2564">0%</tspan></text>
	</g>
	<g clip-path="url(#SVGID_2_)">
		<text transform="matrix(1 0 0 1 705.002 331.5566)" fill="#231815" font-family="'BentonSans-Regular'" font-size="60.3846">+</text>
	</g>
	<g clip-path="url(#SVGID_2_)">
		<defs>
			<rect id="SVGID_7_" x="24.5" y="84.29" width="743" height="308.42"/>
		</defs>
		<clipPath id="SVGID_8_">
			<use xlink:href="#SVGID_7_"  overflow="visible"/>
		</clipPath>
		<g clip-path="url(#SVGID_8_)">
			<text transform="matrix(1 0 0 1 591.752 367.5371)"><tspan x="0" y="0" fill="#231815" font-family="'BentonSans-Regular'" font-size="18.4508">L</tspan><tspan x="9.908" y="0" fill="#231815" font-family="'BentonSans-Regular'" font-size="18.4508">os</tspan><tspan x="29.779" y="0" fill="#231815" font-family="'BentonSans-Regular'" font-size="18.4508">s </tspan><tspan x="43.543" y="0" fill="#231815" font-family="'BentonSans-Regular'" font-size="18.4508">o</tspan><tspan x="54.115" y="0" fill="#231815" font-family="'BentonSans-Regular'" font-size="18.4508">f </tspan><tspan x="64.779" y="0" fill="#231815" font-family="'BentonSans-Regular'" font-size="18.4508">P</tspan><tspan x="76.385" y="0" fill="#231815" font-family="'BentonSans-Regular'" font-size="18.4508">r</tspan><tspan x="83.434" y="0" fill="#231815" font-family="'BentonSans-Regular'" font-size="18.4508">actitione</tspan><tspan x="158.453" y="0" fill="#231815" font-family="'BentonSans-Regular'" font-size="18.4508">r</tspan><tspan x="165.575" y="0" fill="#231815" font-family="'BentonSans-Regular'" font-size="18.4508">s</tspan></text>
		</g>
		<g clip-path="url(#SVGID_8_)">
			<text transform="matrix(1 0 0 1 644.7803 389.6768)"><tspan x="0" y="0" fill="#231815" font-family="'BentonSans-Regular'" font-size="18.4508">per</tspan><tspan x="28.617" y="0" fill="#231815" font-family="'BentonSans-Regular'" font-size="18.4508"> </tspan><tspan x="32.196" y="0" fill="#231815" font-family="'BentonSans-Regular'" font-size="18.4508" letter-spacing="-2">Y</tspan><tspan x="41.274" y="0" fill="#231815" font-family="'BentonSans-Regular'" font-size="18.4508">e</tspan><tspan x="51.311" y="0" fill="#231815" font-family="'BentonSans-Regular'" font-size="18.4508">ar</tspan></text>
		</g>
	</g>
	
		<line clip-path="url(#SVGID_2_)" fill="none" stroke="#231815" stroke-width="0" stroke-miterlimit="10" x1="36.922" y1="324.11" x2="150.123" y2="324.11"/>
	<g clip-path="url(#SVGID_2_)">
		<text transform="matrix(1 0 0 1 36.9233 324.1094)"><tspan x="0" y="0" fill="#231815" font-family="'BentonSans-Regular'" font-size="40.2564">8</tspan><tspan x="24.113" y="0" fill="#231815" font-family="'BentonSans-Regular'" font-size="40.2564" letter-spacing="-1">,</tspan><tspan x="33.453" y="0" fill="#231815" font-family="'BentonSans-Regular'" font-size="40.2564">000</tspan></text>
	</g>
	<g clip-path="url(#SVGID_2_)">
		<text transform="matrix(1 0 0 1 150.1226 331.5566)" fill="#231815" font-family="'BentonSans-Regular'" font-size="60.3846">+</text>
	</g>
	<g clip-path="url(#SVGID_2_)">
		<text transform="matrix(1 0 0 1 50.4858 367.5371)"><tspan x="0" y="0" fill="#231815" font-family="'BentonSans-Regular'" font-size="18.4508" letter-spacing="-2">Y</tspan><tspan x="9.078" y="0" fill="#231815" font-family="'BentonSans-Regular'" font-size="18.4508">e</tspan><tspan x="19.115" y="0" fill="#231815" font-family="'BentonSans-Regular'" font-size="18.4508">ar Hi</tspan><tspan x="59.263" y="0" fill="#231815" font-family="'BentonSans-Regular'" font-size="18.4508">s</tspan><tspan x="68.525" y="0" fill="#231815" font-family="'BentonSans-Regular'" font-size="18.4508">t</tspan><tspan x="75.334" y="0" fill="#231815" font-family="'BentonSans-Regular'" font-size="18.4508">o</tspan><tspan x="86.091" y="0" fill="#231815" font-family="'BentonSans-Regular'" font-size="18.4508">r</tspan><tspan x="93.544" y="0" fill="#231815" font-family="'BentonSans-Regular'" font-size="18.4508">y </tspan><tspan x="107.696" y="0" fill="#231815" font-family="'BentonSans-Regular'" font-size="18.4508">o</tspan><tspan x="118.269" y="0" fill="#231815" font-family="'BentonSans-Regular'" font-size="18.4508">f </tspan></text>
	</g>
	<g clip-path="url(#SVGID_2_)">
		<defs>
			<rect id="SVGID_9_" x="24.5" y="84.29" width="743" height="308.42"/>
		</defs>
		<clipPath id="SVGID_10_">
			<use xlink:href="#SVGID_9_"  overflow="visible"/>
		</clipPath>
		<g clip-path="url(#SVGID_10_)">
			<text transform="matrix(1 0 0 1 53.8257 389.6768)"><tspan x="0" y="0" fill="#231815" font-family="'BentonSans-Regular'" font-size="18.4508" letter-spacing="-1">F</tspan><tspan x="9.078" y="0" fill="#231815" font-family="'BentonSans-Regular'" font-size="18.4508">olk</tspan><tspan x="34.41" y="0" fill="#231815" font-family="'BentonSans-Regular'" font-size="18.4508"> </tspan><tspan x="38.174" y="0" fill="#231815" font-family="'BentonSans-Regular'" font-size="18.4508">Art</tspan><tspan x="65.057" y="0" fill="#231815" font-family="'BentonSans-Regular'" font-size="18.4508" letter-spacing="-1">/</tspan><tspan x="74.393" y="0" fill="#231815" font-family="'BentonSans-Regular'" font-size="18.4508">C</tspan><tspan x="87.4" y="0" fill="#231815" font-family="'BentonSans-Regular'" font-size="18.4508">r</tspan><tspan x="94.448" y="0" fill="#231815" font-family="'BentonSans-Regular'" font-size="18.4508">aft</tspan></text>
		</g>
	</g>
</g>
</svg>
