<?xml version="1.0" encoding="utf-8"?>
<!-- Generator: Adobe Illustrator 16.0.0, SVG Export Plug-In . SVG Version: 6.00 Build 0)  -->
<!DOCTYPE svg PUBLIC "-//W3C//DTD SVG 1.1//EN" "http://www.w3.org/Graphics/SVG/1.1/DTD/svg11.dtd">
<svg version="1.1" id="图层_1" xmlns="http://www.w3.org/2000/svg" xmlns:xlink="http://www.w3.org/1999/xlink" x="0px" y="0px"
	 width="1111.532px" height="1224px" viewBox="0 0 1111.532 1224" enable-background="new 0 0 1111.532 1224" xml:space="preserve">
<title>Asset 6</title>
<g>
	<path d="M0,842.537v-79.896h84.294V469.489c-22.651,11.953-55.985,21.389-83.039,21.389v-83.667
		c35.859-1.259,64.799-10.694,85.557-30.198h96.247v385.629h73.604v79.896H0z"/>
	<path d="M286.831,609.777c0-145.323,71.719-241.57,193.767-241.57c122.67,0,193.125,96.247,193.125,241.57
		c0,145.317-70.455,241.57-193.125,241.57C358.55,851.348,286.831,755.095,286.831,609.777z M572.441,609.777
		c0-106.319-33.342-159.788-91.844-159.788c-60.397,0-91.854,53.469-91.854,159.788c0,106.315,33.342,161.674,91.854,161.674
		C540.354,771.451,572.441,716.093,572.441,609.777z"/>
	<path d="M724.64,609.777c0-145.323,71.72-241.57,193.767-241.57c122.671,0,193.126,96.247,193.126,241.57
		c0,145.317-70.455,241.57-193.126,241.57C796.359,851.348,724.64,755.095,724.64,609.777z M1010.251,609.777
		c0-106.319-33.342-159.788-91.845-159.788c-60.397,0-91.853,53.469-91.853,159.788c0,106.315,33.341,161.674,91.853,161.674
		C978.163,771.451,1010.251,716.093,1010.251,609.777z"/>
</g>
</svg>
