<?xml version="1.0" encoding="utf-8"?>
<!-- Generator: Adobe Illustrator 16.0.0, SVG Export Plug-In . SVG Version: 6.00 Build 0)  -->
<!DOCTYPE svg PUBLIC "-//W3C//DTD SVG 1.1//EN" "http://www.w3.org/Graphics/SVG/1.1/DTD/svg11.dtd">
<svg version="1.1" id="图层_1" xmlns="http://www.w3.org/2000/svg" xmlns:xlink="http://www.w3.org/1999/xlink" x="0px" y="0px"
	 width="1133.859px" height="1133.859px" viewBox="0 0 1133.859 1133.859" enable-background="new 0 0 1133.859 1133.859"
	 xml:space="preserve">
<title>Asset 2</title>
<g>
	<path fill="#D0CEF5" d="M5.554,501.642c5.1-139.78,95.909-252.867,230.08-289.955c128.286-35.458,266.959,18.592,342.581,133.524
		c114.402,173.877,22.989,411.764-179.781,468.313c-56.447,15.738-112.712,13.687-168.254-2.555
		c-17.093-4.998-29.173-3.012-43.311,7.227c-50.38,36.479-101.483,71.97-152.817,107.105c-6.908,4.725-19.846,9.815-24.354,6.666
		c-6.291-4.394-10.006-16.361-10.102-25.137C-1.174,835.995,3.214,565.775,5.554,501.642z M335.208,569.932
		c0.688-4.838,1.973-8.701,1.648-12.426c-2.107-24.297,8.668-41.325,27.87-55.356c10.503-7.675,19.413-17.992,27.625-28.253
		c19.804-24.75,19.692-50.626,0.824-76.505c-37.968-52.101-135.817-43.34-163.115,14.864c-3.658,7.797-4.656,16.843-6.885,25.303
		c37.572,9.088,37.57,9.088,60.08-17.932c1.268-1.521,2.422-3.182,3.889-4.488c15.249-13.611,44.905-12.679,58.132,1.766
		c12.688,13.863,10.668,31.979-5.966,49.248c-5.003,5.196-10.471,10.223-16.512,14.098c-34.173,21.917-32.593,55.225-30.778,89.684
		C307.315,569.932,320.87,569.932,335.208,569.932z M316.354,662.167c14.099-0.047,28.31-14.271,27.103-28.521
		c-1.324-15.662-11.537-23.25-26.587-23.688c-15.204-0.453-26.966,11.211-27.143,25.688
		C289.562,649.572,302.255,662.214,316.354,662.167z"/>
	<path d="M607.841,744.388c12.099-18.066,22.664-33.838,34.087-50.891c12.678,9.797,23.874,19.903,36.416,27.899
		c75.755,48.316,155.978,54.438,239.106,22.451c14.954-5.754,25.063-3.834,37.592,5.289c37.912,27.615,76.838,53.828,117.631,82.152
		c0.678-7.039,1.58-11.81,1.526-16.57c-1.176-104.592-2.104-209.195-3.807-313.783c-2.315-142.647-142.832-259.482-284.205-238.19
		c-55.033,8.287-101.586,31.969-143.499,69.864c-11.393-16.791-22.387-32.983-34.307-50.545
		c71.527-61.894,154.152-90.717,247.629-78.095c163.987,22.147,273.157,149.248,274.834,315.139
		c1.299,128.431,2.789,256.86,3.508,385.293c0.049,9.439-5.475,18.904-8.41,28.355c-9.582-3.01-20.582-3.945-28.506-9.373
		c-51.295-35.164-102.211-70.898-152.541-107.426c-11.983-8.697-22.205-10.111-36.219-5.961
		c-108.602,32.176-206.34,10.719-293.369-61.295C613.304,747.056,610.761,746.056,607.841,744.388z"/>
	<path d="M789.152,534.07c35.056-35.821,68.248-69.896,101.63-103.785c16.74-17,34.404-18.568,48.4-4.779
		c14.148,13.931,13.943,32.453-2.443,49.061c-40.883,41.443-82.179,82.489-123.77,123.219c-15.93,15.601-33.203,15.378-48.999,0.031
		c-21.354-20.731-42.331-41.875-63.05-63.242c-13.793-14.229-13.165-31.84,0.717-45.745c12.354-12.369,30.225-12.298,44.161,1.104
		C759.604,503.213,772.691,517.246,789.152,534.07z"/>
	<path d="M335.208,569.932c-14.339,0-27.894,0-43.188,0c-1.814-34.457-3.395-67.767,30.778-89.683
		c6.041-3.875,11.509-8.899,16.512-14.098c16.634-17.269,18.654-35.384,5.966-49.248c-13.227-14.443-42.883-15.377-58.132-1.766
		c-1.467,1.308-2.621,2.968-3.889,4.488c-22.511,27.02-22.51,27.02-60.08,17.932c2.229-8.459,3.227-17.507,6.885-25.303
		c27.297-58.204,125.147-66.964,163.115-14.864c18.868,25.878,18.979,51.755-0.824,76.507
		c-8.212,10.258-17.124,20.576-27.625,28.251c-19.202,14.031-29.978,31.059-27.87,55.355
		C337.182,561.23,335.897,565.093,335.208,569.932z"/>
	<path d="M316.354,662.167c-14.099,0.047-26.792-12.597-26.626-26.521c0.176-14.479,11.938-26.143,27.143-25.688
		c15.05,0.438,25.264,8.024,26.587,23.688C344.663,647.895,330.452,662.12,316.354,662.167z"/>
</g>
</svg>
