<?xml version="1.0" encoding="utf-8"?>
<!-- Generator: Adobe Illustrator 16.0.0, SVG Export Plug-In . SVG Version: 6.00 Build 0)  -->
<!DOCTYPE svg PUBLIC "-//W3C//DTD SVG 1.1//EN" "http://www.w3.org/Graphics/SVG/1.1/DTD/svg11.dtd">
<svg version="1.1" id="图层_1" xmlns="http://www.w3.org/2000/svg" xmlns:xlink="http://www.w3.org/1999/xlink" x="0px" y="0px"
	 width="1048.447px" height="1224px" viewBox="-128.224 0 1048.447 1224" enable-background="new -128.224 0 1048.447 1224"
	 xml:space="preserve">
<title>Asset 6</title>
<g>
	<path fill-rule="evenodd" clip-rule="evenodd" d="M690.128,783.624c0,36.218,0,69.641,0,105.063
		c-3.979-2.282-6.587-3.364-8.715-5.054c-38.2-30.259-76.106-60.892-114.721-90.607c-6.456-4.966-15.9-8.424-23.996-8.498
		c-71.547-0.649-143.101-0.337-214.656-0.391c-46.772-0.033-68.158-21.328-68.235-68.191c-0.116-70.659-0.167-141.314,0.037-211.974
		c0.094-34.436,13.183-54.388,41.126-63.238c5.406-1.712,11.376-2.294,17.086-2.3c137.738-0.124,275.479-0.152,413.217-0.061
		c31.613,0.021,56.352,22.278,56.71,54.026c0.897,79.143,0.855,158.307,0.013,237.449c-0.307,28.893-23.038,51.213-52.041,53.567
		C721.359,784.602,706.594,783.624,690.128,783.624z M525.561,597.092c-54.084,0-108.167-0.037-162.251,0.027
		c-14.566,0.018-20.278,4.499-19.979,15.397c0.357,13.014,9.644,14.756,19.612,14.764c107.719,0.085,215.437,0.104,323.152-0.012
		c13.456-0.016,20.666-6.053,20.162-16.102c-0.646-12.836-9.405-14.187-19.792-14.149
		C632.83,597.202,579.192,597.103,525.561,597.092z M525.765,510.687c-35.712,0-71.424-0.006-107.137,0.003
		c-18.847,0.005-26.103,4.149-26.48,15.076c-0.403,11.654,7.126,16.342,26.772,16.353c70.087,0.038,140.174,0.054,210.26-0.066
		c5.74-0.01,12.438,0.495,16.948-2.179c4.55-2.699,9.929-9.375,9.475-13.74c-0.541-5.241-6.224-10.692-10.947-14.462
		c-2.554-2.037-7.748-0.946-11.752-0.952C597.188,510.668,561.479,510.689,525.765,510.687z M524.231,682.787
		c-37.58,0-75.156,0.188-112.731-0.12c-10.958-0.089-18.98,2.831-19.113,15.06c-0.138,12.425,8.29,15.314,18.997,15.304
		c75.152-0.081,150.311-0.071,225.464,0.002c10.671,0.009,19.519-3.193,19.364-15.209c-0.147-11.531-7.99-15.313-19.249-15.188
		C599.388,683.052,561.808,682.793,524.231,682.787z"/>
	<path fill-rule="evenodd" clip-rule="evenodd" d="M92.132,787.643c0-32.716-0.676-61.706,0.302-90.64
		c0.45-13.358-4.169-17.43-16.814-16.143c-8.849,0.902-17.877,0.285-26.815,0.033c-29.838-0.849-54.227-23.609-54.483-53.535
		c-0.683-79.599-0.594-159.211-0.056-238.811c0.191-28.104,22.729-50.279,50.956-52.589c4.007-0.328,8.037-0.471,12.056-0.471
		c134.167-0.024,268.334,0.162,402.5-0.173c26.46-0.065,47.149,8.409,59.443,32.896c1.588,3.165,2.695,6.628,3.618,10.065
		c7.338,27.414,4.938,30.563-23.046,30.563c-59.928,0-119.903,1.468-179.769-0.443c-53.005-1.688-96.065,40.953-93.625,94.24
		c2.535,55.34,0.694,110.889,0.354,166.34c-0.034,5.292-1.342,12.641-4.904,15.524C179.886,718.507,137.381,751.848,92.132,787.643z
		"/>
	<path fill-rule="evenodd" clip-rule="evenodd" fill="#D0CEF5" d="M525.561,597.098c53.632,0.005,107.27,0.104,160.905-0.082
		c10.387-0.038,19.146,1.313,19.792,14.149c0.504,10.049-6.706,16.086-20.162,16.102c-107.716,0.115-215.434,0.097-323.152,0.012
		c-9.969-0.008-19.255-1.75-19.612-14.764c-0.299-10.898,5.412-15.379,19.979-15.397
		C417.394,597.055,471.477,597.092,525.561,597.098z"/>
	<path fill-rule="evenodd" clip-rule="evenodd" fill="#D0CEF5" d="M525.765,510.689c35.715,0,71.424-0.021,107.139,0.028
		c4.004,0.006,9.198-1.085,11.752,0.952c4.724,3.771,10.406,9.222,10.947,14.462c0.454,4.366-4.925,11.042-9.475,13.74
		c-4.51,2.674-11.208,2.169-16.948,2.179c-70.086,0.12-140.173,0.104-210.26,0.066c-19.646-0.01-27.176-4.698-26.772-16.353
		c0.378-10.926,7.634-15.071,26.48-15.076C454.341,510.681,490.053,510.687,525.765,510.689z"/>
	<path fill-rule="evenodd" clip-rule="evenodd" fill="#D0CEF5" d="M524.231,682.789c37.576,0.004,75.156,0.263,112.731-0.153
		c11.259-0.126,19.102,3.656,19.249,15.188c0.154,12.016-8.693,15.218-19.364,15.209c-75.153-0.073-150.312-0.083-225.464-0.002
		c-10.707,0.011-19.135-2.879-18.997-15.304c0.133-12.229,8.155-15.148,19.113-15.06
		C449.075,682.976,486.651,682.787,524.231,682.789z"/>
</g>
</svg>
