<?xml version="1.0" encoding="utf-8"?>
<!-- Generator: Adobe Illustrator 16.0.0, SVG Export Plug-In . SVG Version: 6.00 Build 0)  -->
<!DOCTYPE svg PUBLIC "-//W3C//DTD SVG 1.1//EN" "http://www.w3.org/Graphics/SVG/1.1/DTD/svg11.dtd">
<svg version="1.1" id="图层_1" xmlns="http://www.w3.org/2000/svg" xmlns:xlink="http://www.w3.org/1999/xlink" x="0px" y="0px"
	 width="1048.447px" height="1224px" viewBox="-128.224 0 1048.447 1224" enable-background="new -128.224 0 1048.447 1224"
	 xml:space="preserve">
<title>Asset 6</title>
<path fill-rule="evenodd" clip-rule="evenodd" d="M-2.237,896.745c-0.603-51.271,37.124-92.859,93.578-101.63
	c9.514-1.479,12.736-5.016,14.904-13.429c15.367-59.584,30.992-119.109,47.086-178.508c2.438-8.995,0.128-13.68-7.206-18.964
	c-38.468-27.718-52.899-74.17-37.47-118.311c14.139-40.446,58.133-69.827,102.665-68.562c46.271,1.321,87.102,32.381,98.189,77.524
	c3.762,15.297,2.529,32.095,1.552,48.086c-0.498,8.139,0.239,12.768,7.689,17.437c62.506,39.181,124.712,78.816,186.986,118.355
	c6.516,4.137,11.899,4.651,19.771,0.801c16.236-7.942,33.831-13.16,50.496-20.33c4.811-2.07,10.965-6.319,12.107-10.679
	c17.83-68.322,35.144-136.783,51.76-205.401c1.1-4.545-2.836-12.694-7.007-15.689c-54.533-39.143-60.983-115.613-11.645-160.862
	c29.361-26.929,64.837-35.252,103.819-23.039c38.981,12.214,62.97,38.918,70.942,77.949c12.326,60.356-27.335,113.838-89.239,123.5
	c-5.105,0.794-12.346,6.224-13.536,10.78c-17.617,67.392-34.2,135.047-51.55,202.512c-2.444,9.51,0.125,14.161,7.967,19.961
	c33.919,25.064,48.831,59.631,42.174,100.408c-6.865,42.029-32.734,70.989-74.736,82.985
	c-39.406,11.257-74.663,2.277-104.146-26.526c-26.272-25.669-33.837-57.17-28.253-92.048c1.509-9.415,0.037-14.643-8.295-19.901
	c-61.986-39.131-123.742-78.62-185.354-118.328c-7.968-5.132-13.435-4.533-22.047-0.14c-16.074,8.207-33.822,13.16-50.558,20.202
	c-4.518,1.896-10.303,5.793-11.428,9.862c-16.799,60.709-32.785,121.628-49.345,182.398c-2.296,8.435,0.625,12.531,7.24,17.614
	c35.308,27.136,49.578,63.232,40.576,106.26c-8.672,41.426-43.673,73.152-84.045,79.331c-45.833,7.019-82.883-8.592-107.396-46.732
	C3.588,937.415,0.306,916.75-6.224,898.104C-4.894,897.652-3.564,897.199-2.237,896.745z"/>
</svg>
