<?xml version="1.0" encoding="utf-8"?>
<!-- Generator: Adobe Illustrator 16.0.0, SVG Export Plug-In . SVG Version: 6.00 Build 0)  -->
<!DOCTYPE svg PUBLIC "-//W3C//DTD SVG 1.1//EN" "http://www.w3.org/Graphics/SVG/1.1/DTD/svg11.dtd">
<svg version="1.1" id="图层_1" xmlns="http://www.w3.org/2000/svg" xmlns:xlink="http://www.w3.org/1999/xlink" x="0px" y="0px"
	 width="1133.859px" height="1133.859px" viewBox="0 0 1133.859 1133.859" enable-background="new 0 0 1133.859 1133.859"
	 xml:space="preserve">
<title>Asset 2</title>
<g>
	<path d="M1088.176,224.344c-14.759,0-26.54,0-41.228,0c0,8.944,0,17.162,0,25.341c0,188.583,0.071,377.131,0,565.676
		c0,34.685-4.29,39.775-37.956,46.537c-136.412,27.34-272.75,54.754-409.16,82.021c-2.69,0.582-5.454,0.51-10.688,0.8
		c-0.511-7.198-1.383-13.815-1.383-20.434c-0.073-243.519,0.146-486.962-0.51-730.409c0-17.159,5.891-22.613,21.889-25.667
		c100.707-19.379,201.271-39.703,301.834-59.771c35.12-6.981,70.241-14.251,105.436-21.015c21.158-4.072,30.176,3.419,30.466,25.379
		c0.292,21.739,0.073,43.555,0.073,68.787c18.396,0,35.629-0.292,52.936,0.071c22.395,0.51,29.522,6.98,29.522,28.869
		c0.145,232.938,0,465.803,0.29,698.705c0.073,22.25-11.49,31.413-30.976,35.267c-128.848,25.594-257.697,51.337-386.547,77.076
		c-32.429,6.399-65.515,10.471-97.001,19.997c-41.41,12.579-80.565,2.398-120.231-5.527
		c-150.882-30.104-301.725-60.497-452.605-90.602c-33.341-6.688-38.175-11.924-38.175-46.026c0-225.849,0-451.77,0-677.657
		c0-35.848,4.361-40.173,39.919-40.211c13.235,0,26.47,0,42.793,0c0-23.339-0.546-44.863,0.107-66.35
		c0.802-25.596,9.962-32.284,35.12-27.267c135.722,27.013,271.442,54.317,407.271,80.713c17.018,3.307,16.469,13.161,16.469,25.667
		c-0.143,169.57-0.072,339.172-0.072,508.706c0,72.496,0,144.992,0,217.486c0,7.563,0,15.125,0,25.088
		c-50.354-9.963-97.727-19.271-145.1-28.723c-87.513-17.451-175.022-34.977-262.498-52.498c-4.796-0.947-9.633-1.893-14.434-2.912
		c-31.885-6.98-36.899-13.014-36.899-45.444C86.8,627.398,86.8,438.85,86.8,250.302c0-8.253,0-16.433,0-25.667
		c-14.289,0-25.923,0-39.811,0c-0.363,7.707-1.09,15.125-1.09,22.613c-0.073,210.325,0.218,420.721-0.584,631.084
		c-0.071,19.486,5.746,26.758,24.47,30.248c112.452,21.595,224.613,44.211,336.845,66.605
		c46.136,9.162,91.839,22.322,138.448,26.832c31.775,3.053,65.151-3.564,97.146-9.671c122.74-23.561,245.189-48.573,367.785-73.151
		c21.307-4.219,42.901-7.779,63.77-13.742c5.891-1.674,10.399-10.181,13.961-16.506c1.893-3.127,0.437-8.289,0.437-12.435
		c0-209.708,0-419.413,0-629.047C1088.176,240.522,1088.176,233.58,1088.176,224.344z M687.378,607.835
		c7.854-0.652,9.963-0.652,11.998-1.016c65.951-13.309,131.832-26.541,197.71-39.92c4.071-0.838,9.815-1.745,11.415-4.509
		c4.799-8.546,7.926-17.96,11.635-27.087c-8.799-3.454-18.252-11.017-26.25-9.67c-44.211,7.453-87.912,17.159-131.83,25.994
		c-23.342,4.727-46.829,8.799-69.95,14.507c-13.742,3.345-22.613,13.671-18.904,28.031C674.874,600.566,684.326,605,687.378,607.835
		z M687.453,733.704c18.541-3.49,32.357-5.817,46.1-8.579c53.518-10.688,107.035-21.379,160.552-32.213
		c15.925-3.271,29.448-11.344,26.104-29.232c-3.78-20.067-19.778-14.324-33.811-11.486c-53.518,10.76-107.182,20.941-160.625,31.631
		c-13.088,2.545-27.412,3.635-38.175,10.178c-7.563,4.58-12.216,17.089-13.888,26.833
		C673.128,724.688,683.962,730.579,687.453,733.704z M687.671,358.719c32.067-6.361,59.553-11.706,86.964-17.269
		c41.883-8.398,83.84-16.397,125.505-25.705c14.469-3.2,24.068-13.961,19.849-29.521c-4.069-15.196-16.94-13.197-29.446-10.689
		c-54.899,11.197-109.872,21.741-164.771,32.723c-13.014,2.616-27.341,3.706-38.175,10.323
		c-7.563,4.654-12.216,17.089-13.888,26.833C673.128,349.34,683.888,355.229,687.671,358.719z M688.687,483.642
		c30.468-6.036,55.336-10.87,80.058-15.851c43.412-8.726,86.896-17.161,130.16-26.54c14.54-3.127,24.866-13.054,21.376-28.76
		c-3.854-16.941-17.451-14.287-30.757-11.525c-41.956,8.726-83.984,16.725-126.013,25.087c-24.068,4.837-48.792,8.035-71.842,15.889
		c-8.508,2.871-15.27,16.397-18.252,26.393C672.328,472.081,684.47,479.714,688.687,483.642z M443.934,608.273
		c3.706-2.398,14.906-5.744,15.559-10.616c1.129-8.362-2.615-18.688-7.633-25.958c-3.199-4.583-12.29-5.817-19.015-7.199
		c-62.57-12.798-125.25-24.904-187.747-38.104c-13.742-2.906-27.23-5.197-30.868,10.981c-3.562,15.925,6.29,26.032,22.688,29.304
		c27.557,5.416,55.006,11.416,82.529,16.941C359.439,591.621,399.361,599.475,443.934,608.273z M444.661,733.558
		c3.67-2.326,13.16-4.943,14.725-10.033c2.145-6.836,0.691-18.033-3.891-22.832c-6.254-6.398-16.613-10.036-25.778-11.926
		c-61.804-12.943-123.795-24.795-185.601-37.52c-13.598-2.838-27.341-4.219-30.211,12.361c-2.619,14.905,6.942,24.939,22.212,28.14
		c15.124,3.127,30.249,6.325,45.373,9.379C334.427,711.672,387.434,722.143,444.661,733.558z M444.442,358.175
		c3.6-2.146,13.162-4.654,14.797-9.709c2.221-6.762,0.91-18.104-3.67-22.905c-6.11-6.47-16.472-10.252-25.634-12.178
		c-62.459-13.125-125.104-25.27-187.636-38.139c-13.163-2.69-27.013-2.256-27.777,12.65c-0.437,8.873,9.051,22.471,17.596,26.543
		c14.18,6.688,31.123,7.562,47.01,10.687C332.753,335.887,386.452,346.577,444.442,358.175z M443.497,483.133
		c4.291-2.619,15.523-6.035,16.07-10.763c1.018-8.362-2.762-18.614-7.852-25.813c-3.311-4.653-12.219-6.18-18.907-7.562
		c-63.188-12.869-126.45-25.303-189.6-38.174c-12.909-2.69-25.633-3.346-29.123,11.634c-3.198,13.961,4.834,24.432,19.125,28.067
		c14.251,3.637,28.755,6.254,43.191,9.162C330.645,460.592,384.962,471.461,443.497,483.133z"/>
</g>
</svg>
