<?xml version="1.0" encoding="utf-8"?>
<!-- Generator: Adobe Illustrator 16.0.0, SVG Export Plug-In . SVG Version: 6.00 Build 0)  -->
<!DOCTYPE svg PUBLIC "-//W3C//DTD SVG 1.1//EN" "http://www.w3.org/Graphics/SVG/1.1/DTD/svg11.dtd">
<svg version="1.1" id="图层_1" xmlns="http://www.w3.org/2000/svg" xmlns:xlink="http://www.w3.org/1999/xlink" x="0px" y="0px"
	 width="1133.859px" height="1133.859px" viewBox="0 0 1133.859 1133.859" enable-background="new 0 0 1133.859 1133.859"
	 xml:space="preserve">
<title>Asset 2</title>
<g>
	<path d="M935.387,570.583c-115.967,0-229.892,0-344.671,0c0-113.41,0-226.284,0-340.301c5.527-0.267,10.629-0.725,15.732-0.728
		c100.489-0.041,200.978-0.041,301.468-0.024c24.186,0.006,27.469,3.26,27.47,26.938c0.005,99.614,0.001,199.232,0.001,298.848
		C935.387,560.028,935.387,564.739,935.387,570.583z M756.985,485.741c18.354,0,36.715-0.242,55.063,0.111
		c7.954,0.154,11.698-2.902,10.372-10.751c-2.023-11.952-2.461-24.718-7.177-35.571c-12.456-28.662-45.88-42.938-75.451-34.109
		c-30.558,9.125-51.949,41.707-47.118,72.951c0.441,2.864,5.971,6.916,9.262,7.039C720.264,486.096,738.631,485.741,756.985,485.741
		z M723.376,355.45c0.225,18.485,16.043,34.077,34.434,33.94c18.265-0.133,33.775-16.176,33.585-34.732
		c-0.19-18.692-15.901-34.125-34.38-33.769C738.227,321.254,723.146,336.746,723.376,355.45z"/>
	<path d="M569.206,592.635c0,113.813,0,226.415,0,339.834c-4.349,0.269-8.134,0.703-11.918,0.706
		c-102.688,0.035-205.373,0.046-308.062,0.01c-18.63-0.005-24.903-5.899-24.918-23.87c-0.076-101.813-0.044-203.628-0.005-305.441
		c0.001-3.42,0.455-6.841,0.766-11.237C339.798,592.635,454.013,592.635,569.206,592.635z M338.309,833.817
		c42.105,0,83.104-0.053,124.104,0.043c8.419,0.021,8.544-5.457,8.506-11.508c-0.172-26.781-9.589-48.816-33.774-62.221
		c-24.839-13.765-50.031-12.351-72.867,3.938C341.196,780.537,334.058,804.455,338.309,833.817z M437.161,702.631
		c-0.287-18.679-16.294-34.324-34.582-33.799c-18.715,0.54-33.804,16.36-33.419,35.037c0.388,18.802,15.914,33.207,35.328,32.778
		C422.629,736.247,437.44,720.827,437.161,702.631z"/>
	<path d="M934.778,592.399c0.223,4.909,0.584,9.171,0.585,13.432c0.031,100.089,0.033,200.175,0.016,300.263
		c-0.003,21.902-5.172,27.101-26.936,27.104c-101.397,0.018-202.797,0.007-304.196,0.007c-4.279,0-8.559,0-13.593,0
		c0-114.143,0-227.076,0-340.804C705.473,592.399,819.7,592.399,934.778,592.399z M756.648,838.239c17.91,0,35.839,0.42,53.719-0.32
		c4.059-0.169,11.193-4.115,11.402-6.762c1.787-22.374-1.354-43.928-18.563-60.417c-20.9-20.021-51.033-23.883-76.499-10.646
		c-23.366,12.146-38.805,42.962-33.957,69.786c0.596,3.291,6.542,7.812,10.184,7.979
		C720.807,838.685,738.739,838.234,756.648,838.239z M791.388,704.036c-0.271-19.038-15.546-33.848-34.55-33.502
		c-19.084,0.349-33.845,15.652-33.451,34.683c0.379,18.339,16.849,33.809,35.271,33.134
		C776.612,737.692,791.644,721.933,791.388,704.036z"/>
	<path d="M376.284,200.662c50.719,0,101.438-0.033,152.157,0.018c19.958,0.021,24.274,4.161,24.283,23.478
		c0.045,101.875,0.045,203.752-0.002,305.627c-0.009,17.872-4.876,22.924-22.345,22.935c-103.187,0.066-206.374,0.064-309.562,0.002
		c-17.476-0.011-22.3-5.01-22.309-22.969c-0.053-101.877-0.053-203.751-0.002-305.629c0.009-19.314,4.324-23.427,24.308-23.445
		C273.97,200.628,325.126,200.662,376.284,200.662z M375.678,219.534c-45.018,0-90.036-0.057-135.052,0.025
		c-18.305,0.033-23.224,4.94-23.237,23.54c-0.078,89.16-0.081,178.318,0.003,267.479c0.018,17.951,5.45,23.253,23.782,23.269
		c90.033,0.08,180.067,0.084,270.103-0.008c16.614-0.015,22.498-5.558,22.523-21.841c0.147-90.034,0.142-180.068,0.013-270.103
		c-0.026-17.349-5.399-22.313-23.084-22.34C465.71,219.485,420.694,219.531,375.678,219.534z"/>
	<path fill="#D0CEF5" d="M375.678,219.531c45.017,0,90.032-0.046,135.051,0.023c17.685,0.027,23.058,4.991,23.084,22.34
		c0.129,90.034,0.136,180.068-0.013,270.103c-0.025,16.283-5.909,21.826-22.523,21.841c-90.034,0.093-180.068,0.088-270.103,0.008
		c-18.332-0.016-23.765-5.317-23.782-23.269c-0.084-89.16-0.081-178.318-0.003-267.479c0.014-18.6,4.933-23.507,23.237-23.54
		C285.642,219.477,330.661,219.534,375.678,219.531z M236.192,238.93c0,43.452,0,85.312,0,128.961
		c6.516,0,12.777-1.068,18.404,0.356c4.142,1.05,7.454,5.365,11.137,8.225c-3.858,3.177-7.279,7.861-11.688,9.15
		c-5.473,1.597-11.766,0.382-17.505,0.382c0,44.307,0,86.49,0,128.813c43.526,0,86.154,0,130.038,0
		c0-6.772-1.088-13.095,0.394-18.74c0.938-3.572,5.698-6.144,8.744-9.16c2.986,3.118,7.626,5.805,8.573,9.455
		c1.459,5.61,0.384,11.881,0.384,18.184c44.422,0,87.349,0,129.927,0c0-43.174,0-85.312,0-128.694
		c-6.578,0-12.521,1.117-17.715-0.379c-3.671-1.059-6.322-5.653-9.427-8.668c3.182-2.947,5.926-7.398,9.65-8.489
		c5.575-1.635,11.843-0.907,17.604-1.174c0-43.531,0-85.719,0-128.125c-43.499,0-86.126,0-130.045,0
		c0,5.88,1.101,11.364-0.349,16.063c-1.164,3.78-5.414,6.608-8.295,9.857c-3.169-3.403-7.716-6.319-9.133-10.339
		c-1.596-4.527-0.368-10.047-0.368-15.676C322.281,238.93,279.667,238.93,236.192,238.93z"/>
	<path d="M236.192,238.93c43.476,0,86.089,0,130.333,0c0,5.629-1.228,11.149,0.368,15.676c1.417,4.02,5.965,6.936,9.133,10.339
		c2.881-3.249,7.131-6.078,8.295-9.857c1.448-4.699,0.349-10.182,0.349-16.063c43.919,0,86.546,0,130.045,0
		c0,42.405,0,84.594,0,128.125c-5.763,0.267-12.029-0.461-17.604,1.174c-3.726,1.091-6.47,5.542-9.65,8.489
		c3.104,3.016,5.756,7.61,9.427,8.668c5.192,1.496,11.138,0.379,17.715,0.379c0,43.382,0,85.52,0,128.694
		c-42.577,0-85.505,0-129.927,0c0-6.303,1.075-12.572-0.384-18.184c-0.947-3.649-5.587-6.336-8.573-9.455
		c-3.046,3.017-7.808,5.587-8.744,9.16c-1.48,5.646-0.394,11.968-0.394,18.74c-43.884,0-86.512,0-130.038,0
		c0-42.321,0-84.504,0-128.813c5.739,0,12.032,1.215,17.505-0.382c4.409-1.289,7.83-5.973,11.688-9.15
		c-3.683-2.86-6.995-7.175-11.137-8.225c-5.627-1.424-11.889-0.356-18.404-0.356C236.192,324.242,236.192,282.381,236.192,238.93z
		 M375.426,451.626c17.045,0,34.096-0.167,51.137,0.071c7.714,0.109,10.591-2.821,10.852-10.806
		c1.201-36.851-25.213-66.292-60.621-66.847c-35.854-0.564-62.45,27.285-62.538,64.642c-0.022,9.531,2.771,13.454,12.664,13.108
		C343.069,451.229,359.255,451.642,375.426,451.626z M344.463,328.623c-0.198,17.263,13.88,32.039,30.921,32.454
		c16.561,0.403,31.823-14.343,32.352-31.251c0.54-17.345-13.367-31.594-31.1-31.862
		C358.669,297.688,344.665,311.035,344.463,328.623z"/>
	<path fill="#D0CEF5" d="M375.426,451.634c-16.171,0.008-32.356-0.404-48.508,0.161c-9.895,0.346-12.688-3.577-12.664-13.108
		c0.088-37.356,26.686-65.207,62.538-64.642c35.408,0.555,61.822,29.997,60.621,66.847c-0.261,7.984-3.138,10.916-10.851,10.806
		C409.521,451.459,392.471,451.626,375.426,451.634z"/>
	<path fill="#D0CEF5" d="M344.463,328.623c0.201-17.588,14.206-30.935,32.173-30.66c17.731,0.269,31.64,14.518,31.1,31.862
		c-0.527,16.908-15.791,31.654-32.352,31.251C358.343,360.662,344.265,345.886,344.463,328.623z"/>
</g>
</svg>
