<?xml version="1.0" encoding="utf-8"?>
<!-- Generator: Adobe Illustrator 16.0.0, SVG Export Plug-In . SVG Version: 6.00 Build 0)  -->
<!DOCTYPE svg PUBLIC "-//W3C//DTD SVG 1.1//EN" "http://www.w3.org/Graphics/SVG/1.1/DTD/svg11.dtd">
<svg version="1.1" id="图层_1" xmlns="http://www.w3.org/2000/svg" xmlns:xlink="http://www.w3.org/1999/xlink" x="0px" y="0px"
	 width="33.834px" height="33.834px" viewBox="0 0 33.834 33.834" enable-background="new 0 0 33.834 33.834" xml:space="preserve">
<title>first</title>
<desc>Created with Sketch.</desc>
<g>
	<path fill="#262C30" d="M16.933,28.103c-4.404,0-8.808,0.002-13.212,0c-2.281-0.002-3.698-1.365-3.707-3.637
		C-0.005,19.44-0.003,14.417,0.013,9.393c0.008-2.321,1.391-3.659,3.731-3.66c8.769-0.003,17.534-0.003,26.303,0
		c2.396,0.001,3.786,1.405,3.786,3.815c0.001,4.925,0.001,9.85,0,14.773c-0.001,2.406-1.385,3.779-3.811,3.781
		C25.66,28.103,21.296,28.103,16.933,28.103z M16.875,25.956c4.347,0,8.69,0.002,13.036,0c1.318,0,1.756-0.434,1.757-1.758
		c0.001-4.867,0.001-9.732,0-14.599c0-1.229-0.433-1.661-1.663-1.661c-8.73-0.001-17.461-0.001-26.192,0
		c-1.222,0-1.636,0.402-1.636,1.608c-0.004,4.925-0.004,9.852,0,14.778c0,1.258,0.387,1.631,1.662,1.631
		C8.185,25.958,12.53,25.956,16.875,25.956z"/>
	<path fill="#D0CEF5" d="M16.875,25.956c-4.345,0-8.69,0.002-13.036,0c-1.275,0-1.662-0.373-1.662-1.631
		c-0.004-4.928-0.004-9.854,0-14.778c0-1.206,0.414-1.608,1.636-1.608c8.731-0.001,17.461-0.001,26.192,0
		c1.23,0,1.663,0.433,1.663,1.661c0.001,4.866,0.001,9.731,0,14.599c-0.001,1.323-0.438,1.758-1.757,1.758
		C25.565,25.958,21.222,25.956,16.875,25.956z M13.803,22.45c0.629,0.02,0.927-0.387,0.796-1.006
		c-0.164-0.781-0.359-1.56-0.564-2.33c-0.146-0.541-0.047-0.957,0.423-1.316c0.587-0.447,1.126-0.959,1.697-1.43
		c0.319-0.262,0.594-0.598,0.353-0.967c-0.164-0.25-0.547-0.442-0.859-0.494c-0.727-0.122-1.47-0.164-2.209-0.199
		c-0.594-0.027-0.948-0.279-1.144-0.857c-0.23-0.68-0.544-1.33-0.816-1.996c-0.148-0.365-0.315-0.7-0.79-0.695
		c-0.476,0.006-0.629,0.354-0.776,0.716c-0.286,0.703-0.592,1.398-0.861,2.107c-0.167,0.439-0.425,0.679-0.921,0.704
		c-0.817,0.041-1.633,0.138-2.45,0.205c-0.376,0.031-0.794,0.1-0.82,0.53c-0.019,0.284,0.146,0.657,0.356,0.862
		c0.602,0.584,1.264,1.104,1.906,1.646c0.322,0.271,0.436,0.573,0.311,1.006c-0.23,0.785-0.45,1.578-0.59,2.383
		c-0.053,0.307,0.033,0.727,0.22,0.965c0.261,0.334,0.646,0.158,0.974-0.043c0.699-0.43,1.413-0.834,2.105-1.271
		c0.386-0.244,0.732-0.236,1.115,0.002c0.693,0.435,1.402,0.848,2.108,1.264C13.532,22.335,13.716,22.407,13.803,22.45z
		 M23.765,12.988c1.262,0,2.524,0.04,3.782-0.024c0.388-0.02,0.896-0.223,1.113-0.518c0.558-0.758-0.063-1.646-1.115-1.65
		c-2.522-0.011-5.047-0.006-7.569-0.002c-0.824,0.002-1.316,0.405-1.338,1.07c-0.021,0.688,0.479,1.117,1.342,1.121
		C21.24,12.993,22.502,12.988,23.765,12.988z M23.679,18.046v-0.002c1.34,0,2.682,0.016,4.021-0.006
		c0.717-0.012,1.163-0.465,1.183-1.105c0.016-0.546-0.49-1.07-1.154-1.076c-2.658-0.021-5.318-0.031-7.979,0.002
		c-0.93,0.013-1.449,1.025-0.877,1.703c0.229,0.275,0.713,0.445,1.09,0.463C21.198,18.081,22.438,18.046,23.679,18.046z
		 M23.733,23.106c1.299,0,2.598,0.016,3.896-0.004c0.75-0.013,1.216-0.431,1.243-1.045c0.027-0.595-0.512-1.15-1.219-1.154
		c-2.615-0.019-5.232-0.029-7.85,0.002c-0.974,0.012-1.518,1.012-0.934,1.715c0.229,0.273,0.712,0.449,1.088,0.467
		C21.215,23.144,22.476,23.108,23.733,23.106z"/>
	<path fill="#262C30" d="M13.803,22.45c-0.087-0.043-0.271-0.115-0.438-0.215c-0.706-0.416-1.415-0.83-2.108-1.264
		c-0.383-0.238-0.729-0.246-1.115-0.003c-0.692,0.438-1.406,0.843-2.105,1.271c-0.328,0.2-0.713,0.377-0.974,0.043
		c-0.187-0.238-0.272-0.658-0.22-0.966c0.14-0.805,0.359-1.598,0.59-2.383c0.125-0.432,0.012-0.733-0.311-1.006
		c-0.643-0.543-1.305-1.063-1.906-1.646c-0.21-0.205-0.375-0.578-0.356-0.862c0.026-0.431,0.444-0.499,0.82-0.53
		c0.817-0.067,1.633-0.164,2.45-0.205c0.496-0.025,0.754-0.265,0.921-0.704c0.27-0.709,0.575-1.404,0.861-2.107
		c0.147-0.361,0.301-0.71,0.776-0.716c0.475-0.005,0.642,0.33,0.79,0.695c0.272,0.666,0.586,1.316,0.816,1.996
		c0.195,0.578,0.55,0.83,1.144,0.857c0.739,0.035,1.482,0.077,2.209,0.199c0.313,0.052,0.695,0.244,0.859,0.494
		c0.241,0.369-0.033,0.705-0.353,0.967c-0.571,0.471-1.11,0.982-1.697,1.43c-0.47,0.359-0.568,0.775-0.423,1.315
		c0.205,0.771,0.4,1.55,0.564,2.33C14.729,22.063,14.432,22.47,13.803,22.45z"/>
	<path fill="#262C30" d="M23.765,12.988c-1.263,0-2.523,0.005-3.785-0.003c-0.862-0.004-1.362-0.432-1.342-1.121
		c0.021-0.665,0.514-1.068,1.338-1.07c2.522-0.004,5.047-0.009,7.569,0.002c1.054,0.005,1.673,0.893,1.115,1.65
		c-0.218,0.295-0.726,0.498-1.113,0.518C26.289,13.028,25.024,12.988,23.765,12.988z"/>
	<path fill="#262C30" d="M23.679,18.046c-1.238,0-2.479,0.035-3.718-0.021c-0.377-0.018-0.86-0.188-1.09-0.463
		c-0.572-0.678-0.054-1.689,0.877-1.703c2.659-0.033,5.319-0.023,7.978-0.002c0.666,0.006,1.17,0.53,1.155,1.076
		c-0.019,0.641-0.466,1.093-1.183,1.105c-1.34,0.021-2.68,0.006-4.02,0.006V18.046L23.679,18.046z"/>
	<path fill="#262C30" d="M23.733,23.106c-1.258,0.002-2.52,0.037-3.774-0.021c-0.376-0.019-0.86-0.192-1.088-0.467
		c-0.584-0.703-0.04-1.703,0.935-1.716c2.615-0.03,5.232-0.02,7.85-0.002c0.705,0.005,1.246,0.562,1.218,1.154
		c-0.028,0.615-0.493,1.033-1.243,1.045C26.331,23.122,25.032,23.106,23.733,23.106z"/>
</g>
</svg>
