<?xml version="1.0" encoding="utf-8"?>
<!-- Generator: Adobe Illustrator 16.0.0, SVG Export Plug-In . SVG Version: 6.00 Build 0)  -->
<!DOCTYPE svg PUBLIC "-//W3C//DTD SVG 1.1//EN" "http://www.w3.org/Graphics/SVG/1.1/DTD/svg11.dtd">
<svg version="1.1" id="图层_1" xmlns="http://www.w3.org/2000/svg" xmlns:xlink="http://www.w3.org/1999/xlink" x="0px" y="0px"
	 width="33.834px" height="33.834px" viewBox="0.666 -6.917 33.834 33.834" enable-background="new 0.666 -6.917 33.834 33.834"
	 xml:space="preserve">
<title>first</title>
<desc>Created with Sketch.</desc>
<path fill-rule="evenodd" clip-rule="evenodd" fill="#262C30" d="M10.545,4.026C9.047,2.478,7.539,0.908,6.009-0.639
	c-0.1-0.101-0.387-0.091-0.552-0.037C4.068-0.22,2.74-0.561,1.861-1.621C0.994-2.668,0.876-4.125,1.56-5.335
	c0.79-1.4,2.695-1.99,4.122-1.279c1.584,0.79,2.333,2.713,1.583,4.224c-0.222,0.448-0.18,0.68,0.163,1.022
	c1.329,1.328,2.631,2.685,3.925,4.049c0.282,0.298,0.523,0.34,0.939,0.278c0.632-0.092,1.292,0.027,1.939,0.027
	c0.247-0.001,0.553-0.007,0.729-0.144c1.178-0.919,2.321-1.884,3.494-2.809c0.32-0.252,0.428-0.498,0.386-0.917
	c-0.146-1.423,0.463-2.491,1.702-3.174c1.161-0.641,2.312-0.521,3.371,0.246c0.952,0.689,1.398,1.661,1.289,2.832
	c-0.036,0.396,0.082,0.572,0.404,0.74c0.961,0.505,1.91,1.036,2.885,1.568c0.963-0.843,2.037-1.252,3.309-0.862
	c1.682,0.516,2.575,2.107,2.178,3.878c-0.349,1.563-1.938,2.604-3.609,2.369c-1.646-0.231-2.852-1.729-2.688-3.425
	c0.047-0.48-0.06-0.721-0.496-0.931c-0.807-0.387-1.573-0.855-2.372-1.26c-0.148-0.074-0.421-0.077-0.548,0.013
	c-1.729,1.212-2.811,1.201-4.608-0.097c-1.254,1.017-2.513,2.037-3.808,3.085c0.506,0.97,0.79,1.99,0.311,3.005
	c-0.272,0.574-0.683,1.156-1.183,1.535c-1.165,0.885-2.802,0.738-3.904-0.212C9.825,7.351,9.649,5.967,10.545,4.026z M14.876,5.977
	c-0.016-0.927-0.822-1.705-1.744-1.683c-0.88,0.021-1.666,0.82-1.676,1.704c-0.01,0.877,0.844,1.728,1.729,1.721
	C14.098,7.711,14.892,6.894,14.876,5.977z M6.029-3.669c0.012-0.949-0.742-1.704-1.701-1.706C3.375-5.376,2.6-4.613,2.605-3.679
	c0.005,0.895,0.77,1.658,1.681,1.68C5.224-1.976,6.018-2.738,6.029-3.669z M21.965,0.455c0.961,0.027,1.732-0.692,1.755-1.636
	c0.023-0.924-0.689-1.689-1.603-1.722c-1.004-0.035-1.73,0.624-1.769,1.602C20.311-0.314,20.995,0.428,21.965,0.455z M32.568,3.553
	c0.009-0.934-0.767-1.718-1.695-1.714c-0.933,0.004-1.654,0.714-1.68,1.65c-0.025,0.976,0.686,1.728,1.646,1.746
	C31.766,5.251,32.557,4.48,32.568,3.553z"/>
<path fill-rule="evenodd" clip-rule="evenodd" fill="#262C30" d="M7.709,14.674c0,3.696,0,7.393-0.001,11.088
	c0,0.95-0.223,1.179-1.154,1.182c-1.517,0.003-3.033,0.006-4.552-0.001c-0.799-0.005-1.087-0.282-1.087-1.083
	c-0.004-7.498-0.004-14.996,0-22.496c0.002-0.788,0.251-1.019,1.046-1.021C3.499,2.338,5.038,2.34,6.576,2.341
	C7.52,2.343,7.708,2.526,7.708,3.458C7.711,7.197,7.709,10.935,7.709,14.674z"/>
<path fill-rule="evenodd" clip-rule="evenodd" fill="#262C30" d="M25.424,15.785c0,3.286,0.002,6.575,0,9.863
	c-0.001,1.055-0.188,1.237-1.223,1.239c-1.515,0.001-3.031,0.004-4.547-0.002c-0.789-0.003-1.04-0.243-1.04-1.029
	c-0.003-6.703-0.003-13.407,0-20.111c0.002-0.8,0.276-1.061,1.087-1.063c1.538-0.004,3.076-0.003,4.611-0.001
	c0.864,0.001,1.108,0.253,1.11,1.174C25.429,9.166,25.424,12.476,25.424,15.785z"/>
<path fill-rule="evenodd" clip-rule="evenodd" fill="#262C30" d="M34.254,17.705c0,2.69,0,5.382-0.002,8.07
	c0,0.932-0.197,1.137-1.124,1.141c-1.516,0.008-3.032,0.008-4.549,0c-0.878-0.006-1.11-0.234-1.11-1.099
	c-0.003-5.444-0.003-10.89,0-16.335c0-0.819,0.252-1.068,1.071-1.07c1.558-0.004,3.117-0.004,4.676,0
	c0.786,0.003,1.035,0.247,1.035,1.029C34.255,12.195,34.254,14.95,34.254,17.705z"/>
<path fill-rule="evenodd" clip-rule="evenodd" fill="#262C30" d="M16.558,19.494c0,2.115,0.003,4.229-0.002,6.342
	c0,0.846-0.214,1.073-1.057,1.079c-1.559,0.01-3.117,0.01-4.675,0C10,26.907,9.772,26.664,9.771,25.823
	c-0.003-4.229-0.003-8.455,0.002-12.683c0-0.79,0.246-1.03,1.032-1.031c1.493-0.005,2.99-0.002,4.483-0.002
	c1.119,0,1.27,0.146,1.27,1.238C16.559,15.396,16.558,17.445,16.558,19.494z"/>
<path fill-rule="evenodd" clip-rule="evenodd" fill="#EEE415" d="M14.876,5.977c0.016,0.917-0.778,1.734-1.691,1.742
	c-0.885,0.007-1.738-0.844-1.729-1.721c0.01-0.884,0.796-1.683,1.676-1.704C14.054,4.272,14.86,5.049,14.876,5.977z"/>
<path fill-rule="evenodd" clip-rule="evenodd" fill="#EEE415" d="M6.029-3.669c-0.012,0.932-0.806,1.693-1.743,1.67
	C3.375-2.021,2.61-2.784,2.605-3.679C2.6-4.613,3.375-5.376,4.328-5.375C5.287-5.373,6.041-4.618,6.029-3.669z"/>
<path fill-rule="evenodd" clip-rule="evenodd" fill="#EEE415" d="M21.965,0.455c-0.97-0.027-1.654-0.77-1.616-1.756
	c0.038-0.978,0.765-1.637,1.769-1.602c0.913,0.032,1.626,0.798,1.603,1.722C23.697-0.237,22.926,0.482,21.965,0.455z"/>
<path fill-rule="evenodd" clip-rule="evenodd" fill="#EEE415" d="M32.568,3.553c-0.012,0.928-0.803,1.698-1.729,1.682
	c-0.961-0.018-1.672-0.771-1.646-1.746c0.025-0.936,0.747-1.646,1.68-1.65C31.802,1.835,32.577,2.619,32.568,3.553z"/>
</svg>
