<?xml version="1.0" encoding="utf-8"?>
<!-- Generator: Adobe Illustrator 16.0.0, SVG Export Plug-In . SVG Version: 6.00 Build 0)  -->
<!DOCTYPE svg PUBLIC "-//W3C//DTD SVG 1.1//EN" "http://www.w3.org/Graphics/SVG/1.1/DTD/svg11.dtd">
<svg version="1.1" id="图层_1" xmlns="http://www.w3.org/2000/svg" xmlns:xlink="http://www.w3.org/1999/xlink" x="0px" y="0px"
	 width="33.834px" height="33.834px" viewBox="0 0 33.834 33.834" enable-background="new 0 0 33.834 33.834" xml:space="preserve">
<g>
	<title>first</title>
	<desc>Created with Sketch.</desc>
	<path fill="#262C30" d="M9.879,10.927C8.381,9.379,6.873,7.81,5.343,6.262c-0.1-0.101-0.387-0.091-0.552-0.036
		C3.402,6.682,2.074,6.34,1.195,5.28C0.328,4.233,0.21,2.776,0.895,1.566c0.79-1.4,2.694-1.99,4.122-1.279
		C6.601,1.077,7.35,3,6.6,4.511C6.377,4.959,6.419,5.191,6.763,5.533c1.328,1.328,2.631,2.685,3.925,4.049
		c0.281,0.298,0.522,0.34,0.938,0.278c0.632-0.092,1.292,0.026,1.939,0.026c0.247-0.001,0.553-0.007,0.729-0.144
		c1.179-0.919,2.321-1.884,3.494-2.809c0.32-0.252,0.428-0.498,0.386-0.917c-0.146-1.424,0.464-2.491,1.702-3.175
		c1.161-0.641,2.313-0.521,3.371,0.246c0.952,0.689,1.398,1.661,1.289,2.832c-0.036,0.396,0.082,0.572,0.404,0.74
		c0.961,0.505,1.91,1.036,2.885,1.568c0.963-0.844,2.037-1.252,3.309-0.862c1.682,0.516,2.575,2.107,2.178,3.878
		c-0.349,1.563-1.938,2.604-3.607,2.369c-1.646-0.231-2.854-1.729-2.688-3.425c0.047-0.48-0.061-0.722-0.496-0.932
		c-0.808-0.387-1.572-0.854-2.371-1.26c-0.148-0.074-0.422-0.077-0.549,0.013c-1.729,1.213-2.812,1.201-4.607-0.097
		c-1.254,1.019-2.513,2.037-3.808,3.085c0.506,0.97,0.79,1.99,0.311,3.005c-0.271,0.574-0.683,1.156-1.183,1.535
		c-1.165,0.885-2.803,0.738-3.904-0.212C9.159,14.252,8.983,12.868,9.879,10.927z M14.21,12.878
		c-0.016-0.927-0.821-1.705-1.744-1.683c-0.88,0.021-1.666,0.82-1.676,1.704c-0.01,0.877,0.844,1.728,1.729,1.721
		C13.433,14.612,14.227,13.795,14.21,12.878z M5.363,3.232c0.012-0.949-0.742-1.704-1.701-1.706
		C2.709,1.525,1.935,2.288,1.939,3.223c0.005,0.895,0.77,1.657,1.681,1.68C4.559,4.925,5.353,4.163,5.363,3.232z M21.299,7.356
		c0.961,0.026,1.731-0.692,1.755-1.637c0.023-0.924-0.689-1.688-1.603-1.722c-1.005-0.035-1.729,0.624-1.769,1.603
		C19.646,6.587,20.329,7.329,21.299,7.356z M31.901,10.454c0.01-0.934-0.768-1.718-1.694-1.714c-0.933,0.004-1.653,0.714-1.681,1.65
		c-0.024,0.976,0.687,1.728,1.646,1.745C31.101,12.152,31.892,11.381,31.901,10.454z"/>
	<path fill="#262C30" d="M7.043,21.575c0,3.696,0,7.394-0.001,11.089c0,0.949-0.223,1.178-1.153,1.182
		c-1.518,0.004-3.033,0.007-4.553-0.002c-0.799-0.004-1.087-0.28-1.087-1.082c-0.004-7.498-0.004-14.995,0-22.495
		C0.251,9.479,0.5,9.246,1.295,9.245C2.833,9.239,4.372,9.241,5.91,9.242c0.944,0.002,1.132,0.185,1.132,1.117
		C7.045,14.099,7.043,17.836,7.043,21.575z"/>
	<path fill="#262C30" d="M24.758,22.687c0,3.286,0.002,6.575,0,9.862c-0.001,1.056-0.188,1.236-1.223,1.24
		c-1.515,0-3.031,0.004-4.548-0.004c-0.788-0.003-1.039-0.242-1.039-1.027c-0.004-6.703-0.004-13.407,0-20.111
		c0.002-0.801,0.275-1.062,1.087-1.063c1.538-0.004,3.075-0.003,4.61-0.001c0.863,0.001,1.107,0.253,1.109,1.174
		C24.763,16.067,24.758,19.377,24.758,22.687z"/>
	<path fill="#262C30" d="M33.588,24.606c0,2.69,0,5.382-0.002,8.069c0,0.933-0.196,1.138-1.124,1.142
		c-1.516,0.008-3.031,0.008-4.549,0c-0.878-0.006-1.109-0.233-1.109-1.099c-0.004-5.444-0.004-10.892,0-16.336
		c0-0.818,0.252-1.067,1.07-1.069c1.559-0.004,3.117-0.004,4.676,0c0.786,0.003,1.035,0.247,1.035,1.028
		C33.589,19.096,33.588,21.852,33.588,24.606z"/>
	<path fill="#262C30" d="M15.893,26.396c0,2.114,0.003,4.229-0.002,6.342c0,0.847-0.215,1.073-1.058,1.079
		c-1.559,0.01-3.117,0.01-4.675,0c-0.824-0.008-1.052-0.251-1.053-1.092c-0.003-4.229-0.003-8.455,0.002-12.684
		c0-0.79,0.246-1.03,1.032-1.031c1.492-0.005,2.989-0.002,4.482-0.002c1.119,0,1.271,0.146,1.271,1.238
		C15.894,22.297,15.893,24.346,15.893,26.396z"/>
	<path fill="#D0CEF5" d="M14.21,12.878c0.017,0.917-0.777,1.734-1.69,1.742c-0.886,0.007-1.738-0.844-1.729-1.721
		c0.01-0.884,0.796-1.684,1.676-1.704C13.389,11.173,14.194,11.95,14.21,12.878z"/>
	<path fill="#D0CEF5" d="M5.363,3.232C5.352,4.164,4.558,4.925,3.62,4.902C2.709,4.88,1.944,4.117,1.939,3.223
		c-0.005-0.935,0.77-1.697,1.723-1.696C4.621,1.528,5.375,2.283,5.363,3.232z"/>
	<path fill="#D0CEF5" d="M21.299,7.356c-0.97-0.027-1.653-0.771-1.616-1.756c0.039-0.979,0.767-1.638,1.771-1.603
		c0.912,0.032,1.626,0.798,1.604,1.722C23.03,6.664,22.26,7.383,21.299,7.356z"/>
	<path fill="#D0CEF5" d="M31.901,10.454c-0.012,0.928-0.803,1.698-1.729,1.682c-0.961-0.018-1.672-0.771-1.646-1.745
		c0.024-0.938,0.748-1.646,1.681-1.65C31.136,8.736,31.911,9.521,31.901,10.454z"/>
</g>
</svg>
