<?xml version="1.0" encoding="utf-8"?>
<!-- Generator: Adobe Illustrator 16.0.0, SVG Export Plug-In . SVG Version: 6.00 Build 0)  -->
<!DOCTYPE svg PUBLIC "-//W3C//DTD SVG 1.1//EN" "http://www.w3.org/Graphics/SVG/1.1/DTD/svg11.dtd">
<svg version="1.1" id="图层_1" xmlns="http://www.w3.org/2000/svg" xmlns:xlink="http://www.w3.org/1999/xlink" x="0px" y="0px"
	 width="792px" height="477px" viewBox="0 0 792 477" enable-background="new 0 0 792 477" xml:space="preserve">
<g>
	<g>
	</g>
	<g>
	</g>
	<g>
	</g>
	<g>
	</g>
	<g>
	</g>
	<g>
	</g>
	<g>
	</g>
</g>
<g>
	<text transform="matrix(1 0 0 1 412.1602 149.0698)" fill="#040000" font-family="'BentonSans-Medium'" font-size="18">Poorly structured matches</text>
	<text transform="matrix(1 0 0 1 412.1602 102.9204)" fill="#040000" font-family="'BentonSans-Medium'" font-size="18">No mobile application version</text>
	<text transform="matrix(1 0 0 1 412.1602 241.3691)" fill="#040000" font-family="'BentonSans-Medium'" font-size="18">Low time commitment/participation</text>
	<g enable-background="new    ">
		<text transform="matrix(1 0 0 1 412.1602 287.5186)" fill="#72838C" font-family="'BentonSans-Medium'" font-size="18">Limited mentoring data</text>
	</g>
	<g enable-background="new    ">
		<text transform="matrix(1 0 0 1 412.1602 333.668)" fill="#72838C" font-family="'BentonSans-Medium'" font-size="18">Design with the interface</text>
	</g>
	<g enable-background="new    ">
		<text transform="matrix(1 0 0 1 412.1602 379.8184)" fill="#72838C" font-family="'BentonSans-Medium'" font-size="18">Other problems</text>
	</g>
	<text transform="matrix(1 0 0 1 412.1602 195.2197)" fill="#040000" font-family="'BentonSans-Medium'" font-size="18">Little in-person mentoring connection</text>
	<g opacity="0.5">
		<g>
			<rect x="111.387" y="364.016" fill="#F2E92F" width="34.678" height="23.061"/>
		</g>
	</g>
	<g opacity="0.8">
		<g>
			<rect x="111.387" y="317.896" fill="#F2E92F" width="59.446" height="23.061"/>
		</g>
	</g>
	<g>
		<g>
			<g>
				<rect x="111.387" y="271.775" fill="#F2E92F" width="74.308" height="23.061"/>
			</g>
		</g>
	</g>
	<g opacity="0.9">
		<g>
			<g>
				<rect x="111.387" y="225.655" fill="#262C30" width="242.739" height="23.061"/>
			</g>
		</g>
	</g>
	<g opacity="0.75">
		<g>
			<g>
				<rect x="111.387" y="179.534" fill="#262C30" width="193.2" height="23.061"/>
			</g>
		</g>
	</g>
	<g opacity="0.85">
		<g>
			<g>
				<rect x="111.387" y="133.414" fill="#262C30" width="232.831" height="23.061"/>
			</g>
		</g>
	</g>
	<g>
		<g>
			<g>
				<rect x="111.387" y="87.293" fill="#262C30" width="257.601" height="23.061"/>
			</g>
		</g>
	</g>
	<text transform="matrix(1 0 0 1 227.8022 104.0044)" fill="#FFFFFF" font-family="'BentonSans-Medium'" font-size="14">52</text>
	<text transform="matrix(1 0 0 1 227.8022 150.1538)" fill="#FFFFFF" font-family="'BentonSans-Medium'" font-size="14">47</text>
	<text transform="matrix(1 0 0 1 197.8022 196.3037)" fill="#FFFFFF" font-family="'BentonSans-Medium'" font-size="14">39</text>
	<text transform="matrix(1 0 0 1 218.8022 242.4531)" fill="#FFFFFF" font-family="'BentonSans-Medium'" font-size="14">49</text>
	<text transform="matrix(1 0 0 1 140.3867 288.6025)" font-family="'BentonSans-Medium'" font-size="14">15</text>
	<text transform="matrix(1 0 0 1 133.3867 334.752)" font-family="'BentonSans-Medium'" font-size="14">12</text>
	<text transform="matrix(1 0 0 1 124.3867 380.9014)" font-family="'BentonSans-Medium'" font-size="14">7</text>
	<line fill="none" stroke="#262C30" stroke-width="4" stroke-miterlimit="10" x1="87.664" y1="85.155" x2="87.664" y2="246.577"/>
	<line fill="none" stroke="#262C30" stroke-width="2" stroke-miterlimit="10" x1="87.164" y1="271.775" x2="87.164" y2="387.406"/>
	<text transform="matrix(-4.371139e-008 -1 1 -4.371139e-008 67.23 218.2397)" font-family="'BentonSans-Medium'" font-size="14">Major problems</text>
	<text transform="matrix(-4.371139e-008 -1 1 -4.371139e-008 67.23 391.8457)" font-family="'BentonSans-Medium'" font-size="14">Relevant problems</text>
</g>
</svg>
