<?xml version="1.0" encoding="utf-8"?>
<!-- Generator: Adobe Illustrator 16.0.0, SVG Export Plug-In . SVG Version: 6.00 Build 0)  -->
<!DOCTYPE svg PUBLIC "-//W3C//DTD SVG 1.1//EN" "http://www.w3.org/Graphics/SVG/1.1/DTD/svg11.dtd">
<svg version="1.1" id="Layer_1" xmlns="http://www.w3.org/2000/svg" xmlns:xlink="http://www.w3.org/1999/xlink" x="0px" y="0px"
	 width="774.992px" height="459px" viewBox="0 0 774.992 459" enable-background="new 0 0 774.992 459" xml:space="preserve">
<title>Artboard 1</title>
<g>
	<g>
		<g>
			<path fill="#262C30" d="M108.244,157.675c0-21.813,0-43.507,0-65.564c1.504,0,2.896,0,4.292,0c6.125,0,12.249,0.01,18.373-0.012
				c0.915-0.003,1.874,0,2.733-0.259c2.166-0.651,2.65-2.205,1.345-4.022c-0.638-0.883-1.407-1.681-1.97-2.605
				c-2.311-3.8-1.594-8.463,1.658-11.175c3.465-2.892,9.111-2.927,12.578-0.083c3.278,2.691,4.021,7.309,1.764,11.164
				c-0.377,0.646-1.004,1.17-1.286,1.848c-0.479,1.15-1.39,2.692-0.98,3.49c0.454,0.889,2.168,1.558,3.349,1.58
				c7.127,0.144,14.263,0.129,21.393,0.037c1.932-0.023,2.635,0.492,2.598,2.533c-0.121,6.541-0.045,13.086-0.043,19.631
				c0,0.755-0.166,1.569,0.063,2.25c0.353,1.047,0.753,2.468,1.557,2.856c0.736,0.354,2.231-0.179,3.044-0.787
				c2.131-1.602,4.266-2.915,7.063-2.841c3.71,0.098,6.697,2.36,7.979,6.182c1.321,3.932-0.005,8.52-3.145,10.881
				c-2.967,2.231-6.99,2.281-10.111,0.106c-0.619-0.433-1.15-1.024-1.82-1.336c-0.914-0.426-2.287-1.188-2.806-0.838
				c-0.875,0.592-1.63,1.909-1.729,2.987c-0.245,2.662-0.094,5.361-0.094,8.047c-0.004,4.699-0.019,9.396,0.008,14.096
				c0.008,1.201-0.049,2.104-1.674,2.104c-21.223-0.062-42.445-0.08-63.668-0.111C108.635,157.833,108.557,157.785,108.244,157.675z
				"/>
			<path fill="#262C30" d="M32.073,161.258c7.251-3.664,14.37-7.263,21.586-10.907c0.297,10.075,2.474,13.957,8.375,15.188
				c5.942,1.238,11.64-1.615,14.108-7.068c2.576-5.688,0.769-9.742-7.207-15.813c7.215-3.646,14.318-7.236,21.572-10.9
				c3.609,7.145,7.223,14.296,11.016,21.801c-4.676-0.732-9.213-0.731-12.375,3.027c-1.479,1.759-2.58,4.191-2.938,6.465
				c-0.919,5.842,2.718,11.354,8.171,13.188c5.549,1.869,10.01-0.385,14.646-7.579c3.656,7.237,7.244,14.339,10.923,21.617
				c-19.313,9.76-38.737,19.573-58.324,29.473C51.777,200.252,41.928,180.758,32.073,161.258z"/>
		</g>
	</g>
	<g>
		<g>
			<path fill="#262C30" d="M362.233,128.998c-1.694-2.014-3.219-3.896-4.841-5.693c-0.386-0.427-1.079-0.619-1.667-0.805
				c-2.046-0.637-2.979-2.117-3.011-4.128c-0.028-1.994,0.875-3.446,2.806-4.313c0.714-0.318,1.158-1.212,1.771-1.795
				c0.401-0.386,0.881-0.973,1.333-0.979c5.029-0.066,10.064-0.065,15.099,0.011c0.431,0.006,1.229,0.687,1.22,1.038
				c-0.079,3.5-0.014,7.039-0.551,10.479c-0.479,3.053-2.653,5.01-6.284,5.916c3.977,1.797,6.557,4.297,6.744,8.491
				c0.183,4.06-1.531,7.063-5.733,9.246c9.974,0,19.313,0,29.146,0c-3.903-2.09-5.791-5.051-5.595-9.17
				c0.196-4.149,2.546-6.729,6.66-8.442c-5.611-1.785-6.937-5.76-6.663-10.686c0.092-1.673,0.064-3.355,0.005-5.032
				c-0.058-1.465,0.58-1.94,2.006-1.922c4.634,0.062,9.27-0.034,13.897,0.09c0.671,0.019,1.326,0.89,1.972,1.392
				c0.574,0.447,1.052,1.146,1.692,1.358c1.679,0.556,2.553,1.634,2.536,3.343c-0.016,1.793-0.753,3.125-2.445,4.058
				c-1.156,0.636-2.099,1.717-3.024,2.7c-1.396,1.485-2.699,3.063-4.261,4.847c1.739,0,3.441,0,5.146,0
				c5.271,0,10.546-0.058,15.816,0.028c1.785,0.028,2.418-0.607,2.327-2.367c-0.115-2.23-0.054-4.475-0.045-6.71
				c0.012-5.146,3.074-8.386,8.211-8.7c5.088-0.313,8.865,2.841,9.38,7.854c0.099,0.951,0.12,1.916,0.12,2.873
				c0.008,16.297-0.03,32.596,0.053,48.895c0.012,2.109-0.576,2.732-2.69,2.711c-10.064-0.102-20.134,0.021-30.199-0.098
				c-2.181-0.024-2.658,0.66-2.639,2.723c0.104,9.506,0.064,19.015,0.029,28.521c-0.006,1.747-0.216,3.495-0.346,5.241
				c-0.438,5.931-5.358,8.004-9.376,7.731c-4.917-0.333-8.139-3.724-8.146-8.833c-0.021-14.778-0.02-29.562-0.001-44.342
				c0.006-5.407,3.438-8.858,8.812-8.875c8.148-0.023,16.301-0.047,24.447,0.03c1.729,0.017,2.52-0.432,2.391-2.269
				c-0.117-1.67,0.128-3.377-0.108-5.021c-0.094-0.638-0.979-1.421-1.665-1.648c-0.863-0.282-1.896-0.063-2.854-0.063
				c-4.133,0-4.133,0-4.633,4.244c-10.703,0-21.446,0-32.409,0c0,20.887,0,41.506,0,62.391c1.231,0,2.423,0.122,3.577-0.025
				c2.047-0.263,2.78,0.56,2.467,2.53c-0.073,0.466-0.012,0.95-0.012,1.66c-5.819,0-11.593,0-17.529,0c0-1.292,0-2.595,0-4.119
				c2.211,0,4.338,0,6.647,0c0-20.851,0-41.476,0-62.304c-0.944,0-1.729,0-2.511,0c-9.588,0-19.175-0.027-28.762,0.03
				c-1.656,0.009-2.686-0.299-2.393-2.216c0.288-1.877-0.639-2.239-2.343-2.229c-6.27,0.043-6.188-0.012-6.306,6.226
				c-0.04,2.117,0.39,2.894,2.735,2.843c7.825-0.17,15.657-0.074,23.486-0.063c5.408,0.01,8.647,2.973,9.171,8.357
				c0.055,0.555,0.104,1.113,0.104,1.673c0.007,14.062,0.063,28.122-0.017,42.182c-0.042,7.586-5.729,11.704-12.49,9.234
				c-3.212-1.172-5.196-3.991-5.202-7.55c-0.021-11.025-0.063-22.052,0.041-33.075c0.021-2.252-0.533-3.021-2.915-2.989
				c-9.983,0.133-19.974,0.004-29.958,0.096c-2.217,0.021-2.867-0.729-2.859-2.904c0.06-16.855-0.005-33.715,0.008-50.571
				c0.003-4.88,2.722-7.987,7.456-8.718c4.49-0.691,8.726,1.449,9.676,5.479c0.706,2.981,0.788,6.168,0.734,9.256
				c-0.04,2.358,0.718,2.992,2.994,2.935c5.669-0.147,11.345-0.05,17.018-0.053C360.419,128.998,361.346,128.998,362.233,128.998z"
				/>
			<path fill="#262C30" d="M317.071,217.59c-1.577,0-2.822,0-4.215,0c0-29.484,0-58.846,0-88.401c1.313,0,2.606,0,4.215,0
				c0,0.972,0,1.904,0,2.836c0,14.062-0.004,28.121,0.003,42.182c0.004,3.85-0.548,3.678,3.8,3.678
				c9.747-0.002,19.492,0.063,29.237-0.051c2.092-0.021,2.568,0.714,2.561,2.626c-0.063,11.664-0.064,23.33,0.005,34.991
				c0.011,1.79-0.523,2.323-2.313,2.325c-1.886,0.003-2.245-0.768-2.235-2.438c0.057-10.225-0.02-20.449,0.067-30.678
				c0.019-1.914-0.563-2.466-2.456-2.445c-8.707,0.09-17.416,0.09-26.123,0c-1.959-0.021-2.609,0.517-2.591,2.554
				c0.103,9.984,0.045,19.973,0.045,29.958C317.071,215.59,317.071,216.457,317.071,217.59z"/>
			<path fill="#262C30" d="M454.575,129.204c0,29.391,0,58.799,0,88.355c-1.385,0-2.687,0-4.241,0c0-11.764,0-23.377,0-35.192
				c-1.021-0.045-1.8-0.106-2.575-0.107c-8.622-0.009-17.247,0.063-25.866-0.057c-2.201-0.027-2.662,0.771-2.645,2.784
				c0.084,10.061,0.019,20.118,0.059,30.18c0.01,1.638-0.098,2.652-2.248,2.628c-2.104-0.024-2.281-0.988-2.273-2.648
				c0.041-11.497,0.068-22.995-0.021-34.49c-0.016-2.223,0.7-2.844,2.898-2.82c10.061,0.111,20.119,0,30.18,0.093
				c1.999,0.019,2.563-0.586,2.553-2.567c-0.077-14.211-0.041-28.425-0.041-42.635C450.352,128.723,450.352,128.723,454.575,129.204
				z"/>
			<path fill="#262C30" d="M432.539,102.126c-7.212-0.033-13.323-6.141-13.271-13.262c0.053-6.883,6.39-13.176,13.27-13.176
				c7.046,0,13.367,6.297,13.361,13.308C445.891,96.146,439.771,102.161,432.539,102.126z"/>
			<path fill="#262C30" d="M334.807,102.126c-7.244-0.008-13.188-6.01-13.159-13.286c0.029-7.032,6.371-13.228,13.462-13.149
				c6.85,0.074,13.213,6.545,13.104,13.322C348.101,96.245,342.078,102.135,334.807,102.126z"/>
		</g>
	</g>
	<g>
		<g>
			<path fill="#262C30" d="M720.23,206.169c0.312-0.29,0.441-0.46,0.612-0.567c8.38-5.307,10.104-14.27,7.981-22.741
				c-2.167-8.67-9.209-13.696-18.358-13.717c-21.985-0.049-43.972-0.023-65.956,0.004c-1.543,0.002-3.134,0.088-4.617,0.467
				c-11.788,3.011-16.601,13.633-13.572,25.455c2.223,8.669,9.398,13.521,18.75,13.534c18.591,0.022,37.185-0.013,55.775,0.05
				c1.27,0.005,2.664,0.364,3.783,0.965c7.102,3.801,14.139,7.723,21.203,11.587c1.821,0.995,3.169,0.729,3.363-0.775
				c0.104-0.795-0.271-1.804-0.741-2.498C725.798,214.017,723.045,210.172,720.23,206.169z"/>
			<path fill="#262C30" d="M684.885,113.482c-0.257-11.025-7.838-18.922-18.854-18.984c-22.058-0.124-44.114-0.104-66.173,0.003
				c-6.885,0.032-12.395,3.005-16.144,8.932c-4.563,7.212-4.321,21.827,6.526,28.157c-2.847,4.063-5.658,7.954-8.304,11.961
				c-0.521,0.789-0.851,2.262-0.46,2.977c0.776,1.412,2.08,0.545,3.133-0.029c6.267-3.418,12.592-6.73,18.756-10.321
				c2.859-1.666,5.717-2.309,9.011-2.286c17.53,0.116,35.063,0.034,52.599,0.07c3.3,0.009,6.508-0.33,9.461-1.863
				C681.971,128.182,685.08,121.8,684.885,113.482z"/>
			<text transform="matrix(1 0 0 1 580.9141 89.0742)" fill="#262C30" font-family="'BentonSans-Medium'" font-size="18.8826">Today</text>
			<text transform="matrix(1 0 0 1 677.5449 163.875)" fill="#262C30" font-family="'BentonSans-Medium'" font-size="18.8826">Today</text>
		</g>
	</g>
	
		<text transform="matrix(0.9996 0.0289 -0.0289 0.9996 114.8198 128.2856)" fill="#FCF113" font-family="'BentonSans-Medium'" font-size="14">Mentor</text>
	
		<text transform="matrix(0.8891 -0.4577 0.4577 0.8891 63.8701 210.9551)" fill="#FCF113" font-family="'BentonSans-Medium'" font-size="14">Mentee</text>
	<text transform="matrix(1 0 0 1 604.2637 117.7773)" fill="#FCF113" font-family="'BentonSans-Medium'" font-size="14">Hi, Peter</text>
	<text transform="matrix(1 0 0 1 650.5986 192.4541)" fill="#FCF113" font-family="'BentonSans-Medium'" font-size="14">Hi, Lucy</text>
	<g>
		<path d="M92.692,348.618c-5.241-5.241-10.216-10.217-15.255-15.256c8.574-8.511,17.275-17.146,26.092-25.894
			c-8.907-8.813-17.621-17.434-26.211-25.931c5.22-5.22,10.188-10.188,15.285-15.282c8.44,8.527,17.09,17.269,25.8,26.066
			c8.913-8.979,17.526-17.653,26.022-26.209c5.123,5.123,10.113,10.11,15.086,15.084c-8.498,8.494-17.166,17.159-25.787,25.778
			c8.9,8.897,17.601,17.597,26.271,26.267c-5.237,5.223-10.255,10.227-15.306,15.259c-8.611-8.618-17.285-17.304-25.93-25.957
			C110.023,331.282,101.355,339.952,92.692,348.618z"/>
		<text transform="matrix(1 0 0 1 115.519 311.5596)" fill="#748482" font-family="'BentonSans-Medium'" font-size="14">1</text>
	</g>
	<g>
		<path d="M357.753,348.618c-5.241-5.241-10.214-10.217-15.253-15.256c8.571-8.51,17.273-17.146,26.09-25.893
			c-8.906-8.813-17.621-17.435-26.211-25.933c5.221-5.219,10.188-10.187,15.286-15.282c8.439,8.528,17.089,17.27,25.798,26.068
			c8.914-8.979,17.528-17.653,26.021-26.21c5.123,5.123,10.114,10.111,15.086,15.084c-8.495,8.494-17.163,17.161-25.786,25.779
			c8.9,8.897,17.601,17.597,26.271,26.267c-5.236,5.222-10.256,10.226-15.305,15.259c-8.613-8.619-17.287-17.305-25.933-25.957
			C375.085,331.283,366.417,339.953,357.753,348.618z"/>
		<text transform="matrix(1 0 0 1 379.4951 311.5596)" fill="#748482" font-family="'BentonSans-Medium'" font-size="14">2</text>
	</g>
	<g>
		<path d="M630.476,348.618c-5.242-5.241-10.216-10.217-15.255-15.256c8.572-8.51,17.275-17.146,26.091-25.893
			c-8.906-8.813-17.621-17.435-26.211-25.933c5.219-5.219,10.188-10.187,15.284-15.282c8.441,8.528,17.091,17.27,25.8,26.068
			c8.913-8.979,17.528-17.653,26.022-26.21c5.123,5.123,10.111,10.111,15.086,15.084c-8.496,8.494-17.166,17.161-25.787,25.779
			c8.9,8.897,17.601,17.597,26.271,26.267c-5.236,5.222-10.256,10.226-15.305,15.259c-8.613-8.619-17.287-17.305-25.933-25.957
			C647.808,331.283,639.139,339.953,630.476,348.618z"/>
		<text transform="matrix(1 0 0 1 652.1689 311.5596)" fill="#74858E" font-family="'BentonSans-Medium'" font-size="14">3</text>
	</g>
	<text transform="matrix(1 0 0 1 60.0659 382.2773)" font-family="'BentonSans-Medium'" font-size="18">Not matching</text>
	<text transform="matrix(1 0 0 1 269.6479 382.2773)" font-family="'BentonSans-Medium'" font-size="18">No in-person engagement</text>
	<text transform="matrix(1 0 0 1 569.959 382.2773)" font-family="'BentonSans-Medium'" font-size="18">No in-time response</text>
</g>
</svg>
