<?xml version="1.0" encoding="utf-8"?>
<!-- Generator: Adobe Illustrator 16.0.0, SVG Export Plug-In . SVG Version: 6.00 Build 0)  -->
<!DOCTYPE svg PUBLIC "-//W3C//DTD SVG 1.1//EN" "http://www.w3.org/Graphics/SVG/1.1/DTD/svg11.dtd">
<svg version="1.1" id="图层_1" xmlns="http://www.w3.org/2000/svg" xmlns:xlink="http://www.w3.org/1999/xlink" x="0px" y="0px"
	 width="792px" height="1224px" viewBox="0 0 792 1224" enable-background="new 0 0 792 1224" xml:space="preserve">
<title>Asset 6</title>
<g>
	<path d="M137.092,937.161l71.354-108.05c44.846,30.578,82.565,46.892,145.763,46.892c96.832,0,166.147-84.605,176.343-223.234
		c-53.009,40.774-114.169,68.298-188.578,68.298c-132.512,0-242.594-71.354-242.594-239.54
		c0-156.981,115.184-260.947,286.425-260.947c180.42,0,306.815,131.489,306.815,378.163c0,289.495-172.264,404.679-331.278,404.679
		C245.143,1003.421,182.961,970.803,137.092,937.161z M530.552,535.545c-7.133-126.396-61.158-185.515-151.881-185.515
		c-81.549,0-123.34,56.064-123.34,124.356c0,63.197,26.501,124.355,121.301,124.355C439.83,598.742,492.832,573.265,530.552,535.545
		z"/>
</g>
</svg>
