<?xml version="1.0" encoding="utf-8"?>
<!-- Generator: Adobe Illustrator 16.0.0, SVG Export Plug-In . SVG Version: 6.00 Build 0)  -->
<!DOCTYPE svg PUBLIC "-//W3C//DTD SVG 1.1//EN" "http://www.w3.org/Graphics/SVG/1.1/DTD/svg11.dtd">
<svg version="1.1" id="图层_1" xmlns="http://www.w3.org/2000/svg" xmlns:xlink="http://www.w3.org/1999/xlink" x="0px" y="0px"
	 width="792px" height="1224px" viewBox="0 0 792 1224" enable-background="new 0 0 792 1224" xml:space="preserve">
<title>Asset 2</title>
<g>
	<path fill-rule="evenodd" clip-rule="evenodd" d="M396.361,489.948c76.588,0.004,153.184-0.129,229.771,0.05
		c50.529,0.121,70.405,20.409,70.422,71.138c0.008,41.838,0.217,83.681-0.066,125.519c-0.283,41.534-22.955,64.49-64.607,64.61
		c-102.824,0.3-205.658,0.521-308.48-0.253c-20.068-0.155-35.011,5.637-48.702,20.268c-23.243,24.836-47.625,48.661-72.498,71.875
		c-5.892,5.495-15.626,6.867-23.597,10.138c-2.933-7.492-7.887-14.852-8.403-22.507c-1.29-19.065-1.019-38.276-0.478-57.409
		c0.378-13.475-3.507-20.264-18.5-22.29c-39.338-5.32-56.078-24.582-56.619-63.824c-0.624-45.379-0.5-90.774-0.149-136.157
		c0.279-36.929,21.267-59.714,59.39-60.58c62.372-1.414,124.799-0.511,187.205-0.574
		C359.486,489.931,377.924,489.948,396.361,489.948z M436.481,616.593c-0.392-28.03-18.971-45.673-47.767-45.348
		c-22.506,0.253-42.558,21.216-42.579,44.504c-0.025,26.159,19.873,46.78,45.012,46.652
		C417.411,662.264,436.839,642.628,436.481,616.593z M283.202,616.66c0.017-25.339-19.108-45.299-43.544-45.44
		c-28.547-0.163-47.417,18.329-46.984,46.048c0.398,25.522,20.85,45.222,46.742,45.021
		C263.287,662.102,283.189,641.363,283.202,616.66z M499.906,616.543c-0.361,24.509,18.92,44.776,43.507,45.737
		c24.694,0.961,45.898-19.894,46.193-45.437c0.287-25.119-18.271-44.264-43.673-45.042
		C519.916,571.003,500.297,590.073,499.906,616.543z"/>
	<path fill-rule="evenodd" clip-rule="evenodd" fill="#EEE415" d="M436.481,616.593c0.357,26.035-19.07,45.671-45.333,45.809
		c-25.14,0.128-45.037-20.493-45.012-46.652c0.021-23.288,20.073-44.251,42.579-44.504
		C417.511,570.92,436.09,588.563,436.481,616.593z"/>
	<path fill-rule="evenodd" clip-rule="evenodd" fill="#EEE415" d="M283.202,616.66c-0.013,24.703-19.915,45.441-43.786,45.628
		c-25.892,0.201-46.344-19.498-46.742-45.021c-0.433-27.719,18.437-46.21,46.984-46.048
		C264.094,571.361,283.219,591.321,283.202,616.66z"/>
	<path fill-rule="evenodd" clip-rule="evenodd" fill="#EEE415" d="M499.906,616.543c0.391-26.47,20.01-45.54,46.027-44.741
		c25.402,0.778,43.96,19.923,43.673,45.042c-0.295,25.543-21.499,46.397-46.193,45.437
		C518.826,661.319,499.545,641.052,499.906,616.543z"/>
</g>
</svg>
