<?xml version="1.0" encoding="utf-8"?>
<!-- Generator: Adobe Illustrator 16.0.0, SVG Export Plug-In . SVG Version: 6.00 Build 0)  -->
<!DOCTYPE svg PUBLIC "-//W3C//DTD SVG 1.1//EN" "http://www.w3.org/Graphics/SVG/1.1/DTD/svg11.dtd">
<svg version="1.1" id="图层_1" xmlns="http://www.w3.org/2000/svg" xmlns:xlink="http://www.w3.org/1999/xlink" x="0px" y="0px"
	 width="792px" height="1224px" viewBox="0 0 792 1224" enable-background="new 0 0 792 1224" xml:space="preserve">
<title>Asset 3</title>
<title>Asset 3</title>
<g>
	<path fill-rule="evenodd" clip-rule="evenodd" d="M395.814,468.158c-28.824,8.789-56.113,17.432-83.62,25.306
		c-8.556,2.446-11.392,6.61-11.378,15.459c0.257,172.561,0.222,345.124,0.284,517.685c0,1.664,0.496,3.332,1.04,6.767
		c9.332-2.719,18.399-5.219,27.377-8c48.525-15.021,96.89-30.588,145.64-44.85c11.904-3.481,15.64-8.395,15.584-20.78
		c-0.504-114.286-0.296-228.571-0.296-342.86c0-6.116,0-12.233,0-17.703c16.422-0.779,31.358-1.492,48.177-2.291
		c0,5.486,0,12.134,0,18.78c0,114.289,0.229,228.574-0.312,342.859c-0.063,12.949,3.506,18.543,16.208,22.295
		c57.304,16.929,114.254,35.066,173.567,53.46c0-7.38,0-12.784,0-18.188c0-167.474-0.178-334.942,0.337-502.412
		c0.043-13.235-3.997-18.536-16.492-21.891c-27.143-7.287-53.813-16.331-82.854-25.329c8.066-12.576,14.633-24.182,22.732-34.595
		c2.364-3.041,9.647-4.685,13.733-3.554c25.03,6.912,49.937,14.355,74.599,22.494c25.48,8.408,36.046,23.502,36.063,50.903
		c0.107,177.087,0.151,354.177-0.029,531.265c-0.038,38.029-26.646,57.252-63.892,46.103
		c-60.053-17.973-119.781-37.049-179.979-54.501c-10.569-3.063-23.581-3.139-34.11-0.02
		c-67.675,20.051-134.84,41.833-202.534,61.826c-11.12,3.286-24.878,3.429-35.955,0.123c-67.67-20.209-134.93-41.785-202.299-63.008
		c-33.212-10.459-41.655-21.906-41.664-56.568c-0.041-174.26-0.064-348.518,0.016-522.777c0.021-43.176,25.528-62.226,66.492-49.61
		c60.448,18.618,120.708,37.861,181.294,56.016c8.472,2.539,18.839,2.297,27.475,0.056c21.813-5.663,43.36-12.588,64.564-20.247
		c10.667-3.853,16.56-1.409,21.709,8.169C382.585,448.389,389.115,457.565,395.814,468.158z M65.84,438.293
		c-0.674,5.085-1.22,7.278-1.223,9.472c-0.061,172.004-0.011,344.01-0.277,516.014c-0.018,10.016,4.343,13.345,13.192,16.023
		c55.107,16.696,110.017,34.035,165.018,51.078c2.963,0.919,6.152,1.102,10.252,1.801c0-7.363,0-13.554,0-19.746
		c0-158.426,0-316.851,0-475.278c0-40.385,0.033-40.484-38.57-52.704C165.321,469.471,116.353,454.167,65.84,438.293z"/>
	<path fill-rule="evenodd" clip-rule="evenodd" d="M354.131,295.367c-0.948-86.304,63.42-156.012,149.241-160.096
		c89.021-4.241,153.05,61.674,164.182,134.17c6.163,40.132-2.529,76.265-24.063,109.846
		c-35.684,55.648-71.565,111.166-107.42,166.704c-17.548,27.182-31.901,27.438-49.104,0.653
		c-36.027-56.094-71.932-112.27-107.757-168.49C362.411,351.791,353.477,323.047,354.131,295.367z M434.304,291.617
		c0.077,44.562,34.37,79.481,77.708,79.13c42.038-0.338,76.907-34.983,76.942-76.444c0.04-44.08-34.644-79.292-77.863-79.053
		C468.84,215.485,434.234,249.901,434.304,291.617z"/>
	<path fill-rule="evenodd" clip-rule="evenodd" fill="#EEE415" d="M434.304,291.617c-0.069-41.716,34.536-76.132,76.787-76.368
		c43.22-0.239,77.903,34.973,77.863,79.053c-0.035,41.461-34.904,76.106-76.942,76.444
		C468.674,371.099,434.381,336.179,434.304,291.617z"/>
</g>
</svg>
