<?xml version="1.0" encoding="utf-8"?>
<!-- Generator: Adobe Illustrator 16.0.0, SVG Export Plug-In . SVG Version: 6.00 Build 0)  -->
<!DOCTYPE svg PUBLIC "-//W3C//DTD SVG 1.1//EN" "http://www.w3.org/Graphics/SVG/1.1/DTD/svg11.dtd">
<svg version="1.1" id="图层_1" xmlns="http://www.w3.org/2000/svg" xmlns:xlink="http://www.w3.org/1999/xlink" x="0px" y="0px"
	 width="792px" height="1224px" viewBox="0 0 792 1224" enable-background="new 0 0 792 1224" xml:space="preserve">
<title>Asset 2</title>
<g>
	<path fill-rule="evenodd" clip-rule="evenodd" d="M91.578,99.612c0.483-7.681,0.992-12.311,1.032-16.945
		c0.301-36.271,2.679-38.778,39.899-38.794c175.702-0.06,351.403-0.056,527.104,0c36.777,0.012,39.013,1.869,39.439,39.313
		c0.14,12.279,3.55,17.246,16.268,16.635c16.302-0.787,32.698-0.543,49.014,0.151c24.653,1.054,28.274,5.094,28.662,29.133
		c0.032,2.04-0.004,4.084-0.004,6.127c-0.001,317.354,0.002,634.706-0.008,952.062c-0.001,33.088-1.285,34.327-34.738,34.39
		c-5.449,0.008-10.904-0.183-16.342,0.04c-12.857,0.523-28.834-3.054-37.533,3.28c-6.604,4.814-4.289,22.317-5.311,34.228
		c-1.12,13.074-7.935,19.768-20.839,20.41c-6.793,0.336-13.605,0.504-20.41,0.504c-174.339,0.028-348.681,0.032-523.02,0.013
		c-40.677-0.005-41.833-0.512-41.793-40.312c0.013-14.777-5.304-19.176-19.127-18.343c-14.248,0.861-28.589,0.208-42.89,0.18
		c-30.212-0.051-31.908-1.779-31.97-32.922c-0.047-23.836-0.013-47.671-0.013-71.507c0-292.832-0.003-585.669,0.006-878.505
		c0.003-36.235,2.483-38.718,39.635-39.109C55.555,99.465,72.471,99.612,91.578,99.612z M133.618,83.03
		c0,353.418,0,705.472,0,1056.964c176.667,0,351.223,0,525.726,0c0-353.382,0-705.003,0-1056.964
		C483.321,83.03,308.657,83.03,133.618,83.03z M91.453,1084.057c0-315.356,0-628.998,0-942.461c-19.028,0-36.799,0-53.916,0
		c0,315.351,0,628.395,0,942.461C55.914,1084.057,72.738,1084.057,91.453,1084.057z M700.345,1085.086
		c8.275,0,14.337,0.072,20.396-0.012c39.428-0.559,35.219,5.376,35.235-34.299c0.106-293.388,0.059-586.779,0.05-880.167
		c0-6.806,1.004-13.892-0.598-20.315c-1.016-4.079-5.781-9.972-9.222-10.223c-15.156-1.118-30.439-0.482-45.862-0.482
		C700.345,456.229,700.345,769.128,700.345,1085.086z"/>
	<path fill-rule="evenodd" clip-rule="evenodd" d="M396.566,1103.332c-64.647,0.01-129.295,0.062-193.943-0.015
		c-30.67-0.041-33.395-2.903-33.446-34.243c-0.051-29.943,0.333-59.891-0.114-89.826c-0.28-18.622,7.438-27.48,26.661-27.444
		c133.379,0.246,266.759,0.039,400.137,0.219c21.586,0.027,27.462,6.283,27.689,28.483c0.32,31.301,0.264,62.605,0.03,93.906
		c-0.176,23.636-5.179,28.766-28.988,28.841C528.586,1103.469,462.573,1103.328,396.566,1103.332z M208.008,1063.646
		c126.715,0,251.081,0,375.752,0c0-24.814,0-48.211,0-71.66c-126.304,0-251.082,0-375.752,0
		C208.008,1016.72,208.008,1039.674,208.008,1063.646z"/>
	<path fill-rule="evenodd" clip-rule="evenodd" d="M264.063,337.492c-0.313-77.575,63.422-142.161,140.976-142.863
		c76.632-0.69,141.586,64.226,141.967,141.885c0.38,77.375-63.646,142.121-140.98,142.564
		C329.088,479.521,264.375,414.979,264.063,337.492z M329.614,406.844c40.066,41.512,104.253,44.326,145.164,8.068
		c39.429-34.95,46.506-97.679,14.079-136.744C436.232,320.694,383.585,363.232,329.614,406.844z M309.598,373.595
		c26.244-21.265,50.951-41.273,75.64-61.3c25.13-20.383,50.244-40.79,76.066-61.755c-40.76-24.63-86.599-22.288-120.27,4.539
		C306.45,282.635,293.572,328.043,309.598,373.595z"/>
	<path fill-rule="evenodd" clip-rule="evenodd" d="M622.591,650.349c0,12.255,0,23.5,0,35.982c-150.75,0-300.852,0-452.189,0
		c0-12.207,0-23.457,0-35.982C321.284,650.349,471.415,650.349,622.591,650.349z"/>
	<path fill-rule="evenodd" clip-rule="evenodd" d="M622.51,840.623c0,11.162,0,21.789,0,34.139c-150.319,0-300.759,0-452.274,0
		c0-11.061,0-21.712,0-34.139C320.59,840.623,470.987,840.623,622.51,840.623z"/>
	<path fill-rule="evenodd" clip-rule="evenodd" d="M337.881,763.851c0,12.399,0,23.661,0,35.951c-56.085,0-111.029,0-167.346,0
		c0-12.091,0-23.34,0-35.951C226.253,763.851,281.678,763.851,337.881,763.851z"/>
	<path fill-rule="evenodd" clip-rule="evenodd" d="M170.763,574.668c56.306,0,111.143,0,167.117,0c0,12.111,0,23.233,0,35.446
		c-55.868,0-110.691,0-167.117,0C170.763,598.689,170.763,587.555,170.763,574.668z"/>
	<path fill-rule="evenodd" clip-rule="evenodd" fill="#EEE415" d="M329.614,406.844c53.971-43.612,106.618-86.15,159.243-128.676
		c32.427,39.065,25.35,101.794-14.079,136.744C433.867,451.17,369.681,448.356,329.614,406.844z"/>
	<path fill-rule="evenodd" clip-rule="evenodd" fill="#EEE415" d="M309.598,373.595c-16.025-45.552-3.147-90.96,31.437-118.517
		c33.671-26.827,79.51-29.169,120.27-4.539c-25.822,20.966-50.937,41.373-76.066,61.755
		C360.549,332.322,335.842,352.33,309.598,373.595z"/>
</g>
</svg>
