<?xml version="1.0" encoding="utf-8"?>
<!-- Generator: Adobe Illustrator 16.0.0, SVG Export Plug-In . SVG Version: 6.00 Build 0)  -->
<!DOCTYPE svg PUBLIC "-//W3C//DTD SVG 1.1//EN" "http://www.w3.org/Graphics/SVG/1.1/DTD/svg11.dtd">
<svg version="1.1" id="图层_1" xmlns="http://www.w3.org/2000/svg" xmlns:xlink="http://www.w3.org/1999/xlink" x="0px" y="0px"
	 width="792px" height="1224px" viewBox="0 0 792 1224" enable-background="new 0 0 792 1224" xml:space="preserve">
<title>Asset 1</title>
<g>
	<path fill-rule="evenodd" clip-rule="evenodd" d="M264.403,815.738c-56.079,0-112.158,0.063-168.236-0.021
		c-40.517-0.06-63.908-23.553-63.933-64.224c-0.058-92.918-0.064-185.838,0.006-278.755c0.031-40.694,23.207-64.269,64.112-64.351
		c112.158-0.226,224.315-0.194,336.473-0.019c41.504,0.064,64.281,23.373,64.306,65.107c0.051,92.92,0.062,185.837-0.005,278.757
		c-0.028,39.995-23.297,63.378-63.259,63.472C377.378,815.834,320.891,815.738,264.403,815.738z"/>
	<path fill-rule="evenodd" clip-rule="evenodd" d="M759.811,436.15c0,117.361,0,234.143,0,352.082
		c-4.153-1.899-7.467-3.208-10.595-4.874c-61.326-32.673-122.572-65.497-184.019-97.94c-6.949-3.67-10.067-7.444-9.968-15.817
		c0.507-42.955,0.265-85.919,0.197-128.878c-0.009-5.823-0.195-10.583,6.793-13.808c64.187-29.635,128.169-59.718,192.233-89.619
		C755.844,436.645,757.525,436.619,759.811,436.15z"/>
</g>
</svg>
