<?xml version="1.0" encoding="utf-8"?>
<!-- Generator: Adobe Illustrator 16.0.0, SVG Export Plug-In . SVG Version: 6.00 Build 0)  -->
<!DOCTYPE svg PUBLIC "-//W3C//DTD SVG 1.1//EN" "http://www.w3.org/Graphics/SVG/1.1/DTD/svg11.dtd">
<svg version="1.1" id="图层_1" xmlns="http://www.w3.org/2000/svg" xmlns:xlink="http://www.w3.org/1999/xlink" x="0px" y="0px"
	 width="792px" height="792px" viewBox="0 0 792 792" enable-background="new 0 0 792 792" xml:space="preserve">
<title>Asset 3</title>
<title>Asset 3</title>
<g>
	<g>
		<path fill-rule="evenodd" clip-rule="evenodd" d="M189.222,376.769c-45.306,0-90.61-0.019-135.915,0.011
			c-15.146,0.01-27.262-5.688-33.995-19.601c-2.435-5.028-3.396-11.227-3.415-16.897c-0.224-68.057-0.205-136.116-0.113-204.173
			c0.031-23.133,14.559-37.319,38.054-37.34c65.843-0.058,131.686-0.02,197.528-0.02c23.962,0,47.924-0.026,71.884,0.007
			c24.979,0.034,39.399,14.43,39.405,39.375c0.021,66.649,0.024,133.297,0,199.946c-0.009,24.289-14.378,38.655-38.727,38.679
			C279.026,376.799,234.124,376.769,189.222,376.769z M102.589,324.129c58.069,0,115.493,0,173.226,0
			c0-8.065-0.143-15.697,0.037-23.322c0.207-8.742-3.64-15.602-9.841-21.169c-3.409-3.059-7.271-5.824-11.351-7.89
			c-35.004-17.729-71.438-21.274-108.767-8.991c-11.094,3.649-21.65,9.457-31.733,15.481c-6.805,4.067-11.395,10.866-11.539,19.481
			C102.476,306.357,102.589,314.998,102.589,324.129z M227.864,186.651c0.692-21.181-16.459-39.25-37.801-39.829
			c-21.256-0.578-38.998,15.933-39.839,37.068c-0.884,22.222,15.638,39.95,37.968,40.741
			C209.169,225.375,227.16,208.151,227.864,186.651z"/>
		<path fill-rule="evenodd" clip-rule="evenodd" fill="#D0CEF5" d="M102.589,324.129c0-9.131-0.113-17.771,0.032-26.409
			c0.145-8.615,4.734-15.414,11.539-19.481c10.083-6.024,20.64-11.832,31.733-15.481c37.328-12.283,73.763-8.738,108.767,8.991
			c4.08,2.066,7.941,4.831,11.351,7.89c6.201,5.567,10.048,12.427,9.841,21.169c-0.18,7.625-0.037,15.257-0.037,23.322
			C218.083,324.129,160.659,324.129,102.589,324.129z"/>
		<path fill-rule="evenodd" clip-rule="evenodd" fill="#D0CEF5" d="M227.864,186.651c-0.704,21.5-18.694,38.724-39.672,37.98
			c-22.33-0.791-38.852-18.52-37.968-40.741c0.841-21.136,18.583-37.646,39.839-37.068
			C211.405,147.401,228.556,165.471,227.864,186.651z"/>
	</g>
	<g>
		<path fill-rule="evenodd" clip-rule="evenodd" d="M602.83,376.769c-45.305,0-90.611-0.019-135.916,0.011
			c-15.145,0.01-27.26-5.688-33.994-19.601c-2.434-5.028-3.396-11.227-3.414-16.897c-0.225-68.057-0.205-136.116-0.113-204.173
			c0.031-23.133,14.559-37.319,38.053-37.34c65.844-0.058,131.686-0.02,197.529-0.02c23.961,0,47.922-0.026,71.883,0.007
			c24.979,0.034,39.398,14.43,39.406,39.375c0.021,66.649,0.023,133.297-0.002,199.946c-0.008,24.289-14.377,38.655-38.725,38.679
			C692.633,376.799,647.732,376.769,602.83,376.769z M516.197,324.129c58.068,0,115.494,0,173.227,0
			c0-8.065-0.143-15.697,0.037-23.322c0.207-8.742-3.641-15.602-9.842-21.169c-3.408-3.059-7.271-5.824-11.35-7.89
			c-35.004-17.729-71.439-21.274-108.768-8.991c-11.094,3.649-21.65,9.457-31.732,15.481c-6.807,4.067-11.395,10.866-11.541,19.481
			C516.084,306.357,516.197,314.998,516.197,324.129z M641.471,186.651c0.693-21.181-16.457-39.25-37.801-39.829
			c-21.254-0.578-38.998,15.933-39.838,37.068c-0.883,22.222,15.637,39.95,37.969,40.741
			C622.777,225.375,640.768,208.151,641.471,186.651z"/>
		<path opacity="0.75" fill-rule="evenodd" clip-rule="evenodd" fill="#D0CEF5" d="M516.197,324.129
			c0-9.131-0.113-17.771,0.031-26.409c0.146-8.615,4.734-15.414,11.541-19.481c10.082-6.024,20.639-11.832,31.732-15.481
			c37.328-12.283,73.764-8.738,108.768,8.991c4.078,2.066,7.941,4.831,11.35,7.89c6.201,5.567,10.049,12.427,9.842,21.169
			c-0.18,7.625-0.037,15.257-0.037,23.322C631.691,324.129,574.266,324.129,516.197,324.129z"/>
		<path opacity="0.75" fill-rule="evenodd" clip-rule="evenodd" fill="#D0CEF5" d="M641.471,186.651
			c-0.703,21.5-18.693,38.724-39.67,37.98c-22.332-0.791-38.852-18.52-37.969-40.741c0.84-21.136,18.584-37.646,39.838-37.068
			C625.014,147.401,642.164,165.471,641.471,186.651z"/>
	</g>
	<g>
		<path fill-rule="evenodd" clip-rule="evenodd" d="M189.222,693.252c-45.306,0-90.61-0.018-135.915,0.012
			c-15.146,0.01-27.262-5.688-33.995-19.602c-2.435-5.027-3.396-11.227-3.415-16.896c-0.224-68.057-0.205-136.115-0.113-204.173
			c0.031-23.133,14.559-37.319,38.054-37.341c65.843-0.057,131.686-0.02,197.528-0.02c23.962,0,47.924-0.025,71.884,0.008
			c24.979,0.033,39.399,14.43,39.405,39.375c0.021,66.648,0.024,133.296,0,199.945c-0.009,24.289-14.378,38.656-38.727,38.68
			C279.026,693.283,234.124,693.252,189.222,693.252z M102.589,640.613c58.069,0,115.493,0,173.226,0
			c0-8.064-0.143-15.697,0.037-23.322c0.207-8.743-3.64-15.602-9.841-21.168c-3.409-3.061-7.271-5.824-11.351-7.891
			c-35.004-17.729-71.438-21.273-108.767-8.99c-11.094,3.648-21.65,9.455-31.733,15.48c-6.805,4.066-11.395,10.865-11.539,19.481
			C102.476,622.842,102.589,631.482,102.589,640.613z M227.864,503.135c0.692-21.18-16.459-39.25-37.801-39.828
			c-21.256-0.578-38.998,15.932-39.839,37.068c-0.884,22.221,15.638,39.949,37.968,40.74
			C209.169,541.859,227.16,524.635,227.864,503.135z"/>
		<path opacity="0.5" fill-rule="evenodd" clip-rule="evenodd" fill="#D0CEF5" d="M102.589,640.613
			c0-9.131-0.113-17.771,0.032-26.41c0.145-8.616,4.734-15.415,11.539-19.481c10.083-6.025,20.64-11.832,31.733-15.48
			c37.328-12.283,73.763-8.738,108.767,8.99c4.08,2.066,7.941,4.83,11.351,7.891c6.201,5.566,10.048,12.426,9.841,21.168
			c-0.18,7.625-0.037,15.258-0.037,23.322C218.083,640.613,160.659,640.613,102.589,640.613z"/>
		<path opacity="0.5" fill-rule="evenodd" clip-rule="evenodd" fill="#D0CEF5" d="M227.864,503.135
			c-0.704,21.5-18.694,38.725-39.672,37.98c-22.33-0.791-38.852-18.52-37.968-40.74c0.841-21.137,18.583-37.646,39.839-37.068
			C211.405,463.885,228.556,481.955,227.864,503.135z"/>
	</g>
	<g>
		<path fill-rule="evenodd" clip-rule="evenodd" d="M602.83,693.252c-45.305,0-90.611-0.018-135.916,0.012
			c-15.145,0.01-27.26-5.688-33.994-19.602c-2.434-5.027-3.396-11.227-3.414-16.896c-0.225-68.057-0.205-136.115-0.113-204.173
			c0.031-23.133,14.559-37.319,38.053-37.341c65.844-0.057,131.686-0.02,197.529-0.02c23.961,0,47.922-0.025,71.883,0.008
			c24.979,0.033,39.398,14.43,39.406,39.375c0.021,66.648,0.023,133.296-0.002,199.945c-0.008,24.289-14.377,38.656-38.725,38.68
			C692.633,693.283,647.732,693.252,602.83,693.252z M516.197,640.613c58.068,0,115.494,0,173.227,0
			c0-8.064-0.143-15.697,0.037-23.322c0.207-8.743-3.641-15.602-9.842-21.168c-3.408-3.061-7.271-5.824-11.35-7.891
			c-35.004-17.729-71.439-21.273-108.768-8.99c-11.094,3.648-21.65,9.455-31.732,15.48c-6.807,4.066-11.395,10.865-11.541,19.481
			C516.084,622.842,516.197,631.482,516.197,640.613z M641.471,503.135c0.693-21.18-16.457-39.25-37.801-39.828
			c-21.254-0.578-38.998,15.932-39.838,37.068c-0.883,22.221,15.637,39.949,37.969,40.74
			C622.777,541.859,640.768,524.635,641.471,503.135z"/>
		<path opacity="0.25" fill-rule="evenodd" clip-rule="evenodd" fill="#D0CEF5" d="M516.197,640.613
			c0-9.131-0.113-17.771,0.031-26.41c0.146-8.616,4.734-15.415,11.541-19.481c10.082-6.025,20.639-11.832,31.732-15.48
			c37.328-12.283,73.764-8.738,108.768,8.99c4.078,2.066,7.941,4.83,11.35,7.891c6.201,5.566,10.049,12.426,9.842,21.168
			c-0.18,7.625-0.037,15.258-0.037,23.322C631.691,640.613,574.266,640.613,516.197,640.613z"/>
		<path opacity="0.25" fill-rule="evenodd" clip-rule="evenodd" fill="#D0CEF5" d="M641.471,503.135
			c-0.703,21.5-18.693,38.725-39.67,37.98c-22.332-0.791-38.852-18.52-37.969-40.74c0.84-21.137,18.584-37.646,39.838-37.068
			C625.014,463.885,642.164,481.955,641.471,503.135z"/>
	</g>
</g>
</svg>
