<?xml version="1.0" encoding="utf-8"?>
<!-- Generator: Adobe Illustrator 16.0.0, SVG Export Plug-In . SVG Version: 6.00 Build 0)  -->
<!DOCTYPE svg PUBLIC "-//W3C//DTD SVG 1.1//EN" "http://www.w3.org/Graphics/SVG/1.1/DTD/svg11.dtd">
<svg version="1.1" id="图层_1" xmlns="http://www.w3.org/2000/svg" xmlns:xlink="http://www.w3.org/1999/xlink" x="0px" y="0px"
	 width="1133.859px" height="1133.859px" viewBox="0 0 1133.859 1133.859" enable-background="new 0 0 1133.859 1133.859"
	 xml:space="preserve">
<title>Asset 2</title>
<g>
	<path fill-rule="evenodd" clip-rule="evenodd" d="M581.109,176.625c208.55,8.483,388.107,96.861,513.518,284.828
		c46.254,69.345,47.065,141.492,1.105,211.206C985.298,840.191,828.241,935.208,629.651,953.872
		c-234.296,21.984-425.287-64.18-570.911-249.344C16.1,650.306-7.801,590.479,10.088,520.544
		c11.803-46.107,40.463-83.141,70.636-118.328C208.42,253.273,371.932,180.978,581.109,176.625z M565.913,898.175
		c201.541-7.967,363.762-88.45,477.147-258.714c30.983-46.696,31.353-94.942,0.148-142.008
		C941.331,343.642,797.847,256.298,614.528,242.724C394.875,226.42,219.487,310.519,92.895,492.29
		c-34.045,48.836-34.008,102.542-0.663,151.525C205.913,810.609,366.659,889.765,565.913,898.175z"/>
	<path fill-rule="evenodd" clip-rule="evenodd" d="M563.182,834.806c-174.798-7.967-318.541-76.869-419.606-226.476
		c-17.704-26.262-18.554-51.786-1.991-78.491c47.287-75.836,111.984-132.861,191.434-172.476
		c136.587-68.091,277.82-74.951,419.977-21.025C853.397,374.405,933.66,440.134,991.938,531.24
		c16.229,25.23,14.901,50.017-1.328,74.878c-60.565,93.319-143.779,158.311-248.09,195.713
		c-32.164,11.508-65.804,19.548-99.37,25.967C617.846,832.667,591.584,832.52,563.182,834.806z M442.421,566.356
		c0.812,71.335,56.213,127.77,124.155,126.59c68.09-1.255,126.295-59.533,124.894-125.115
		c-1.549-71.336-57.688-125.631-128.767-124.451C495.682,444.413,441.683,499.593,442.421,566.356z"/>
	<path fill-rule="evenodd" clip-rule="evenodd" fill="#EEE415" d="M442.421,566.356c-0.738-66.763,53.261-121.943,120.282-122.977
		c71.078-1.18,127.218,53.115,128.767,124.451c1.401,65.582-56.804,123.86-124.894,125.115
		C498.634,694.125,443.233,637.691,442.421,566.356z"/>
</g>
</svg>
