<?xml version="1.0" encoding="utf-8"?>
<!-- Generator: Adobe Illustrator 16.0.0, SVG Export Plug-In . SVG Version: 6.00 Build 0)  -->
<!DOCTYPE svg PUBLIC "-//W3C//DTD SVG 1.1//EN" "http://www.w3.org/Graphics/SVG/1.1/DTD/svg11.dtd">
<svg version="1.1" id="图层_1" xmlns="http://www.w3.org/2000/svg" xmlns:xlink="http://www.w3.org/1999/xlink" x="0px" y="0px"
	 width="33.834px" height="33.834px" viewBox="0 0 33.834 33.834" enable-background="new 0 0 33.834 33.834" xml:space="preserve">
<title>first</title>
<desc>Created with Sketch.</desc>
<g>
	<path fill-rule="evenodd" clip-rule="evenodd" fill="#262C30" d="M16.872,23.216c-4.163,0-8.327-0.002-12.489,0.002
		c-0.7,0.002-1.421-0.025-1.867-0.631c-0.314-0.426-0.662-0.969-0.668-1.463c-0.052-4.493-0.038-8.988-0.025-13.483
		C1.825,6.638,2.524,5.829,3.513,5.62c0.341-0.072,0.697-0.099,1.046-0.1c8.224-0.005,16.446-0.004,24.668-0.004
		c1.969,0,2.795,0.829,2.797,2.799c0,4.102,0,8.203,0,12.303c0,0.916-0.191,1.781-1.066,2.227c-0.473,0.24-1.061,0.352-1.598,0.355
		C25.198,23.229,21.034,23.216,16.872,23.216z M12.465,14.363c0,1.635-0.009,3.271,0.003,4.907c0.007,0.934,0.527,1.229,1.331,0.764
		c2.792-1.619,5.583-3.244,8.368-4.874c0.846-0.495,0.836-1.062-0.018-1.561c-2.752-1.606-5.505-3.211-8.26-4.812
		c-0.948-0.552-1.419-0.27-1.423,0.855C12.46,11.216,12.465,12.79,12.465,14.363z"/>
	<path fill-rule="evenodd" clip-rule="evenodd" fill="#262C30" d="M16.902,25.329c-0.157,0.225-0.287,0.404-0.411,0.59
		c-1.546,2.303-3.09,4.607-4.637,6.91c-0.115,0.172-0.215,0.42-0.377,0.477c-0.284,0.1-0.696,0.205-0.896,0.07
		c-0.194-0.129-0.223-0.553-0.253-0.855c-0.013-0.133,0.146-0.287,0.238-0.424c1.54-2.307,3.091-4.607,4.615-6.924
		c0.235-0.357,0.508-0.422,0.902-0.49c1.618-0.281,2.6,0.35,3.405,1.777c1.084,1.924,2.414,3.709,3.637,5.555
		c0.104,0.156,0.215,0.309,0.289,0.477c0.162,0.363,0.137,0.771-0.244,0.904c-0.273,0.094-0.652-0.033-0.957-0.141
		c-0.143-0.049-0.223-0.285-0.324-0.439c-1.533-2.313-3.066-4.625-4.6-6.936C17.178,25.712,17.058,25.55,16.902,25.329z"/>
	<path fill-rule="evenodd" clip-rule="evenodd" fill="#262C30" d="M17.62,4.033c-0.521,0-0.966,0-1.459,0
		c0-1-0.026-1.964,0.012-2.927c0.017-0.431,0.289-0.743,0.771-0.709c0.431,0.031,0.671,0.3,0.675,0.736
		C17.626,2.08,17.62,3.027,17.62,4.033z"/>
	<path fill-rule="evenodd" clip-rule="evenodd" fill="#EEE415" d="M13.982,18.228c0-2.587,0-5.083,0-7.703
		c2.212,1.295,4.371,2.56,6.595,3.862C18.368,15.674,16.207,16.932,13.982,18.228z"/>
</g>
</svg>
