<?xml version="1.0" encoding="utf-8"?>
<!-- Generator: Adobe Illustrator 16.0.0, SVG Export Plug-In . SVG Version: 6.00 Build 0)  -->
<!DOCTYPE svg PUBLIC "-//W3C//DTD SVG 1.1//EN" "http://www.w3.org/Graphics/SVG/1.1/DTD/svg11.dtd">
<svg version="1.1" id="图层_1" xmlns="http://www.w3.org/2000/svg" xmlns:xlink="http://www.w3.org/1999/xlink" x="0px" y="0px"
	 width="33.834px" height="33.834px" viewBox="0.666 -6.917 33.834 33.834" enable-background="new 0.666 -6.917 33.834 33.834"
	 xml:space="preserve">
<title>first</title>
<desc>Created with Sketch.</desc>
<g>
	<g>
		<path fill-rule="evenodd" clip-rule="evenodd" fill="#262C30" d="M27.682,10.26c0,4.798,0,9.594-0.001,14.39
			c0,1.562-0.726,2.303-2.271,2.304c-5.133,0.002-10.267,0.002-15.401,0c-1.502,0-2.215-0.719-2.215-2.223
			c-0.001-9.652-0.001-19.305,0-28.957c0-1.654,0.741-2.389,2.402-2.389c5.016,0,10.03,0.028,15.044-0.018
			c1.392-0.012,2.483,0.862,2.464,2.444C27.645,0.627,27.682,5.444,27.682,10.26z M10.058,20.341c5.165,0,10.263,0,15.362,0
			c0-7.333,0-14.617,0-21.921c-5.138,0-10.237,0-15.362,0C10.058,5.743,10.058,13.028,10.058,20.341z M17.751,22.518
			c-0.817-0.009-1.476,0.603-1.484,1.383c-0.01,0.795,0.678,1.486,1.472,1.479c0.754-0.004,1.458-0.692,1.471-1.437
			C19.222,23.186,18.549,22.527,17.751,22.518z M17.721-4.59c-0.614,0-1.231-0.041-1.84,0.02c-0.236,0.023-0.45,0.272-0.674,0.417
			c0.214,0.137,0.425,0.385,0.642,0.392c1.246,0.039,2.496,0.037,3.743,0.001c0.191-0.005,0.376-0.256,0.563-0.392
			c-0.197-0.146-0.385-0.399-0.593-0.418C18.953-4.627,18.336-4.59,17.721-4.59z"/>
		<g>
			<path fill-rule="evenodd" clip-rule="evenodd" fill="#EEE415" d="M17.751,22.518c0.798,0.01,1.471,0.668,1.458,1.426
				c-0.013,0.744-0.717,1.433-1.471,1.437c-0.793,0.007-1.481-0.685-1.472-1.479C16.275,23.12,16.934,22.509,17.751,22.518z"/>
		</g>
	</g>
</g>
</svg>
