<?xml version="1.0" encoding="utf-8"?>
<!-- Generator: Adobe Illustrator 16.0.0, SVG Export Plug-In . SVG Version: 6.00 Build 0)  -->
<!DOCTYPE svg PUBLIC "-//W3C//DTD SVG 1.1//EN" "http://www.w3.org/Graphics/SVG/1.1/DTD/svg11.dtd">
<svg version="1.1" id="图层_1" xmlns="http://www.w3.org/2000/svg" xmlns:xlink="http://www.w3.org/1999/xlink" x="0px" y="0px"
	 width="33.834px" height="33.834px" viewBox="0 0 33.834 33.834" enable-background="new 0 0 33.834 33.834" xml:space="preserve">
<title>first</title>
<desc>Created with Sketch.</desc>
<g>
	<path fill-rule="evenodd" clip-rule="evenodd" fill="#262C30" d="M6.726,4.507c0,0.651-0.007,1.207,0.002,1.762
		C6.744,7.265,7.324,7.84,8.315,7.841c3.482,0.003,6.966,0.002,10.448,0c1.026,0,1.559-0.523,1.586-1.555
		c0.011-0.384,0.025-0.771-0.002-1.154c-0.032-0.459,0.111-0.676,0.61-0.644c0.556,0.036,1.116-0.009,1.673,0.02
		c1.351,0.068,2.123,0.865,2.129,2.216c0.012,2.944,0.004,5.888,0.004,8.831c0,5.119-0.031,10.238,0.018,15.355
		c0.017,1.793-0.953,2.504-2.503,2.504c-5.811,0.004-11.622,0.004-17.432-0.002c-1.374,0-2.192-0.49-2.467-1.467
		c-0.076-0.273-0.092-0.57-0.093-0.855C2.282,22.988,2.3,14.889,2.265,6.788C2.258,5.35,3.301,4.495,4.46,4.506
		C5.187,4.513,5.914,4.507,6.726,4.507z M22.052,20.037c0-3.271,0.001-6.542,0-9.814c0-0.914-0.093-1.01-0.979-1.01
		c-5.042-0.002-10.084-0.002-15.126,0c-0.833,0-0.939,0.103-0.939,0.928c-0.002,6.582-0.002,13.164-0.001,19.746
		c0.001,0.863,0.142,1.002,1.008,1.004c5.003,0,10.007,0,15.01,0c0.904,0,1.027-0.125,1.028-1.039
		C22.053,26.58,22.052,23.309,22.052,20.037z"/>
	<path fill-rule="evenodd" clip-rule="evenodd" fill="#262C30" d="M26.262,12.2c1.765,0,3.487,0,5.241,0c0,4.18,0,8.33,0,12.531
		c-1.742,0-3.477,0-5.241,0C26.262,20.564,26.262,16.414,26.262,12.2z"/>
	<path fill-rule="evenodd" clip-rule="evenodd" fill="#262C30" d="M10.665,2.785c0.584-1.578,1.549-2.369,2.861-2.368
		c1.299,0,2.264,0.794,2.828,2.368c0.722,0,1.466,0.017,2.209-0.006c0.52-0.016,0.738,0.205,0.732,0.715
		c-0.012,0.884-0.009,1.768-0.002,2.652c0.004,0.481-0.209,0.69-0.7,0.688c-3.381-0.009-6.764-0.01-10.146,0
		c-0.5,0.001-0.694-0.221-0.69-0.696C7.766,5.255,7.77,4.371,7.756,3.487C7.749,2.968,7.98,2.764,8.493,2.78
		C9.221,2.802,9.95,2.785,10.665,2.785z"/>
	<path fill-rule="evenodd" clip-rule="evenodd" fill="#262C30" d="M26.306,11.096c0-0.875-0.044-1.701,0.013-2.52
		c0.054-0.779,0.643-1.288,1.425-1.308c0.787-0.021,1.575-0.023,2.361,0.002c0.75,0.024,1.345,0.588,1.444,1.322
		c0.022,0.17,0.018,0.346,0.019,0.518c0.002,0.649,0.001,1.299,0.001,1.986C29.799,11.096,28.081,11.096,26.306,11.096z"/>
	<path fill-rule="evenodd" clip-rule="evenodd" fill="#262C30" d="M31.298,25.902c-0.669,1.516-1.301,2.973-1.965,4.416
		c-0.067,0.148-0.36,0.326-0.483,0.285c-0.204-0.064-0.423-0.264-0.516-0.463c-0.599-1.266-1.165-2.549-1.74-3.826
		c-0.053-0.117-0.09-0.242-0.151-0.412C28.059,25.902,29.624,25.902,31.298,25.902z"/>
	<path fill-rule="evenodd" clip-rule="evenodd" fill="#262C30" d="M6.098,10.176c0.225-0.01,0.396-0.025,0.566-0.025
		c4.601-0.002,9.202,0.004,13.802-0.01c0.439-0.001,0.598,0.101,0.597,0.574c-0.016,6.199-0.011,12.398-0.012,18.597
		c0,0.15-0.019,0.301-0.031,0.494c-4.978,0-9.932,0-14.922,0C6.098,23.281,6.098,16.764,6.098,10.176z M13.502,23.121v-0.002
		c0.403,0,0.808,0.002,1.211,0c0.362-0.002,0.617-0.184,0.626-0.541c0.023-0.924,0.58-1.504,1.21-2.068
		c1.611-1.439,2.043-3.542,1.153-5.506c-0.844-1.86-2.9-2.935-4.944-2.584c-2.049,0.353-3.682,2.106-3.841,4.126
		c-0.062,0.777,0.116,0.978,0.883,0.984c0.597,0.004,1.193-0.02,1.788,0.006c0.55,0.025,0.873-0.146,0.934-0.746
		c0.053-0.513,0.431-0.765,0.909-0.818c0.457-0.051,0.832,0.125,1.041,0.563c0.22,0.461,0.094,0.863-0.236,1.213
		c-0.157,0.167-0.352,0.299-0.521,0.456c-1.19,1.106-1.888,2.459-2.001,4.09c-0.041,0.605,0.153,0.811,0.749,0.826
		C12.81,23.129,13.156,23.121,13.502,23.121z M13.501,27.65c1.005,0.006,1.756-0.727,1.761-1.719
		c0.005-0.99-0.749-1.773-1.718-1.785c-0.974-0.01-1.761,0.768-1.765,1.742C11.777,26.893,12.511,27.645,13.501,27.65z"/>
	<path fill-rule="evenodd" clip-rule="evenodd" fill="#EEE415" d="M13.502,23.121c-0.347,0-0.692,0.008-1.039-0.002
		c-0.596-0.016-0.79-0.221-0.749-0.826c0.113-1.631,0.811-2.983,2.001-4.09c0.169-0.157,0.363-0.289,0.521-0.456
		c0.33-0.35,0.456-0.752,0.236-1.213c-0.209-0.438-0.584-0.613-1.041-0.563c-0.479,0.054-0.856,0.306-0.909,0.818
		c-0.061,0.6-0.384,0.771-0.934,0.746c-0.595-0.025-1.191-0.002-1.788-0.006c-0.767-0.006-0.944-0.207-0.883-0.984
		c0.159-2.02,1.792-3.773,3.841-4.126c2.044-0.351,4.1,0.724,4.944,2.584c0.891,1.964,0.458,4.067-1.153,5.506
		c-0.63,0.564-1.187,1.145-1.21,2.068c-0.009,0.357-0.264,0.539-0.626,0.541c-0.403,0.002-0.808,0-1.211,0V23.121z M14.348,22.057
		c0.216-1.039,0.876-1.75,1.646-2.43c1.054-0.93,1.381-2.156,1.041-3.512c-0.351-1.397-1.236-2.333-2.654-2.681
		c-2.085-0.514-4.238,0.945-4.396,3.003c0.385,0,0.771,0.035,1.145-0.016c0.178-0.024,0.398-0.175,0.486-0.333
		c0.449-0.807,1.133-1.189,2.033-1.16c0.816,0.025,1.425,0.418,1.761,1.182c0.365,0.83,0.222,1.574-0.39,2.234
		c-0.443,0.479-0.917,0.934-1.327,1.441c-0.523,0.648-0.843,1.393-0.861,2.271C13.359,22.057,13.833,22.057,14.348,22.057z"/>
	<path fill-rule="evenodd" clip-rule="evenodd" fill="#EEE415" d="M13.501,27.65c-0.99-0.006-1.725-0.758-1.722-1.762
		c0.004-0.975,0.791-1.752,1.765-1.742c0.969,0.012,1.723,0.795,1.718,1.785C15.257,26.924,14.506,27.656,13.501,27.65z
		 M13.537,25.16c-0.425-0.006-0.779,0.328-0.793,0.742c-0.014,0.436,0.358,0.805,0.801,0.795c0.419-0.01,0.766-0.361,0.766-0.773
		C14.309,25.512,13.958,25.166,13.537,25.16z"/>
	<path fill-rule="evenodd" clip-rule="evenodd" fill="#262C30" d="M14.348,22.057c-0.515,0-0.989,0-1.517,0
		c0.019-0.879,0.338-1.623,0.861-2.271c0.41-0.508,0.884-0.962,1.327-1.441c0.611-0.66,0.755-1.404,0.39-2.234
		c-0.336-0.764-0.944-1.156-1.761-1.182c-0.9-0.029-1.584,0.354-2.033,1.16c-0.088,0.158-0.309,0.309-0.486,0.333
		c-0.374,0.051-0.76,0.016-1.145,0.016c0.157-2.058,2.311-3.517,4.396-3.003c1.418,0.348,2.304,1.283,2.654,2.681
		c0.34,1.356,0.013,2.583-1.041,3.512C15.224,20.307,14.564,21.018,14.348,22.057z"/>
	<path fill-rule="evenodd" clip-rule="evenodd" fill="#262C30" d="M13.537,25.16c0.422,0.006,0.772,0.352,0.773,0.764
		c0,0.412-0.347,0.764-0.766,0.773c-0.442,0.01-0.814-0.359-0.801-0.795C12.757,25.488,13.112,25.154,13.537,25.16z"/>
</g>
</svg>
