<?xml version="1.0" encoding="utf-8"?>
<!-- Generator: Adobe Illustrator 16.0.0, SVG Export Plug-In . SVG Version: 6.00 Build 0)  -->
<!DOCTYPE svg PUBLIC "-//W3C//DTD SVG 1.1//EN" "http://www.w3.org/Graphics/SVG/1.1/DTD/svg11.dtd">
<svg version="1.1" id="图层_1" xmlns="http://www.w3.org/2000/svg" xmlns:xlink="http://www.w3.org/1999/xlink" x="0px" y="0px"
	 width="33.834px" height="33.834px" viewBox="0 0 33.834 33.834" enable-background="new 0 0 33.834 33.834" xml:space="preserve">
<title>first</title>
<desc>Created with Sketch.</desc>
<g>
	<path fill-rule="evenodd" clip-rule="evenodd" fill="#262C30" d="M31.422,22.229c0,2.889,0,5.776,0,8.667
		c-0.001,0.689-0.13,0.826-0.812,0.828c-1.051,0.006-2.102,0.006-3.152,0c-0.618-0.004-0.762-0.153-0.762-0.764
		c-0.002-5.835,0.002-11.669-0.006-17.503c-0.001-0.526,0.202-0.754,0.731-0.746c1.068,0.016,2.139,0.002,3.208,0.005
		c0.657,0.003,0.791,0.137,0.791,0.789C31.423,16.413,31.422,19.321,31.422,22.229z"/>
	<path fill-rule="evenodd" clip-rule="evenodd" fill="#EEE415" d="M28.788,3.982c-0.814,0-1.629,0.005-2.443-0.003
		c-0.262-0.002-0.53-0.002-0.782-0.061c-0.488-0.115-0.735-0.504-0.675-1.018c0.057-0.476,0.354-0.772,0.812-0.779
		c1.726-0.022,3.453-0.029,5.18,0.008c0.668,0.015,1.042,0.536,1.051,1.354c0.014,1.521,0.004,3.042,0.004,4.562
		c0,0.056-0.002,0.112-0.008,0.169c-0.055,0.597-0.381,0.929-0.915,0.934c-0.558,0.004-0.931-0.346-0.948-0.961
		c-0.023-0.822-0.005-1.644-0.005-2.543c-0.137,0.077-0.22,0.106-0.277,0.161c-3.247,3.099-7.053,5.33-11.125,7.131
		c-4.652,2.057-9.51,3.451-14.5,4.396c-0.313,0.059-0.626,0.123-0.938,0.184c-0.654,0.124-1.165-0.147-1.292-0.682
		c-0.134-0.57,0.213-1.023,0.919-1.177c1.758-0.382,3.528-0.71,5.272-1.146c6.327-1.586,12.32-3.947,17.635-7.814
		c1.08-0.787,2.079-1.688,3.114-2.536C28.839,4.102,28.813,4.042,28.788,3.982z"/>
	<path fill-rule="evenodd" clip-rule="evenodd" fill="#262C30" d="M18.682,23.473c0-2.456-0.002-4.914,0-7.371
		c0.001-0.677,0.112-0.79,0.778-0.793c1.069-0.004,2.138,0.011,3.207-0.006c0.531-0.009,0.74,0.227,0.74,0.745
		c-0.007,4.969-0.003,9.939-0.006,14.909c0,0.619-0.147,0.764-0.762,0.768c-1.069,0.006-2.138,0.006-3.207,0
		c-0.622-0.004-0.75-0.139-0.751-0.768C18.68,28.462,18.682,25.967,18.682,23.473z"/>
	<path fill-rule="evenodd" clip-rule="evenodd" fill="#262C30" d="M10.339,24.774c0-2.006-0.001-4.013,0-6.019
		c0.002-0.762,0.09-0.854,0.829-0.855c1.05-0.002,2.1,0.013,3.15-0.006c0.527-0.011,0.746,0.215,0.745,0.737
		c-0.007,4.126-0.006,8.25-0.002,12.377c0.001,0.488-0.201,0.725-0.703,0.72c-1.107-0.008-2.213-0.008-3.318,0
		c-0.494,0.005-0.71-0.202-0.707-0.71C10.347,28.938,10.339,26.855,10.339,24.774z"/>
	<path fill-rule="evenodd" clip-rule="evenodd" fill="#262C30" d="M7.019,26.523c0,1.48,0.004,2.963-0.002,4.443
		c-0.002,0.636-0.119,0.754-0.759,0.758C5.188,31.73,4.12,31.717,3.052,31.73C2.536,31.737,2.3,31.536,2.303,31
		c0.01-2.979,0.008-5.961,0.001-8.939c-0.001-0.499,0.206-0.709,0.714-0.698c1.086,0.021,2.175,0.002,3.262,0.009
		c0.64,0.002,0.735,0.099,0.737,0.766C7.022,23.599,7.019,25.063,7.019,26.523z"/>
</g>
</svg>
