<?xml version="1.0" encoding="utf-8"?>
<!-- Generator: Adobe Illustrator 16.0.0, SVG Export Plug-In . SVG Version: 6.00 Build 0)  -->
<!DOCTYPE svg PUBLIC "-//W3C//DTD SVG 1.1//EN" "http://www.w3.org/Graphics/SVG/1.1/DTD/svg11.dtd">
<svg version="1.1" id="图层_1" xmlns="http://www.w3.org/2000/svg" xmlns:xlink="http://www.w3.org/1999/xlink" x="0px" y="0px"
	 width="792px" height="1224px" viewBox="0 0 792 1224" enable-background="new 0 0 792 1224" xml:space="preserve">
<title>Asset 2</title>
<g>
	<path fill-rule="evenodd" clip-rule="evenodd" d="M169.359,432.421c-9.452-12.657-16.175-21.659-23.946-32.068
		c-16.935,12.255-33.282,24.069-49.609,35.912c-21.719,15.757-31.636,13.666-45.417-9.627
		c-34.673-58.609-17.229-134.69,39.368-171.704c55.207-36.106,135.599-20.914,174.131,32.904c7.263,10.143,5.79,19.646-5.284,28.108
		c-18.789,14.361-37.908,28.286-57.724,43.012c7.005,9.587,13.614,18.636,21.296,29.152c40.849-24.892,84.894-39.574,132.206-45.812
		c0-17.067,0-32.947,0-46.465c-13.377-4.882-26.535-7.543-37.3-14.125c-14.864-9.088-19.443-28.006-14.146-45.383
		c5.052-16.571,19.052-28.796,36.339-29.088c37.417-0.635,74.863-0.794,112.274-0.02c22.541,0.467,38.971,18.057,39.975,40.215
		c0.981,21.661-15.393,40.492-38.282,43.806c-4.644,0.672-9.38,0.7-16.33,1.18c0,14.548-0.41,29.045,0.376,43.478
		c0.143,2.635,4.891,6.754,7.975,7.233c44.021,6.872,85.227,21.497,124.827,45.157c7.06-9.919,13.771-19.345,20.817-29.247
		c-18.813-14.003-37.078-27.486-55.219-41.137c-15.093-11.356-16.149-19.879-4.568-34.178
		c36.978-45.66,101.299-61.807,152.503-38.279c56.575,25.992,85.998,82.406,72.594,143.61
		c-3.643,16.634-12.666,32.491-21.287,47.516c-7.004,12.205-20.079,12.97-33.468,3.645c-18.238-12.704-36.05-26.015-54.814-39.624
		c-7.034,9.451-13.761,18.488-20.922,28.109c11.121,12.695,22.178,24.824,32.699,37.403
		c86.99,104.018,99.213,264.988,28.087,380.516c-8.805,14.303-11.1,26.004-4.097,41.636c9.845,21.979,17.281,45.05,25.413,67.772
		c12.079,33.744-5.224,58.696-41.271,59.81c-5.206,0.16-10.497-0.536-15.622,0.139c-34.192,4.484-62.621-5.104-83.4-33.635
		c-6.5-8.924-13.29-8.547-22.959-3.939c-97.864,46.651-196.296,47.468-294.425,1.092c-12.458-5.887-20.571-5.626-28.445,5.466
		c-29.388,41.412-72.23,33.069-112.638,28.217c-22.369-2.688-34.453-28.388-26.897-51.166c9.383-28.283,19.783-56.253,30.665-83.995
		c3.357-8.561,2.103-14.607-2.395-22.147c-56.865-95.34-67.444-195.607-28.972-299.91c15.87-43.025,40.188-81.479,73.401-113.688
		C158.904,438.356,164.274,435.819,169.359,432.421z M660.274,676.706c0.03-145.558-118.081-264.39-263.428-265.036
		c-144.771-0.645-265.61,119.825-265.712,264.9c-0.104,145.688,119.479,264.706,265.507,264.256
		C542.813,940.376,660.244,822.728,660.274,676.706z"/>
	<path fill-rule="evenodd" clip-rule="evenodd" fill="#EEE415" d="M660.274,676.706c-0.03,146.021-117.462,263.67-263.633,264.12
		c-146.028,0.45-265.61-118.568-265.507-264.256c0.102-145.075,120.941-265.545,265.712-264.9
		C542.193,412.316,660.305,531.148,660.274,676.706z M199.034,676.453c-5.069,106.068,89.624,199.328,198.86,198.09
		c114.027-1.29,203.552-97.767,195.594-211.229c-8.358-119.136-113.771-189.313-197.813-183.096c0,64.941,0,130.024,0,196.234
		C329.326,676.453,264.599,676.453,199.034,676.453z"/>
	<path fill-rule="evenodd" clip-rule="evenodd" d="M199.034,676.453c65.564,0,130.292,0,196.641,0c0-66.21,0-131.293,0-196.234
		c84.043-6.218,189.455,63.96,197.813,183.096c7.958,113.462-81.566,209.938-195.594,211.229
		C288.658,875.781,193.965,782.521,199.034,676.453z"/>
</g>
</svg>
