<?xml version="1.0" encoding="utf-8"?>
<!-- Generator: Adobe Illustrator 16.0.0, SVG Export Plug-In . SVG Version: 6.00 Build 0)  -->
<!DOCTYPE svg PUBLIC "-//W3C//DTD SVG 1.1//EN" "http://www.w3.org/Graphics/SVG/1.1/DTD/svg11.dtd">
<svg version="1.1" id="图层_1" xmlns="http://www.w3.org/2000/svg" xmlns:xlink="http://www.w3.org/1999/xlink" x="0px" y="0px"
	 width="33.834px" height="33.834px" viewBox="0 0 33.834 33.834" enable-background="new 0 0 33.834 33.834" xml:space="preserve">
<title>first</title>
<desc>Created with Sketch.</desc>
<g>
	<path fill="#262C30" d="M4.491,17.008c-0.723-1.194-1.438-2.261-2.035-3.39c-0.621-1.174-0.934-2.462-0.687-3.791
		c0.377-2.028,1.772-3.084,3.673-3.564c1.729-0.436,3.47-0.323,5.265-0.032c0.238-0.53,0.467-1.074,0.722-1.605
		c0.676-1.411,1.51-2.712,2.779-3.67c1.628-1.23,3.332-1.284,5.074-0.235c0.228,0.137,0.576,0.199,0.834,0.14
		c1.156-0.268,2.318,0.128,2.994,1.083c0.652,0.924,0.658,2.138,0.019,3.121c-0.339,0.52-0.339,0.52-0.046,1.099
		c1.012-0.057,2.025-0.196,3.031-0.15c0.964,0.044,1.951,0.171,2.865,0.457c2.457,0.77,3.596,2.914,3,5.433
		c-0.4,1.697-1.293,3.138-2.33,4.505c-0.119,0.157-0.242,0.313-0.291,0.374c0.766,1.333,1.576,2.571,2.207,3.897
		c0.634,1.326,0.799,2.756,0.252,4.189c-0.055,0.145-0.098,0.304-0.189,0.421c-0.408,0.513-0.57,1.05-0.57,1.739
		c0.002,1.141-0.906,2.094-2.054,2.406c-1.065,0.291-2.28-0.137-2.907-1.104c-0.252-0.389-0.521-0.555-0.968-0.523
		c-0.264,0.019-0.53-0.012-0.796-0.033c-1.234-0.104-1.23-0.104-1.764,1.057c-0.61,1.337-1.348,2.589-2.43,3.609
		c-1.91,1.802-4.226,1.888-6.218,0.201c-1.39-1.176-2.214-2.734-2.913-4.377c-0.099-0.233-0.353-0.604-0.478-0.582
		c-0.504,0.086-1.119-0.168-1.488,0.445c-0.634,1.053-1.599,1.551-2.807,1.348c-1.193-0.203-1.961-0.949-2.257-2.151
		c-0.044-0.175-0.154-0.386-0.298-0.476c-2.037-1.275-2.281-3.5-1.714-5.386c0.48-1.598,1.347-2.974,2.385-4.258
		C4.421,17.123,4.476,17.029,4.491,17.008z M23.103,16.914c0-0.994,0.037-1.991-0.022-2.981c-0.019-0.295-0.24-0.689-0.489-0.84
		c-1.719-1.039-3.46-2.039-5.218-3.011c-0.236-0.13-0.662-0.142-0.893-0.015c-1.776,0.982-3.535,2-5.276,3.044
		c-0.216,0.129-0.424,0.474-0.428,0.722c-0.033,2.075-0.028,4.15,0,6.227c0.003,0.215,0.18,0.515,0.366,0.625
		c1.783,1.061,3.58,2.101,5.391,3.11c0.204,0.112,0.581,0.104,0.788-0.008c1.774-0.988,3.538-1.998,5.276-3.05
		c0.247-0.148,0.467-0.545,0.483-0.842C23.14,18.903,23.103,17.908,23.103,16.914z M28.228,15.65
		c1.006-1.281,1.918-2.625,2.244-4.28c0.329-1.68-0.33-2.85-1.959-3.413c-1.588-0.549-3.209-0.448-4.818-0.191
		c-0.021,0.093-0.047,0.139-0.039,0.178c0.275,1.453,0.55,2.907,0.844,4.356c0.029,0.154,0.16,0.312,0.286,0.419
		C25.905,13.684,27.036,14.64,28.228,15.65z M21.476,27.36c-1.492-0.532-2.922-1.047-4.355-1.555
		c-0.099-0.033-0.228-0.049-0.323-0.016c-1.473,0.518-2.942,1.042-4.439,1.574c0.519,1.371,1.195,2.656,2.213,3.732
		c1.484,1.564,3.097,1.576,4.624,0.051C20.26,30.078,20.926,28.763,21.476,27.36z M5.591,15.651c1.187-1.01,2.314-1.968,3.436-2.931
		c0.112-0.096,0.249-0.22,0.274-0.35c0.295-1.529,0.573-3.062,0.859-4.62C8.491,7.512,6.825,7.397,5.193,7.997
		C3.762,8.522,3.109,9.588,3.316,11.1C3.561,12.876,4.553,14.282,5.591,15.651z M28.181,18.204c-0.979,0.854-1.9,1.716-2.888,2.498
		c-0.517,0.408-0.812,0.824-0.901,1.508c-0.172,1.281-0.479,2.544-0.746,3.881c0.438,0.044,0.856,0.057,1.264,0.139
		c0.49,0.098,0.73-0.039,0.928-0.537c0.467-1.186,1.622-1.828,2.883-1.623c0.5,0.08,0.973,0.339,1.463,0.52
		C31.274,23.136,29.872,20.048,28.181,18.204z M18.483,2.101c-0.95-0.632-1.896-0.743-2.816-0.203
		c-1.781,1.046-2.581,2.811-3.355,4.642c0.818,0.243,1.543,0.437,2.252,0.677c0.712,0.241,1.403,0.542,2.113,0.786
		c0.164,0.057,0.385,0.032,0.556-0.025c1.278-0.424,2.552-0.865,3.823-1.307c0.139-0.047,0.26-0.133,0.391-0.201
		c0-0.071,0-0.142,0-0.213c-1.153,0.111-2.141-0.176-2.813-1.118C17.949,4.183,17.931,3.169,18.483,2.101z M5.601,18.181
		c-1.097,1.422-2.138,2.9-2.312,4.795c-0.086,0.932,0.177,1.742,1.007,2.34c0.729-0.938,1.635-1.453,2.828-1.256
		c1.217,0.203,1.905,1.016,2.278,2.152c0.311-0.063,0.564-0.113,0.761-0.154c-0.287-1.515-0.557-2.969-0.84-4.42
		c-0.032-0.162-0.094-0.356-0.208-0.457C7.963,20.183,6.798,19.199,5.601,18.181z M14.916,24.847
		c-1.326-0.771-2.534-1.472-3.88-2.254c0.271,1.143,0.509,2.151,0.763,3.223C12.877,25.479,13.84,25.181,14.916,24.847z
		 M11.78,8.031c-0.252,1.113-0.474,2.091-0.723,3.188c1.327-0.768,2.515-1.455,3.844-2.224C13.806,8.656,12.85,8.361,11.78,8.031z
		 M27.162,16.916c-0.815-0.76-1.562-1.452-2.392-2.224c0,1.55,0,2.927,0,4.454C25.599,18.372,26.335,17.687,27.162,16.916z
		 M22.049,25.808c0.251-1.108,0.478-2.111,0.726-3.205c-1.33,0.771-2.537,1.473-3.854,2.233
		C19.997,25.17,20.959,25.469,22.049,25.808z M22.774,11.226c-0.269-1.136-0.502-2.124-0.754-3.186
		c-1.063,0.33-2.013,0.625-3.09,0.959C20.265,9.771,21.453,10.459,22.774,11.226z M9.019,19.108c0-1.512,0-2.875,0-4.389
		c-0.83,0.783-1.561,1.47-2.343,2.207C7.474,17.671,8.206,18.351,9.019,19.108z M20.835,2.353c-0.656,0.007-1.16,0.527-1.152,1.185
		c0.01,0.658,0.521,1.15,1.188,1.144c0.655-0.006,1.175-0.528,1.169-1.174C22.035,2.878,21.479,2.345,20.835,2.353z M6.653,27.929
		c0.656,0.008,1.184-0.498,1.195-1.146c0.011-0.652-0.498-1.169-1.16-1.179c-0.658-0.008-1.192,0.5-1.202,1.145
		C5.476,27.388,6.005,27.92,6.653,27.929z M29.517,26.741c-0.017-0.656-0.535-1.147-1.201-1.137
		c-0.654,0.011-1.174,0.541-1.162,1.186c0.015,0.637,0.562,1.15,1.209,1.141C29.017,27.918,29.53,27.388,29.517,26.741z"/>
	<path fill="#D0CEF5" d="M20.835,2.353c0.645-0.008,1.2,0.525,1.204,1.154c0.006,0.646-0.515,1.168-1.169,1.174
		c-0.666,0.007-1.178-0.485-1.188-1.144C19.675,2.88,20.179,2.36,20.835,2.353z"/>
	<path fill="#D0CEF5" d="M6.653,27.929c-0.647-0.009-1.177-0.541-1.167-1.181c0.01-0.646,0.543-1.151,1.202-1.144
		c0.662,0.008,1.171,0.524,1.16,1.178C7.836,27.431,7.309,27.937,6.653,27.929z"/>
	<path fill="#D0CEF5" d="M29.517,26.741c0.014,0.646-0.5,1.177-1.154,1.188c-0.647,0.012-1.194-0.503-1.209-1.14
		c-0.012-0.644,0.508-1.175,1.162-1.187C28.979,25.594,29.5,26.085,29.517,26.741z"/>
</g>
</svg>
