<?xml version="1.0" encoding="utf-8"?>
<!-- Generator: Adobe Illustrator 16.0.0, SVG Export Plug-In . SVG Version: 6.00 Build 0)  -->
<!DOCTYPE svg PUBLIC "-//W3C//DTD SVG 1.1//EN" "http://www.w3.org/Graphics/SVG/1.1/DTD/svg11.dtd">
<svg version="1.1" id="图层_1" xmlns="http://www.w3.org/2000/svg" xmlns:xlink="http://www.w3.org/1999/xlink" x="0px" y="0px"
	 width="1145.942px" height="477px" viewBox="-190.88 0 1145.942 477" enable-background="new -190.88 0 1145.942 477"
	 xml:space="preserve">
<g>
	<g>
		<defs>
			<rect id="SVGID_1_" x="97.726" y="27.559" width="568.731" height="421.883"/>
		</defs>
		<clipPath id="SVGID_2_">
			<use xlink:href="#SVGID_1_"  overflow="visible"/>
		</clipPath>
		<line clip-path="url(#SVGID_2_)" fill="none" stroke="#231815" x1="370.583" y1="28.372" x2="370.583" y2="445.598"/>
		<line clip-path="url(#SVGID_2_)" fill="none" stroke="#231815" x1="366.929" y1="28.372" x2="374.236" y2="28.372"/>
	</g>
	<polyline fill="none" stroke="#231815" points="376.628,439.096 370.583,445.598 364.536,439.096 	"/>
	<line fill="none" stroke="#FCF133" stroke-width="3" stroke-miterlimit="10" x1="380.489" y1="67.932" x2="508.291" y2="67.932"/>
	<text transform="matrix(1 0 0 1 380.4897 67.9316)"><tspan x="0" y="0" fill="#231815" font-family="'BentonSans-Medium'" font-size="16.2392">2</tspan><tspan x="9.629" y="0" fill="#231815" font-family="'BentonSans-Medium'" font-size="16.2392">01</tspan><tspan x="27.915" y="0" fill="#231815" font-family="'BentonSans-Medium'" font-size="16.2392">8</tspan><tspan x="37.918" y="0" fill="#231815" font-family="'BentonSans-Medium'" font-size="16.2392">.</tspan><tspan x="41.767" y="0" fill="#231815" font-family="'BentonSans-Medium'" font-size="16.2392">08</tspan></text>
	<text transform="matrix(1 0 0 1 443.3828 67.9316)"><tspan x="0" y="0" fill="#231815" font-family="'BentonSans-Thin'" font-size="16.2392"> Si</tspan><tspan x="16.872" y="0" fill="#231815" font-family="'BentonSans-Thin'" font-size="16.2392">t</tspan><tspan x="22.166" y="0" fill="#231815" font-family="'BentonSans-Thin'" font-size="16.2392">e </tspan><tspan x="34.102" y="0" fill="#231815" font-family="'BentonSans-Thin'" font-size="16.2392">V</tspan><tspan x="44.462" y="0" fill="#231815" font-family="'BentonSans-Thin'" font-size="16.2392">isit</tspan></text>
	<text transform="matrix(1 0 0 1 380.4897 90.6104)"><tspan x="0" y="0" fill="#231815" font-family="'BentonSans-Medium'" font-size="14.6153">R</tspan><tspan x="9.661" y="0" fill="#231815" font-family="'BentonSans-Medium'" font-size="14.6153">e</tspan><tspan x="17.772" y="0" fill="#231815" font-family="'BentonSans-Medium'" font-size="14.6153">s</tspan><tspan x="25.298" y="0" fill="#231815" font-family="'BentonSans-Medium'" font-size="14.6153">e</tspan><tspan x="33.44" y="0" fill="#231815" font-family="'BentonSans-Medium'" font-size="14.6153">a</tspan><tspan x="41.697" y="0" fill="#231815" font-family="'BentonSans-Medium'" font-size="14.6153">r</tspan><tspan x="47.368" y="0" fill="#231815" font-family="'BentonSans-Medium'" font-size="14.6153">ch +</tspan><tspan x="77.197" y="0" fill="#231815" font-family="'BentonSans-Medium'" font-size="14.6153"> </tspan><tspan x="80.442" y="0" fill="#231815" font-family="'BentonSans-Medium'" font-size="14.6153" letter-spacing="-1">W</tspan><tspan x="93.215" y="0" fill="#231815" font-family="'BentonSans-Medium'" font-size="14.6153">or</tspan><tspan x="107.947" y="0" fill="#231815" font-family="'BentonSans-Medium'" font-size="14.6153">k</tspan><tspan x="115.97" y="0" fill="#231815" font-family="'BentonSans-Medium'" font-size="14.6153">shop</tspan></text>
	<text transform="matrix(1 0 0 1 380.4897 106.7363)" fill="#231815" font-family="'BentonSans-Thin'" font-size="12.9914">1.</text>
	<text transform="matrix(1 0 0 1 389.2725 106.7363)" fill="#231815" font-family="'BentonSans-Thin'" font-size="12.9914"> </text>
	<text transform="matrix(1 0 0 1 409.7227 106.7363)"><tspan x="0" y="0" fill="#231815" font-family="'BentonSans-Thin'" font-size="12.9914">Conduc</tspan><tspan x="45.3" y="0" fill="#231815" font-family="'BentonSans-Thin'" font-size="12.9914">t</tspan><tspan x="49.521" y="0" fill="#231815" font-family="'BentonSans-Thin'" font-size="12.9914">ed on-si</tspan><tspan x="94.938" y="0" fill="#231815" font-family="'BentonSans-Thin'" font-size="12.9914">t</tspan><tspan x="99.161" y="0" fill="#231815" font-family="'BentonSans-Thin'" font-size="12.9914">e </tspan><tspan x="108.709" y="0" fill="#231815" font-family="'BentonSans-Thin'" font-size="12.9914">w</tspan><tspan x="118.192" y="0" fill="#231815" font-family="'BentonSans-Thin'" font-size="12.9914">or</tspan><tspan x="130.561" y="0" fill="#231815" font-family="'BentonSans-Thin'" font-size="12.9914">k</tspan><tspan x="137.017" y="0" fill="#231815" font-family="'BentonSans-Thin'" font-size="12.9914">sho</tspan><tspan x="158.192" y="0" fill="#231815" font-family="'BentonSans-Thin'" font-size="12.9914">p</tspan><tspan x="165.559" y="0" fill="#231815" font-family="'BentonSans-Thin'" font-size="12.9914">s</tspan></text>
	<text transform="matrix(1 0 0 1 380.4897 122.3242)" fill="#231815" font-family="'BentonSans-Thin'" font-size="12.9914">2.</text>
	<text transform="matrix(1 0 0 1 391.2852 122.3242)" fill="#231815" font-family="'BentonSans-Thin'" font-size="12.9914"> </text>
	<text transform="matrix(1 0 0 1 409.7227 122.3242)"><tspan x="0" y="0" fill="#231815" font-family="'BentonSans-Thin'" font-size="12.9914">S</tspan><tspan x="8.042" y="0" fill="#231815" font-family="'BentonSans-Thin'" font-size="12.9914">y</tspan><tspan x="14.524" y="0" fill="#231815" font-family="'BentonSans-Thin'" font-size="12.9914">n</tspan><tspan x="21.786" y="0" fill="#231815" font-family="'BentonSans-Thin'" font-size="12.9914">th</tspan><tspan x="33.647" y="0" fill="#231815" font-family="'BentonSans-Thin'" font-size="12.9914">e</tspan><tspan x="40.454" y="0" fill="#231815" font-family="'BentonSans-Thin'" font-size="12.9914">si</tspan><tspan x="49.613" y="0" fill="#231815" font-family="'BentonSans-Thin'" font-size="12.9914">z</tspan><tspan x="55.68" y="0" fill="#231815" font-family="'BentonSans-Thin'" font-size="12.9914">ed u</tspan><tspan x="80.025" y="0" fill="#231815" font-family="'BentonSans-Thin'" font-size="12.9914">s</tspan><tspan x="86.392" y="0" fill="#231815" font-family="'BentonSans-Thin'" font-size="12.9914">er needs</tspan></text>
	<text transform="matrix(1 0 0 1 380.4897 137.915)"><tspan x="0" y="0" fill="#231815" font-family="'BentonSans-Thin'" font-size="12.9914">3</tspan><tspan x="7.288" y="0" fill="#231815" font-family="'BentonSans-Thin'" font-size="12.9914">.</tspan></text>
	<text transform="matrix(1 0 0 1 391.0898 137.915)" fill="#231815" font-family="'BentonSans-Thin'" font-size="12.9914"> </text>
	<text transform="matrix(1 0 0 1 409.7227 137.915)"><tspan x="0" y="0" fill="#231815" font-family="'BentonSans-Thin'" font-size="12.9914">Unde</tspan><tspan x="30.958" y="0" fill="#231815" font-family="'BentonSans-Thin'" font-size="12.9914">r</tspan><tspan x="35.7" y="0" fill="#231815" font-family="'BentonSans-Thin'" font-size="12.9914">s</tspan><tspan x="42.065" y="0" fill="#231815" font-family="'BentonSans-Thin'" font-size="12.9914">t</tspan><tspan x="46.301" y="0" fill="#231815" font-family="'BentonSans-Thin'" font-size="12.9914">ood mar</tspan><tspan x="94.783" y="0" fill="#231815" font-family="'BentonSans-Thin'" font-size="12.9914">k</tspan><tspan x="101.045" y="0" fill="#231815" font-family="'BentonSans-Thin'" font-size="12.9914">e</tspan><tspan x="107.982" y="0" fill="#231815" font-family="'BentonSans-Thin'" font-size="12.9914" letter-spacing="-1">r</tspan><tspan x="111.633" y="0" fill="#231815" font-family="'BentonSans-Thin'" font-size="12.9914" letter-spacing="-1">/</tspan><tspan x="116.829" y="0" fill="#231815" font-family="'BentonSans-Thin'" font-size="12.9914">s</tspan><tspan x="123.195" y="0" fill="#231815" font-family="'BentonSans-Thin'" font-size="12.9914">ocial </tspan><tspan x="152.191" y="0" fill="#231815" font-family="'BentonSans-Thin'" font-size="12.9914">v</tspan><tspan x="158.31" y="0" fill="#231815" font-family="'BentonSans-Thin'" font-size="12.9914">alue</tspan></text>
	<text transform="matrix(1 0 0 1 380.4897 153.5039)"><tspan x="0" y="0" fill="#231815" font-family="'BentonSans-Thin'" font-size="12.9914">4</tspan><tspan x="7.405" y="0" fill="#231815" font-family="'BentonSans-Thin'" font-size="12.9914">.</tspan></text>
	<text transform="matrix(1 0 0 1 391.1953 153.5039)" fill="#231815" font-family="'BentonSans-Thin'" font-size="12.9914"> </text>
	<text transform="matrix(1 0 0 1 409.7227 153.5039)"><tspan x="0" y="0" fill="#231815" font-family="'BentonSans-Thin'" font-size="12.9914">O</tspan><tspan x="9.496" y="0" fill="#231815" font-family="'BentonSans-Thin'" font-size="12.9914">r</tspan><tspan x="13.991" y="0" fill="#231815" font-family="'BentonSans-Thin'" font-size="12.9914">g</tspan><tspan x="20.812" y="0" fill="#231815" font-family="'BentonSans-Thin'" font-size="12.9914">ani</tspan><tspan x="37.648" y="0" fill="#231815" font-family="'BentonSans-Thin'" font-size="12.9914">z</tspan><tspan x="43.702" y="0" fill="#231815" font-family="'BentonSans-Thin'" font-size="12.9914">ed clie</tspan><tspan x="79.83" y="0" fill="#231815" font-family="'BentonSans-Thin'" font-size="12.9914">n</tspan><tspan x="87.079" y="0" fill="#231815" font-family="'BentonSans-Thin'" font-size="12.9914">t me</tspan><tspan x="112.971" y="0" fill="#231815" font-family="'BentonSans-Thin'" font-size="12.9914">e</tspan><tspan x="119.804" y="0" fill="#231815" font-family="'BentonSans-Thin'" font-size="12.9914">tin</tspan><tspan x="134.328" y="0" fill="#231815" font-family="'BentonSans-Thin'" font-size="12.9914">g</tspan><tspan x="141.278" y="0" fill="#231815" font-family="'BentonSans-Thin'" font-size="12.9914">s</tspan></text>
	
		<line fill="none" stroke="#FCF133" stroke-width="3" stroke-miterlimit="10" x1="112.341" y1="195.713" x2="304.741" y2="195.713"/>
	<text transform="matrix(1 0 0 1 112.3433 195.7119)"><tspan x="0" y="0" fill="#231815" font-family="'BentonSans-Medium'" font-size="16.2392">2</tspan><tspan x="9.63" y="0" fill="#231815" font-family="'BentonSans-Medium'" font-size="16.2392">01</tspan><tspan x="27.915" y="0" fill="#231815" font-family="'BentonSans-Medium'" font-size="16.2392">8</tspan><tspan x="37.902" y="0" fill="#231815" font-family="'BentonSans-Medium'" font-size="16.2392">.12</tspan></text>
	<text transform="matrix(1 0 0 1 171.7939 195.7119)"><tspan x="0" y="0" fill="#231815" font-family="'BentonSans-Thin'" font-size="16.2392"> I</tspan><tspan x="7.242" y="0" fill="#231815" font-family="'BentonSans-Thin'" font-size="16.2392">n</tspan><tspan x="16.32" y="0" fill="#231815" font-family="'BentonSans-Thin'" font-size="16.2392">t</tspan><tspan x="21.614" y="0" fill="#231815" font-family="'BentonSans-Thin'" font-size="16.2392">erim Summary </tspan></text>
	<text transform="matrix(1 0 0 1 112.3433 218.3896)"><tspan x="0" y="0" fill="#231815" font-family="'BentonSans-Medium'" font-size="14.6153">R</tspan><tspan x="9.675" y="0" fill="#231815" font-family="'BentonSans-Medium'" font-size="14.6153">e</tspan><tspan x="17.772" y="0" fill="#231815" font-family="'BentonSans-Medium'" font-size="14.6153">s</tspan><tspan x="25.313" y="0" fill="#231815" font-family="'BentonSans-Medium'" font-size="14.6153">e</tspan><tspan x="33.439" y="0" fill="#231815" font-family="'BentonSans-Medium'" font-size="14.6153">a</tspan><tspan x="41.697" y="0" fill="#231815" font-family="'BentonSans-Medium'" font-size="14.6153">r</tspan><tspan x="47.368" y="0" fill="#231815" font-family="'BentonSans-Medium'" font-size="14.6153">ch + </tspan><tspan x="80.865" y="0" fill="#231815" font-family="'BentonSans-Medium'" font-size="14.6153">D</tspan><tspan x="91.374" y="0" fill="#231815" font-family="'BentonSans-Medium'" font-size="14.6153">e</tspan><tspan x="99.47" y="0" fill="#231815" font-family="'BentonSans-Medium'" font-size="14.6153">sign</tspan></text>
	<text transform="matrix(1 0 0 1 112.3433 234.5176)" fill="#231815" font-family="'BentonSans-Thin'" font-size="12.9914">1.</text>
	<text transform="matrix(1 0 0 1 121.125 234.5176)" fill="#231815" font-family="'BentonSans-Thin'" font-size="12.9914"> </text>
	<text transform="matrix(1 0 0 1 141.5718 234.5176)"><tspan x="0" y="0" fill="#231815" font-family="'BentonSans-Thin'" font-size="12.9914">Conduc</tspan><tspan x="45.3" y="0" fill="#231815" font-family="'BentonSans-Thin'" font-size="12.9914">t</tspan><tspan x="49.522" y="0" fill="#231815" font-family="'BentonSans-Thin'" font-size="12.9914">ed in-de</tspan><tspan x="95.498" y="0" fill="#231815" font-family="'BentonSans-Thin'" font-size="12.9914">p</tspan><tspan x="102.916" y="0" fill="#231815" font-family="'BentonSans-Thin'" font-size="12.9914">th u</tspan><tspan x="124.701" y="0" fill="#231815" font-family="'BentonSans-Thin'" font-size="12.9914">s</tspan><tspan x="131.067" y="0" fill="#231815" font-family="'BentonSans-Thin'" font-size="12.9914">er </tspan><tspan x="145.617" y="0" fill="#231815" font-family="'BentonSans-Thin'" font-size="12.9914">r</tspan><tspan x="149.787" y="0" fill="#231815" font-family="'BentonSans-Thin'" font-size="12.9914">es</tspan><tspan x="162.96" y="0" fill="#231815" font-family="'BentonSans-Thin'" font-size="12.9914">e</tspan><tspan x="169.82" y="0" fill="#231815" font-family="'BentonSans-Thin'" font-size="12.9914">a</tspan><tspan x="176.679" y="0" fill="#231815" font-family="'BentonSans-Thin'" font-size="12.9914">r</tspan><tspan x="180.836" y="0" fill="#231815" font-family="'BentonSans-Thin'" font-size="12.9914">ch</tspan></text>
	<text transform="matrix(1 0 0 1 112.3433 250.1035)" fill="#231815" font-family="'BentonSans-Thin'" font-size="12.9914">2.</text>
	<text transform="matrix(1 0 0 1 123.1367 250.1035)" fill="#231815" font-family="'BentonSans-Thin'" font-size="12.9914"> </text>
	<text transform="matrix(1 0 0 1 141.5718 250.1035)"><tspan x="0" y="0" fill="#231815" font-family="'BentonSans-Thin'" font-size="12.9914">Anal</tspan><tspan x="25.242" y="0" fill="#231815" font-family="'BentonSans-Thin'" font-size="12.9914">y</tspan><tspan x="31.568" y="0" fill="#231815" font-family="'BentonSans-Thin'" font-size="12.9914">z</tspan><tspan x="37.635" y="0" fill="#231815" font-family="'BentonSans-Thin'" font-size="12.9914">ed </tspan><tspan x="54.667" y="0" fill="#231815" font-family="'BentonSans-Thin'" font-size="12.9914">s</tspan><tspan x="61.032" y="0" fill="#231815" font-family="'BentonSans-Thin'" font-size="12.9914">ocial media i</tspan><tspan x="131.041" y="0" fill="#231815" font-family="'BentonSans-Thin'" font-size="12.9914">n</tspan><tspan x="138.225" y="0" fill="#231815" font-family="'BentonSans-Thin'" font-size="12.9914">f</tspan><tspan x="141.902" y="0" fill="#231815" font-family="'BentonSans-Thin'" font-size="12.9914">orm</tspan><tspan x="166.065" y="0" fill="#231815" font-family="'BentonSans-Thin'" font-size="12.9914">a</tspan><tspan x="172.86" y="0" fill="#231815" font-family="'BentonSans-Thin'" font-size="12.9914">tion </tspan></text>
	<text transform="matrix(1 0 0 1 141.5718 265.6973)"><tspan x="0" y="0" fill="#231815" font-family="'BentonSans-Thin'" font-size="12.9914">and multiple u</tspan><tspan x="80.259" y="0" fill="#231815" font-family="'BentonSans-Thin'" font-size="12.9914">s</tspan><tspan x="86.625" y="0" fill="#231815" font-family="'BentonSans-Thin'" font-size="12.9914">er inpu</tspan><tspan x="125.949" y="0" fill="#231815" font-family="'BentonSans-Thin'" font-size="12.9914">t</tspan><tspan x="130.404" y="0" fill="#231815" font-family="'BentonSans-Thin'" font-size="12.9914">s</tspan></text>
	<text transform="matrix(1 0 0 1 112.3433 281.2842)"><tspan x="0" y="0" fill="#231815" font-family="'BentonSans-Thin'" font-size="12.9914">3</tspan><tspan x="7.301" y="0" fill="#231815" font-family="'BentonSans-Thin'" font-size="12.9914">.</tspan></text>
	<text transform="matrix(1 0 0 1 122.9424 281.2842)" fill="#231815" font-family="'BentonSans-Thin'" font-size="12.9914"> </text>
	<text transform="matrix(1 0 0 1 141.5718 281.2842)"><tspan x="0" y="0" fill="#231815" font-family="'BentonSans-Thin'" font-size="12.9914">Applied d</tspan><tspan x="53.211" y="0" fill="#231815" font-family="'BentonSans-Thin'" font-size="12.9914">a</tspan><tspan x="60.006" y="0" fill="#231815" font-family="'BentonSans-Thin'" font-size="12.9914">t</tspan><tspan x="64.436" y="0" fill="#231815" font-family="'BentonSans-Thin'" font-size="12.9914">a visuali</tspan><tspan x="109.073" y="0" fill="#231815" font-family="'BentonSans-Thin'" font-size="12.9914">z</tspan><tspan x="115.387" y="0" fill="#231815" font-family="'BentonSans-Thin'" font-size="12.9914">a</tspan><tspan x="122.194" y="0" fill="#231815" font-family="'BentonSans-Thin'" font-size="12.9914">tion </tspan><tspan x="146.695" y="0" fill="#231815" font-family="'BentonSans-Thin'" font-size="12.9914">t</tspan><tspan x="150.917" y="0" fill="#231815" font-family="'BentonSans-Thin'" font-size="12.9914">o publish </tspan></text>
	<text transform="matrix(1 0 0 1 141.5718 296.874)"><tspan x="0" y="0" fill="#231815" font-family="'BentonSans-Thin'" font-size="12.9914">the </tspan><tspan x="21.409" y="0" fill="#231815" font-family="'BentonSans-Thin'" font-size="12.9914">r</tspan><tspan x="25.566" y="0" fill="#231815" font-family="'BentonSans-Thin'" font-size="12.9914">e</tspan><tspan x="32.387" y="0" fill="#231815" font-family="'BentonSans-Thin'" font-size="12.9914">s</tspan><tspan x="38.752" y="0" fill="#231815" font-family="'BentonSans-Thin'" font-size="12.9914">e</tspan><tspan x="45.612" y="0" fill="#231815" font-family="'BentonSans-Thin'" font-size="12.9914">a</tspan><tspan x="52.472" y="0" fill="#231815" font-family="'BentonSans-Thin'" font-size="12.9914">r</tspan><tspan x="56.628" y="0" fill="#231815" font-family="'BentonSans-Thin'" font-size="12.9914">ch </tspan><tspan x="73.387" y="0" fill="#231815" font-family="'BentonSans-Thin'" font-size="12.9914">r</tspan><tspan x="77.544" y="0" fill="#231815" font-family="'BentonSans-Thin'" font-size="12.9914">e</tspan><tspan x="84.352" y="0" fill="#231815" font-family="'BentonSans-Thin'" font-size="12.9914">sul</tspan><tspan x="100.824" y="0" fill="#231815" font-family="'BentonSans-Thin'" font-size="12.9914">t</tspan><tspan x="105.28" y="0" fill="#231815" font-family="'BentonSans-Thin'" font-size="12.9914">s</tspan></text>
	<text transform="matrix(1 0 0 1 112.3433 312.4668)"><tspan x="0" y="0" fill="#231815" font-family="'BentonSans-Thin'" font-size="12.9914">4</tspan><tspan x="7.405" y="0" fill="#231815" font-family="'BentonSans-Thin'" font-size="12.9914">.</tspan></text>
	<text transform="matrix(1 0 0 1 123.0449 312.4668)" fill="#231815" font-family="'BentonSans-Thin'" font-size="12.9914"> </text>
	<text transform="matrix(1 0 0 1 141.5718 312.4668)"><tspan x="0" y="0" fill="#231815" font-family="'BentonSans-Thin'" font-size="12.9914">P</tspan><tspan x="7.743" y="0" fill="#231815" font-family="'BentonSans-Thin'" font-size="12.9914">r</tspan><tspan x="11.9" y="0" fill="#231815" font-family="'BentonSans-Thin'" font-size="12.9914">o</tspan><tspan x="19.214" y="0" fill="#231815" font-family="'BentonSans-Thin'" font-size="12.9914">t</tspan><tspan x="23.449" y="0" fill="#231815" font-family="'BentonSans-Thin'" font-size="12.9914">o</tspan><tspan x="30.763" y="0" fill="#231815" font-family="'BentonSans-Thin'" font-size="12.9914">t</tspan><tspan x="35.102" y="0" fill="#231815" font-family="'BentonSans-Thin'" font-size="12.9914">yped the p</tspan><tspan x="94.991" y="0" fill="#231815" font-family="'BentonSans-Thin'" font-size="12.9914">r</tspan><tspan x="99.148" y="0" fill="#231815" font-family="'BentonSans-Thin'" font-size="12.9914">oduct Shinshilla </tspan><tspan x="192.086" y="0" fill="#231815" font-family="'BentonSans-Thin'" font-size="12.9914">f</tspan><tspan x="195.762" y="0" fill="#231815" font-family="'BentonSans-Thin'" font-size="12.9914">or </tspan></text>
	<text transform="matrix(1 0 0 1 141.5718 328.0537)"><tspan x="0" y="0" fill="#231815" font-family="'BentonSans-Thin'" font-size="12.9914">p</tspan><tspan x="7.301" y="0" fill="#231815" font-family="'BentonSans-Thin'" font-size="12.9914">a</tspan><tspan x="14.161" y="0" fill="#231815" font-family="'BentonSans-Thin'" font-size="12.9914">r</tspan><tspan x="19.279" y="0" fill="#231815" font-family="'BentonSans-Thin'" font-size="12.9914">tici</tspan><tspan x="35.985" y="0" fill="#231815" font-family="'BentonSans-Thin'" font-size="12.9914">p</tspan><tspan x="43.273" y="0" fill="#231815" font-family="'BentonSans-Thin'" font-size="12.9914">a</tspan><tspan x="50.068" y="0" fill="#231815" font-family="'BentonSans-Thin'" font-size="12.9914">t</tspan><tspan x="54.303" y="0" fill="#231815" font-family="'BentonSans-Thin'" font-size="12.9914">ory d</tspan><tspan x="83.247" y="0" fill="#231815" font-family="'BentonSans-Thin'" font-size="12.9914">e</tspan><tspan x="90.054" y="0" fill="#231815" font-family="'BentonSans-Thin'" font-size="12.9914">sign</tspan></text>
	<line fill="none" stroke="#FCF133" stroke-width="3" stroke-miterlimit="10" x1="380.489" y1="343.94" x2="531.771" y2="343.94"/>
	<text transform="matrix(1 0 0 1 380.4897 343.9434)"><tspan x="0" y="0" fill="#231815" font-family="'BentonSans-Medium'" font-size="16.2392">2</tspan><tspan x="9.629" y="0" fill="#231815" font-family="'BentonSans-Medium'" font-size="16.2392">0</tspan><tspan x="20.64" y="0" fill="#231815" font-family="'BentonSans-Medium'" font-size="16.2392">1</tspan><tspan x="27.85" y="0" fill="#231815" font-family="'BentonSans-Medium'" font-size="16.2392">9.</tspan><tspan x="41.393" y="0" fill="#231815" font-family="'BentonSans-Medium'" font-size="16.2392">05</tspan></text>
	<text transform="matrix(1 0 0 1 442.5557 343.9434)"><tspan x="0" y="0" fill="#231815" font-family="'BentonSans-Thin'" font-size="16.2392"> </tspan><tspan x="3.264" y="0" fill="#231815" font-family="'BentonSans-Thin'" font-size="16.2392">F</tspan><tspan x="12.114" y="0" fill="#231815" font-family="'BentonSans-Thin'" font-size="16.2392">inal </tspan><tspan x="39.752" y="0" fill="#231815" font-family="'BentonSans-Thin'" font-size="16.2392">R</tspan><tspan x="49.902" y="0" fill="#231815" font-family="'BentonSans-Thin'" font-size="16.2392">epo</tspan><tspan x="77.135" y="0" fill="#231815" font-family="'BentonSans-Thin'" font-size="16.2392">r</tspan><tspan x="83.533" y="0" fill="#231815" font-family="'BentonSans-Thin'" font-size="16.2392">t</tspan></text>
	<text transform="matrix(1 0 0 1 380.4897 366.6201)"><tspan x="0" y="0" fill="#231815" font-family="'BentonSans-Medium'" font-size="14.6153">D</tspan><tspan x="10.508" y="0" fill="#231815" font-family="'BentonSans-Medium'" font-size="14.6153">e</tspan><tspan x="18.605" y="0" fill="#231815" font-family="'BentonSans-Medium'" font-size="14.6153">sign + </tspan><tspan x="64.335" y="0" fill="#231815" font-family="'BentonSans-Medium'" font-size="14.6153">E</tspan><tspan x="73.12" y="0" fill="#231815" font-family="'BentonSans-Medium'" font-size="14.6153">xhibition</tspan></text>
	<text transform="matrix(1 0 0 1 380.4897 382.7451)" fill="#231815" font-family="'BentonSans-Thin'" font-size="12.9914">1.</text>
	<text transform="matrix(1 0 0 1 389.2725 382.7451)" fill="#231815" font-family="'BentonSans-Thin'" font-size="12.9914"> </text>
	<text transform="matrix(1 0 0 1 409.7227 382.7451)"><tspan x="0" y="0" fill="#231815" font-family="'BentonSans-Thin'" font-size="12.9914">A</tspan><tspan x="8.405" y="0" fill="#231815" font-family="'BentonSans-Thin'" font-size="12.9914">s</tspan><tspan x="14.758" y="0" fill="#231815" font-family="'BentonSans-Thin'" font-size="12.9914">si</tspan><tspan x="23.917" y="0" fill="#231815" font-family="'BentonSans-Thin'" font-size="12.9914">s</tspan><tspan x="30.282" y="0" fill="#231815" font-family="'BentonSans-Thin'" font-size="12.9914">t</tspan><tspan x="34.518" y="0" fill="#231815" font-family="'BentonSans-Thin'" font-size="12.9914">ed o</tspan><tspan x="58.915" y="0" fill="#231815" font-family="'BentonSans-Thin'" font-size="12.9914">r</tspan><tspan x="63.396" y="0" fill="#231815" font-family="'BentonSans-Thin'" font-size="12.9914">g</tspan><tspan x="70.217" y="0" fill="#231815" font-family="'BentonSans-Thin'" font-size="12.9914">anizing </tspan><tspan x="113.321" y="0" fill="#231815" font-family="'BentonSans-Thin'" font-size="12.9914">e</tspan><tspan x="119.908" y="0" fill="#231815" font-family="'BentonSans-Thin'" font-size="12.9914">xhibition l</tspan><tspan x="173.678" y="0" fill="#231815" font-family="'BentonSans-Thin'" font-size="12.9914">a</tspan><tspan x="180.303" y="0" fill="#231815" font-family="'BentonSans-Thin'" font-size="12.9914">y</tspan><tspan x="186.604" y="0" fill="#231815" font-family="'BentonSans-Thin'" font-size="12.9914">out</tspan></text>
	<text transform="matrix(1 0 0 1 380.4897 398.3379)" fill="#231815" font-family="'BentonSans-Thin'" font-size="12.9914">2.</text>
	<text transform="matrix(1 0 0 1 391.2852 398.3379)" fill="#231815" font-family="'BentonSans-Thin'" font-size="12.9914"> </text>
	<text transform="matrix(1 0 0 1 409.7227 398.3379)"><tspan x="0" y="0" fill="#231815" font-family="'BentonSans-Thin'" font-size="12.9914">D</tspan><tspan x="8.847" y="0" fill="#231815" font-family="'BentonSans-Thin'" font-size="12.9914">e</tspan><tspan x="15.654" y="0" fill="#231815" font-family="'BentonSans-Thin'" font-size="12.9914">signed i</tspan><tspan x="59.019" y="0" fill="#231815" font-family="'BentonSans-Thin'" font-size="12.9914">n</tspan><tspan x="66.268" y="0" fill="#231815" font-family="'BentonSans-Thin'" font-size="12.9914">t</tspan><tspan x="70.503" y="0" fill="#231815" font-family="'BentonSans-Thin'" font-size="12.9914">er</tspan><tspan x="82.441" y="0" fill="#231815" font-family="'BentonSans-Thin'" font-size="12.9914">f</tspan><tspan x="86.145" y="0" fill="#231815" font-family="'BentonSans-Thin'" font-size="12.9914">a</tspan><tspan x="93.004" y="0" fill="#231815" font-family="'BentonSans-Thin'" font-size="12.9914">c</tspan><tspan x="99.629" y="0" fill="#231815" font-family="'BentonSans-Thin'" font-size="12.9914">e </tspan><tspan x="109.178" y="0" fill="#231815" font-family="'BentonSans-Thin'" font-size="12.9914">f</tspan><tspan x="112.867" y="0" fill="#231815" font-family="'BentonSans-Thin'" font-size="12.9914">or </tspan><tspan x="127.846" y="0" fill="#231815" font-family="'BentonSans-Thin'" font-size="12.9914">w</tspan><tspan x="137.329" y="0" fill="#231815" font-family="'BentonSans-Thin'" font-size="12.9914">or</tspan><tspan x="149.696" y="0" fill="#231815" font-family="'BentonSans-Thin'" font-size="12.9914">k</tspan><tspan x="156.153" y="0" fill="#231815" font-family="'BentonSans-Thin'" font-size="12.9914">shop d</tspan><tspan x="194.905" y="0" fill="#231815" font-family="'BentonSans-Thin'" font-size="12.9914">a</tspan><tspan x="201.7" y="0" fill="#231815" font-family="'BentonSans-Thin'" font-size="12.9914">t</tspan><tspan x="206.13" y="0" fill="#231815" font-family="'BentonSans-Thin'" font-size="12.9914">a </tspan></text>
	<text transform="matrix(1 0 0 1 409.7227 413.9248)"><tspan x="0" y="0" fill="#231815" font-family="'BentonSans-Thin'" font-size="12.9914">c</tspan><tspan x="6.625" y="0" fill="#231815" font-family="'BentonSans-Thin'" font-size="12.9914">ollection</tspan></text>
	<text transform="matrix(1 0 0 1 380.4897 429.5137)"><tspan x="0" y="0" fill="#231815" font-family="'BentonSans-Thin'" font-size="12.9914">3</tspan><tspan x="7.288" y="0" fill="#231815" font-family="'BentonSans-Thin'" font-size="12.9914">.</tspan></text>
	<text transform="matrix(1 0 0 1 391.0898 429.5137)" fill="#231815" font-family="'BentonSans-Thin'" font-size="12.9914"> </text>
	<text transform="matrix(1 0 0 1 409.7227 429.5137)"><tspan x="0" y="0" fill="#231815" font-family="'BentonSans-Thin'" font-size="12.9914">Unde</tspan><tspan x="30.958" y="0" fill="#231815" font-family="'BentonSans-Thin'" font-size="12.9914">r</tspan><tspan x="35.7" y="0" fill="#231815" font-family="'BentonSans-Thin'" font-size="12.9914">s</tspan><tspan x="42.065" y="0" fill="#231815" font-family="'BentonSans-Thin'" font-size="12.9914">t</tspan><tspan x="46.495" y="0" fill="#231815" font-family="'BentonSans-Thin'" font-size="12.9914">anding mar</tspan><tspan x="111.594" y="0" fill="#231815" font-family="'BentonSans-Thin'" font-size="12.9914">k</tspan><tspan x="117.855" y="0" fill="#231815" font-family="'BentonSans-Thin'" font-size="12.9914">e</tspan><tspan x="124.793" y="0" fill="#231815" font-family="'BentonSans-Thin'" font-size="12.9914" letter-spacing="-1">r</tspan><tspan x="128.443" y="0" fill="#231815" font-family="'BentonSans-Thin'" font-size="12.9914" letter-spacing="-1">/</tspan><tspan x="133.64" y="0" fill="#231815" font-family="'BentonSans-Thin'" font-size="12.9914">s</tspan><tspan x="140.006" y="0" fill="#231815" font-family="'BentonSans-Thin'" font-size="12.9914">ocial </tspan><tspan x="169.002" y="0" fill="#231815" font-family="'BentonSans-Thin'" font-size="12.9914">v</tspan><tspan x="175.12" y="0" fill="#231815" font-family="'BentonSans-Thin'" font-size="12.9914">alue</tspan></text>
	<text transform="matrix(1 0 0 1 380.4897 445.1045)"><tspan x="0" y="0" fill="#231815" font-family="'BentonSans-Thin'" font-size="12.9914">4</tspan><tspan x="7.405" y="0" fill="#231815" font-family="'BentonSans-Thin'" font-size="12.9914">.</tspan></text>
	<text transform="matrix(1 0 0 1 391.1953 445.1045)" fill="#231815" font-family="'BentonSans-Thin'" font-size="12.9914"> </text>
	<text transform="matrix(1 0 0 1 409.7227 445.1045)"><tspan x="0" y="0" fill="#231815" font-family="'BentonSans-Thin'" font-size="12.9914">O</tspan><tspan x="9.496" y="0" fill="#231815" font-family="'BentonSans-Thin'" font-size="12.9914">r</tspan><tspan x="13.991" y="0" fill="#231815" font-family="'BentonSans-Thin'" font-size="12.9914">g</tspan><tspan x="20.812" y="0" fill="#231815" font-family="'BentonSans-Thin'" font-size="12.9914">anizing clie</tspan><tspan x="83.013" y="0" fill="#231815" font-family="'BentonSans-Thin'" font-size="12.9914">n</tspan><tspan x="90.262" y="0" fill="#231815" font-family="'BentonSans-Thin'" font-size="12.9914">t me</tspan><tspan x="116.153" y="0" fill="#231815" font-family="'BentonSans-Thin'" font-size="12.9914">e</tspan><tspan x="122.986" y="0" fill="#231815" font-family="'BentonSans-Thin'" font-size="12.9914">tin</tspan><tspan x="137.511" y="0" fill="#231815" font-family="'BentonSans-Thin'" font-size="12.9914">g</tspan><tspan x="144.461" y="0" fill="#231815" font-family="'BentonSans-Thin'" font-size="12.9914">s</tspan></text>
	<g>
		<defs>
			<rect id="SVGID_3_" x="97.726" y="27.559" width="568.731" height="421.883"/>
		</defs>
		<clipPath id="SVGID_4_">
			<use xlink:href="#SVGID_3_"  overflow="visible"/>
		</clipPath>
		<path clip-path="url(#SVGID_4_)" fill="#FFFFFF" d="M370.583,185.957c2.415,0,4.373-1.957,4.373-4.373
			c0-2.415-1.958-4.374-4.373-4.374c-2.416,0-4.373,1.958-4.373,4.374C366.21,184,368.167,185.957,370.583,185.957"/>
		<circle clip-path="url(#SVGID_4_)" fill="none" stroke="#231815" cx="370.583" cy="181.584" r="4.373"/>
		<path clip-path="url(#SVGID_4_)" fill="#FFFFFF" d="M370.583,334.116c2.415,0,4.373-1.959,4.373-4.375
			c0-2.414-1.958-4.371-4.373-4.371c-2.416,0-4.373,1.957-4.373,4.371C366.21,332.157,368.167,334.116,370.583,334.116"/>
		<circle clip-path="url(#SVGID_4_)" fill="none" stroke="#231815" cx="370.583" cy="329.743" r="4.373"/>
	</g>
</g>
</svg>
