<?xml version="1.0" encoding="utf-8"?>
<!-- Generator: Adobe Illustrator 16.0.0, SVG Export Plug-In . SVG Version: 6.00 Build 0)  -->
<!DOCTYPE svg PUBLIC "-//W3C//DTD SVG 1.1//EN" "http://www.w3.org/Graphics/SVG/1.1/DTD/svg11.dtd">
<svg version="1.1" id="图层_1" xmlns="http://www.w3.org/2000/svg" xmlns:xlink="http://www.w3.org/1999/xlink" x="0px" y="0px"
	 width="1133.859px" height="1133.859px" viewBox="0 0 1133.859 1133.859" enable-background="new 0 0 1133.859 1133.859"
	 xml:space="preserve">
<title>Asset 2</title>
<g>
	<path fill-rule="evenodd" clip-rule="evenodd" d="M185.148,957.543c0-9.532,0-16.461,0-23.393
		c0-267.783,0.219-535.572-0.44-803.353c-0.049-19.974,5.681-24.737,24.313-24.592c110.021,0.848,220.057,0.855,330.077-0.004
		c18.536-0.146,22.912,5.81,22.873,24.177c-0.541,267.781-0.525,535.568-0.025,803.353c0.033,17.9-3.492,24.46-22.534,24.29
		c-110.707-0.981-221.428-0.479-332.143-0.479C201.172,957.543,195.079,957.543,185.148,957.543z M339.585,404.687
		c-1.865-0.676-3.732-1.353-5.598-2.03c0-9.152,1.318-18.59-0.455-27.362c-1.23-6.079-6.299-15.657-10.389-16.082
		c-21.479-2.212-43.273-3.259-64.77-1.786c-5.53,0.378-14.111,10.929-14.817,17.54c-1.922,17.963-1.46,36.437,0.382,54.453
		c0.662,6.479,7.641,17.17,12.281,17.491c22.084,1.507,45.533,4.16,66.011-2.148C331.102,442.031,333.985,418.676,339.585,404.687z
		 M333.896,231.944c0-9.856,2.169-20.451-0.68-29.339c-2.316-7.227-9.981-16.58-16.448-17.681
		c-16.655-2.837-34.062-2.857-50.959-1.417c-6.973,0.595-18.829,7.377-19.18,12.079c-1.74,23.305-4.313,47.867,1.072,70.012
		c4.75,19.525,26.573,12.344,41.505,12.569C332.017,278.814,334.735,275.621,333.896,231.944z M506.741,406.437
		c-1.787-0.794-3.575-1.591-5.362-2.384c0-7.768-0.057-15.534,0.009-23.3c0.24-28.215-20.906-25.336-37.919-26.794
		c-35.537-3.044-51.381,3.102-53.227,21.506c-1.751,17.443-1.082,35.306,0.295,52.839c0.489,6.2,5.813,16.808,9.602,17.133
		c22.737,1.956,46.586,5.369,68.091-0.034C496.955,443.209,500.719,420.056,506.741,406.437z M339.269,578.515
		c-1.568-0.638-3.14-1.278-4.71-1.918c0-7.753,0.087-15.507-0.017-23.259c-0.27-20.163-12.321-28.504-29.542-26.052
		c-21.97,3.127-52.959-15.097-62.066,22.137c-3.713,15.174-1.807,32.291,0.037,48.225c0.858,7.421,7.198,19.785,11.838,20.185
		c22.614,1.936,46.344,4.106,67.84-1.412C330.744,614.341,333.876,591.756,339.269,578.515z M501.58,231.183
		c-0.008-47.143-2.199-49.353-48.954-49.377c-0.686,0-1.369,0-2.054,0.004c-35.577,0.199-41.056,5.932-41.115,43.161
		c-0.017,9.167-0.451,18.383,0.351,27.478c1.334,15.16,8.904,26.718,24.536,25.314c22.437-2.014,48.809,11.621,65.805-15.08
		c1.675-2.634,1.244-6.853,1.336-10.351C501.667,245.289,501.539,238.231,501.58,231.183z M506.211,578.93
		c-1.549-0.671-3.094-1.345-4.64-2.019c0-4.962,0.06-9.921-0.011-14.884c-0.414-29.319-5.534-34.66-33.681-35.22
		c-57.805-1.151-70.757,15.422-57.679,73.928c0.607,2.729,1.504,5.562,2.968,7.875c2.206,3.473,4.944,9.241,7.61,9.332
		c22.905,0.798,46.651,4.059,68.355-1.225C497.263,614.737,500.658,592.13,506.211,578.93z"/>
	<path fill-rule="evenodd" clip-rule="evenodd" d="M741.011,423.108c0-63.581-0.249-123.008,0.502-182.426
		c0.058-4.48,7.22-12.696,11.123-12.725c63.928-0.457,127.861,0.111,191.793,0.564c1.137,0.008,2.265,1.413,5.314,3.44
		c0,5.662,0,12.58,0,19.5c0,227.463-0.245,454.937,0.438,682.4c0.061,19.546-4.771,26.539-23.935,24.882
		c-18.444-1.595-37.195-1.429-55.667-0.029c-16.809,1.271-20.76-5.461-20.643-21.832c0.667-93.534,0.322-187.074,0.322-280.611
		c-0.002-63.777,0.1-127.552-0.044-191.33c-0.081-35.213-6.753-41.832-40.955-41.832
		C787.412,423.108,765.566,423.108,741.011,423.108z"/>
	<path fill-rule="evenodd" clip-rule="evenodd" d="M611.458,956.296c0-160.94,0-320.734,0-481.725c63.208,0,125.406,0,188.806,0
		c0,160.559,0,320.345,0,481.725C738.255,956.296,676.117,956.296,611.458,956.296z"/>
	<path fill-rule="evenodd" clip-rule="evenodd" d="M93.151,1027.659c0-5.989,0-11.334,0-18.166c315.642,0,631.048,0,947.558,0
		c0,5.964,0,11.3,0,18.166C724.988,1027.659,409.591,1027.659,93.151,1027.659z"/>
	<path fill-rule="evenodd" clip-rule="evenodd" fill="#EEE415" d="M339.585,404.687c-5.601,13.989-8.483,37.344-17.354,40.076
		c-20.478,6.309-43.927,3.655-66.011,2.148c-4.641-0.321-11.619-11.012-12.281-17.491c-1.842-18.016-2.304-36.49-0.382-54.453
		c0.706-6.611,9.287-17.162,14.817-17.54c21.496-1.474,43.291-0.427,64.77,1.786c4.09,0.425,9.158,10.003,10.389,16.082
		c1.773,8.772,0.455,18.21,0.455,27.362C335.853,403.334,337.72,404.011,339.585,404.687z"/>
	<path fill-rule="evenodd" clip-rule="evenodd" fill="#EEE415" d="M333.896,231.944c0.839,43.677-1.879,46.871-44.689,46.223
		c-14.932-0.225-36.755,6.956-41.505-12.569c-5.385-22.145-2.813-46.707-1.072-70.012c0.351-4.702,12.207-11.484,19.18-12.079
		c16.897-1.44,34.304-1.42,50.959,1.417c6.467,1.101,14.132,10.454,16.448,17.681C336.065,211.493,333.896,222.087,333.896,231.944z
		"/>
	<path fill-rule="evenodd" clip-rule="evenodd" fill="#EEE415" d="M506.741,406.437c-6.021,13.619-9.786,36.772-18.512,38.966
		c-21.505,5.403-45.354,1.99-68.091,0.034c-3.788-0.325-9.112-10.933-9.602-17.133c-1.377-17.533-2.046-35.396-0.295-52.839
		c1.846-18.404,17.689-24.55,53.227-21.506c17.013,1.458,38.159-1.421,37.919,26.794c-0.065,7.766-0.009,15.532-0.009,23.3
		C503.166,404.846,504.954,405.643,506.741,406.437z"/>
	<path fill-rule="evenodd" clip-rule="evenodd" fill="#EEE415" d="M339.269,578.515c-5.393,13.241-8.525,35.826-16.62,37.904
		c-21.496,5.519-45.226,3.348-67.84,1.412c-4.64-0.399-10.979-12.764-11.838-20.185c-1.844-15.934-3.75-33.05-0.037-48.225
		c9.107-37.234,40.097-19.009,62.066-22.137c17.221-2.452,29.272,5.889,29.542,26.052c0.104,7.752,0.017,15.506,0.017,23.259
		C336.129,577.237,337.701,577.877,339.269,578.515z"/>
	<path fill-rule="evenodd" clip-rule="evenodd" fill="#EEE415" d="M501.559,231.183c-0.021,7.048,0.108,14.105-0.075,21.149
		c-0.092,3.498,0.339,7.717-1.336,10.351c-16.996,26.701-43.368,13.065-65.805,15.08c-15.632,1.404-23.202-10.154-24.536-25.314
		c-0.802-9.095-0.367-18.312-0.351-27.478c0.06-37.229,5.538-42.962,41.115-43.161c0.685-0.004,1.368-0.004,2.054-0.004
		C499.38,181.83,501.572,184.04,501.559,231.183z"/>
	<path fill-rule="evenodd" clip-rule="evenodd" fill="#EEE415" d="M506.211,578.93c-5.554,13.2-8.948,35.807-17.076,37.788
		c-21.704,5.283-45.45,2.022-68.355,1.225c-2.666-0.091-5.404-5.859-7.61-9.332c-1.464-2.313-2.36-5.146-2.968-7.875
		c-13.078-58.506-0.126-75.08,57.679-73.928c28.146,0.561,33.267,5.901,33.681,35.22c0.07,4.962,0.011,9.922,0.011,14.884
		C503.118,577.585,504.663,578.259,506.211,578.93z"/>
</g>
</svg>
