<?xml version="1.0" encoding="utf-8"?>
<!-- Generator: Adobe Illustrator 16.0.0, SVG Export Plug-In . SVG Version: 6.00 Build 0)  -->
<!DOCTYPE svg PUBLIC "-//W3C//DTD SVG 1.1//EN" "http://www.w3.org/Graphics/SVG/1.1/DTD/svg11.dtd">
<svg version="1.1" id="图层_1" xmlns="http://www.w3.org/2000/svg" xmlns:xlink="http://www.w3.org/1999/xlink" x="0px" y="0px"
	 width="792px" height="477px" viewBox="0 0 792 477" enable-background="new 0 0 792 477" xml:space="preserve">
<g>
	<g>
		<path fill-rule="evenodd" clip-rule="evenodd" d="M400.747,367.265c-22.624-0.001-45.248-0.067-67.872,0.023
			c-13.62,0.055-25.632-3.756-35.48-13.556c-23.904-23.789-19.255-68.475,14.225-82.068c4.888-1.984,7.083-4.222,7.979-9.727
			c3.753-23.045,17.649-37.778,40.045-43.345c22.827-5.673,42.123,1.226,56.845,19.809c1.753,2.213,3.191,2.805,5.983,2.25
			c30.831-6.11,58.171,16.291,59.895,44.793c0.145,2.381,1.553,2.897,3.213,3.58c12.811,5.266,20.809,14.704,23.217,28.293
			c4.136,23.351-8.091,44.091-30.66,49.101c-3.692,0.82-7.615,0.801-11.434,0.813C444.718,367.302,422.732,367.266,400.747,367.265z
			"/>
	</g>
	<text transform="matrix(1 0 0 1 349.5786 303.582)"><tspan x="0" y="0" fill="#FFFFFF" font-family="'BentonSans-Medium'" font-size="22.0583">Platform</tspan><tspan x="4.491" y="21.6" fill="#F2E92F" font-family="'BentonSans-Medium'" font-size="18">Shinshilla</tspan></text>
</g>
<g>
	<path fill-rule="evenodd" clip-rule="evenodd" fill="#FFFFFF" d="M288.543,259.204c0,0-19.043-76.729-111.573-65"/>
	<g>
		<path fill="none" stroke="#000000" stroke-width="4" stroke-miterlimit="10" d="M287.936,257.126
			c-3.861-12.188-27.557-73.494-110.966-62.922"/>
		<g>
			<polygon points="293.479,248.254 291.655,247.43 287.606,256.422 278.933,251.726 277.981,253.486 288.545,259.203 			"/>
		</g>
	</g>
</g>
<g>
	<path fill-rule="evenodd" clip-rule="evenodd" fill="#FFFFFF" d="M425.325,225.765c0,0,2.156-96.901,106.175-85.289"/>
	<g>
		<path fill="none" stroke="#000000" stroke-width="4" stroke-miterlimit="10" d="M425.447,223.604
			c1.07-14.239,11.299-93.707,106.053-83.128"/>
		<g>
			<polygon points="434.295,217.776 432.965,216.28 425.603,222.841 419.596,215.019 418.01,216.24 425.327,225.765 			"/>
		</g>
	</g>
</g>
<g>
	<path fill-rule="evenodd" clip-rule="evenodd" fill="#FFFFFF" d="M495.577,279.084c0,0,58.901-52.533,140.354,13.195"/>
	<g>
		<path fill="none" stroke="#000000" stroke-width="4" stroke-miterlimit="10" d="M497.257,277.718
			c10.143-7.836,65.245-44.693,138.674,14.562"/>
		<g>
			<polygon points="507.513,280.428 507.738,278.438 497.938,277.338 499.752,267.645 497.784,267.277 495.578,279.085 			"/>
		</g>
	</g>
</g>
<g>
	<text transform="matrix(1 0 0 1 542.1113 175.5986)" font-family="'BentonSans-Medium'" font-size="18">Citizen</text>
	
		<image overflow="visible" width="188" height="146" xlink:href="DCD3CD13.png"  transform="matrix(0.3431 0 0 0.3437 539.75 103.4199)">
	</image>
</g>
<g>
	<defs>
		<rect id="SVGID_1_" x="646.097" y="264.276" width="53.807" height="56.007"/>
	</defs>
	<clipPath id="SVGID_2_">
		<use xlink:href="#SVGID_1_"  overflow="visible"/>
	</clipPath>
	<g clip-path="url(#SVGID_2_)">
		<defs>
			<rect id="SVGID_3_" x="646.097" y="264.276" width="53.807" height="56.007"/>
		</defs>
		<clipPath id="SVGID_4_">
			<use xlink:href="#SVGID_3_"  overflow="visible"/>
		</clipPath>
		<g transform="matrix(1 0 0 1 -4.815636e-006 3.149200e-006)" clip-path="url(#SVGID_4_)">
			
				<image overflow="visible" width="160" height="166" xlink:href="DCD3CD16.png"  transform="matrix(0.3363 0 0 0.3374 646.0967 264.2764)">
			</image>
		</g>
	</g>
</g>
<text transform="matrix(1 0 0 1 619.9814 344.5986)" font-family="'BentonSans-Medium'" font-size="18">Government</text>
<g>
	<g>
		<g>
			<defs>
				<rect id="SVGID_5_" x="103.333" y="148.809" width="60.107" height="69.742"/>
			</defs>
			<clipPath id="SVGID_6_">
				<use xlink:href="#SVGID_5_"  overflow="visible"/>
			</clipPath>
			<path clip-path="url(#SVGID_6_)" fill="#346868" d="M135.367,167.014v3.598c0.908,0,1.709-0.042,2.502,0.011
				c0.885,0.061,1.16-0.288,1.133-1.128c-0.091-2.986,0.432-2.487-2.598-2.539C136.096,166.951,135.788,166.988,135.367,167.014
				 M131.386,170.54c0.192-4.31,0.666-3.561-3.312-3.525c-0.071,0-0.139,0.085-0.248,0.155v3.371H131.386z M120.327,170.533h3.553
				v-3.504h-3.553V170.533z M138.982,163.204c0-1.006,0.049-1.947-0.034-2.879c-0.022-0.249-0.442-0.642-0.706-0.666
				c-0.953-0.08-1.916-0.031-2.912-0.031v3.575H138.982z M127.802,163.189h3.609v-3.453h-3.609V163.189z M120.339,163.191h3.578
				v-3.485h-3.578V163.191z M146.381,152.492h-3.547v3.454h3.547V152.492z M138.882,196.228h-3.549v3.473h3.549V196.228z
				 M135.377,192.337h3.525v-3.49h-3.525V192.337z M138.898,181.598h-3.541v3.515h3.541V181.598z M138.911,174.299h-3.565v3.468
				h3.565V174.299z M135.333,155.967h3.554v-3.492h-3.554V155.967z M131.416,188.854h-3.572v3.513h3.572V188.854z M127.808,185.048
				h3.582v-3.439h-3.582V185.048z M131.416,196.244h-3.565v3.479h3.565V196.244z M131.451,174.3h-3.62v3.438h3.62V174.3z
				 M131.399,152.453h-3.557v3.514h3.557V152.453z M123.874,152.47h-3.532v3.529h3.532V152.47z M142.955,218.456h-7.651v-10.752
				h-3.738v10.761h-7.505v-44.231h-7.438v-25.425h33.484v10.186h-7.152V218.456z"/>
		</g>
		<path fill="#346868" d="M148.6,193.78h3.599v3.343H148.6V193.78z M156.068,193.771h3.625v3.383h-3.625V193.771z M156.081,186.399
			h3.622v3.496h-3.622V186.399z M148.615,186.388h3.541v3.52h-3.541V186.388z M156.047,179.194h3.652v3.458h-3.652V179.194z
			 M148.588,179.176h3.587v3.498h-3.587V179.176z M148.584,171.86h3.575v3.47h-3.575V171.86z M156.072,171.835h3.604v3.505h-3.604
			V171.835z M156.035,164.561h3.647v3.488h-3.647V164.561z M148.627,164.498h3.541v3.549h-3.541V164.498z M144.801,160.902v57.55
			h7.522v-7.063h3.681v7.065h7.437v-57.552H144.801z"/>
		<g>
			<defs>
				<rect id="SVGID_7_" x="103.333" y="148.809" width="60.107" height="69.742"/>
			</defs>
			<clipPath id="SVGID_8_">
				<use xlink:href="#SVGID_7_"  overflow="visible"/>
			</clipPath>
			<path clip-path="url(#SVGID_8_)" fill="#346868" d="M107.205,190.534h3.572v-3.458h-3.572V190.534z M107.211,183.252h3.524
				v-3.502h-3.524V183.252z M118.321,194.41c-3.563-0.583-3.922-0.282-3.691,2.973c0.008,0.122,0.07,0.241,0.128,0.435h3.563V194.41
				z M110.75,197.915v-3.665c-0.675,0-1.248,0-1.822,0c-1.815,0-1.821,0-1.815,1.748c0.006,2.206-0.176,1.894,2.035,1.917
				C109.671,197.92,110.192,197.915,110.75,197.915 M118.314,187.086h-3.612v3.419h3.612V187.086z M114.685,183.245h3.596v-3.439
				h-3.596V183.245z M122.02,218.47h-7.37v-7.105h-3.761v7.183c-2.396,0-4.627,0.019-6.856-0.03
				c-0.226-0.004-0.542-0.375-0.638-0.637c-0.115-0.31-0.037-0.688-0.037-1.037c0-13.048,0-26.097,0-39.146v-1.616h18.662V218.47z"
				/>
		</g>
	</g>
	<text transform="matrix(1 0 0 1 95.4331 237.1606)"><tspan x="0" y="0" font-family="'BentonSans-Medium'" font-size="14">Real Estate</tspan><tspan x="4.088" y="16.8" font-family="'BentonSans-Medium'" font-size="14">Developer</tspan></text>
</g>
<g>
	<text transform="matrix(1 0 0 1 383.1104 148)"><tspan x="0" y="0" fill="#72838C" font-family="'BentonSans-Medium'" font-size="14">Citizen’s</tspan><tspan x="-1.729" y="16.8" fill="#72838C" font-family="'BentonSans-Medium'" font-size="14">feedback</tspan></text>
</g>
<g>
	<text transform="matrix(1 0 0 1 227.9756 169)"><tspan x="0" y="0" fill="#72838C" font-family="'BentonSans-Medium'" font-size="14">Project</tspan><tspan x="-15.155" y="16.8" fill="#72838C" font-family="'BentonSans-Medium'" font-size="14">information</tspan></text>
</g>
<g>
	<text transform="matrix(1 0 0 1 545.3701 233)"><tspan x="0" y="0" fill="#72838C" font-family="'BentonSans-Medium'" font-size="14">Urban</tspan><tspan x="5.376" y="16.8" fill="#72838C" font-family="'BentonSans-Medium'" font-size="14">data</tspan></text>
</g>
</svg>
