<?xml version="1.0" encoding="utf-8"?>
<!-- Generator: Adobe Illustrator 16.0.0, SVG Export Plug-In . SVG Version: 6.00 Build 0)  -->
<!DOCTYPE svg PUBLIC "-//W3C//DTD SVG 1.1//EN" "http://www.w3.org/Graphics/SVG/1.1/DTD/svg11.dtd">
<svg version="1.1" id="图层_1" xmlns="http://www.w3.org/2000/svg" xmlns:xlink="http://www.w3.org/1999/xlink" x="0px" y="0px"
	 width="1133.859px" height="1133.859px" viewBox="0 0 1133.859 1133.859" enable-background="new 0 0 1133.859 1133.859"
	 xml:space="preserve">
<title>Asset 2</title>
<g>
	<path fill-rule="evenodd" clip-rule="evenodd" d="M848.928,232.464c-40.273,38.922-79.388,77.081-119.176,114.528
		c-3.176,2.991-12.506,3.528-16.375,1.085c-74.858-47.272-154.696-54.334-238.164-29.606
		c-50.58,14.986-91.894,45.095-123.733,86.443c-52.321,67.947-71.212,144.823-49.487,228.568
		c26.713,102.957,93.812,166.746,196.718,192.75c27.07,6.84,27.224,6.24,27.228,33.25c0.002,43.467-0.518,86.939,0.296,130.389
		c0.258,13.891-4.037,17.313-17.468,15.875c-66.578-7.111-126.724-31.795-181.976-68.09
		C222.521,869.162,158.129,772.16,135.638,650.22c-23.106-125.296,5.024-240.77,80.399-344.202
		c61.446-84.319,144.54-136.976,244.217-163.075c138.762-36.334,264.783-6.096,379.051,78.4
		C841.608,223.046,843.178,225.747,848.928,232.464z"/>
	<path fill-rule="evenodd" clip-rule="evenodd" d="M613.912,1005.226c0-56.152-0.404-110.82,0.769-165.447
		c0.097-4.41,10.474-10.842,17.056-12.527c75.417-19.33,133.688-61.453,170.646-130.217c11.946-22.227,18.018-47.564,27.642-71.131
		c1.953-4.785,7.732-11.352,11.828-11.406c54.72-0.762,109.451-0.512,164.23-0.512C997.321,798.46,830.146,989.583,613.912,1005.226
		z"/>
	<path fill-rule="evenodd" clip-rule="evenodd" fill="#EEE415" d="M911.066,295.208c53.658,65.528,85.062,142.268,94.66,229.855
		c-59.796,0-117.254,0-170.203,0c-16.002-35.409-31.208-68.62-45.821-102.088c-1.431-3.266-0.781-9.721,1.545-12
		C830.638,372.418,870.451,334.292,911.066,295.208z"/>
</g>
</svg>
