<?xml version="1.0" encoding="utf-8"?>
<!-- Generator: Adobe Illustrator 16.0.0, SVG Export Plug-In . SVG Version: 6.00 Build 0)  -->
<!DOCTYPE svg PUBLIC "-//W3C//DTD SVG 1.1//EN" "http://www.w3.org/Graphics/SVG/1.1/DTD/svg11.dtd">
<svg version="1.1" id="图层_1" xmlns="http://www.w3.org/2000/svg" xmlns:xlink="http://www.w3.org/1999/xlink" x="0px" y="0px"
	 width="1133.859px" height="1133.859px" viewBox="0 0 1133.859 1133.859" enable-background="new 0 0 1133.859 1133.859"
	 xml:space="preserve">
<title>Asset 2</title>
<title>Asset 2</title>
<title>Asset 2</title>
<g>
	<path fill-rule="evenodd" clip-rule="evenodd" d="M762.958,798.07c0,27.27,0.054,54.538-0.021,81.808
		c-0.043,16.068-3.657,19.639-19.92,19.641c-141.18,0.028-282.36,0.072-423.541-0.041c-21.448-0.019-28.624,5.92-29.558-26.074
		c-59.953-26.983-71.466-65.803-32.205-112.442c-13.965-12.651-22.312-28.702-22.389-47.811
		c-0.076-19.281,8.016-35.504,22.263-48.379c-29.813-38.618-29.884-65.304,0.426-98c-14.242-12.479-22.542-28.546-22.673-47.63
		c-0.132-19.226,7.731-35.515,22.809-49.119c-14.355-13.222-22.801-29.252-22.828-48.425c-0.027-19.211,8.027-35.422,19.949-46.184
		c-6.669-14.365-15.135-26.735-18.173-40.319c-7.099-31.73,12.522-62.127,43.889-70.785c6.759-1.865,9.95-3.799,9.797-11.571
		c-0.298-14.989,4.189-18.766,19.68-18.769c143.801-0.015,287.603-0.013,431.407-0.005c16.957,0.003,21.07,4.085,21.073,21.228
		c0.028,123.953-0.08,247.909,0.271,371.862c0.02,6.957,2.235,14.843,5.934,20.717c40.845,64.917,82.191,129.519,123.389,194.212
		c10.07,15.813,9.019,20.36-7.027,30.627c-12.285,7.864-24.484,15.868-36.903,23.519c-10.144,6.253-17.226,4.674-23.672-5.34
		c-17.816-27.686-35.435-55.499-53.15-83.249c-2.178-3.416-4.473-6.756-6.711-10.129C764.366,797.629,763.664,797.85,762.958,798.07
		z M528.306,530.848c0.458,0.57,0.917,1.142,1.376,1.712c27.722-15.353,55.538-30.541,83.11-46.16
		c8.61-4.877,15.67-4.638,23.547,1.732c16.588,13.417,33.897,25.937,50.521,39.307c5.704,4.588,11.024,10.084,15.162,16.098
		c10.467,15.212,20.162,30.956,31.89,49.163c0.443-6.502,0.851-9.682,0.853-12.865c0.033-102.244-0.086-204.488,0.214-306.73
		c0.028-9.275-2.523-11.967-11.922-11.944c-131.084,0.298-262.164,0.197-393.246,0.228c-3.54,0.003-7.079,0.397-10.62,0.61
		c2.378,4.094,5.37,5.827,8.376,7.539c19.301,10.987,30.394,27.664,32.127,49.633c0.425,5.386-2.418,12.905-6.421,16.361
		c-7.925,6.847-18.851,0.425-20.676-11.456c-1.523-9.91-3.097-19.548-14.247-25.882c0,20.462-0.293,39.498,0.307,58.506
		c0.093,2.97,3.655,6.896,6.63,8.531c19.371,10.645,31.089,26.443,34.371,48.39c1.832,12.249-1.914,19.559-10.913,21.16
		c-9.129,1.624-14.55-3.773-16.523-16.397c-1.379-8.834-3.835-17.05-13.885-23.317c0,19.242,0.34,36.694-0.162,54.126
		c-0.21,7.292,1.931,11.003,8.757,14.543c20.925,10.85,31.528,29.088,33.277,52.427c0.657,8.768-3.874,14.978-12.365,15.991
		c-8.651,1.033-13.965-4.133-15.193-12.979c-0.463-3.335-0.22-7.027-1.618-9.922c-2.786-5.767-6.483-11.091-9.805-16.598
		c-0.964,0.54-1.927,1.079-2.892,1.621c0,17.952,0.224,35.908-0.125,53.855c-0.116,5.979,1.583,9.119,7.271,11.936
		c19.851,9.827,31.091,26.277,34.234,48.231c1.708,11.942-2.377,19.539-11.331,20.989c-8.703,1.41-14.225-4.374-16.17-16.974
		c-1.374-8.888-4.152-16.898-13.879-22.963c0,19.655,0.268,37.538-0.143,55.406c-0.147,6.445,1.922,9.627,7.832,12.669
		c21.337,10.99,32.577,29.156,34.138,53.029c0.551,8.423-3.107,14.885-12.325,15.754c-9.045,0.855-13.84-4.235-15.197-12.898
		c-0.521-3.325-0.241-7.023-1.645-9.91c-2.81-5.774-6.527-11.106-9.871-16.62c-0.929,0.523-1.859,1.048-2.789,1.572
		c0,17.587,0.286,35.184-0.145,52.763c-0.166,6.797,1.675,10.513,8.169,13.775c19.393,9.735,30.27,26.097,33.389,47.568
		c1.778,12.245-2.203,19.497-11.299,20.762c-9.378,1.305-14.166-3.633-16.221-16.69c-1.398-8.881-4.123-16.975-13.323-22.829
		c0,30.052,0,58.665,0,87.823c106.286,0,212.001,0,318.507,0c0-12.277-0.02-23.832,0.007-35.391
		c0.024-10.858-0.377-21.749,0.308-32.567c0.524-8.307,4.977-14.441,14.17-14.301c9.151,0.14,13.016,6.344,13.895,14.667
		c0.394,3.708,0.153,7.482,0.153,11.227c0.01,18.633,0.007,37.263,0.007,56.433c23.317,0,45.56,0,68.838,0c0-4.708,0-8.759,0-12.81
		c0-32.206,0.466-64.426-0.33-96.616c-0.198-8.042-2.862-16.979-7.113-23.811c-29.259-47.006-59.506-93.401-88.765-140.407
		c-5.795-9.312-9.654-20.147-12.706-30.769c-4.587-15.961-7.67-32.351-11.577-49.362c-5.282,2.801-9.257,4.834-13.159,6.995
		c-38.93,21.57-77.872,43.125-116.752,64.788c-7.841,4.365-15.84,8.683-23.253,0.246c-7.442-8.469-2.257-15.734,3.401-22.873
		c22.315-28.171,44.479-56.465,66.661-84.74c15.167-19.335,30.271-38.715,45.405-58.076c-4.542-0.5-7.957,0.6-11.258,1.971
		c-33.132,13.779-66.271,27.541-99.345,41.459c-7.24,3.046-13.975,3.663-19.234-3.093c-5.212-6.694-3.274-13.204,1.468-19.484
		c15.342-20.313,30.576-40.705,45.84-61.077c3.666-4.891,7.288-9.811,12.642-17.025c-30.038,6.615-56.897,13.009-84.002,18.107
		c-5.549,1.045-14.622-0.943-17.331-4.833c-2.788-4.006-1.732-13.116,1.025-18.132c11.525-20.965,24.271-41.263,36.672-61.743
		c6.15-10.153,13.416-13.109,20.992-8.862c8.012,4.493,8.975,12.657,2.673,23.353c-6.872,11.666-13.802,23.299-22.037,37.188
		c30.861-6.817,58.935-12.903,86.941-19.284c7.677-1.749,15.133-3.062,20.193,4.572c5.343,8.063,1.089,14.704-3.936,21.32
		c-15.558,20.484-30.862,41.16-48.257,64.428c6.674-2.599,10.371-3.953,14.001-5.468c33.114-13.814,66.222-27.644,99.314-41.504
		c7.55-3.163,15.242-5.847,21.424,2.023c6.508,8.287,2.052,15.412-3.415,22.137c-1.182,1.453-2.341,2.924-3.498,4.396
		C594.419,446.685,561.363,488.766,528.306,530.848z M687.138,571.334c-8.577,5.446-15.702,9.972-23.378,14.844
		c59.871,93.976,119.2,187.097,178.903,280.807c8.282-5.374,15.352-9.962,23.193-15.053
		C806.105,758.119,746.952,665.243,687.138,571.334z M289.748,647.795c0-22.075,0-43.396,0-64.908
		c-17.579,4.683-26.641,16.958-26.088,34.462C264.15,632.83,274.439,645.069,289.748,647.795z M289.639,842.177
		c0-21.576,0-43.106,0-64.875c-17.572,4.628-26.6,17.021-25.981,34.648C264.193,827.233,274.4,839.199,289.639,842.177z
		 M290.55,356.67c0-10.885,0-21.582,0-32.28c0-10.924,0-21.849,0-33.245c-19.028,5.51-27.585,17.346-26.883,35.175
		C264.282,341.922,273.978,353.231,290.55,356.67z M289.927,453.612c0-21.742,0-42.902,0-64.136
		c-15.677,2.206-25.203,14.056-26.434,30.069C262.315,434.852,274.906,453.337,289.927,453.612z M290.55,485.608
		c-19.151,4.857-28.54,18.767-26.793,37.348c1.36,14.468,12.715,26.345,26.793,27.196c0-17.559,0-35.078,0-52.595
		C290.55,493.896,290.55,490.232,290.55,485.608z M290.03,679.892c-17.727,4.914-26.651,16.758-26.377,33.772
		c0.259,16.08,10.02,27.956,26.377,31.578C290.03,723.645,290.03,702.158,290.03,679.892z M650.586,551.037
		c4.573-3.2,7.657-5.357,11.401-7.977c-5.396-4.03-9.692-7.234-15.78-11.779C647.872,538.787,649.03,544.017,650.586,551.037z"/>
	<path fill-rule="evenodd" clip-rule="evenodd" fill="#EEE415" d="M687.138,571.334c59.813,93.908,118.967,186.784,178.719,280.598
		c-7.842,5.091-14.911,9.679-23.193,15.053c-59.703-93.71-119.032-186.831-178.903-280.807
		C671.436,581.306,678.561,576.781,687.138,571.334z"/>
	<path fill-rule="evenodd" clip-rule="evenodd" fill="#EEE415" d="M650.586,551.037c-1.557-7.02-2.715-12.25-4.379-19.756
		c6.088,4.545,10.385,7.749,15.78,11.779C658.244,545.679,655.16,547.836,650.586,551.037z"/>
</g>
</svg>
