<?xml version="1.0" encoding="utf-8"?>
<!-- Generator: Adobe Illustrator 16.0.0, SVG Export Plug-In . SVG Version: 6.00 Build 0)  -->
<!DOCTYPE svg PUBLIC "-//W3C//DTD SVG 1.1//EN" "http://www.w3.org/Graphics/SVG/1.1/DTD/svg11.dtd">
<svg version="1.1" id="图层_1" xmlns="http://www.w3.org/2000/svg" xmlns:xlink="http://www.w3.org/1999/xlink" x="0px" y="0px"
	 width="792px" height="1224px" viewBox="0 0 792 1224" enable-background="new 0 0 792 1224" xml:space="preserve">
<title>Asset 3</title>
<title>Asset 3</title>
<g>
	<path fill-rule="evenodd" clip-rule="evenodd" d="M596.783,792.63c23.508-12.384,47.859-19.103,74.693-16.654
		c60.225,5.489,109.864,62.87,105.433,123.048c-4.876,66.211-58.121,115.071-121.571,111.57
		c-92.526-5.114-142.49-98.828-96.17-179.783c2.032-3.55,0.138-9.598-0.629-14.367c-0.273-1.707-2.625-3.084-4.028-4.608
		c-57.624-62.443-115.245-124.888-171.118-185.437c-29.579,14.09-57.867,27.57-87.928,41.892
		c1.776,14.155,3.306,30.612,6.312,46.794c0.612,3.288,6.456,7.313,10.419,8.021c56.501,10.099,98.392,54.484,101.381,108.087
		c3.274,58.655-31.183,106.565-88.523,123.084c-63.548,18.31-135.355-28.56-144.567-94.357
		c-7.829-55.906,16.8-102.594,67.778-126.925c7.976-3.811,10.6-7.367,8.747-16.338c-3.015-14.599-4.273-29.563-6.428-45.522
		c-80.467-1.456-146.528-31.835-193.936-97.141c-33.596-46.278-45.615-99.02-40.82-155.856
		c9.536-112.999,107.775-203.503,224.208-204.888c69.654-0.83,128.037,25.757,174.488,77.801
		c46.21,51.776,62.557,113.082,55.001,181.752c25.319,6.115,48.78,12.287,72.527,17.025c4.062,0.811,11.36-3.256,13.755-7.16
		c31.307-51.038,80.804-71.784,136.628-56.511c76.308,20.88,109.419,116.104,62.82,180.671
		c-29.174,40.424-79.237,59.223-124.302,46.681c-52.042-14.485-85.171-54.277-89.085-106.968c-0.226-3.073-0.633-6.136-1.104-10.589
		c-26.86-6.575-53.853-13.182-78.573-19.235c-15.699,26.847-30.488,52.143-46.157,78.943
		C475.154,660.084,535.646,726.003,596.783,792.63z M426.799,441.483c-0.212-102.626-82.506-184.82-184.666-184.45
		C141.315,257.401,58.96,340.475,58.922,441.845c-0.04,101.573,84.008,185.376,185.137,184.6
		C345.616,625.663,427.013,543.278,426.799,441.483z M682.894,912.166c21.102-23.966,23.415-46.511,5.617-63.993
		c-16.212-15.932-38.876-16.767-56.002-2.059c-20.021,17.192-18.665,38.051,4.53,68.701c-14.791,8.104-29.414,16.388-33.99,34.821
		c37.954,0,74.871,0,111.788,0c0.955-1.29,1.909-2.579,2.864-3.867C706.328,934.792,694.955,923.812,682.894,912.166z
		 M319.51,859.363c20.625-22.466,23.792-45.259,7.929-62.143c-15.946-16.975-39.487-20.265-55.539-5.515
		c-7.454,6.848-15.936,18.302-15.265,26.993c1.166,15.087,9.08,29.655,14.371,45.041c-11.833,6.126-26.313,14.471-31.112,33.931
		c20.249,0,38.878,0,57.509,0c18.313,0,36.627,0,54.939,0c0.941-1.747,1.884-3.492,2.825-5.236
		C343.487,881.6,331.809,870.77,319.51,859.363z M714.378,595.832c1.066-1.676,2.13-3.354,3.194-5.03
		c-11.759-10.786-23.519-21.569-35.362-32.431c21.444-25.588,24.263-47.499,6.772-64.273c-16.502-15.821-41.078-16.982-57.421-0.959
		c-6.172,6.047-10.551,15.301-12.642,23.852c-4.544,18.578,7.281,31.479,19.979,43.554c-16.649,7.945-31.198,16.049-35.482,35.287
		C641.166,595.832,677.772,595.832,714.378,595.832z"/>
	<path fill-rule="evenodd" clip-rule="evenodd" fill="#EEE415" d="M682.894,912.166c12.062,11.646,23.435,22.626,34.808,33.604
		c-0.955,1.288-1.909,2.577-2.864,3.867c-36.917,0-73.834,0-111.788,0c4.576-18.434,19.199-26.718,33.99-34.821
		c-23.195-30.65-24.551-51.509-4.53-68.701c17.126-14.708,39.79-13.873,56.002,2.059C706.309,865.655,703.995,888.2,682.894,912.166
		z"/>
	<path fill-rule="evenodd" clip-rule="evenodd" fill="#EEE415" d="M319.51,859.363c12.299,11.406,23.977,22.236,35.656,33.071
		c-0.941,1.744-1.884,3.489-2.825,5.236c-18.312,0-36.626,0-54.939,0c-18.631,0-37.26,0-57.509,0
		c4.8-19.46,19.279-27.805,31.112-33.931c-5.291-15.386-13.205-29.954-14.371-45.041c-0.67-8.691,7.811-20.146,15.265-26.993
		c16.052-14.75,39.592-11.46,55.539,5.515C343.302,814.104,340.135,836.897,319.51,859.363z"/>
	<path fill-rule="evenodd" clip-rule="evenodd" fill="#EEE415" d="M714.378,595.832c-36.605,0-73.212,0-110.961,0
		c4.284-19.238,18.833-27.342,35.482-35.287c-12.698-12.075-24.523-24.976-19.979-43.554c2.091-8.551,6.47-17.805,12.642-23.852
		c16.343-16.023,40.919-14.862,57.421,0.959c17.49,16.774,14.672,38.685-6.772,64.273c11.844,10.861,23.604,21.645,35.362,32.431
		C716.508,592.479,715.444,594.156,714.378,595.832z"/>
	<path fill-rule="evenodd" clip-rule="evenodd" d="M277.722,478.43c31.894,11.88,54.094,31.202,66.803,62.989
		c-67.941,0-134.208,0-202.428,0c11.371-32.504,34.845-50.786,66.702-63.417c-26.87-17.863-39.94-41.49-37.645-72.373
		c1.416-19.054,10.347-34.63,24.461-47.002c30.569-26.79,76.914-22.894,102.646,8.25
		C326.399,400.937,319.114,444.701,277.722,478.43z"/>
</g>
</svg>
