<?xml version="1.0" encoding="utf-8"?>
<!-- Generator: Adobe Illustrator 16.0.0, SVG Export Plug-In . SVG Version: 6.00 Build 0)  -->
<!DOCTYPE svg PUBLIC "-//W3C//DTD SVG 1.1//EN" "http://www.w3.org/Graphics/SVG/1.1/DTD/svg11.dtd">
<svg version="1.1" id="图层_1" xmlns="http://www.w3.org/2000/svg" xmlns:xlink="http://www.w3.org/1999/xlink" x="0px" y="0px"
	 width="1133.858px" height="1133.858px" viewBox="-347.679 45.071 1133.858 1133.858"
	 enable-background="new -347.679 45.071 1133.858 1133.858" xml:space="preserve">
<title>Asset 2</title>
<g>
	<path d="M-161.287,1178.95c0-329.244,0-658.09,0-988.185c44.092,0,87.347,0,130.603,0.023c18.064,43.348,22.7,46.428,69.895,46.432
		c122.364,0,244.729,0.036,367.094-0.022c37.865-0.019,49.778-8.937,61.711-46.483c42.922,0,86.247,0,131.772,0
		c0,328.575,0,657.255,0,988.234C347.401,1178.95,94.146,1178.95-161.287,1178.95z M444.434,403.251c-107.419,0-213.798,0-319.697,0
		c0,15.915,0,30.464,0,44.243c107.481,0,213.39,0,319.697,0C444.434,432.055,444.434,418.015,444.434,403.251z M123.684,624.393
		c108.354,0,214.882,0,321.248,0c0-15.58,0-29.626,0-43.881c-107.732,0-214.268,0-321.248,0
		C123.684,595.658,123.684,609.265,123.684,624.393z M124.104,980.564c107.966,0,214.486,0,320.579,0c0-16.021,0-30.65,0-44.932
		c-107.514,0-213.583,0-320.579,0C124.104,950.95,124.104,965.057,124.104,980.564z M123.87,801.909c108.208,0,214.604,0,321.005,0
		c0-15.703,0-29.726,0-43.578c-107.659,0-214.055,0-321.005,0C123.87,773.465,123.87,786.957,123.87,801.909z M62.026,604.092
		c0.278-23.698-16.427-41.236-39.341-41.301c-21.52-0.062-41.124,19.55-40.935,40.94c0.18,19.925,19.793,40.212,39.601,40.964
		C42.836,645.511,61.763,626.614,62.026,604.092z M61.993,780.1c-0.239-23.123-18.307-40.935-40.692-40.115
		c-20.904,0.77-39.454,19.818-39.496,40.563c-0.046,21.331,19.699,41.161,40.916,41.091C45.316,821.563,62.235,803.669,61.993,780.1
		z M61.94,425.161c-0.312-22.644-18.779-41.021-40.54-40.348c-21.114,0.655-40.429,21.455-39.49,42.526
		c0.943,21.146,19.349,38.619,40.668,38.598C45.888,465.915,62.273,448.943,61.94,425.161z M61.93,958.228
		c-0.154-23.775-17.043-40.734-40.175-40.345c-21.811,0.363-40.684,20.16-39.848,41.794c0.816,21.104,19.339,39.185,40.305,39.332
		C45.437,999.177,62.084,982.082,61.93,958.228z"/>
	<path d="M215.353,217.702c-61.489,0-122.98,0.034-184.474-0.016c-24.092-0.021-37.144-9.714-38.67-28.44
		c-1.567-19.23,11.06-35.358,32.803-38.506c25.296-3.663,50.853-5.536,76.333-7.773c33.327-2.933,40.875-10.376,43.532-44.077
		c3.2-40.623,16.975-53.538,57.485-53.702c14.731-0.061,29.491-0.423,44.188,0.345c24.436,1.278,37.195,12.837,42.44,37.238
		c0.958,4.46,1.929,8.942,2.468,13.467c4.687,39.387,9.962,44.363,48.533,46.962c22.36,1.507,44.756,2.927,67.001,5.575
		c24.372,2.898,38.584,18.635,36.958,38.99c-1.518,19.027-15.633,29.81-40.281,29.878
		C340.9,217.813,278.127,217.696,215.353,217.702z M219.277,123.403c13.073,0.164,24.561-11.217,24.162-24.878
		c-0.45-15.267-8.524-24.817-23.612-25.274c-15.017-0.45-23.87,8.514-25.233,23.671
		C193.295,111.354,204.887,123.218,219.277,123.403z"/>
	<path fill="#EEE415" d="M62.026,604.092c-0.265,22.522-19.19,41.419-40.675,40.604c-19.808-0.753-39.421-21.039-39.601-40.964
		c-0.19-21.392,19.415-41.001,40.935-40.94C45.6,562.855,62.306,580.393,62.026,604.092z"/>
	<path fill="#EEE415" d="M61.993,780.1c0.242,23.569-16.677,41.464-39.271,41.54c-21.217,0.069-40.962-19.76-40.916-41.091
		c0.042-20.746,18.593-39.793,39.496-40.563C43.687,739.165,61.754,756.977,61.993,780.1z"/>
	<path fill="#EEE415" d="M61.94,425.161c0.332,23.782-16.055,40.753-39.362,40.776c-21.319,0.021-39.725-17.451-40.668-38.598
		c-0.938-21.071,18.376-41.871,39.49-42.526C43.162,384.14,61.63,402.517,61.94,425.161z"/>
	<path fill="#EEE415" d="M61.93,958.228c0.154,23.854-16.493,40.949-39.718,40.781c-20.965-0.147-39.488-18.228-40.305-39.332
		c-0.835-21.634,18.037-41.431,39.848-41.794C44.887,917.494,61.774,934.453,61.93,958.228z"/>
</g>
</svg>
