<?xml version="1.0" encoding="utf-8"?>
<!-- Generator: Adobe Illustrator 16.0.0, SVG Export Plug-In . SVG Version: 6.00 Build 0)  -->
<!DOCTYPE svg PUBLIC "-//W3C//DTD SVG 1.1//EN" "http://www.w3.org/Graphics/SVG/1.1/DTD/svg11.dtd">
<svg version="1.1" id="图层_1" xmlns="http://www.w3.org/2000/svg" xmlns:xlink="http://www.w3.org/1999/xlink" x="0px" y="0px"
	 width="792px" height="1224px" viewBox="0 0 792 1224" enable-background="new 0 0 792 1224" xml:space="preserve">
<title>Asset 1</title>
<g>
	<path d="M189.366,521.498c3.78-18.717,13.683-16.297,27.708-14.175c20.244,3.062,41.628,2.275,62.005-0.585
		c12.634-1.777,21.704-3.975,24.87,15.107c27.484-29.87,52.596-57.151,77.703-84.441c6.314-6.864,12.319-14.043,18.963-20.573
		c14.568-14.321,35.468-15.629,48.642-3.445c14.934,13.811,16.27,33.628,2.305,50.06c-37.056,43.599-74.892,86.541-111.389,130.599
		c-5.914,7.144-9.578,18.809-9.121,28.13c2.818,57.692,7.115,115.312,11.018,174.453c-7.519,1.028-14.625,1.997-23.932,3.27
		c1.209,17.007,2.066,34.061,3.689,51.044c6.75,70.548,13.622,141.081,20.711,211.594c1.812,18.034-0.976,33.898-18.583,42.931
		c-23.66,12.133-47.491-2.078-50.472-30.701c-4.767-45.74-8.458-91.589-12.766-137.374c-3.639-38.664-7.508-77.311-11.274-115.964
		c-1.559-0.027-3.111-0.057-4.667-0.085c-1.824,16.188-3.915,32.354-5.428,48.573c-6.291,67.461-12.333,134.947-18.633,202.405
		c-1.984,21.269-11.601,33.029-28.749,36.152c-23.451,4.273-41.493-10.941-39.934-36.232c2.522-40.922,6.76-81.739,10.465-122.581
		c4.481-49.414,9.164-98.808,13.857-149.292c-8.47-1.19-15.02-2.108-24.069-3.378c1.591-28.016,3.118-56.304,4.831-84.578
		c1.129-18.616-0.069-37.856,4.351-55.685c9.192-37.08-4.706-63.36-30.06-89.194c-30.871-31.457-58.293-66.307-87.015-99.852
		c-15.064-17.594-15.286-38.198-1.068-51.504c15.226-14.248,35.718-12.479,52.778,5.516
		C126.868,454.153,157.201,487.027,189.366,521.498z"/>
	<path fill="#EEE415" d="M441.516,362.621c9.787-14.098,19.574-28.201,29.774-42.893c-3.722-3.376-6.292-5.884-9.045-8.179
		c-57.696-48.144-55.142-118.486,5.905-162.004c66.011-47.059,177.267-47.161,242.956-0.223
		c70.633,50.468,62.277,136.452-18.013,178.381c-46.719,24.398-96.553,31.161-148.204,19.618
		c-14.317-3.196-26.951-3.285-41.192,2.391c-19.339,7.712-40.19,11.621-60.396,17.157
		C442.707,365.457,442.111,364.039,441.516,362.621z"/>
	<path d="M171.112,414.153c-0.026-42.229,33.245-75.688,75.418-75.85c42.178-0.163,76.106,32.902,76.825,74.861
		c0.715,41.896-34.694,77.489-76.803,77.202C204.688,490.079,171.134,456.184,171.112,414.153z"/>
	<path d="M405.926,285.959c-2.361,5.42-3.146,10.173-5.896,13.037c-14.157,14.76-28.098,29.905-43.777,42.917
		c-4.192,3.481-17.931,2.684-20.667-1.028c-3.847-5.224-4.924-17.779-1.214-22.321c12.881-15.772,27.893-29.943,43.15-43.538
		c3.677-3.281,12.234-4.105,17.056-2.228C399.335,274.647,402.202,281.35,405.926,285.959z"/>
	<path d="M165.324,331.775c-3.075,3.806-5.92,10.42-10.664,12.337c-4.812,1.947-13.458,1.425-17.025-1.789
		c-15.633-14.088-30.879-28.843-44.295-44.993c-3.394-4.086-1.962-16.132,1.81-20.962c2.988-3.829,15.795-5.505,19.324-2.456
		c16.839,14.57,32.107,30.975,47.614,47.038C163.962,322.89,163.893,326.706,165.324,331.775z"/>
	<path d="M230.629,238.178c0-9.876-1.907-20.292,0.673-29.446c1.715-6.082,9.756-14.256,15.121-14.375
		c5.637-0.124,15.968,7.841,16.42,12.964c1.891,21.429,1.92,43.208,0.099,64.646c-0.444,5.209-11.283,14.076-15.973,13.27
		c-6.18-1.058-13.944-9.208-15.722-15.752c-2.656-9.774-0.69-20.807-0.69-31.303C230.581,238.182,230.606,238.182,230.629,238.178z"
		/>
</g>
</svg>
