<?xml version="1.0" encoding="utf-8"?>
<!-- Generator: Adobe Illustrator 16.0.0, SVG Export Plug-In . SVG Version: 6.00 Build 0)  -->
<!DOCTYPE svg PUBLIC "-//W3C//DTD SVG 1.1//EN" "http://www.w3.org/Graphics/SVG/1.1/DTD/svg11.dtd">
<svg version="1.1" id="图层_1" xmlns="http://www.w3.org/2000/svg" xmlns:xlink="http://www.w3.org/1999/xlink" x="0px" y="0px"
	 width="829.811px" height="1224px" viewBox="-23.5 -0.5 829.811 1224" enable-background="new -23.5 -0.5 829.811 1224"
	 xml:space="preserve">
<title>Asset 1</title>
<g>
	<path d="M-19.405,976.105L124.16,848.174c69.652,85.287,169.167,125.088,255.861,125.088c117.984,0,180.541-52.592,180.541-146.408
		c0-116.566-85.287-154.939-251.6-154.939h-52.591V502.756h56.852c193.322,0,226.019-63.965,226.019-132.2
		c0-69.653-38.385-116.557-152.106-116.557c-76.767,0-160.627,25.582-237.393,99.505L23.239,208.512
		c93.827-89.557,241.652-142.148,390.905-142.148c228.852,0,353.949,98.078,353.949,268.662
		c0,122.243-72.506,216.061-206.123,244.487c157.793,25.592,240.246,127.931,240.246,261.548
		c0,197.592-166.314,315.576-412.228,315.576C210.874,1156.637,78.682,1095.504-19.405,976.105z"/>
</g>
</svg>
