<?xml version="1.0" encoding="utf-8"?>
<!-- Generator: Adobe Illustrator 16.0.0, SVG Export Plug-In . SVG Version: 6.00 Build 0)  -->
<!DOCTYPE svg PUBLIC "-//W3C//DTD SVG 1.1//EN" "http://www.w3.org/Graphics/SVG/1.1/DTD/svg11.dtd">
<svg version="1.1" id="图层_1" xmlns="http://www.w3.org/2000/svg" xmlns:xlink="http://www.w3.org/1999/xlink" x="0px" y="0px"
	 width="1111.532px" height="1224px" viewBox="0 0 1111.532 1224" enable-background="new 0 0 1111.532 1224" xml:space="preserve">
<title>Asset 6</title>
<g>
	<path d="M368.842,777.9l65.322-58.211c31.697,38.808,76.977,56.916,116.422,56.916c53.684,0,82.148-23.929,82.148-66.618
		c0-53.038-38.807-70.498-114.482-70.498h-23.926V562.52h25.865c87.965,0,102.84-29.104,102.84-60.153
		c0-31.693-17.463-53.035-69.209-53.035c-34.928,0-73.086,11.641-108.018,45.276l-57.561-65.974
		c42.694-40.749,109.959-64.679,177.868-64.679c104.133,0,161.053,44.626,161.053,122.245c0,55.622-32.992,98.311-93.789,111.243
		c71.797,11.646,109.314,58.21,109.314,119.008c0,89.907-75.674,143.592-187.566,143.592
		C473.621,860.044,413.473,832.228,368.842,777.9z"/>
</g>
</svg>
