<?xml version="1.0" encoding="utf-8"?>
<!-- Generator: Adobe Illustrator 16.0.0, SVG Export Plug-In . SVG Version: 6.00 Build 0)  -->
<!DOCTYPE svg PUBLIC "-//W3C//DTD SVG 1.1//EN" "http://www.w3.org/Graphics/SVG/1.1/DTD/svg11.dtd">
<svg version="1.1" id="图层_1" xmlns="http://www.w3.org/2000/svg" xmlns:xlink="http://www.w3.org/1999/xlink" x="0px" y="0px"
	 width="792px" height="792px" viewBox="0 0 792 792" enable-background="new 0 0 792 792" xml:space="preserve">
<title>Asset 3</title>
<title>Asset 3</title>
<g>
	<path fill-rule="evenodd" clip-rule="evenodd" d="M396.784,776.276C187.712,777.317,17.376,607.991,15.73,397.478
		C14.092,188.063,184.151,17.021,395.281,15.726c208.906-1.281,380.745,170.273,380.999,380.366
		C776.532,605.382,606.995,775.229,396.784,776.276z M147.701,264.548c0,90.954,0,181.429,0,271.688c69.848,0,138.636,0,207.309,0
		c0-45.546,0-90.149,0-132.984c-11.242,2.246-21.881,5.042-32.688,6.078c-2.786,0.268-8.403-4.697-8.786-7.754
		c-1.837-14.655-1.715-28.685,10.56-40.595c10.143-9.841,18.113-21.944,26.82-33.218c2.086-2.701,4.597-6.054,4.677-9.163
		c0.445-17.667,0.217-35.347,0.217-54.053C285.656,264.548,216.902,264.548,147.701,264.548z M444.167,406.201
		c0,15.95,0,30.52,0,45.09c0.003,44.509,0.173,89.022-0.105,133.532c-0.076,11.835,4.414,17.19,16.625,16.616
		c12.879-0.603,25.905,0.751,38.667-0.622c4.585-0.49,8.585-6.424,12.853-9.875c-4.304-3.494-8.276-9.347-12.974-10.002
		c-10.788-1.506-21.93-0.479-33.53-0.479c0-58.617,0-115.783,0-174.236c11.197,0,21.768-0.089,32.335,0.032
		c7.314,0.083,15.111-1.478,13.542-10.016c-0.79-4.301-8.442-9.554-13.621-10.372c-10.307-1.625-21.05-0.479-32.246-0.479
		c0-55.899,0-110.393,0-166.229c11.58,0,22.726,1.002,33.534-0.47c4.669-0.637,8.641-6.391,12.932-9.82
		c-4.271-3.512-8.231-9.491-12.861-10.06c-11.842-1.45-23.977-0.545-35.996-0.49c-17.104,0.078-19.119,2.057-19.135,19.346
		c-0.047,50.741-0.019,101.485-0.019,152.229c0,4.747,0,9.494,0,15.626c-10.394,0-19.468-1.299-27.875,0.507
		c-4.722,1.015-8.338,7.16-12.451,10.994c4.223,3.059,8.127,8.004,12.73,8.769C425.12,407.216,434.076,406.201,444.167,406.201z
		 M592.424,438.297c13.324,0,26.67-0.407,39.974,0.141c8.956,0.371,13.205-2.55,13.04-11.955
		c-0.307-17.764-0.247-35.541-0.018-53.307c0.109-8.557-3.837-11.941-12.119-11.897c-27.543,0.142-55.087,0.115-82.632,0.016
		c-7.568-0.026-11.428,2.753-11.284,10.979c0.318,18.654,0.277,37.317,0.016,55.971c-0.104,7.511,3.115,10.251,10.377,10.117
		C563.988,438.102,578.205,438.287,592.424,438.297z M592.017,625.351c13.768,0,27.541-0.258,41.3,0.094
		c8.57,0.219,12.137-3.51,12.072-11.863c-0.142-17.764-0.188-35.53,0.031-53.291c0.104-8.268-3.005-12.104-11.743-12.01
		c-27.53,0.291-55.066,0.246-82.599,0.026c-8.39-0.067-11.967,2.985-11.74,11.76c0.465,17.75,0.502,35.533-0.005,53.283
		c-0.273,9.557,3.779,12.443,12.719,12.127C565.358,625.007,578.693,625.353,592.017,625.351z M591.671,243.645
		c14.25,0,28.504-0.169,42.747,0.071c7.175,0.118,10.892-2.756,10.892-10.068c-0.01-18.7-0.067-37.403,0.04-56.106
		c0.039-7.227-3.166-10.434-10.485-10.397c-28.499,0.149-56.998,0.112-85.498,0.045c-7.375-0.018-10.096,3.424-9.979,10.705
		c0.295,18.251,0.332,36.516-0.014,54.768c-0.151,7.98,2.79,11.294,10.889,11.086C564.056,243.392,577.866,243.65,591.671,243.645z
		 M384.863,302.947c-18.24,22.525-35.127,44.298-53.09,65.144c-8.09,9.387-10.582,18.688-6.577,31.937
		c7.417-2.568,16.64-2.926,20.835-7.701c20.706-23.555,40.079-48.284,60.11-72.83C398.81,313.794,392.518,308.899,384.863,302.947z"
		/>
	<path fill-rule="evenodd" clip-rule="evenodd" fill="#D0CEF5" d="M147.701,264.548c69.201,0,137.955,0,208.107,0
		c0,18.706,0.229,36.386-0.217,54.053c-0.08,3.108-2.591,6.462-4.677,9.163c-8.707,11.274-16.678,23.377-26.82,33.218
		c-12.274,11.91-12.396,25.94-10.56,40.595c0.383,3.057,6,8.021,8.786,7.754c10.808-1.036,21.446-3.832,32.688-6.078
		c0,42.834,0,87.438,0,132.984c-68.673,0-137.461,0-207.309,0C147.701,445.978,147.701,355.502,147.701,264.548z M211.016,344.823
		c30.184-0.566,28.31,5.309,28.273-27.122c-0.032-31.088,2.363-26.657-27.266-26.756c-31.998-0.105-27.365-2.981-27.52,27.714
		C184.361,348.004,181.584,344.653,211.016,344.823z M244.617,454.772c-16.431,0-32.874-0.379-49.274,0.278
		c-3.908,0.157-7.673,3.779-11.504,5.807c3.574,2.294,7.124,6.521,10.735,6.579c32.406,0.519,64.83,0.519,97.235,0.005
		c3.649-0.058,7.229-4.232,10.841-6.5c-3.805-2.056-7.537-5.715-11.423-5.888C275.719,454.373,260.16,454.772,244.617,454.772z
		 M244.617,413.83c-17.339,0-34.686-0.266-52.005,0.258c-2.938,0.089-5.773,3.576-8.653,5.493c2.853,1.945,5.684,5.546,8.56,5.577
		c33.783,0.396,67.573,0.394,101.355,0.005c2.899-0.034,5.757-3.583,8.635-5.5c-2.851-1.945-5.644-5.476-8.556-5.572
		C277.524,413.547,261.064,413.83,244.617,413.83z M227.978,385.333c11.982,0,23.989,0.457,35.92-0.3
		c3.267-0.206,6.302-4.044,9.442-6.216c-2.955-1.975-5.878-5.6-8.874-5.66c-23.948-0.465-47.911-0.465-71.863,0.011
		c-2.972,0.057-5.867,3.718-8.798,5.71c3.19,2.15,6.269,5.939,9.584,6.161C204.877,385.805,216.444,385.333,227.978,385.333z
		 M305.973,495.02c0-0.028,0-0.06,0-0.088c-6.193,0-12.466-0.601-18.535,0.271c-2.744,0.395-5.07,3.714-7.582,5.708
		c2.241,2.252,4.389,6.331,6.737,6.449c12.79,0.642,25.643,0.639,38.433,0.013c2.379-0.115,4.572-4.082,6.853-6.271
		c-2.445-2.028-4.694-5.415-7.377-5.803C318.438,494.417,312.16,495.02,305.973,495.02z"/>
	<path fill-rule="evenodd" clip-rule="evenodd" fill="#D0CEF5" d="M444.167,406.201c-10.091,0-19.047,1.015-27.596-0.409
		c-4.604-0.765-8.508-5.71-12.73-8.769c4.113-3.834,7.729-9.979,12.451-10.994c8.407-1.806,17.481-0.507,27.875-0.507
		c0-6.132,0-10.879,0-15.626c0-50.744-0.028-101.488,0.019-152.229c0.016-17.289,2.03-19.268,19.135-19.346
		c12.02-0.055,24.154-0.96,35.996,0.49c4.63,0.569,8.591,6.548,12.861,10.06c-4.291,3.43-8.263,9.184-12.932,9.82
		c-10.809,1.472-21.954,0.47-33.534,0.47c0,55.835,0,110.33,0,166.229c11.196,0,21.939-1.146,32.246,0.479
		c5.179,0.817,12.831,6.07,13.621,10.372c1.569,8.538-6.228,10.099-13.542,10.016c-10.567-0.121-21.138-0.032-32.335-0.032
		c0,58.453,0,115.62,0,174.236c11.601,0,22.742-1.027,33.53,0.479c4.697,0.655,8.67,6.508,12.974,10.002
		c-4.268,3.45-8.268,9.384-12.853,9.875c-12.762,1.373-25.788,0.019-38.667,0.622c-12.211,0.574-16.701-4.781-16.625-16.616
		c0.278-44.51,0.108-89.022,0.105-133.532C444.167,436.721,444.167,422.151,444.167,406.201z"/>
	<path fill-rule="evenodd" clip-rule="evenodd" fill="#D0CEF5" d="M592.424,438.292c-14.219-0.005-28.436-0.189-42.646,0.071
		c-7.262,0.134-10.48-2.606-10.377-10.117c0.262-18.654,0.303-37.317-0.016-55.971c-0.144-8.226,3.716-11.005,11.284-10.979
		c27.545,0.099,55.089,0.126,82.632-0.016c8.282-0.044,12.229,3.341,12.119,11.897c-0.229,17.767-0.289,35.543,0.018,53.307
		c0.165,9.405-4.084,12.325-13.04,11.955C619.094,437.89,605.748,438.297,592.424,438.292z"/>
	<path fill-rule="evenodd" clip-rule="evenodd" fill="#D0CEF5" d="M592.017,625.353c-13.323,0-26.658-0.346-39.965,0.123
		c-8.939,0.316-12.992-2.57-12.719-12.127c0.507-17.75,0.47-35.532,0.005-53.283c-0.227-8.774,3.351-11.827,11.74-11.76
		c27.532,0.22,55.068,0.264,82.599-0.026c8.738-0.094,11.847,3.742,11.743,12.01c-0.219,17.761-0.173,35.527-0.031,53.291
		c0.064,8.354-3.502,12.082-12.072,11.863C619.558,625.093,605.784,625.351,592.017,625.353z"/>
	<path fill-rule="evenodd" clip-rule="evenodd" fill="#D0CEF5" d="M591.671,243.648c-13.805,0.002-27.615-0.256-41.408,0.099
		c-8.099,0.208-11.04-3.106-10.889-11.086c0.346-18.251,0.309-36.517,0.014-54.768c-0.117-7.281,2.604-10.723,9.979-10.705
		c28.5,0.067,56.999,0.104,85.498-0.045c7.319-0.036,10.524,3.171,10.485,10.397c-0.107,18.703-0.05,37.406-0.04,56.106
		c0,7.313-3.717,10.187-10.892,10.068C620.175,243.476,605.921,243.645,591.671,243.648z"/>
	<path fill-rule="evenodd" clip-rule="evenodd" fill="#D0CEF5" d="M384.863,302.947c7.654,5.952,13.946,10.848,21.278,16.55
		c-20.031,24.546-39.404,49.275-60.11,72.83c-4.195,4.775-13.418,5.133-20.835,7.701c-4.005-13.249-1.513-22.55,6.577-31.937
		C349.736,347.245,366.623,325.472,384.863,302.947z"/>
	<path fill-rule="evenodd" clip-rule="evenodd" d="M211.016,344.823c-29.432-0.169-26.654,3.181-26.512-26.164
		c0.154-30.695-4.479-27.819,27.52-27.714c29.629,0.099,27.233-4.333,27.266,26.756
		C239.325,350.131,241.199,344.256,211.016,344.823z M225.713,331.423c0-8.959,0-17.503,0-26.945c-9.349,0-18.265,0-27.203,0
		c0,9.627,0,18.177,0,26.945C207.951,331.423,216.318,331.423,225.713,331.423z"/>
	<path fill-rule="evenodd" clip-rule="evenodd" d="M244.617,454.772c15.543,0,31.102-0.4,46.61,0.281
		c3.886,0.173,7.618,3.832,11.423,5.888c-3.612,2.268-7.191,6.443-10.841,6.5c-32.405,0.514-64.829,0.514-97.235-0.005
		c-3.611-0.058-7.161-4.285-10.735-6.579c3.831-2.028,7.596-5.65,11.504-5.807C211.743,454.393,228.187,454.772,244.617,454.772z"/>
	<path fill-rule="evenodd" clip-rule="evenodd" d="M244.617,413.83c16.447,0,32.907-0.282,49.336,0.261
		c2.912,0.096,5.705,3.627,8.556,5.572c-2.878,1.917-5.735,5.467-8.635,5.5c-33.782,0.389-67.572,0.391-101.355-0.005
		c-2.876-0.031-5.707-3.632-8.56-5.577c2.88-1.917,5.716-5.404,8.653-5.493C209.932,413.563,227.278,413.83,244.617,413.83z"/>
	<path fill-rule="evenodd" clip-rule="evenodd" d="M227.978,385.333c-11.533,0-23.101,0.472-34.589-0.295
		c-3.315-0.222-6.394-4.011-9.584-6.161c2.931-1.992,5.826-5.653,8.798-5.71c23.952-0.476,47.915-0.476,71.863-0.011
		c2.996,0.061,5.919,3.686,8.874,5.66c-3.141,2.172-6.176,6.011-9.442,6.216C251.967,385.789,239.96,385.333,227.978,385.333z"/>
	<path fill-rule="evenodd" clip-rule="evenodd" d="M305.973,495.02c6.188,0,12.466-0.603,18.528,0.277
		c2.683,0.389,4.932,3.775,7.377,5.803c-2.28,2.19-4.474,6.156-6.853,6.271c-12.79,0.626-25.643,0.628-38.433-0.013
		c-2.349-0.118-4.496-4.196-6.737-6.449c2.512-1.993,4.838-5.313,7.582-5.708c6.069-0.871,12.342-0.271,18.535-0.271
		C305.973,494.96,305.973,494.992,305.973,495.02z"/>
	<path fill-rule="evenodd" clip-rule="evenodd" fill="#D0CEF5" d="M225.713,331.423c-9.395,0-17.762,0-27.203,0
		c0-8.768,0-17.318,0-26.945c8.938,0,17.854,0,27.203,0C225.713,313.919,225.713,322.464,225.713,331.423z"/>
</g>
</svg>
