<?xml version="1.0" encoding="utf-8"?>
<!-- Generator: Adobe Illustrator 16.0.0, SVG Export Plug-In . SVG Version: 6.00 Build 0)  -->
<!DOCTYPE svg PUBLIC "-//W3C//DTD SVG 1.1//EN" "http://www.w3.org/Graphics/SVG/1.1/DTD/svg11.dtd">
<svg version="1.1" id="图层_1" xmlns="http://www.w3.org/2000/svg" xmlns:xlink="http://www.w3.org/1999/xlink" x="0px" y="0px"
	 width="1133.859px" height="1133.859px" viewBox="0 0 1133.859 1133.859" enable-background="new 0 0 1133.859 1133.859"
	 xml:space="preserve">
<title>Asset 2</title>
<g>
	<path d="M565.037,932.777c-134.732,0-269.469,0.018-404.203-0.009c-31.773-0.006-41.688-9.848-41.693-41.551
		c-0.027-216.44-0.033-432.882,0.007-649.326c0.005-30.45,10.373-40.774,41.175-40.78c271.092-0.048,542.184-0.05,813.275,0.006
		c32.052,0.007,41.134,9.43,41.134,41.887c0.013,215.898,0.013,431.799,0,647.697c0,33.598-8.479,42.063-42.242,42.065
		C836.67,932.792,700.854,932.777,565.037,932.777z M956.036,259.892c-260.453,0-519.08,0-777.551,0c0,51.446,0,101.557,0,152.284
		c259.496,0,518.158,0,777.551,0C956.036,361.021,956.036,310.913,956.036,259.892z M633.984,827.49
		c19.64-16.322,38.82-32.269,58.371-48.517c-24.253-28.991-47.4-56.668-71.77-85.801c32.727-11.979,63.989-23.424,98.735-36.141
		c-103.338-51.527-202.617-101.034-305.267-152.216c32.327,110.896,63.532,217.956,95.715,328.358
		c18.583-31.83,35.12-60.151,52.822-90.477C586.62,771.234,609.807,798.775,633.984,827.49z"/>
	<path fill="#D0CEF5" d="M633.984,827.49c-24.178-28.715-47.364-56.256-71.392-84.791c-17.702,30.323-34.239,58.646-52.821,90.477
		c-32.184-110.401-63.389-217.463-95.716-328.358C516.704,556,615.984,605.506,719.322,657.033
		c-34.746,12.717-66.01,24.162-98.735,36.141c24.368,29.133,47.517,56.81,71.77,85.801
		C672.805,795.222,653.624,811.167,633.984,827.49z"/>
	<path d="M263.435,287.739c26.059-0.51,48.807,21.753,49.048,48c0.233,25.614-20.99,47.679-46.759,48.602
		c-26.298,0.941-49.077-20.663-49.682-47.122C215.437,310.704,236.934,288.259,263.435,287.739z"/>
	<path d="M514.332,287.739c26.202-0.021,48.648,22.594,48.37,48.722c-0.283,26.356-22.864,48.367-49.129,47.888
		c-25.826-0.472-47.187-22.022-47.428-47.849C465.905,310.088,487.967,287.758,514.332,287.739z"/>
	<path d="M437.125,335.7c0.158,26.758-21.399,48.658-47.892,48.654c-26.614-0.004-48.119-21.871-47.893-48.701
		c0.225-26.093,21.184-47.39,47.146-47.907C414.785,287.226,436.968,309.097,437.125,335.7z"/>
</g>
</svg>
