<?xml version="1.0" encoding="utf-8"?>
<!-- Generator: Adobe Illustrator 16.0.0, SVG Export Plug-In . SVG Version: 6.00 Build 0)  -->
<!DOCTYPE svg PUBLIC "-//W3C//DTD SVG 1.1//EN" "http://www.w3.org/Graphics/SVG/1.1/DTD/svg11.dtd">
<svg version="1.1" id="图层_1" xmlns="http://www.w3.org/2000/svg" xmlns:xlink="http://www.w3.org/1999/xlink" x="0px" y="0px"
	 width="792px" height="1224px" viewBox="0 0 792 1224" enable-background="new 0 0 792 1224" xml:space="preserve">
<title>Asset 3</title>
<title>Asset 3</title>
<g>
	<path fill-rule="evenodd" clip-rule="evenodd" fill="#FFFFFF" d="M559.623,882.183c-30.009-0.248-54.226,23.823-54.288,53.962
		c-0.062,29.55,23.291,53.6,52.628,54.194c29.832,0.601,54.671-23.333,55.257-53.249
		C613.801,907.427,589.398,882.428,559.623,882.183z"/>
	<path fill-rule="evenodd" clip-rule="evenodd" fill="#FFFFFF" d="M449.958,936.514c0.117-30.178-23.888-54.382-53.891-54.334
		c-29.744,0.048-54.386,24.908-54.051,54.535c0.331,29.241,24.379,53.328,53.542,53.63
		C425.598,990.653,449.838,966.665,449.958,936.514z"/>
	<path fill-rule="evenodd" clip-rule="evenodd" fill="#FFFFFF" d="M15.647,935.62c-0.272,30.236,23.544,54.59,53.514,54.73
		c29.742,0.137,54.565-24.531,54.503-54.163c-0.061-29.111-24.109-53.51-53.223-54C40.374,881.682,15.917,905.529,15.647,935.62z"/>
	<path fill-rule="evenodd" clip-rule="evenodd" fill="#FFFFFF" d="M233.043,665.891c30.362,0.05,54.13-23.718,54.052-54.051
		c-0.078-30.066-24.588-54.411-54.409-54.044c-29.066,0.355-53.36,24.654-53.699,53.711
		C178.639,641.338,202.995,665.84,233.043,665.891z"/>
	<path fill-rule="evenodd" clip-rule="evenodd" fill="#FFFFFF" d="M15.647,773.751c-0.175,30.324,23.571,54.329,53.768,54.356
		c29.884,0.027,54.495-24.605,54.244-54.29c-0.247-29.097-24.412-53.433-53.476-53.849C40.29,719.54,15.82,743.671,15.647,773.751z"
		/>
	<path fill-rule="evenodd" clip-rule="evenodd" fill="#FFFFFF" d="M287.094,936.228c-0.006-30.125-24.211-54.23-54.264-54.042
		c-29.168,0.185-53.39,24.203-53.845,53.399c-0.459,29.563,24.193,54.603,53.91,54.762
		C262.942,990.506,287.101,966.383,287.094,936.228z"/>
	<path fill-rule="evenodd" clip-rule="evenodd" fill="#FFFFFF" d="M722.825,503.708c30.01-0.272,54.253-25.121,53.515-54.854
		c-0.721-29.069-25.318-53.196-54.219-53.179c-29.973,0.018-53.999,24.364-53.851,54.567
		C668.422,480.581,692.3,503.984,722.825,503.708z"/>
	<path fill-rule="evenodd" clip-rule="evenodd" fill="#FFFFFF" d="M559.651,828.104c29.859-0.212,54.171-25.092,53.561-54.815
		c-0.602-29.31-24.729-53.199-53.854-53.324c-29.849-0.131-54.096,24.248-54.018,54.312
		C505.418,804.528,529.422,828.318,559.651,828.104z"/>
	<path fill-rule="evenodd" clip-rule="evenodd" fill="#FFFFFF" d="M449.956,611.561c-0.202-30.044-24.846-54.312-54.59-53.764
		c-29.1,0.537-53.164,24.881-53.344,53.965c-0.186,29.901,24.137,54.176,54.241,54.13
		C426.558,665.848,450.161,641.967,449.956,611.561z"/>
	<path fill-rule="evenodd" clip-rule="evenodd" fill="#FFFFFF" d="M69.221,503.716c30.212,0.096,54.499-23.965,54.434-53.925
		c-0.063-29.476-25.345-54.498-54.684-54.12c-29.473,0.379-53.09,24.135-53.32,53.633C15.415,479.783,38.884,503.622,69.221,503.716
		z"/>
	<path fill-rule="evenodd" clip-rule="evenodd" fill="#FFFFFF" d="M721.633,665.891c30.201,0.194,54.632-23.796,54.719-53.737
		c0.087-29.503-24.979-54.521-54.475-54.367c-29.354,0.153-53.276,23.981-53.604,53.393
		C667.935,641.633,691.4,665.692,721.633,665.891z"/>
	<path fill-rule="evenodd" clip-rule="evenodd" fill="#FFFFFF" d="M722.49,341.588c30.087-0.158,54.373-24.741,53.85-54.51
		c-0.51-29.149-24.76-53.195-53.882-53.428c-29.953-0.235-54.186,23.981-54.191,54.153
		C668.263,318.119,692.086,341.75,722.49,341.588z"/>
	<path fill-rule="evenodd" clip-rule="evenodd" fill="#FFFFFF" d="M69.632,341.586c30.125-0.064,54.431-24.509,54.019-54.32
		c-0.405-29.218-24.461-53.244-53.676-53.608c-29.942-0.376-54.266,23.781-54.332,53.959
		C15.577,318.002,39.236,341.649,69.632,341.586z"/>
	<path fill-rule="evenodd" clip-rule="evenodd" fill="#FFFFFF" d="M449.96,287.748c-0.018-30.191-24.242-54.371-54.191-54.093
		c-29.243,0.273-53.274,24.191-53.737,53.482c-0.473,29.903,23.664,54.32,53.829,54.457
		C426.282,341.733,449.978,318.146,449.96,287.748z"/>
	<path fill-rule="evenodd" clip-rule="evenodd" fill="#FFFFFF" d="M449.958,450.484c0.262-30.21-23.592-54.621-53.558-54.813
		c-29.5-0.189-54.496,24.8-54.378,54.362c0.117,29.504,23.714,53.311,53.198,53.674
		C425.729,504.084,449.694,480.778,449.958,450.484z"/>
	<path fill-rule="evenodd" clip-rule="evenodd" fill="#FFFFFF" d="M559.184,341.601c30.278-0.015,54.271-24.08,54.023-54.182
		c-0.242-29.346-24.016-53.289-53.376-53.762c-29.884-0.479-54.327,23.662-54.497,53.822
		C505.161,317.885,528.776,341.62,559.184,341.601z"/>
	<path fill-rule="evenodd" clip-rule="evenodd" fill="#EEE415" d="M286.944,774.458c0.072-29.9-24.532-54.56-54.119-54.243
		c-29.047,0.313-53.575,24.794-53.734,53.635c-0.162,29.429,24.872,54.302,54.524,54.178
		C262.658,827.907,286.872,803.583,286.944,774.458z"/>
	<path fill-rule="evenodd" clip-rule="evenodd" fill="#EEE415" d="M286.957,450.289c0.159-29.786-24.459-54.592-54.074-54.479
		c-28.578,0.104-53.59,25.095-53.794,53.743c-0.211,29.513,24.666,54.245,54.458,54.142
		C262.752,503.591,286.799,479.545,286.957,450.289z"/>
	<path fill-rule="evenodd" clip-rule="evenodd" fill="#EEE415" d="M449.752,774.717c0.227-29.936-24.174-54.729-53.73-54.593
		c-29.118,0.136-53.41,24.349-53.624,53.454c-0.217,29.93,24.123,54.508,53.927,54.454
		C425.616,827.979,449.526,804.118,449.752,774.717z"/>
	<path fill-rule="evenodd" clip-rule="evenodd" fill="#EEE415" d="M69.101,665.796c29.93,0.11,54.429-24.422,54.127-54.196
		c-0.301-29.563-24.057-53.449-53.414-53.711c-29.413-0.262-54.236,24.758-54.063,54.492
		C15.926,641.759,39.826,665.687,69.101,665.796z"/>
	<path fill-rule="evenodd" clip-rule="evenodd" fill="#EEE415" d="M721.705,828.029c29.537,0.147,54.893-25.024,54.604-54.212
		c-0.286-28.874-24.888-53.365-53.843-53.603c-29.082-0.238-53.707,23.795-54.159,52.856
		C667.842,802.988,692.028,827.88,721.705,828.029z"/>
	<path fill-rule="evenodd" clip-rule="evenodd" fill="#EEE415" d="M505.543,449.482c-0.268,29.533,23.105,53.688,52.416,54.168
		c30.022,0.493,54.713-23.397,55.032-53.244c0.306-28.913-23.714-53.802-52.689-54.59
		C530.9,395.021,505.814,419.603,505.543,449.482z"/>
	<path fill-rule="evenodd" clip-rule="evenodd" fill="#EEE415" d="M233.067,341.363c30.302-0.016,54.125-23.935,53.876-54.086
		c-0.242-29.381-24.045-53.058-53.55-53.26c-29.435-0.205-54.73,25.103-54.306,54.33C179.51,317.44,203.885,341.383,233.067,341.363
		z"/>
	<path fill-rule="evenodd" clip-rule="evenodd" fill="#EEE415" d="M505.504,612.485c0.107,29.313,24.037,53.219,53.364,53.313
		c29.854,0.097,54.354-24.443,54.126-54.211c-0.222-28.864-24.689-53.389-53.59-53.711
		C530.208,557.547,505.394,582.689,505.504,612.485z"/>
	<path fill-rule="evenodd" clip-rule="evenodd" fill="#EEE415" d="M668.307,935.265c-0.419,29.758,23.979,54.862,53.506,55.058
		c28.572,0.188,53.67-24.274,54.48-53.104c0.815-28.926-24.611-54.848-53.965-55.016
		C693.469,882.038,668.716,906.353,668.307,935.265z"/>
	<path fill-rule="evenodd" clip-rule="evenodd" d="M559.623,882.183c29.775,0.245,54.178,25.244,53.597,54.907
		c-0.586,29.916-25.425,53.85-55.257,53.249c-29.337-0.595-52.689-24.645-52.628-54.194
		C505.397,906.006,529.614,881.935,559.623,882.183z"/>
	<path fill-rule="evenodd" clip-rule="evenodd" d="M449.958,936.514c-0.12,30.151-24.36,54.14-54.4,53.831
		c-29.163-0.302-53.211-24.389-53.542-53.63c-0.335-29.627,24.307-54.487,54.051-54.535
		C426.07,882.132,450.075,906.336,449.958,936.514z"/>
	<path fill-rule="evenodd" clip-rule="evenodd" d="M15.647,935.62c0.27-30.091,24.727-53.938,54.795-53.433
		c29.113,0.49,53.162,24.889,53.223,54c0.062,29.632-24.761,54.3-54.503,54.163C39.191,990.21,15.375,965.856,15.647,935.62z"/>
	<path fill-rule="evenodd" clip-rule="evenodd" d="M233.043,665.891c-30.049-0.051-54.405-24.553-54.057-54.384
		c0.339-29.057,24.633-53.355,53.699-53.711c29.821-0.367,54.331,23.978,54.409,54.044
		C287.174,642.173,263.406,665.94,233.043,665.891z"/>
	<path fill-rule="evenodd" clip-rule="evenodd" d="M15.647,773.751c0.173-30.08,24.643-54.211,54.536-53.782
		c29.063,0.416,53.229,24.752,53.476,53.849c0.251,29.685-24.36,54.317-54.244,54.29C39.218,828.08,15.472,804.075,15.647,773.751z"
		/>
	<path fill-rule="evenodd" clip-rule="evenodd" d="M287.094,936.228c0.006,30.155-24.152,54.278-54.2,54.119
		c-29.716-0.159-54.369-25.199-53.91-54.762c0.456-29.196,24.677-53.215,53.845-53.399
		C262.883,881.997,287.088,906.103,287.094,936.228z"/>
	<path fill-rule="evenodd" clip-rule="evenodd" d="M722.825,503.708c-30.525,0.276-54.403-23.127-54.555-53.465
		c-0.148-30.203,23.878-54.55,53.851-54.567c28.9-0.018,53.498,24.109,54.219,53.179
		C777.078,478.586,752.835,503.435,722.825,503.708z"/>
	<path fill-rule="evenodd" clip-rule="evenodd" d="M559.651,828.104c-30.229,0.214-54.233-23.576-54.312-53.828
		c-0.078-30.063,24.169-54.442,54.018-54.312c29.126,0.125,53.253,24.015,53.854,53.324
		C613.822,803.013,589.511,827.893,559.651,828.104z"/>
	<path fill-rule="evenodd" clip-rule="evenodd" d="M449.956,611.561c0.205,30.406-23.398,54.287-53.693,54.332
		c-30.104,0.046-54.427-24.229-54.241-54.13c0.181-29.084,24.244-53.428,53.344-53.965
		C425.11,557.25,449.754,581.517,449.956,611.561z"/>
	<path fill-rule="evenodd" clip-rule="evenodd" d="M69.221,503.716c-30.337-0.095-53.807-23.934-53.571-54.412
		c0.23-29.498,23.847-53.254,53.32-53.633c29.339-0.378,54.621,24.645,54.684,54.12C123.72,479.751,99.433,503.812,69.221,503.716z"
		/>
	<path fill-rule="evenodd" clip-rule="evenodd" d="M721.633,665.891c-30.232-0.198-53.698-24.258-53.36-54.711
		c0.328-29.411,24.251-53.239,53.604-53.393c29.496-0.153,54.562,24.864,54.475,54.367
		C776.265,642.095,751.834,666.085,721.633,665.891z"/>
	<path fill-rule="evenodd" clip-rule="evenodd" d="M722.49,341.588c-30.404,0.162-54.228-23.47-54.224-53.784
		c0.006-30.172,24.238-54.389,54.191-54.153c29.122,0.232,53.372,24.278,53.882,53.428
		C776.863,316.847,752.577,341.43,722.49,341.588z"/>
	<path fill-rule="evenodd" clip-rule="evenodd" d="M69.632,341.586c-30.396,0.063-54.056-23.584-53.989-53.97
		c0.065-30.178,24.389-54.335,54.332-53.959c29.215,0.364,53.271,24.391,53.676,53.608
		C124.063,317.078,99.757,341.522,69.632,341.586z"/>
	<path fill-rule="evenodd" clip-rule="evenodd" d="M449.96,287.748c0.018,30.398-23.678,53.985-54.1,53.847
		c-30.165-0.137-54.302-24.554-53.829-54.457c0.463-29.291,24.494-53.209,53.737-53.482
		C425.718,233.376,449.942,257.556,449.96,287.748z"/>
	<path fill-rule="evenodd" clip-rule="evenodd" d="M449.958,450.484c-0.264,30.294-24.229,53.601-54.739,53.224
		c-29.483-0.363-53.081-24.17-53.198-53.674c-0.117-29.563,24.879-54.552,54.378-54.362
		C426.366,395.863,450.22,420.274,449.958,450.484z"/>
	<path fill-rule="evenodd" clip-rule="evenodd" d="M559.184,341.601c-30.407,0.019-54.022-23.716-53.85-54.121
		c0.17-30.16,24.613-54.301,54.497-53.822c29.36,0.473,53.134,24.416,53.376,53.762
		C613.455,317.521,589.462,341.586,559.184,341.601z"/>
</g>
</svg>
